<svg width="64" height="64" viewBox="0 0 64 64" fill="none" xmlns="http://www.w3.org/2000/svg">
<g clip-path="url(#clip0_98_73)">
<g opacity="0.12" filter="url(#filter0_f_98_73)">
<rect x="4" y="5" width="56" height="56" rx="16" fill="#666569"/>
</g>
<rect x="4" y="4" width="56" height="56" rx="16" fill="#FFFAFA"/>
<path d="M22.2058 16.005L24.9584 16.8308L23.9975 19.173H32.4054V21.7954H27.5859C28.3199 22.8064 29.0539 23.9091 29.7879 25.1035L26.8902 26.7601C26.1562 25.0118 25.282 23.3569 24.2678 21.7954H22.6162L21.0948 24.4129C20.5443 25.1469 19.8102 26.0211 18.8927 27.0353L16.4054 25.1035C19.0745 22.4377 21.0064 19.4032 22.2008 16L22.2058 16.005ZM36.5493 16.005L39.1717 16.8308C38.8915 17.6582 38.5678 18.439 38.2008 19.173H48V21.7954H42.2046C42.8485 22.713 43.4457 23.6322 43.9962 24.553L41.5139 26.0694C40.7799 24.6014 39.9525 23.1767 39.0316 21.7954H36.9647C35.6768 24.0008 34.4807 25.6557 33.3763 26.7601L30.889 24.9684C33.468 22.3927 35.3531 19.4032 36.5443 16L36.5493 16.005ZM24.1376 26.0694L26.62 27.3106C25.7925 28.9655 24.8717 30.6204 23.8574 32.2753V48H21.1048V36.0038C20.0004 37.3817 18.8493 38.6229 17.6515 39.7272L16 37.2449C19.0328 34.5757 21.7454 30.8506 24.1376 26.0694ZM27.3106 30.3485H40.2728V26.8952H43.0253V30.3485H47.8599V32.9659H43.0353V44.2765C43.0353 45.6578 42.7584 46.577 42.2046 47.0341C41.7475 47.5879 40.8299 47.8649 39.452 47.8649C37.7971 47.8649 36.234 47.7264 34.7626 47.4495L34.2121 44.6919C35.7735 45.0589 37.3817 45.2424 39.0366 45.2424C39.864 45.2424 40.2778 44.6919 40.2778 43.5909V32.9659H27.3106V30.3485ZM32.2753 34.2071C33.9268 36.1389 35.3048 38.2542 36.4091 40.553L33.6465 42.2046C32.7324 40.0025 31.4011 37.8889 29.6528 35.8636L32.2753 34.2071Z" fill="#B1CFEF"/>
<path d="M48.001 60.002C54.6289 60.002 60.0019 54.6289 60.0019 48.0009C60.0019 41.373 54.6289 36 48.001 36C41.373 36 36 41.373 36 48.0009C36 54.6289 41.373 60.002 48.001 60.002Z" fill="#86B6EB"/>
<path d="M50.02 50.0373C49.4432 51.0339 48.5779 51.5322 47.4242 51.5322C46.5568 51.5322 45.8586 51.2606 45.3295 50.7173C44.8004 50.1291 44.5358 49.3142 44.5358 48.2726C44.5358 47.0942 44.8719 46.166 45.5442 45.4879C46.2684 44.7609 47.2074 44.3974 48.3611 44.3974C49.3716 44.3974 50.3095 44.5342 51.1747 44.8078L50.9569 48.34V48.9497C50.9569 49.4481 51.0295 49.834 51.1747 50.1076C51.3656 50.3343 51.6541 50.4477 52.04 50.4477C52.4737 50.4477 52.8596 50.175 53.1979 49.6298C53.5299 49.0865 53.6959 48.2716 53.6959 47.1851C53.6959 45.6432 53.2165 44.4189 52.2579 43.5121C51.3428 42.6073 50.1155 42.1549 48.5758 42.1549C46.6523 42.1549 45.1137 42.7217 43.96 43.8551C42.854 44.9886 42.301 46.5285 42.301 48.4749C42.301 50.1965 42.7814 51.5332 43.7421 52.4849C44.7049 53.3917 46.0526 53.8451 47.7852 53.8451C49.0821 53.8451 50.38 53.5959 51.679 53.0976V54.2525C50.573 54.7508 49.2751 55 47.7852 55C45.6667 55 44.0067 54.4333 42.8052 53.2998C41.6017 52.1664 41 50.5805 41 48.5423C41 46.3243 41.6972 44.5127 43.0916 43.1076C44.5358 41.7025 46.3639 41 48.5758 41C50.4993 41 52.039 41.5667 53.1948 42.7002C54.3983 43.8317 55 45.3491 55 47.2525C55 48.5657 54.6867 49.6073 54.06 50.3773C53.4832 51.1473 52.7621 51.5322 51.8968 51.5322C50.8863 51.5322 50.2607 51.0339 50.02 50.0373ZM49.659 45.6901C49.2253 45.5533 48.7927 45.4849 48.3611 45.4849C47.639 45.4849 47.0621 45.7341 46.6305 46.2324C46.1948 46.7307 45.9769 47.4333 45.9769 48.34C45.9769 49.0201 46.0972 49.5409 46.3379 49.9024C46.6284 50.264 47.0621 50.4447 47.639 50.4447C48.7926 50.4447 49.4421 49.5614 49.5874 47.7948L49.659 45.6901Z" fill="#FFFAFA"/>
</g>
<defs>
<filter id="filter0_f_98_73" x="0" y="1" width="64" height="64" filterUnits="userSpaceOnUse" color-interpolation-filters="sRGB">
<feFlood flood-opacity="0" result="BackgroundImageFix"/>
<feBlend mode="normal" in="SourceGraphic" in2="BackgroundImageFix" result="shape"/>
<feGaussianBlur stdDeviation="2" result="effect1_foregroundBlur_98_73"/>
</filter>
<clipPath id="clip0_98_73">
<rect width="64" height="64" fill="white"/>
</clipPath>
</defs>
</svg>
