<svg width="64" height="64" viewBox="0 0 64 64" fill="none" xmlns="http://www.w3.org/2000/svg">
<g clip-path="url(#clip0_129_2)">
<g opacity="0.16" filter="url(#filter0_f_129_2)">
<rect x="4" y="5" width="56" height="56" rx="16" fill="#666569"/>
</g>
<rect x="4" y="4" width="56" height="56" rx="16" fill="#FFFAFA"/>
<path d="M32.0019 13.9996C29.6374 13.9981 27.2958 14.4628 25.111 15.3669C22.9262 16.2711 20.941 17.5971 19.269 19.269C17.5971 20.941 16.2711 22.9262 15.3669 25.111C14.4628 27.2958 13.9981 29.6374 13.9996 32.0019C14.0025 35.0857 14.7979 38.117 16.3096 40.8048C17.8213 43.4926 19.9985 45.7468 22.6322 47.3508L22.7116 47.3962C23.1884 47.6848 23.6777 47.9521 24.1781 48.1975L24.4049 48.2957C24.8679 48.5126 25.3394 48.7105 25.8185 48.8891L26.1586 49.0025C26.5956 49.1561 27.0381 49.2935 27.4853 49.4145L28.0333 49.5355C28.4263 49.6275 28.8221 49.7069 29.2201 49.7736L29.8891 49.8529C30.2708 49.9024 30.654 49.9402 31.0381 49.9663C31.359 49.9871 31.6803 49.9997 32.0019 50.0041C34.509 50.0002 36.9875 49.4723 39.2786 48.4543C41.5697 47.4363 43.6228 45.9507 45.3061 44.0928L45.4762 43.9114L45.4724 43.9038C48.3831 40.6202 49.9934 36.3861 50.0003 31.9981C50.0013 29.6342 49.5365 27.2933 48.6323 25.1092C47.7282 22.9251 46.4024 20.9406 44.7309 19.269C43.0594 17.5975 41.0749 16.2718 38.8908 15.3677C36.7066 14.4635 34.3658 13.9986 32.0019 13.9996ZM32.0019 16.0028C36.2444 16.0028 40.3133 17.6879 43.3136 20.6875C46.3139 23.6871 47.9999 27.7555 48.0009 31.9981C47.9997 35.7557 46.6749 39.3929 44.2591 42.2711C41.5076 39.0357 37.3273 36.9947 31.9981 36.9947C26.6802 36.9947 22.5 39.0282 19.7446 42.2597C17.3305 39.3835 16.0059 35.7494 16.0028 31.9943C16.0028 27.7518 17.6879 23.6829 20.6875 20.6826C23.6871 17.6823 27.7555 15.9963 31.9981 15.9953L32.0019 16.0028ZM32.0019 20.9995C31.2139 20.9989 30.4335 21.1667 29.7053 21.4931C28.9771 21.8196 28.3154 22.2984 27.7581 22.9021C27.2007 23.5058 26.7585 24.2226 26.4568 25.0116C26.1551 25.8006 25.9999 26.6463 25.9999 27.5004C25.9999 28.3544 26.1551 29.2001 26.4568 29.9891C26.7585 30.7781 27.2007 31.4949 27.7581 32.0987C28.3154 32.7024 28.9771 33.1812 29.7053 33.5076C30.4335 33.8341 31.2139 34.0018 32.0019 34.0013C33.5927 34.0013 35.1184 33.3164 36.2433 32.0972C37.3682 30.8781 38.0001 29.2245 38.0001 27.5004C38.0001 25.7762 37.3682 24.1227 36.2433 22.9035C35.1184 21.6844 33.5927 20.9995 32.0019 20.9995Z" fill="#86B6EB"/>
</g>
<defs>
<filter id="filter0_f_129_2" x="0" y="1" width="64" height="64" filterUnits="userSpaceOnUse" color-interpolation-filters="sRGB">
<feFlood flood-opacity="0" result="BackgroundImageFix"/>
<feBlend mode="normal" in="SourceGraphic" in2="BackgroundImageFix" result="shape"/>
<feGaussianBlur stdDeviation="2" result="effect1_foregroundBlur_129_2"/>
</filter>
<clipPath id="clip0_129_2">
<rect width="64" height="64" fill="white"/>
</clipPath>
</defs>
</svg>
