<svg width="64" height="64" viewBox="0 0 64 64" fill="none" xmlns="http://www.w3.org/2000/svg">
<g clip-path="url(#clip0_23_438)">
<g opacity="0.16" filter="url(#filter0_f_23_438)">
<rect x="4" y="5" width="56" height="56" rx="16" fill="#666569"/>
</g>
<rect x="4" y="4" width="56" height="56" rx="16" fill="#FFFAFA"/>
<path d="M42.0378 29.625C41.8615 29.2647 42.0125 28.8332 42.3723 28.6569C42.7321 28.4805 43.1641 28.6315 43.3405 28.9914C43.5168 29.3512 43.3658 29.7832 43.0059 29.9595C42.6461 30.1359 42.2141 29.9849 42.0378 29.625ZM45.5391 36.8217C45.3628 36.4619 45.5138 36.0299 45.8736 35.8536C46.2335 35.6772 46.6654 35.8287 46.8418 36.1885C47.0181 36.5484 46.8671 36.9799 46.5073 37.1562C46.1474 37.3326 45.7154 37.1815 45.5391 36.8217ZM45.845 27.4837C43.5421 25.8394 40.5373 25.4145 37.7556 26.4907L45.359 42.1256C47.9213 40.6036 49.4399 37.9734 49.5694 35.1482L52.4553 35.3537C52.4948 35.3565 52.5345 35.3514 52.572 35.3388C52.6096 35.3262 52.6443 35.3062 52.674 35.2801C52.7038 35.2539 52.7281 35.2221 52.7455 35.1866C52.7629 35.151 52.7731 35.1123 52.7755 35.0727C52.7783 35.0332 52.7733 34.9935 52.7607 34.956C52.7482 34.9185 52.7282 34.8838 52.7021 34.854C52.676 34.8242 52.6443 34.7999 52.6087 34.7825C52.5732 34.7651 52.5345 34.7549 52.495 34.7525L49.5728 34.5437C49.5441 33.3132 49.2493 32.0574 48.6625 30.8484C48.0761 29.6427 47.27 28.6354 46.32 27.8507L47.9609 25.4217C48.0041 25.3558 48.0197 25.2757 48.0043 25.1984C47.989 25.1212 47.9439 25.0531 47.8788 25.0088C47.8137 24.9644 47.7339 24.9474 47.6564 24.9614C47.5789 24.9753 47.51 25.0191 47.4644 25.0834L45.845 27.4804" fill="#94E0B1"/>
<path d="M38.8351 33.3706C36.6905 34.407 34.3838 34.9322 31.9801 34.9322C29.361 34.9342 26.7826 34.2839 24.4776 33.0401C22.1727 31.7962 20.2138 29.998 18.7776 27.8077C18.5511 27.4622 18.0833 27.3795 17.7488 27.6242L14.9886 29.6571C14.6756 29.8874 14.6034 30.3265 14.8228 30.6505C16.711 33.4675 19.2643 35.7757 22.2568 37.371C25.2494 38.9664 28.5889 39.7998 31.9801 39.7974C35.1216 39.7974 38.1408 39.1102 40.9511 37.7536L38.8351 33.3706ZM30.462 16.0732H33.4486V12.7735C33.4486 11.9492 32.7791 11.2802 31.9553 11.2802C31.131 11.2802 30.462 11.9492 30.462 12.7735V16.0732Z" fill="#86B6EB"/>
<path d="M28.0688 22.5144L17.8023 43.6442C17.5804 44.0999 17.4601 44.5983 17.4497 45.1051L17.3885 47.8724C17.3742 48.5887 18.2018 48.9916 18.7561 48.5381L20.8936 46.7819C21.2859 46.4606 21.6039 46.0581 21.8255 45.602L31.9443 24.7704L28.0722 22.5177L28.0688 22.5144ZM46.4638 45.1017C46.4533 44.5942 46.331 44.0977 46.1112 43.6409L35.8452 22.5105L31.973 24.7704L42.0918 45.5944C42.3144 46.05 42.6321 46.4525 43.0237 46.7747L45.1612 48.5309C45.7155 48.9844 46.5465 48.5811 46.5288 47.8652L46.4677 45.0979L46.4638 45.1017Z" fill="#86B6EB"/>
<path d="M31.9549 15.8104C29.4829 15.8104 27.4749 17.8222 27.4749 20.2904C27.4749 22.759 29.4867 24.7704 31.9549 24.7704C34.4235 24.7704 36.4349 22.759 36.4349 20.2904C36.4349 17.8222 34.4235 15.8104 31.9549 15.8104ZM31.9549 22.7552C30.5987 22.7552 29.49 21.6509 29.49 20.2904C29.49 18.9304 30.5948 17.8255 31.9549 17.8255C33.3153 17.8255 34.4202 18.9304 34.4202 20.2904C34.4202 21.6509 33.3153 22.7552 31.9549 22.7552Z" fill="#666569"/>
</g>
<defs>
<filter id="filter0_f_23_438" x="0" y="1" width="64" height="64" filterUnits="userSpaceOnUse" color-interpolation-filters="sRGB">
<feFlood flood-opacity="0" result="BackgroundImageFix"/>
<feBlend mode="normal" in="SourceGraphic" in2="BackgroundImageFix" result="shape"/>
<feGaussianBlur stdDeviation="2" result="effect1_foregroundBlur_23_438"/>
</filter>
<clipPath id="clip0_23_438">
<rect width="64" height="64" fill="white"/>
</clipPath>
</defs>
</svg>
