<svg width="64" height="64" viewBox="0 0 64 64" fill="none" xmlns="http://www.w3.org/2000/svg">
<g clip-path="url(#clip0_23_473)">
<g opacity="0.16" filter="url(#filter0_f_23_473)">
<rect x="4" y="5" width="56" height="56" rx="16" fill="#666569"/>
</g>
<rect x="4" y="4" width="56" height="56" rx="16" fill="#86B6EB"/>
<path d="M22.7631 23.0044C21.6115 23.003 20.4714 23.2334 19.4108 23.6817C18.3502 24.1301 17.3907 24.7872 16.5895 25.6141C14.9166 27.3165 13.9857 29.6116 14.0002 31.9979C14.0001 34.3802 14.9289 36.6688 16.5895 38.3776C17.3829 39.1948 18.3308 39.8463 19.3782 40.2943C20.4256 40.7423 21.5516 40.9779 22.6908 40.9873H22.7673C23.9657 41.0495 25.1637 40.8582 26.2832 40.4261C27.4027 39.994 28.4184 39.3308 29.264 38.4797C30.3567 37.4086 31.2198 36.1505 32.0021 34.8669C32.76 36.1798 33.6784 37.3934 34.736 38.4797C36.3389 40.0395 38.5201 41.1148 41.237 40.9873H41.3135C42.433 40.9786 43.5398 40.7489 44.5703 40.3115C45.6333 39.8653 46.5984 39.2064 47.4148 38.3776L47.419 38.3692C49.0865 36.669 50.0141 34.3788 49.9998 31.9979C49.9998 30.8078 49.7702 29.6305 49.3281 28.5382L49.3196 28.517C48.8771 27.4337 48.2288 26.4464 47.4105 25.6098C46.6082 24.7832 45.6479 24.1263 44.5867 23.6779C43.5254 23.2296 42.3848 22.9991 41.2327 23.0001C38.3798 23.0001 36.1221 24.1775 34.4554 25.8096C33.5207 26.7562 32.6963 27.8056 31.9979 28.9377C31.3006 27.8059 30.4777 26.7566 29.5446 25.8096C28.6576 24.9144 27.6011 24.2049 26.4367 23.7226C25.2723 23.2402 24.0235 22.9945 22.7631 23.0001V23.0044ZM22.7333 25.5758C25.0165 25.5758 26.4748 26.3919 27.8056 27.7435C28.8686 28.8146 29.7955 30.2724 30.7138 31.8663C29.6637 33.7194 28.6475 35.4152 27.508 36.567C26.2495 37.8336 24.9485 38.5348 22.8183 38.4116H22.7333C21.9255 38.4116 21.1049 38.2415 20.3566 37.9143C19.6134 37.5877 18.9417 37.1184 18.3795 36.533L18.354 36.5117C17.1973 35.2932 16.5586 33.6736 16.5725 31.9938C16.5609 30.3148 17.201 28.6968 18.3582 27.4799L18.3795 27.4544C18.9391 26.8604 19.6145 26.3874 20.364 26.0643C21.1135 25.7412 21.9171 25.575 22.7333 25.5758ZM41.2667 25.5758C42.0827 25.5767 42.8899 25.7437 43.6392 26.0666C44.3885 26.3896 45.0641 26.8618 45.6248 27.4544L45.646 27.4842C46.8037 28.7008 47.4438 30.3189 47.4318 31.9979C47.4401 33.6775 46.8005 35.2957 45.646 36.516L45.6205 36.533C45.0606 37.1266 44.3851 37.5994 43.6357 37.9225C42.8862 38.2455 42.0786 38.412 41.2625 38.4116H41.1817C39.0558 38.5391 37.7505 37.8379 36.492 36.5713C35.3525 35.4237 34.3363 33.7236 33.2862 31.8663C34.2088 30.2767 35.1357 28.8188 36.1944 27.7435C37.5294 26.3962 38.9878 25.5758 41.2667 25.5758ZM39.7148 28.1473V30.7143H37.1425V33.2858H39.7148V35.8572H42.2871V33.2858H44.8552V30.7143H42.2871V28.1473H39.7148ZM19.1448 30.7143V33.2858H26.8575V30.7143H19.1448Z" fill="#FFFAFA"/>
</g>
<defs>
<filter id="filter0_f_23_473" x="0" y="1" width="64" height="64" filterUnits="userSpaceOnUse" color-interpolation-filters="sRGB">
<feFlood flood-opacity="0" result="BackgroundImageFix"/>
<feBlend mode="normal" in="SourceGraphic" in2="BackgroundImageFix" result="shape"/>
<feGaussianBlur stdDeviation="2" result="effect1_foregroundBlur_23_473"/>
</filter>
<clipPath id="clip0_23_473">
<rect width="64" height="64" fill="white"/>
</clipPath>
</defs>
</svg>
