<svg width="64" height="64" viewBox="0 0 64 64" fill="none" xmlns="http://www.w3.org/2000/svg">
<g clip-path="url(#clip0_68_255)">
<g opacity="0.16" filter="url(#filter0_f_68_255)">
<rect x="4" y="5" width="56" height="56" rx="16" fill="#666569"/>
</g>
<rect x="4" y="4" width="56" height="56" rx="16" fill="#FFFAFA"/>
<path d="M29.7704 13.2526C29.4442 13.2521 29.1211 13.3162 28.8198 13.4412C28.5184 13.5662 28.2447 13.7497 28.0145 13.9811C27.7834 14.2114 27.6 14.4852 27.4749 14.7867C27.3497 15.0883 27.2853 15.4116 27.2853 15.7381C27.2853 16.0646 27.3497 16.3879 27.4749 16.6894C27.6 16.9909 27.7834 17.2647 28.0145 17.4951L34.9098 24.3998H16.9323C16.6061 24.3992 16.283 24.463 15.9815 24.5878C15.68 24.7125 15.4062 24.8957 15.1757 25.1268C14.9451 25.3579 14.7625 25.6323 14.6382 25.9344C14.5139 26.2364 14.4505 26.56 14.4515 26.8866C14.4508 27.2133 14.5146 27.5368 14.6392 27.8387C14.7638 28.1406 14.9467 28.4148 15.1775 28.6456C15.4083 28.8765 15.6823 29.0594 15.9839 29.1838C16.2855 29.3083 16.6087 29.3718 16.9349 29.3708C19.5177 29.3629 23.1839 29.3629 26.6956 29.3629L13.9779 42.0981C13.7472 42.3284 13.5641 42.602 13.4392 42.9033C13.3143 43.2046 13.25 43.5276 13.25 43.8538C13.25 44.18 13.3143 44.503 13.4392 44.8043C13.5641 45.1055 13.7472 45.3792 13.9779 45.6094C14.2079 45.8405 14.4811 46.0238 14.782 46.1489C15.0828 46.2739 15.4054 46.3383 15.7312 46.3383C16.0569 46.3383 16.3795 46.2739 16.6803 46.1489C16.9812 46.0238 17.2544 45.8405 17.4844 45.6094C19.3528 43.7306 22.0272 41.0526 24.5629 38.5134C24.9704 41.4856 26.438 44.2099 28.6948 46.1831C30.9515 48.1564 33.845 49.2454 36.841 49.2492C40.1319 49.2485 43.2878 47.9391 45.6147 45.6089C47.9417 43.2788 49.2493 40.1186 49.25 36.8232C49.2483 35.0508 48.8679 33.2993 48.1345 31.6863C47.4011 30.0732 46.3315 28.636 44.9977 27.471C40.4994 22.9813 36.0081 18.4846 31.5237 13.9811C31.294 13.7495 31.0208 13.5657 30.7199 13.4403C30.419 13.3148 30.0963 13.2501 29.7704 13.25V13.2526ZM36.9876 33.8674C37.7559 33.8674 38.4927 34.173 39.0359 34.717C39.5792 35.261 39.8844 35.9988 39.8844 36.7682C39.8844 37.5375 39.5792 38.2753 39.0359 38.8194C38.4927 39.3634 37.7559 39.669 36.9876 39.669C36.2193 39.669 35.4825 39.3634 34.9392 38.8194C34.396 38.2753 34.0908 37.5375 34.0908 36.7682C34.0908 35.9988 34.396 35.261 34.9392 34.717C35.4825 34.173 36.2193 33.8674 36.9876 33.8674Z" fill="#FC9F7E"/>
<path d="M36.9771 27.2325C34.4488 27.2325 32.024 28.2382 30.2362 30.0285C28.4484 31.8187 27.444 34.2468 27.444 36.7786C27.444 39.3104 28.4484 41.7385 30.2362 43.5288C32.024 45.319 34.4488 46.3248 36.9771 46.3248C39.505 46.3241 41.9291 45.318 43.7163 43.5279C45.5035 41.7377 46.5076 39.31 46.5076 36.7786C46.5076 34.2473 45.5035 31.8196 43.7163 30.0294C41.9291 28.2392 39.505 27.2332 36.9771 27.2325ZM36.9771 33.0446C37.4668 33.0446 37.9517 33.1411 38.4041 33.3288C38.8565 33.5164 39.2676 33.7915 39.6139 34.1382C39.9602 34.485 40.2348 34.8966 40.4222 35.3497C40.6096 35.8027 40.7061 36.2883 40.7061 36.7786C40.7061 37.269 40.6096 37.7546 40.4222 38.2076C40.2348 38.6606 39.9602 39.0723 39.6139 39.419C39.2676 39.7658 38.8565 40.0408 38.4041 40.2285C37.9517 40.4161 37.4668 40.5127 36.9771 40.5127C36.4874 40.5127 36.0025 40.4161 35.5501 40.2285C35.0977 40.0408 34.6866 39.7658 34.3403 39.419C33.9941 39.0723 33.7194 38.6606 33.532 38.2076C33.3446 37.7546 33.2481 37.269 33.2481 36.7786C33.2481 36.2883 33.3446 35.8027 33.532 35.3497C33.7194 34.8966 33.9941 34.485 34.3403 34.1382C34.6866 33.7915 35.0977 33.5164 35.5501 33.3288C36.0025 33.1411 36.4874 33.0446 36.9771 33.0446Z" fill="#FAC19F"/>
<path d="M36.9771 29.3157C35.0031 29.3157 33.1098 30.1008 31.7137 31.4983C30.3176 32.8958 29.533 34.7914 29.5323 36.7681C29.5319 37.7474 29.7242 38.7171 30.0982 39.6219C30.4722 40.5266 31.0205 41.3488 31.7119 42.0413C32.4032 42.7339 33.2241 43.2833 34.1275 43.6581C35.0309 44.0329 35.9992 44.2258 36.9771 44.2258C37.955 44.2258 38.9233 44.0329 39.8267 43.6581C40.7302 43.2833 41.551 42.7339 42.2423 42.0413C42.9337 41.3488 43.482 40.5266 43.856 39.6219C44.23 38.7171 44.4223 37.7474 44.422 36.7681C44.4213 34.7914 43.6366 32.8958 42.2405 31.4983C40.8444 30.1008 38.9512 29.3157 36.9771 29.3157ZM36.9771 33.8542C37.7491 33.8542 38.4895 34.1611 39.0357 34.7075C39.5818 35.2539 39.8889 35.9951 39.8896 36.7681C39.8896 37.5416 39.5828 38.2835 39.0366 38.8304C38.4904 39.3774 37.7496 39.6846 36.9771 39.6846C36.2047 39.6846 35.4639 39.3774 34.9176 38.8304C34.3714 38.2835 34.0646 37.5416 34.0646 36.7681C34.0653 35.9951 34.3724 35.2539 34.9186 34.7075C35.4647 34.1611 36.2051 33.8542 36.9771 33.8542Z" fill="#FFFAFA"/>
<path d="M36.9771 40.594C39.0814 40.594 40.7872 38.8858 40.7872 36.7786C40.7872 34.6715 39.0814 32.9633 36.9771 32.9633C34.8729 32.9633 33.167 34.6715 33.167 36.7786C33.167 38.8858 34.8729 40.594 36.9771 40.594Z" fill="#86B6EB"/>
</g>
<defs>
<filter id="filter0_f_68_255" x="0" y="1" width="64" height="64" filterUnits="userSpaceOnUse" color-interpolation-filters="sRGB">
<feFlood flood-opacity="0" result="BackgroundImageFix"/>
<feBlend mode="normal" in="SourceGraphic" in2="BackgroundImageFix" result="shape"/>
<feGaussianBlur stdDeviation="2" result="effect1_foregroundBlur_68_255"/>
</filter>
<clipPath id="clip0_68_255">
<rect width="64" height="64" fill="white"/>
</clipPath>
</defs>
</svg>
