<svg width="64" height="64" viewBox="0 0 64 64" fill="none" xmlns="http://www.w3.org/2000/svg">
<g clip-path="url(#clip0_18_230)">
<g opacity="0.16" filter="url(#filter0_f_18_230)">
<rect x="4" y="5" width="56" height="56" rx="16" fill="#666569"/>
</g>
<rect x="4" y="4" width="56" height="56" rx="16" fill="#F86974"/>
<path d="M25.8462 12C25.0769 12 22.3846 15.0769 22 15.0769H20.0769C19.3077 15.0769 16.6154 17.7703 16.6154 18.5395V20.8472C16.6154 21.2318 13.5549 23.9241 13.5385 24.6933C13.5221 25.4626 18.9231 43.5385 19.6923 44.3077C20.4616 45.0769 28.9231 52 31.2308 52H32.7692C35.0769 52 43.5385 45.0769 44.3077 44.3077C45.0769 43.5385 50.4769 25.4615 50.4616 24.6923C50.4441 23.9272 47.3846 21.2308 47.3846 20.8462V18.5385C47.3846 17.7692 44.6923 15.0769 43.9231 15.0769H42C41.6154 15.0769 38.9231 12 38.1539 12H25.8462Z" fill="#FFDB6A"/>
<path d="M32 17.3733C31.2339 17.3733 30.4708 17.6359 29.6923 18.1549C27.3846 19.6933 24.3077 17.3856 23.5385 17.3856C22.7692 17.3856 18.1539 22.9897 18.1539 25.078C18.1539 26.6164 23.9231 30.1549 23.9231 31.2318C23.9231 32.001 22.7692 32.3703 22.7692 34.0021C22.7692 35.0779 24.3077 37.001 25.8462 37.001C27.3846 37.001 31.2339 33.9805 31.2308 33.2328V32.7703C31.2308 31.8472 27.7692 30.6841 27.7692 28.9241C27.7692 27.3856 28.9231 26.8164 28.9231 25.078C28.9231 23.5826 25.8462 23.1549 23.5385 22.7703C22.7692 22.7703 25.8462 20.239 30.0769 22.9744C31.1477 23.6667 28.9231 26.4041 29.3077 28.9231C29.8851 29.4626 30.9436 29.7313 32 29.7313C33.0585 29.7313 34.1159 29.4626 34.6923 28.9241C35.0769 26.4041 32.8523 23.6667 33.9231 22.9744C38.1539 20.239 41.2308 22.7692 40.4615 22.7692C38.1539 23.1549 35.0769 23.5826 35.0769 25.0769C35.0769 26.8164 36.2308 27.3846 36.2308 28.9231C36.2308 30.6841 32.7692 31.8462 32.7692 32.7692V33.2328C32.7662 33.9805 36.6154 37.001 38.1539 37.001C39.6923 37.001 41.2308 35.0779 41.2308 34.0021C41.2308 32.3713 40.0769 32.001 40.0769 31.2318C40.0769 30.1549 45.8462 26.6164 45.8462 25.078C45.8462 22.9897 41.2308 17.3856 40.4615 17.3856C39.6923 17.3856 36.6154 19.6933 34.3077 18.1549C33.5292 17.6359 32.7692 17.3733 32 17.3733ZM32 35.6923C30.4615 35.6923 27 38.0769 27 38.5385C27 39 30.4615 42.7692 32 42.7692C33.5385 42.7692 37 39 37 38.5385C37 38.0769 33.5385 35.6923 32 35.6923Z" fill="#FFFAFA"/>
</g>
<defs>
<filter id="filter0_f_18_230" x="0" y="1" width="64" height="64" filterUnits="userSpaceOnUse" color-interpolation-filters="sRGB">
<feFlood flood-opacity="0" result="BackgroundImageFix"/>
<feBlend mode="normal" in="SourceGraphic" in2="BackgroundImageFix" result="shape"/>
<feGaussianBlur stdDeviation="2" result="effect1_foregroundBlur_18_230"/>
</filter>
<clipPath id="clip0_18_230">
<rect width="64" height="64" fill="white"/>
</clipPath>
</defs>
</svg>
