<svg width="64" height="64" viewBox="0 0 64 64" fill="none" xmlns="http://www.w3.org/2000/svg">
<g clip-path="url(#clip0_98_31)">
<g opacity="0.16" filter="url(#filter0_f_98_31)">
<rect x="4" y="5" width="56" height="56" rx="16" fill="#666569"/>
</g>
<rect x="4" y="4" width="56" height="56" rx="16" fill="#FFFAFA"/>
<path d="M32 4H34.4C43.3608 4 47.8413 4 51.2638 5.7439C54.2744 7.27787 56.7221 9.72556 58.2561 12.7362C60 16.1587 60 20.6392 60 29.6V34.4C60 43.3608 60 47.8413 58.2561 51.2638C56.7221 54.2744 54.2744 56.7221 51.2638 58.2561C47.8413 60 43.3608 60 34.4 60H32V4Z" fill="#F86974"/>
<path d="M4 32H32V60H29.6C20.6392 60 16.1587 60 12.7362 58.2561C9.72556 56.7221 7.27787 54.2744 5.7439 51.2638C4 47.8413 4 43.3608 4 34.4V32Z" fill="#D7E9F6"/>
<path d="M25.5387 17.9725H12.6163V20.1256H25.5387V17.9725Z" fill="#666569"/>
<path d="M20.1541 25.5224V12.6H18.001V25.5224H20.1541Z" fill="#666569"/>
<path d="M52.4622 27.6918H39.5398V29.8448H52.4622V27.6918Z" fill="#FFFAFA"/>
<path d="M52.4622 34.155H39.5398V36.3081H52.4622V34.155Z" fill="#FFFAFA"/>
<path d="M25.5387 44.9163H12.6163V47.0694H25.5387V44.9163Z" fill="#666569"/>
</g>
<defs>
<filter id="filter0_f_98_31" x="0" y="1" width="64" height="64" filterUnits="userSpaceOnUse" color-interpolation-filters="sRGB">
<feFlood flood-opacity="0" result="BackgroundImageFix"/>
<feBlend mode="normal" in="SourceGraphic" in2="BackgroundImageFix" result="shape"/>
<feGaussianBlur stdDeviation="2" result="effect1_foregroundBlur_98_31"/>
</filter>
<clipPath id="clip0_98_31">
<rect width="64" height="64" fill="white"/>
</clipPath>
</defs>
</svg>
