<svg width="64" height="64" viewBox="0 0 64 64" fill="none" xmlns="http://www.w3.org/2000/svg">
<g clip-path="url(#clip0_21_315)">
<g opacity="0.16" filter="url(#filter0_f_21_315)">
<rect x="4" y="5" width="56" height="56" rx="16" fill="#666569"/>
</g>
<rect x="4" y="4" width="56" height="56" rx="16" fill="#FFFAFA"/>
<path d="M28.7274 18.1546C28.7274 18.1546 26.8081 22.865 26.8081 23.1789V49.9989H37.1919V23.1789L35.4616 18.1546H28.7274Z" fill="#D7E9F6"/>
<path d="M28.5384 18.1546C28.5384 18.1546 26.8081 22.865 26.8081 23.1778H37.1919C37.1919 23.009 35.4616 18.1546 35.4616 18.1546H28.5384Z" fill="#666569"/>
<path d="M14 26.4256C14.1721 26.4301 26.8081 26.4256 26.8081 26.4256C26.8081 21.9886 22.7086 18.1546 22.6546 15.3849H18.1546C18.1546 18.1546 13.9989 21.9886 14 26.4256Z" fill="#666569"/>
<path d="M28.5384 16.403V18.1546H35.4616V16.403H28.5384Z" fill="#86B6EB"/>
<path d="M32 29.2437C29.4035 29.2437 29.4035 32.5175 29.4035 32.5175H26.8081V37.5249H37.1919V32.5175H34.5965C34.5965 32.5175 34.5965 29.2437 32 29.2437ZM32 29.9356C32 29.9356 33.8878 32.2385 33.197 33.377C32.5063 34.5155 31.4926 34.5155 30.8019 33.377C30.1111 32.2385 32 29.9356 32 29.9356Z" fill="#86B6EB"/>
<path d="M17.2558 18.1546L17.2524 18.158C16.0295 20.5138 13.9989 23.3218 14.0011 26.4234V47.2303C14.0019 47.4181 14.0188 47.6056 14.0518 47.7905C14.0838 47.9684 14.1339 48.1426 14.2014 48.3103C14.3284 48.6353 14.5145 48.934 14.7504 49.1911C14.9256 49.3759 15.125 49.5359 15.3433 49.667C15.4164 49.7098 15.4918 49.748 15.5683 49.784C15.6459 49.8178 15.7246 49.8481 15.8045 49.8751L15.9271 49.9134C16.0514 49.949 16.1787 49.9731 16.3074 49.9854C16.3948 49.9956 16.4827 50.0005 16.5706 50H26.8081V26.4234C26.8081 23.3206 24.8034 20.5138 23.5794 18.158L23.576 18.1546H17.2558Z" fill="#FC9F7E"/>
<path d="M39.9616 22.6355C38.489 23.3555 37.193 24.9586 37.193 26.6259V50H47.1628C48.7355 49.9933 50 48.6973 50 47.0885V26.6247C50 24.9541 48.7085 23.3532 47.2303 22.6355H39.9616Z" fill="#F86974"/>
<path d="M18.1546 14H22.6546V15.3849H18.1546V14Z" fill="#B3EFCA"/>
<path d="M39.9616 21.9425H47.2314V22.6468H39.9616V21.9425Z" fill="#D9C7F3"/>
<path d="M39.9616 19.5384H47.2314V21.9425H39.9616V19.5384Z" fill="#666569"/>
<path d="M45.8465 44.285H50V45.8465H45.8465V44.285Z" fill="#666569"/>
<path d="M20.4046 28.5384C19.4865 28.5384 18.6061 28.9031 17.9569 29.5523C17.3077 30.2015 16.943 31.0819 16.943 32C16.943 32.9181 17.3077 33.7986 17.9569 34.4478C18.6061 35.0969 19.4865 35.4616 20.4046 35.4616C21.3227 35.4616 22.2032 35.0969 22.8524 34.4478C23.5015 33.7986 23.8662 32.9181 23.8662 32C23.8662 31.0819 23.5015 30.2015 22.8524 29.5523C22.2032 28.9031 21.3227 28.5384 20.4046 28.5384Z" fill="#B3EFCA"/>
<path d="M14 37.52V47.1759C14.0011 47.3675 14.0184 47.5586 14.0517 47.7471C14.0838 47.9285 14.1339 48.1061 14.2014 48.2771C14.3285 48.6084 14.5146 48.9129 14.7504 49.1752C14.9251 49.3635 15.1242 49.5267 15.3421 49.6604C15.4152 49.7028 15.4917 49.743 15.5682 49.7797C15.7242 49.8487 15.8862 49.9028 16.0519 49.9414C16.1357 49.9612 16.2206 49.9758 16.3062 49.985C16.3935 49.9956 16.4815 50.0006 16.5694 49.9999H47.1617C48.7344 49.9931 49.9978 48.6705 49.9978 47.0302V37.52H14Z" fill="#FFDB6A"/>
<path d="M14.4534 37.52L26.6919 49.9999H34.0345L21.796 37.52H14.4534ZM29.1375 37.52L41.3783 49.9999H47.1628C47.5989 49.9977 48.0284 49.8916 48.4172 49.6902L36.4813 37.52H29.1387H29.1375ZM43.8239 37.52L50 43.8173V37.52H43.8239ZM14.0011 44.5457V47.1759C14.0022 47.3675 14.0196 47.5586 14.0529 47.7471C14.0849 47.9285 14.135 48.1061 14.2025 48.2771C14.3296 48.6084 14.5157 48.9129 14.7515 49.1752C14.9263 49.3635 15.1253 49.5267 15.3432 49.6604C15.4906 49.7454 15.6454 49.8165 15.8056 49.8726L15.9282 49.9116C16.0525 49.9479 16.1797 49.9725 16.3084 49.985C16.3534 49.9896 16.3962 49.9942 16.4389 49.9965L16.5717 49.9999H19.3503L14.0011 44.5457Z" fill="#434345"/>
</g>
<defs>
<filter id="filter0_f_21_315" x="0" y="1" width="64" height="64" filterUnits="userSpaceOnUse" color-interpolation-filters="sRGB">
<feFlood flood-opacity="0" result="BackgroundImageFix"/>
<feBlend mode="normal" in="SourceGraphic" in2="BackgroundImageFix" result="shape"/>
<feGaussianBlur stdDeviation="2" result="effect1_foregroundBlur_21_315"/>
</filter>
<clipPath id="clip0_21_315">
<rect width="64" height="64" fill="white"/>
</clipPath>
</defs>
</svg>
