<svg width="64" height="64" viewBox="0 0 64 64" fill="none" xmlns="http://www.w3.org/2000/svg">
<g clip-path="url(#clip0_21_355)">
<g opacity="0.16" filter="url(#filter0_f_21_355)">
<rect x="4" y="5" width="56" height="56" rx="16" fill="#666569"/>
</g>
<rect x="4" y="4" width="56" height="56" rx="16" fill="#D7E9F6"/>
<mask id="mask0_21_355" style="mask-type:alpha" maskUnits="userSpaceOnUse" x="4" y="4" width="56" height="56">
<rect x="4" y="4" width="56" height="56" rx="16" fill="#E7F0F7"/>
</mask>
<g mask="url(#mask0_21_355)">
<path d="M18.8937 -6.57545C16.3051 -4.97538 13.9284 -3.05551 11.8198 -0.861199C13.0018 -1.04435 14.2367 -1.01557 15.4727 -0.724037C17.9488 -0.141749 20.0923 1.40023 21.4316 3.56275C22.771 5.72527 23.1965 8.33122 22.6146 10.8075C22.0325 13.2828 20.4909 15.4256 18.3291 16.7646C16.1672 18.1035 13.562 18.5289 11.0865 17.9473C9.45231 17.5625 7.94793 16.7551 6.72413 15.6057C5.50033 14.4564 4.6001 13.0056 4.11367 11.3988C1.14781 19.3012 1.06303 27.9964 3.87424 35.9552L10.4681 37.5033C12.7239 34.0046 13.6931 31.6368 16.9662 31.0948L16.9681 31.0953C20.2004 30.566 21.8589 32.4968 25.1305 35.1128L31.7177 31.0284C30.8375 26.9736 29.8444 24.5978 31.7728 21.9151C33.7 19.2379 36.2696 19.4265 40.3992 18.9658L42.1729 11.4245C38.6412 9.1483 36.2983 8.18883 35.7679 4.9446L35.7665 4.94233C35.234 1.68693 37.171 0.0183254 39.7778 -3.24292L35.6989 -9.82878C31.6491 -8.95321 29.2653 -7.95522 26.5824 -9.88662C26.4939 -9.95101 26.4177 -10.0183 26.3351 -10.0832C23.7298 -9.19951 21.2334 -8.0227 18.8937 -6.57545Z" fill="#666569"/>
<path d="M50.6957 38.374C48.9286 40.3968 48.088 41.8241 45.9526 41.8599C43.8207 41.8961 42.9305 40.5013 41.0914 38.5418L36.4982 40.534C36.6837 43.2054 37.1004 44.812 35.6209 46.3423C34.128 47.884 32.4741 47.5151 29.8316 47.4258L27.9966 52.0748C30.0184 53.8318 31.4548 54.6787 31.492 56.8089L31.4936 56.81C31.5185 58.1626 30.941 59.0297 30.0155 59.9524C32.3172 61.0299 34.7796 61.7255 37.3056 62.0117C39.3146 62.2402 41.2909 62.2079 43.2016 61.9432C42.0144 61.2867 41.0773 60.258 40.5356 59.0166C39.9062 57.5173 39.8936 55.8315 40.5004 54.3237C41.1072 52.8159 42.2848 51.6073 43.7784 50.9593C45.272 50.3112 46.9616 50.2759 48.4818 50.8608C50.002 51.4458 51.2307 52.604 51.902 54.0851C52.2288 54.8314 52.4042 55.6347 52.4181 56.4488C52.432 57.2629 52.2841 58.0716 51.9829 58.8282C56.5272 56.0915 59.9917 51.8817 61.7974 46.9019C59.4146 47.0922 57.882 47.3653 56.4473 45.9838C54.9099 44.5068 55.2661 42.8998 55.3556 40.2052L50.6941 38.3729L50.6957 38.374Z" fill="#B1CFEF"/>
</g>
</g>
<defs>
<filter id="filter0_f_21_355" x="0" y="1" width="64" height="64" filterUnits="userSpaceOnUse" color-interpolation-filters="sRGB">
<feFlood flood-opacity="0" result="BackgroundImageFix"/>
<feBlend mode="normal" in="SourceGraphic" in2="BackgroundImageFix" result="shape"/>
<feGaussianBlur stdDeviation="2" result="effect1_foregroundBlur_21_355"/>
</filter>
<clipPath id="clip0_21_355">
<rect width="64" height="64" fill="white"/>
</clipPath>
</defs>
</svg>
