<svg width="64" height="64" viewBox="0 0 64 64" fill="none" xmlns="http://www.w3.org/2000/svg">
<g clip-path="url(#clip0_206_410)">
<g opacity="0.16" filter="url(#filter0_f_206_410)">
<rect x="4" y="5" width="56" height="56" rx="16" fill="#666569"/>
</g>
<rect x="4" y="4" width="56" height="56" rx="16" fill="#434345"/>
<path d="M31.9905 12C29.3636 12.0009 26.7627 12.5202 24.3369 13.5282C21.9111 14.5363 19.7082 16.0132 17.8543 17.8743L24.9238 24.9448C25.8506 24.0138 26.9517 23.2746 28.1642 22.7694C29.3767 22.2641 30.6769 22.0027 31.9905 22V12Z" fill="#B48BDD"/>
<path d="M31.9905 12V22H32C34.6512 22.0031 37.1927 23.0589 39.0657 24.9352L46.1257 17.8743C44.2723 16.0129 42.0695 14.5357 39.6438 13.5277C37.2181 12.5196 34.6173 12.0005 31.9905 12Z" fill="#C05460"/>
<path d="M17.8743 17.8685C16.0132 19.7224 14.5363 21.9254 13.5282 24.3512C12.5202 26.7769 12.0009 29.3778 12 32.0047H22V32C22.0008 30.6865 22.2603 29.386 22.7638 28.1728C23.2673 26.9597 24.0048 25.8576 24.9343 24.9295L17.8743 17.8685Z" fill="#C9A4EF"/>
<path d="M12 32.0048C12.0007 34.6318 12.52 37.2329 13.528 39.6588C14.5361 42.0848 16.0131 44.2879 17.8743 46.1419L24.94 39.0752C24.0096 38.1477 23.2711 37.046 22.7666 35.833C22.2622 34.62 22.0017 33.3194 22 32.0057L12 32.0048Z" fill="#86B6EB"/>
<path d="M46.1267 17.8685L39.0657 24.9295C39.9954 25.8575 40.7331 26.9595 41.2367 28.1727C41.7404 29.3859 42.0001 30.6864 42.001 32V32.0047H52C51.9997 29.3778 51.4806 26.7767 50.4725 24.3508C49.4644 21.925 47.9882 19.7221 46.1267 17.8685Z" fill="#FC9F7E"/>
<path d="M42 32.0048C41.9986 33.3186 41.7383 34.6193 41.234 35.8324C40.7297 37.0456 39.9913 38.1476 39.061 39.0752L46.1257 46.141C47.9873 44.2874 49.4644 42.0845 50.4725 39.6586C51.4806 37.2328 51.9997 34.6317 52 32.0048H42Z" fill="#FFDB6A"/>
<path d="M24.9248 39.0571L17.8552 46.1267C19.7088 47.9882 21.9117 49.4654 24.3376 50.4735C26.7634 51.4815 29.3645 52.0006 31.9914 52.0009V42C30.678 41.9972 29.378 41.7357 28.1657 41.2305C26.9533 40.7252 25.8524 39.986 24.9257 39.0552L24.9248 39.0571Z" fill="#94E0B1"/>
<path d="M39.0647 39.0648C37.192 40.9409 34.6509 41.9967 32 42H31.9905V52C34.6174 51.9997 37.2185 51.4806 39.6443 50.4725C42.0702 49.4644 44.2731 47.9873 46.1267 46.1257L39.0647 39.0648Z" fill="#B3EFCA"/>
</g>
<defs>
<filter id="filter0_f_206_410" x="0" y="1" width="64" height="64" filterUnits="userSpaceOnUse" color-interpolation-filters="sRGB">
<feFlood flood-opacity="0" result="BackgroundImageFix"/>
<feBlend mode="normal" in="SourceGraphic" in2="BackgroundImageFix" result="shape"/>
<feGaussianBlur stdDeviation="2" result="effect1_foregroundBlur_206_410"/>
</filter>
<clipPath id="clip0_206_410">
<rect width="64" height="64" fill="white"/>
</clipPath>
</defs>
</svg>
