<svg width="64" height="64" viewBox="0 0 64 64" fill="none" xmlns="http://www.w3.org/2000/svg">
<g clip-path="url(#clip0_205_298)">
<g opacity="0.16" filter="url(#filter0_f_205_298)">
<rect x="4" y="5" width="56" height="56" rx="16" fill="#666569"/>
</g>
<rect x="4" y="4" width="56" height="56" rx="16" fill="#FFFAFA"/>
<path d="M32.0005 51.2584C42.6369 51.2584 51.2593 42.6359 51.2593 31.9995C51.2593 21.3632 42.6369 12.7407 32.0005 12.7407C21.3641 12.7407 12.7416 21.3632 12.7416 31.9995C12.7416 42.6359 21.3641 51.2584 32.0005 51.2584Z" fill="#434345"/>
<path d="M35.6404 12.3787L30.8725 25.8626L49.6454 22.7246C48.2419 20.0549 46.2526 17.7374 43.8263 15.9457C41.4001 14.154 38.5999 12.9345 35.6354 12.3787" fill="#FC9F7E"/>
<path d="M50.8794 25.6636L36.7404 28.3036L48.8654 42.8875C52.1003 37.8425 52.9373 31.4846 50.8794 25.6626" fill="#FBF29C"/>
<path d="M47.0404 45.1015L37.6704 34.2576L31.0165 51.9805C37.0335 52.2405 42.9954 49.7815 47.0424 45.1005" fill="#94E0B1"/>
<path d="M28.2375 51.6305L33.0055 38.1465L14.2326 41.2845C15.636 43.9542 17.6254 46.2717 20.0516 48.0634C22.4778 49.8551 25.2781 51.0746 28.2425 51.6305" fill="#86B6EB"/>
<path d="M13.1206 38.3255L27.2605 35.6855L15.1356 21.1016C11.8996 26.1466 11.0626 32.5036 13.1206 38.3255Z" fill="#B48BDD"/>
<path d="M32.0005 34.9626C33.6369 34.9626 34.9635 33.636 34.9635 31.9996C34.9635 30.3632 33.6369 29.0366 32.0005 29.0366C30.3641 29.0366 29.0375 30.3632 29.0375 31.9996C29.0375 33.636 30.3641 34.9626 32.0005 34.9626Z" fill="#FFFAFA"/>
<path d="M16.9156 18.8977L26.2865 29.7416L32.9395 12.0187C26.9235 11.7587 20.9615 14.2177 16.9146 18.8987" fill="#C05460"/>
</g>
<defs>
<filter id="filter0_f_205_298" x="0" y="1" width="64" height="64" filterUnits="userSpaceOnUse" color-interpolation-filters="sRGB">
<feFlood flood-opacity="0" result="BackgroundImageFix"/>
<feBlend mode="normal" in="SourceGraphic" in2="BackgroundImageFix" result="shape"/>
<feGaussianBlur stdDeviation="2" result="effect1_foregroundBlur_205_298"/>
</filter>
<clipPath id="clip0_205_298">
<rect width="64" height="64" fill="white"/>
</clipPath>
</defs>
</svg>
