<svg width="64" height="64" viewBox="0 0 64 64" fill="none" xmlns="http://www.w3.org/2000/svg">
<g clip-path="url(#clip0_23_669)">
<g opacity="0.16" filter="url(#filter0_f_23_669)">
<rect x="4" y="5" width="56" height="56" rx="16" fill="#666569"/>
</g>
<rect x="4" y="4" width="56" height="56" rx="16" fill="#FBB1C7"/>
<rect x="14" y="14" width="36" height="36" rx="6" fill="#434345"/>
<path d="M19.8236 19.8236H25.0916C28.2391 19.8236 30.7829 22.2812 30.7829 26.487V26.5497C30.7829 30.8025 27.7256 33.1661 25.3699 33.1935L23.4767 33.217H19.8236V19.8236ZM24.6957 30.7829C26.1617 30.7829 28.3488 29.5835 28.3488 26.5497V26.4909C28.3488 23.4963 26.1617 22.2577 24.6957 22.2577H22.2616V30.7829H24.6957ZM38.6967 19.8236C36.7643 19.8236 35.0436 20.4625 33.8403 21.6658C32.6369 22.8692 31.998 24.5899 31.998 26.5223C31.998 28.4508 32.6369 30.1715 33.8403 31.3748C35.0436 32.5781 36.7643 33.217 38.6967 33.217C40.4606 33.217 41.7932 32.6644 42.6477 32.0843C43.5061 31.5042 43.9726 30.8221 43.9726 30.8221L44.1725 30.5164V25.9108H38.0892V28.3449H41.7423V29.6619C41.6639 29.756 41.6443 29.8265 41.2915 30.0656C40.782 30.4106 39.9745 30.7829 38.7006 30.7829C37.2817 30.7829 36.2665 30.3518 35.5649 29.6541C34.8672 28.9564 34.44 27.9373 34.44 26.5184C34.44 25.1073 34.8672 24.0882 35.5649 23.3866C36.2665 22.6889 37.2817 22.2616 38.7006 22.2616C40.1117 22.2616 41.1347 22.6889 41.8363 23.3866L43.5532 21.6619C42.3537 20.4625 40.6291 19.8236 38.6967 19.8236ZM18.6085 41.7384H30.7829V44.1725H18.6085V41.7384Z" fill="#FFFAFA"/>
</g>
<defs>
<filter id="filter0_f_23_669" x="0" y="1" width="64" height="64" filterUnits="userSpaceOnUse" color-interpolation-filters="sRGB">
<feFlood flood-opacity="0" result="BackgroundImageFix"/>
<feBlend mode="normal" in="SourceGraphic" in2="BackgroundImageFix" result="shape"/>
<feGaussianBlur stdDeviation="2" result="effect1_foregroundBlur_23_669"/>
</filter>
<clipPath id="clip0_23_669">
<rect width="64" height="64" fill="white"/>
</clipPath>
</defs>
</svg>
