<svg width="64" height="64" viewBox="0 0 64 64" fill="none" xmlns="http://www.w3.org/2000/svg">
<g clip-path="url(#clip0_20_24)">
<g opacity="0.16" filter="url(#filter0_f_20_24)">
<rect x="4" y="5" width="56" height="56" rx="16" fill="#666569"/>
</g>
<rect x="4" y="4" width="56" height="56" rx="16" fill="#FFDB6A"/>
<path d="M45.8832 18.5969C43.2603 17.368 40.4855 16.4946 37.632 16C37.2739 16.6453 36.8601 17.5096 36.5737 18.1986C33.5424 17.7353 30.4585 17.7353 27.4273 18.1986C27.1089 17.4476 26.7517 16.7138 26.3571 16C23.5015 16.4955 20.7251 17.3716 18.1018 18.6049C12.8781 26.5033 11.4618 34.2105 12.1699 41.8021C15.218 44.1069 18.6425 45.8643 22.2911 46.996C23.1067 45.8728 23.8307 44.6779 24.4593 43.4232C23.2743 42.971 22.1319 42.4138 21.0458 41.7583C21.3323 41.5472 21.6108 41.3242 21.8813 41.0971C28.4616 44.176 35.6149 44.176 42.1157 41.0971C42.3941 41.3242 42.6726 41.5472 42.9511 41.7583C41.873 42.4115 40.7232 42.9731 39.5336 43.4232C40.1622 44.6779 40.8863 45.8768 41.7019 47C45.3541 45.8693 48.7817 44.1104 51.831 41.8021C52.6585 32.9996 50.4107 25.3641 45.8832 18.5969ZM25.3545 37.13C23.3812 37.13 21.758 35.2819 21.758 33.0355C21.758 30.785 23.3454 28.9329 25.3545 28.9329C27.3676 28.9329 28.9868 30.7811 28.951 33.0355C28.951 35.2819 27.3676 37.13 25.3545 37.13ZM38.6425 37.13C36.6692 37.13 35.0499 35.2819 35.0499 33.0355C35.0499 30.785 36.6334 28.9329 38.6425 28.9329C40.6556 28.9329 42.2748 30.7811 42.239 33.0355C42.239 35.2819 40.6556 37.13 38.6425 37.13Z" fill="#FFFAFA"/>
</g>
<defs>
<filter id="filter0_f_20_24" x="0" y="1" width="64" height="64" filterUnits="userSpaceOnUse" color-interpolation-filters="sRGB">
<feFlood flood-opacity="0" result="BackgroundImageFix"/>
<feBlend mode="normal" in="SourceGraphic" in2="BackgroundImageFix" result="shape"/>
<feGaussianBlur stdDeviation="2" result="effect1_foregroundBlur_20_24"/>
</filter>
<clipPath id="clip0_20_24">
<rect width="64" height="64" fill="white"/>
</clipPath>
</defs>
</svg>
