<svg width="64" height="64" viewBox="0 0 64 64" fill="none" xmlns="http://www.w3.org/2000/svg">
<g clip-path="url(#clip0_68_151)">
<g opacity="0.16" filter="url(#filter0_f_68_151)">
<rect x="4" y="5" width="56" height="56" rx="16" fill="#666569"/>
</g>
<rect x="4" y="4" width="56" height="56" rx="16" fill="#86B6EB"/>
<path d="M26.979 45.998C24.8305 45.8587 23.3784 45.6219 21.9647 45.1693C19.9346 44.5251 18.6287 43.6475 17.4692 42.1398C16.0276 40.2768 15.0874 37.1011 14.8541 34.1238C14.7705 33.0792 14.7601 32.4593 14.8262 32.2086C14.8709 32.0233 14.9594 31.8513 15.0842 31.7071C15.209 31.5629 15.3665 31.4507 15.5435 31.3799C15.7177 31.3033 15.7385 31.3033 28.546 31.3033C36.9623 31.3033 41.5135 31.2893 41.7782 31.265C42.2169 31.2232 42.9064 31.1048 43.2337 31.0142C43.6899 30.8889 44.2366 30.6765 44.2366 30.6242C44.1788 30.4948 44.1149 30.3681 44.0451 30.2447C43.6411 29.4925 43.4566 29.2 43.4601 28.2807C43.4601 27.2709 43.6969 26.3447 44.2052 25.3453C44.4142 24.9344 44.9261 24.1613 44.9853 24.1613C45.0479 24.1613 45.6712 24.5374 45.9603 24.7429C47.1129 25.5786 48.0147 27.1316 48.2411 28.3991C48.2898 28.6673 48.2933 28.6777 48.3908 28.6568C49.2281 28.5363 50.0767 28.5153 50.9189 28.5941C51.873 28.7265 52.5868 28.9876 53.1614 29.4125C53.3146 29.5274 53.4399 29.6318 53.4399 29.6492C53.2094 30.4503 52.7638 31.1729 52.1516 31.7385C51.086 32.7693 49.5643 33.3334 47.8511 33.3403H47.4785L47.3914 33.5562C45.72 37.6513 43.6063 40.3395 40.73 42.4183C37.8399 44.5076 34.1383 45.7229 29.8692 45.9806C29.3817 46.0119 27.3655 46.0224 26.979 45.998Z" fill="#FFFAFA"/>
<path d="M21.404 26.6964H19.1963C18.7906 26.6964 18.4616 27.0253 18.4616 27.4311V29.6388C18.4616 30.0446 18.7906 30.3736 19.1963 30.3736H21.404C21.8098 30.3736 22.1388 30.0446 22.1388 29.6388V27.4311C22.1388 27.0253 21.8098 26.6964 21.404 26.6964Z" fill="#FFFAFA"/>
<path d="M26.004 26.6964H23.7963C23.3905 26.6964 23.0615 27.0253 23.0615 27.4311V29.6388C23.0615 30.0446 23.3905 30.3736 23.7963 30.3736H26.004C26.4097 30.3736 26.7387 30.0446 26.7387 29.6388V27.4311C26.7387 27.0253 26.4097 26.6964 26.004 26.6964Z" fill="#FFFAFA"/>
<path d="M30.6004 26.6964H28.3927C27.9869 26.6964 27.658 27.0253 27.658 27.4311V29.6388C27.658 30.0446 27.9869 30.3736 28.3927 30.3736H30.6004C31.0062 30.3736 31.3351 30.0446 31.3351 29.6388V27.4311C31.3351 27.0253 31.0062 26.6964 30.6004 26.6964Z" fill="#FFFAFA"/>
<path d="M35.2002 26.6964H32.9926C32.5868 26.6964 32.2578 27.0253 32.2578 27.4311V29.6388C32.2578 30.0446 32.5868 30.3736 32.9926 30.3736H35.2002C35.606 30.3736 35.935 30.0446 35.935 29.6388V27.4311C35.935 27.0253 35.606 26.6964 35.2002 26.6964Z" fill="#FFFAFA"/>
<path d="M39.7967 26.6964H37.589C37.1833 26.6964 36.8543 27.0253 36.8543 27.4311V29.6388C36.8543 30.0446 37.1833 30.3736 37.589 30.3736H39.7967C40.2025 30.3736 40.5315 30.0446 40.5315 29.6388V27.4311C40.5315 27.0253 40.2025 26.6964 39.7967 26.6964Z" fill="#FFFAFA"/>
<path d="M26.004 22.0999H23.7963C23.3905 22.0999 23.0615 22.4289 23.0615 22.8347V25.0424C23.0615 25.4481 23.3905 25.7771 23.7963 25.7771H26.004C26.4097 25.7771 26.7387 25.4481 26.7387 25.0424V22.8347C26.7387 22.4289 26.4097 22.0999 26.004 22.0999Z" fill="#FFFAFA"/>
<path d="M30.6004 22.0999H28.3927C27.9869 22.0999 27.658 22.4289 27.658 22.8347V25.0424C27.658 25.4481 27.9869 25.7771 28.3927 25.7771H30.6004C31.0062 25.7771 31.3351 25.4481 31.3351 25.0424V22.8347C31.3351 22.4289 31.0062 22.0999 30.6004 22.0999Z" fill="#FFFAFA"/>
<path d="M35.2002 22.0999H32.9926C32.5868 22.0999 32.2578 22.4289 32.2578 22.8347V25.0424C32.2578 25.4481 32.5868 25.7771 32.9926 25.7771H35.2002C35.606 25.7771 35.935 25.4481 35.935 25.0424V22.8347C35.935 22.4289 35.606 22.0999 35.2002 22.0999Z" fill="#FFFAFA"/>
<path d="M35.2002 17.5H32.9926C32.5868 17.5 32.2578 17.829 32.2578 18.2347V20.4424C32.2578 20.8482 32.5868 21.1772 32.9926 21.1772H35.2002C35.606 21.1772 35.935 20.8482 35.935 20.4424V18.2347C35.935 17.829 35.606 17.5 35.2002 17.5Z" fill="#FFFAFA"/>
</g>
<defs>
<filter id="filter0_f_68_151" x="0" y="1" width="64" height="64" filterUnits="userSpaceOnUse" color-interpolation-filters="sRGB">
<feFlood flood-opacity="0" result="BackgroundImageFix"/>
<feBlend mode="normal" in="SourceGraphic" in2="BackgroundImageFix" result="shape"/>
<feGaussianBlur stdDeviation="2" result="effect1_foregroundBlur_68_151"/>
</filter>
<clipPath id="clip0_68_151">
<rect width="64" height="64" fill="white"/>
</clipPath>
</defs>
</svg>
