<svg width="64" height="64" viewBox="0 0 64 64" fill="none" xmlns="http://www.w3.org/2000/svg">
<g clip-path="url(#clip0_68_178)">
<g opacity="0.16" filter="url(#filter0_f_68_178)">
<rect x="4" y="5" width="56" height="56" rx="16" fill="#666569"/>
</g>
<rect x="4" y="4" width="56" height="56" rx="16" fill="#86B6EB"/>
<path d="M27.5233 19.0015C27.5712 18.9962 27.6197 19.0052 27.6626 19.0275C27.7055 19.0498 27.7409 19.0844 27.7646 19.1269C28.0609 19.6534 27.4694 21.3677 27.9145 22.2575C28.3596 23.1531 28.3596 23.3755 31.911 22.9295C35.46 22.4799 40.7894 24.0416 42.7162 25.9784C44.6383 27.9164 47.9695 32.8371 48.636 35.6636C49.3013 38.4948 49.0108 38.6427 48.1206 38.1967C47.2339 37.7518 46.4925 33.8072 41.231 31.1972C35.973 28.5872 33.5285 30.6707 33.5285 30.6707C33.5285 30.6707 38.0462 30.0733 41.3763 32.83C44.7121 35.5867 46.7795 37.7447 46.7092 38.5646C46.6342 39.3845 46.3344 39.2367 45.819 38.5646C45.2978 37.8985 42.1926 33.7954 38.4925 32.4597C34.797 31.1203 33.2404 31.1972 31.8372 31.9391C30.4316 32.6833 30.1294 33.4263 32.1277 33.9528C34.1259 34.4733 34.9423 34.2509 34.9423 34.2509C34.9423 34.2509 33.2404 35.8079 30.8041 35.8079C28.3607 35.8079 26.8826 35.6624 26.8826 35.6624C26.8826 35.6624 20.8129 41.9934 19.255 43.2629C17.7031 44.5276 16 43.9361 16 43.1871C16 42.4441 16.7414 40.3595 16.7414 40.3595C16.7414 40.3595 15.1953 36.8574 16.9675 32.9057C18.7455 28.9623 23.6275 24.8663 23.6275 24.8663C23.6275 24.8663 24.1429 22.6313 25.2498 21.1441C26.1517 19.9338 27.0606 19.0228 27.5233 19.0015Z" fill="#FFFAFA"/>
</g>
<defs>
<filter id="filter0_f_68_178" x="0" y="1" width="64" height="64" filterUnits="userSpaceOnUse" color-interpolation-filters="sRGB">
<feFlood flood-opacity="0" result="BackgroundImageFix"/>
<feBlend mode="normal" in="SourceGraphic" in2="BackgroundImageFix" result="shape"/>
<feGaussianBlur stdDeviation="2" result="effect1_foregroundBlur_68_178"/>
</filter>
<clipPath id="clip0_68_178">
<rect width="64" height="64" fill="white"/>
</clipPath>
</defs>
</svg>
