<svg width="64" height="64" viewBox="0 0 64 64" fill="none" xmlns="http://www.w3.org/2000/svg">
<g clip-path="url(#clip0_23_499)">
<g opacity="0.16" filter="url(#filter0_f_23_499)">
<rect x="4" y="5" width="56" height="56" rx="16" fill="#666569"/>
</g>
<rect x="4" y="4" width="56" height="56" rx="16" fill="#FFFAFA"/>
<path d="M29.931 14C39.8341 14 47.8621 22.0589 47.8621 32C47.8621 41.9411 39.8341 50 29.931 50C20.028 50 12 41.9411 12 32C12 22.0589 20.028 14 29.931 14Z" fill="#FC9F7E"/>
<path d="M34.069 14C30.3198 13.9921 26.6629 15.167 23.6149 17.3586C20.5669 19.5502 18.2819 22.6478 17.0828 26.2137H51.0552C49.856 22.6477 47.5709 19.55 44.5228 17.3584C41.4747 15.1668 37.8183 13.992 34.069 14ZM16.4276 28.7863C16.3138 29.4243 16.2341 30.0679 16.189 30.7144H51.9511C51.9059 30.0676 51.8263 29.4238 51.7124 28.7856L16.4276 28.7863ZM16.1883 33.2849C16.2338 33.9391 16.3145 34.5816 16.4269 35.2137H51.7117C51.8242 34.5816 51.9049 33.9391 51.9504 33.2849H16.1883ZM17.0828 37.7856C18.2818 41.3518 20.5669 44.4496 23.615 46.6413C26.6631 48.8331 30.3203 50.008 34.0697 50C37.819 50.0078 41.4759 48.8329 44.5239 46.6411C47.5719 44.4494 49.8569 41.3517 51.0559 37.7856H17.0828Z" fill="#C9A4EF"/>
<path d="M22.5138 37.1432C23.4711 39.4268 25.0778 41.3765 27.133 42.7484C29.1883 44.1202 31.6008 44.8534 34.069 44.8561C36.5362 44.8522 38.9476 44.1185 41.0018 42.7465C43.056 41.3746 44.6618 39.4254 45.6186 37.1425L22.5138 37.1432Z" fill="#D9C7F3"/>
<path d="M17.0828 26.2144C16.8009 27.054 16.5814 27.9134 16.4262 28.7856H51.711C51.5563 27.9135 51.3373 27.054 51.0559 26.2144H17.0828ZM16.1876 30.7144C16.1561 31.1422 16.1395 31.571 16.1379 32C16.1379 32.4327 16.1586 32.8605 16.1876 33.2856H51.9497C51.9813 32.8578 51.9981 32.429 52 32C52 31.5673 51.9793 31.1395 51.9497 30.7144H16.1876ZM16.4262 35.2144C16.5812 36.0866 16.8004 36.946 17.0821 37.7856H51.0545C51.3361 36.946 51.5554 36.0866 51.7104 35.2144H16.4262Z" fill="#FFFAFA"/>
</g>
<defs>
<filter id="filter0_f_23_499" x="0" y="1" width="64" height="64" filterUnits="userSpaceOnUse" color-interpolation-filters="sRGB">
<feFlood flood-opacity="0" result="BackgroundImageFix"/>
<feBlend mode="normal" in="SourceGraphic" in2="BackgroundImageFix" result="shape"/>
<feGaussianBlur stdDeviation="2" result="effect1_foregroundBlur_23_499"/>
</filter>
<clipPath id="clip0_23_499">
<rect width="64" height="64" fill="white"/>
</clipPath>
</defs>
</svg>
