<svg width="64" height="64" viewBox="0 0 64 64" fill="none" xmlns="http://www.w3.org/2000/svg">
<g clip-path="url(#clip0_286_2)">
<g opacity="0.16" filter="url(#filter0_f_286_2)">
<rect x="4" y="5" width="56" height="56" rx="16" fill="#666569"/>
</g>
<rect x="4" y="4" width="56" height="56" rx="16" fill="#C9A4EF"/>
<path fill-rule="evenodd" clip-rule="evenodd" d="M25.0619 49.9544C25.0619 49.9544 27.1429 50.1024 29.82 49.8652C30.9042 49.7691 35.0205 49.3627 38.098 48.6843C38.098 48.6843 41.8502 47.877 43.8576 47.1334C45.958 46.3553 47.101 45.6949 47.6155 44.7591C47.593 44.5674 47.7739 43.8875 46.8052 43.4791C44.3288 42.435 41.4568 42.6238 35.7738 42.5027C29.4715 42.285 27.375 41.2246 26.2582 40.3705C25.1873 39.5041 25.7258 37.1071 30.3145 34.9957C32.626 33.8713 41.6872 31.7964 41.6872 31.7964C38.6355 30.2801 32.9452 27.6145 31.7755 27.0389C30.7495 26.534 29.1078 25.7739 28.7519 24.8542C28.3484 23.9713 29.7048 23.2107 30.4625 22.9929C32.9026 22.2854 36.3473 21.8456 39.4824 21.7963C41.0583 21.7715 41.3141 21.6695 41.3141 21.6695C43.4885 21.3069 44.9199 19.8115 44.3235 17.4431C43.7881 15.0256 40.9644 13.6051 38.281 14.0969C35.754 14.56 29.6634 16.3384 29.6634 16.3384C37.1919 16.2729 38.4519 16.3992 39.0147 17.1902C39.347 17.6573 38.8637 18.2977 36.8559 18.6274C34.67 18.9862 30.1262 19.4184 30.1262 19.4184C25.7672 19.6786 22.6968 19.6961 21.7759 21.656C21.1743 22.9365 22.4175 24.0685 22.9624 24.7771C25.265 27.3513 28.591 28.7396 30.732 29.762C31.5375 30.1467 33.901 30.8731 33.901 30.8731C26.9555 30.4891 21.9453 32.633 19.0064 35.1014C15.6823 38.1921 17.1528 41.8761 23.9628 44.1445C27.9851 45.4842 29.9799 46.1143 35.9798 45.5712C39.5138 45.3797 40.0709 45.4937 40.1061 45.7852C40.1557 46.1956 36.1809 47.2151 35.0957 47.5297C32.335 48.3302 25.0981 49.9466 25.0619 49.9544Z" fill="#FFFAFA"/>
</g>
<defs>
<filter id="filter0_f_286_2" x="0" y="1" width="64" height="64" filterUnits="userSpaceOnUse" color-interpolation-filters="sRGB">
<feFlood flood-opacity="0" result="BackgroundImageFix"/>
<feBlend mode="normal" in="SourceGraphic" in2="BackgroundImageFix" result="shape"/>
<feGaussianBlur stdDeviation="2" result="effect1_foregroundBlur_286_2"/>
</filter>
<clipPath id="clip0_286_2">
<rect width="64" height="64" fill="white"/>
</clipPath>
</defs>
</svg>
