<svg width="64" height="64" viewBox="0 0 64 64" fill="none" xmlns="http://www.w3.org/2000/svg">
<g clip-path="url(#clip0_100_102)">
<g opacity="0.12" filter="url(#filter0_f_100_102)">
<rect x="4" y="5" width="56" height="56" rx="16" fill="#666569"/>
</g>
<rect x="4" y="4" width="56" height="56" rx="16" fill="#FFFAFA"/>
<path d="M18.8641 17.6621L19.5013 23.2077C19.6344 24.3686 19.8638 25.5246 19.8431 26.6918C19.8322 27.2752 19.7369 27.8699 19.456 28.3824C19.3156 28.6374 19.1288 28.8705 18.8981 29.0489C18.6675 29.2283 18.3928 29.3527 18.1035 29.3896C17.6335 29.4505 17.1672 29.2821 16.735 29.0893C16.3041 28.8952 15.8756 28.6693 15.4081 28.6033C14.9503 28.5377 14.4756 28.6327 14.0666 28.8461C13.6578 29.0611 13.3147 29.3918 13.0644 29.7802C12.5641 30.5564 12.4481 31.5318 12.5725 32.4474C12.6663 33.1408 12.9006 33.8327 13.3575 34.3639C13.5856 34.6286 13.8678 34.8508 14.1875 34.9924C14.5072 35.1352 14.865 35.1977 15.2128 35.1549C15.6941 35.0949 16.1272 34.8424 16.5641 34.6311C16.7841 34.5261 17.0085 34.4299 17.2441 34.3724C17.4797 34.3149 17.7288 34.298 17.9656 34.3518C18.2219 34.4089 18.455 34.548 18.6419 34.7324C18.8297 34.9155 18.97 35.1427 19.0716 35.3843C19.2716 35.8689 19.3097 36.4024 19.3341 36.9261C19.4827 40.0645 19.2465 43.2092 18.631 46.2902C20.7563 47.0417 22.9391 47.6197 25.1578 48.0183C25.8928 48.1518 26.6556 48.2627 27.3797 48.0796C27.7422 47.988 28.0891 47.8208 28.3647 47.5693C28.6406 47.318 28.8422 46.9786 28.8994 46.6086C28.941 46.3339 28.9031 46.0496 28.8213 45.7836C28.7394 45.5174 28.6125 45.2658 28.4772 45.0218C28.206 44.5346 27.8875 44.0574 27.7813 43.5093C27.6875 43.0224 27.7741 42.5071 27.9925 42.0614C28.2122 41.6161 28.56 41.2399 28.9675 40.9568C29.7844 40.393 30.8113 40.2121 31.8035 40.2036C32.7128 40.1964 33.6528 40.333 34.4253 40.8139C34.8113 41.0546 35.1481 41.3793 35.3753 41.7733C35.6035 42.1664 35.7181 42.6305 35.6731 43.0821C35.6366 43.4299 35.5094 43.7633 35.3531 44.0758C35.1969 44.3896 35.0116 44.6874 34.8503 44.9974C34.6903 45.3086 34.5535 45.6371 34.5035 45.9824C34.4547 46.3293 34.4975 46.698 34.6769 46.998C34.805 47.2118 34.9956 47.3824 35.2069 47.5133C35.4178 47.6452 35.65 47.7389 35.8844 47.8233C37.4045 48.365 39.0379 48.5083 40.6291 48.2396C42.2196 47.9666 43.7132 47.2894 44.9666 46.273L44.1581 40.2196C44.0166 39.1552 43.8019 38.0905 43.831 37.0177C43.8444 36.4805 43.9372 35.9361 44.1875 35.4614C44.3104 35.2217 44.4777 35.0074 44.6806 34.8302C44.883 34.652 45.1256 34.5254 45.3875 34.4614C45.6375 34.4043 45.8991 34.4102 46.1503 34.4552C46.4031 34.5005 46.6472 34.5833 46.8853 34.6764C47.3625 34.863 47.83 35.0952 48.3378 35.1633C48.8066 35.2268 49.2925 35.1439 49.721 34.9449C50.1507 34.7449 50.5228 34.4299 50.805 34.0502C51.37 33.2896 51.5606 32.2924 51.4447 31.3533C51.3494 30.5883 51.0516 29.8339 50.5219 29.2736C50.2569 28.9939 49.936 28.7643 49.5794 28.618C49.2231 28.4702 48.831 28.4043 48.4478 28.4421C47.9363 28.4911 47.4625 28.7155 46.9828 28.8986C46.7438 28.9914 46.4985 29.0733 46.2469 29.1196C45.9941 29.1661 45.7316 29.1746 45.4813 29.1183C45.1019 29.0339 44.7638 28.8036 44.5185 28.5021C44.2728 28.2005 44.1166 27.8333 44.035 27.4521C43.8713 26.6927 43.996 25.9043 44.1069 25.1352C44.478 22.5556 44.6868 19.9553 44.7319 17.3496C42.4629 16.6211 40.1293 16.1118 37.7631 15.8286C37.0353 15.7408 36.2788 15.6786 35.585 15.9143C35.2372 16.0324 34.9125 16.2268 34.6685 16.5002C34.4244 16.7721 34.2656 17.1286 34.2585 17.4949C34.2522 17.7524 34.3206 18.0089 34.4281 18.2433C34.5366 18.4777 34.6819 18.6936 34.8381 18.8986C35.1506 19.3102 35.5094 19.6983 35.7047 20.1768C35.9197 20.7005 35.916 21.3036 35.7303 21.8393C35.545 22.3739 35.1847 22.8414 34.7381 23.1893C34.29 23.5374 33.7578 23.768 33.206 23.8964C32.6544 24.0246 32.0831 24.0527 31.5166 24.0196C30.6047 23.9658 29.6747 23.7414 28.9447 23.1908C28.5797 22.9158 28.2706 22.5608 28.0728 22.1496C27.8753 21.738 27.7897 21.2683 27.8572 20.8164C27.9497 20.2024 28.3063 19.6664 28.6066 19.1233C28.7566 18.8511 28.8956 18.5702 28.9813 18.2724C29.0678 17.9746 29.0997 17.6549 29.0338 17.3521C28.9653 17.0346 28.7919 16.7455 28.5613 16.5171C28.3306 16.2902 28.045 16.123 27.7397 16.0118C27.1306 15.7899 26.4653 15.7908 25.8185 15.8286C23.4014 15.971 21.0371 16.5943 18.8641 17.6621Z" fill="#86B6EB"/>
</g>
<defs>
<filter id="filter0_f_100_102" x="0" y="1" width="64" height="64" filterUnits="userSpaceOnUse" color-interpolation-filters="sRGB">
<feFlood flood-opacity="0" result="BackgroundImageFix"/>
<feBlend mode="normal" in="SourceGraphic" in2="BackgroundImageFix" result="shape"/>
<feGaussianBlur stdDeviation="2" result="effect1_foregroundBlur_100_102"/>
</filter>
<clipPath id="clip0_100_102">
<rect width="64" height="64" fill="white"/>
</clipPath>
</defs>
</svg>
