<svg width="64" height="64" viewBox="0 0 64 64" fill="none" xmlns="http://www.w3.org/2000/svg">
<g clip-path="url(#clip0_68_287)">
<g opacity="0.16" filter="url(#filter0_f_68_287)">
<rect x="4" y="5" width="56" height="56" rx="16" fill="#666569"/>
</g>
<rect x="4" y="4" width="56" height="56" rx="16" fill="#434345"/>
<path d="M25.9989 39.5023C24.209 39.5023 22.4924 40.2133 21.2267 41.479C19.9611 42.7446 19.25 44.4612 19.25 46.2511C19.2496 47.1377 19.4238 48.0156 19.7628 48.8348C20.1017 49.654 20.5988 50.3984 21.2255 51.0255C21.8523 51.6525 22.5964 52.1499 23.4154 52.4893C24.2345 52.8287 25.1123 53.0034 25.9989 53.0034C26.8857 53.0038 27.764 52.8295 28.5834 52.4903C29.4028 52.1511 30.1474 51.6538 30.7745 51.0267C31.4015 50.3996 31.8989 49.655 32.2381 48.8356C32.5772 48.0162 32.7516 47.138 32.7511 46.2511V39.5023H25.9989Z" fill="#94E0B1"/>
<path d="M25.9989 26.0012H32.7511V39.5023H25.9989C25.1121 39.5041 24.2337 39.3307 23.4141 38.9922C22.5945 38.6537 21.8498 38.1566 21.2227 37.5296C20.5957 36.9025 20.0986 36.1578 19.7601 35.3382C19.4216 34.5186 19.2482 33.6402 19.25 32.7534C19.25 29.0116 22.2605 26.0012 25.9989 26.0012Z" fill="#C9A4EF"/>
<path d="M39.5 39.4989C43.2273 39.4989 46.2489 36.4773 46.2489 32.75C46.2489 29.0227 43.2273 26.0012 39.5 26.0012C35.7727 26.0012 32.7511 29.0227 32.7511 32.75C32.7511 36.4773 35.7727 39.4989 39.5 39.4989Z" fill="#86B6EB"/>
<path d="M25.9989 12.5C25.1118 12.4982 24.2331 12.6717 23.4133 13.0104C22.5935 13.3491 21.8486 13.8465 21.2215 14.4739C20.5944 15.1013 20.0974 15.8464 19.7591 16.6664C19.4208 17.4864 19.2478 18.3652 19.25 19.2523C19.2482 20.139 19.4216 21.0175 19.7601 21.8371C20.0986 22.6567 20.5957 23.4014 21.2227 24.0284C21.8498 24.6555 22.5945 25.1525 23.4141 25.4911C24.2337 25.8296 25.1121 26.0029 25.9989 26.0011H32.7511V12.5H25.9989Z" fill="#F86974"/>
<path d="M32.7511 12.5H39.5C43.2418 12.5 46.2489 15.5105 46.2489 19.2523C46.2507 20.139 46.0773 21.0174 45.7388 21.8371C45.4003 22.6567 44.9032 23.4014 44.2762 24.0284C43.6491 24.6555 42.9044 25.1525 42.0848 25.491C41.2652 25.8296 40.3868 26.0029 39.5 26.0011H32.7511V12.5Z" fill="#FBB1C7"/>
</g>
<defs>
<filter id="filter0_f_68_287" x="0" y="1" width="64" height="64" filterUnits="userSpaceOnUse" color-interpolation-filters="sRGB">
<feFlood flood-opacity="0" result="BackgroundImageFix"/>
<feBlend mode="normal" in="SourceGraphic" in2="BackgroundImageFix" result="shape"/>
<feGaussianBlur stdDeviation="2" result="effect1_foregroundBlur_68_287"/>
</filter>
<clipPath id="clip0_68_287">
<rect width="64" height="64" fill="white"/>
</clipPath>
</defs>
</svg>
