<svg width="64" height="64" viewBox="0 0 64 64" fill="none" xmlns="http://www.w3.org/2000/svg">
<g clip-path="url(#clip0_171_35)">
<g opacity="0.16" filter="url(#filter0_f_171_35)">
<rect x="4" y="5" width="56" height="56" rx="16" fill="#666569"/>
</g>
<rect x="4" y="4" width="56" height="56" rx="16" fill="#FFFAFA"/>
<g clip-path="url(#clip1_171_35)">
<path d="M27.5 16H18.5C16.0147 16 14 18.0467 14 20.5714V24.2286C14 26.7533 16.0147 28.8 18.5 28.8H27.5C29.9853 28.8 32 26.7533 32 24.2286V20.5714C32 18.0467 29.9853 16 27.5 16Z" fill="#86B6EB"/>
<path d="M45.5 20.2667H18.5C16.0147 20.2667 14 22.3134 14 24.8382V43.4286C14 45.9534 16.0147 48.0001 18.5 48.0001H45.5C47.9853 48.0001 50 45.9534 50 43.4286V24.8382C50 22.3134 47.9853 20.2667 45.5 20.2667Z" fill="#B1CFEF"/>
<path d="M14 33.5238L14 35.0476H32V33.5238H14Z" fill="#86B6EB"/>
<path d="M31.25 34.2848C31.2508 35.0929 31.5669 35.8677 32.1291 36.4393C32.6913 37.011 33.4537 37.3329 34.2492 37.3344H40.2502C41.0457 37.3329 41.808 37.011 42.3702 36.4393C42.9324 35.8677 43.2486 35.0929 43.2493 34.2848C43.2478 33.4772 42.9314 32.7032 42.3693 32.1321C41.8071 31.5611 41.0452 31.2396 40.2502 31.238H34.2492C33.4542 31.2396 32.6923 31.5611 32.1301 32.1321C31.568 32.7032 31.2515 33.4772 31.25 34.2848ZM32.7496 34.2848C32.7496 33.4439 33.3477 32.7615 34.2492 32.7615C35.0004 32.7615 35.7516 33.4439 35.7516 34.2876C35.7381 34.6879 35.5754 35.0678 35.2964 35.3507C35.0175 35.6335 34.6431 35.7981 34.2492 35.8111C33.3477 35.8111 32.7468 35.1257 32.7468 34.2848H32.7496ZM37.2482 34.2848C37.249 33.8805 37.4076 33.493 37.6894 33.2074C37.971 32.9218 38.3527 32.7615 38.7506 32.7615H40.2502C40.637 32.7785 41.0024 32.9466 41.2701 33.2307C41.5379 33.5148 41.6873 33.8929 41.6873 34.2863C41.6873 34.6796 41.5379 35.0577 41.2701 35.3417C41.0024 35.6258 40.637 35.7939 40.2502 35.8111H38.7478C38.3499 35.8103 37.9684 35.6492 37.6873 35.363C37.4061 35.0768 37.2482 34.6891 37.2482 34.2848Z" fill="#FFFAFA"/>
</g>
</g>
<defs>
<filter id="filter0_f_171_35" x="0" y="1" width="64" height="64" filterUnits="userSpaceOnUse" color-interpolation-filters="sRGB">
<feFlood flood-opacity="0" result="BackgroundImageFix"/>
<feBlend mode="normal" in="SourceGraphic" in2="BackgroundImageFix" result="shape"/>
<feGaussianBlur stdDeviation="2" result="effect1_foregroundBlur_171_35"/>
</filter>
<clipPath id="clip0_171_35">
<rect width="64" height="64" fill="white"/>
</clipPath>
<clipPath id="clip1_171_35">
<rect width="36" height="32" fill="white" transform="translate(14 16)"/>
</clipPath>
</defs>
</svg>
