<svg width="64" height="64" viewBox="0 0 64 64" fill="none" xmlns="http://www.w3.org/2000/svg">
<g clip-path="url(#clip0_18_150)">
<g opacity="0.16" filter="url(#filter0_f_18_150)">
<rect x="4" y="5" width="56" height="56" rx="16" fill="#666569"/>
</g>
<rect x="4" y="4" width="56" height="56" rx="16" fill="#FFFAFA"/>
<path d="M50.5046 24.5908C49.6366 22.4965 47.8699 20.237 46.4867 19.523C47.472 21.4315 48.1558 23.481 48.5139 25.5988L48.5195 25.6352C46.2543 19.9906 42.4157 17.7115 39.2798 12.7557C39.1174 12.5038 38.9596 12.249 38.8066 11.9913C38.7278 11.856 38.654 11.7177 38.5854 11.5769C38.4561 11.3252 38.3565 11.0593 38.2886 10.7845C38.289 10.7779 38.2881 10.7713 38.2859 10.765C38.2837 10.7588 38.2803 10.753 38.2759 10.7481C38.2715 10.7431 38.2661 10.7391 38.2601 10.7362C38.2541 10.7334 38.2477 10.7317 38.241 10.7313C38.2291 10.7281 38.2166 10.7281 38.2046 10.7313L38.1934 10.7369L38.1794 10.7453L38.1878 10.7285C33.1592 13.674 31.4513 19.1282 31.2945 21.8553C29.2853 21.9926 27.3641 22.7322 25.7815 23.9777C25.617 23.8378 25.445 23.7069 25.2663 23.5857C24.8102 21.9886 24.7909 20.2985 25.2103 18.6914C23.3628 19.5858 21.7211 20.8538 20.3889 22.4153H20.3805C19.5853 21.4129 19.6413 18.0951 19.6861 17.4035C19.4521 17.4982 19.2287 17.6174 19.0197 17.7591C18.3182 18.2591 17.6623 18.8204 17.0598 19.4362C16.3748 20.1312 15.7492 20.8824 15.1895 21.6817C13.9016 23.5068 12.988 25.569 12.5016 27.7491L12.4736 27.8807C12.4372 28.0571 12.3028 28.9391 12.2776 29.1323L12.2748 29.1771C12.0996 30.0882 11.991 31.0109 11.95 31.9378V32.0386C11.9617 37.0478 13.8502 41.8707 17.2428 45.5561C20.6355 49.2415 25.2861 51.5217 30.2772 51.947C35.2683 52.3723 40.2376 50.9118 44.2049 47.8536C48.1722 44.7953 50.8495 40.3614 51.7085 35.4264C51.7449 35.1688 51.7701 34.9113 51.8009 34.6509C52.2133 31.2416 51.7667 27.7834 50.5018 24.5908H50.5046ZM27.4222 40.2675C27.5174 40.3123 27.6042 40.3598 27.7022 40.4046L27.7134 40.413L27.4222 40.2675ZM48.5195 25.6408V25.6184L48.5251 25.6408H48.5195Z" fill="#86B6EB"/>
<path d="M40.775 26.9342L40.8982 27.0238C40.3953 26.1323 39.7695 25.3161 39.039 24.5991C32.8148 18.3749 37.4067 11.098 38.1823 10.7312L38.1906 10.72C33.1592 13.6627 31.4541 19.1169 31.2973 21.844C31.5297 21.8272 31.7621 21.8076 32.0001 21.8076C33.7849 21.8109 35.5369 22.2867 37.0782 23.1867C38.6195 24.0866 39.8949 25.3815 40.775 26.9342Z" fill="#B1CFEF"/>
<path d="M32.0113 28.1774C31.9777 28.6757 30.2193 30.3949 29.6033 30.3949C23.9084 30.3949 22.9844 33.8388 22.9844 33.8388C23.2364 36.7395 25.2579 39.1306 27.7022 40.3905C27.8142 40.4493 27.9262 40.5025 28.0382 40.5529C28.2342 40.6406 28.4302 40.7209 28.6262 40.7937C29.4641 41.0908 30.3418 41.2606 31.2301 41.2977C41.2145 41.7653 43.1465 29.3617 35.9451 25.7611C37.6442 25.5416 39.3643 25.9607 40.7721 26.937C39.8925 25.3838 38.6171 24.0912 37.0759 23.1907C35.5346 22.2902 33.7823 21.814 31.9973 21.8104C31.7621 21.8104 31.5269 21.83 31.2973 21.8468C29.2871 21.9835 27.3648 22.7231 25.7815 23.9691C26.0895 24.2295 26.4339 24.5739 27.159 25.2907C28.517 26.629 32.0029 28.015 32.0113 28.1774Z" fill="#C9A4EF"/>
<path d="M24.8491 23.2971C25.0115 23.4007 25.1459 23.4931 25.2635 23.5715C24.8074 21.9745 24.7881 20.2844 25.2075 18.6773C23.36 19.5717 21.7183 20.8397 20.3861 22.4012C20.4841 22.4012 23.3904 22.3452 24.8491 23.2971Z" fill="#D7E9F6"/>
<path d="M12.132 32.4976C13.6775 41.6281 21.954 48.6026 31.3505 48.8686C40.047 49.115 45.602 44.0668 47.8979 39.1418C49.8421 34.8851 50.0658 30.0416 48.5223 25.6238V25.5847L48.5251 25.6182C49.2362 30.2577 46.8759 34.7515 43.1885 37.7894L43.1773 37.8174C35.9899 43.6692 29.1134 41.3453 27.7218 40.3989L27.4306 40.2533C23.2392 38.2514 21.5088 34.4351 21.8784 31.1592C20.8842 31.1739 19.9071 30.9 19.0653 30.3708C18.2235 29.8415 17.5532 29.0797 17.1354 28.1774C18.2353 27.5032 19.4896 27.122 20.7786 27.0701C22.0677 27.0181 23.3485 27.2971 24.4991 27.8806C26.8702 28.9571 29.5683 29.0637 32.0169 28.1774C32.0085 28.0122 28.5254 26.6262 27.1646 25.2879C26.4395 24.5711 26.0951 24.2267 25.7899 23.9691C25.6245 23.8292 25.4515 23.6983 25.2719 23.5771L24.8603 23.3027C23.3988 22.3508 20.4925 22.4068 20.3973 22.4068H20.3889C19.5937 21.4016 19.6497 18.0837 19.6945 17.3922C19.4605 17.4868 19.2371 17.606 19.0281 17.7477C18.3266 18.2478 17.6707 18.809 17.0682 19.4249C16.3815 20.1179 15.754 20.8671 15.1923 21.6648C13.9044 23.4899 12.9908 25.552 12.5044 27.7322C12.4932 27.7742 11.782 30.8849 12.132 32.4976Z" fill="#B1CFEF"/>
<path d="M39.039 24.6159C39.7697 25.3337 40.3955 26.1509 40.8981 27.0434C41.0101 27.1274 41.1109 27.2114 41.2005 27.2898C45.7392 31.4756 43.362 37.3918 43.1828 37.8118C46.8731 34.7739 49.2306 30.2801 48.5195 25.6407C46.2543 19.9933 42.4157 17.7169 39.2798 12.7611C39.1173 12.5084 38.9596 12.2526 38.8066 11.994C38.7287 11.8586 38.6558 11.7204 38.5882 11.5796C38.4581 11.3289 38.3576 11.0639 38.2886 10.79C38.2887 10.7775 38.2842 10.7655 38.2759 10.7562C38.2676 10.7469 38.2562 10.741 38.2438 10.7396C38.231 10.7359 38.2174 10.7359 38.2046 10.7396L38.1962 10.7424L38.1822 10.7508C37.4067 11.1176 32.8148 18.3917 39.039 24.6159Z" fill="#86B6EB"/>
<path d="M41.1949 27.2758C41.0989 27.1891 40.9989 27.1069 40.8953 27.0294L40.7693 26.937C39.3612 25.9616 37.6411 25.5436 35.9423 25.7639C43.1437 29.3673 41.2117 41.7681 31.2301 41.3005C30.3418 41.2634 29.4641 41.0936 28.6262 40.7965C28.4283 40.7237 28.2323 40.6434 28.0382 40.5557C27.9234 40.5053 27.8086 40.4549 27.6966 40.3961L27.7106 40.4045C29.105 41.3565 35.9787 43.6776 43.1661 37.823L43.1801 37.795C43.3593 37.375 45.7364 31.4588 41.1949 27.2758Z" fill="#D7E9F6"/>
<path d="M22.9844 33.8388C22.9844 33.8388 23.9084 30.3949 29.6034 30.3949C30.2193 30.3949 31.9805 28.6757 32.0113 28.1774C29.5631 29.0646 26.865 28.959 24.4935 27.8834C23.3432 27.2995 22.0624 27.02 20.7734 27.0715C19.4844 27.1229 18.23 27.5037 17.1298 28.1774C17.5472 29.0802 18.2173 29.8426 19.0591 30.3724C19.901 30.9021 20.8783 31.1764 21.8728 31.162C21.5032 34.4379 23.2336 38.2542 27.425 40.2561C27.5174 40.3009 27.6042 40.3485 27.7022 40.3933C25.2551 39.1306 23.2364 36.7366 22.9844 33.8388Z" fill="#D7E9F6"/>
</g>
<defs>
<filter id="filter0_f_18_150" x="0" y="1" width="64" height="64" filterUnits="userSpaceOnUse" color-interpolation-filters="sRGB">
<feFlood flood-opacity="0" result="BackgroundImageFix"/>
<feBlend mode="normal" in="SourceGraphic" in2="BackgroundImageFix" result="shape"/>
<feGaussianBlur stdDeviation="2" result="effect1_foregroundBlur_18_150"/>
</filter>
<clipPath id="clip0_18_150">
<rect width="64" height="64" fill="white"/>
</clipPath>
</defs>
</svg>
