<svg width="64" height="64" viewBox="0 0 64 64" fill="none" xmlns="http://www.w3.org/2000/svg">
<g clip-path="url(#clip0_116_33)">
<g opacity="0.16" filter="url(#filter0_f_116_33)">
<rect x="4" y="5" width="56" height="56" rx="16" fill="#666569"/>
</g>
<rect x="4" y="4" width="56" height="56" rx="16" fill="#666569"/>
<path d="M31.9117 23C29.5248 23 27.2356 23.9482 25.5478 25.636C23.86 27.3239 22.9117 29.6131 22.9117 32C22.9117 34.3869 23.86 36.6761 25.5478 38.364C27.2356 40.0518 29.5248 41 31.9117 41C34.2987 41 36.5879 40.0518 38.2757 38.364C39.9635 36.6761 40.9117 34.3869 40.9117 32C40.9117 29.6131 39.9635 27.3239 38.2757 25.636C36.5879 23.9482 34.2987 23 31.9117 23ZM31.9117 25.9996C33.5031 25.9996 35.0294 26.6318 36.1546 27.7571C37.2799 28.8824 37.9121 30.4086 37.9121 32C37.9121 33.5914 37.2799 35.1176 36.1546 36.2429C35.0294 37.3682 33.5031 38.0004 31.9117 38.0004C30.3204 38.0004 28.7941 37.3682 27.6689 36.2429C26.5436 35.1176 25.9114 33.5914 25.9114 32C25.9114 30.4086 26.5436 28.8824 27.6689 27.7571C28.7941 26.6318 30.3204 25.9996 31.9117 25.9996Z" fill="#434345"/>
<path d="M31.9117 14C27.1378 14 22.5595 15.8964 19.1838 19.2721C15.8082 22.6477 13.9117 27.2261 13.9117 32C13.9117 36.7739 15.8082 41.3523 19.1838 44.7279C22.5595 48.1036 27.1378 50 31.9117 50H50.0632L53.0882 46.8235H42.1199C44.5229 45.1692 46.4877 42.9556 47.8453 40.3733C49.2028 37.791 49.9124 34.9174 49.9128 32C49.9128 27.2261 48.0164 22.6477 44.6407 19.2721C41.2651 15.8964 36.6856 14 31.9117 14ZM31.9117 24.4993C32.8968 24.4992 33.8722 24.6931 34.7823 25.07C35.6924 25.4469 36.5193 25.9994 37.2159 26.6959C37.9124 27.3924 38.4649 28.2194 38.8418 29.1294C39.2187 30.0395 39.4126 31.015 39.4125 32C39.4126 32.985 39.2187 33.9605 38.8418 34.8706C38.4649 35.7807 37.9124 36.6076 37.2159 37.3041C36.5193 38.0006 35.6924 38.5531 34.7823 38.93C33.8722 39.3069 32.8968 39.5008 31.9117 39.5007C30.9267 39.5008 29.9513 39.3069 29.0412 38.93C28.1311 38.5531 27.3042 38.0006 26.6076 37.3041C25.9111 36.6076 25.3586 35.7807 24.9817 34.8706C24.6048 33.9605 24.4109 32.985 24.411 32C24.4109 31.015 24.6048 30.0395 24.9817 29.1294C25.3586 28.2194 25.9111 27.3924 26.6076 26.6959C27.3042 25.9994 28.1311 25.4469 29.0412 25.07C29.9513 24.6931 30.9267 24.4992 31.9117 24.4993Z" fill="#FFFAFA"/>
</g>
<defs>
<filter id="filter0_f_116_33" x="0" y="1" width="64" height="64" filterUnits="userSpaceOnUse" color-interpolation-filters="sRGB">
<feFlood flood-opacity="0" result="BackgroundImageFix"/>
<feBlend mode="normal" in="SourceGraphic" in2="BackgroundImageFix" result="shape"/>
<feGaussianBlur stdDeviation="2" result="effect1_foregroundBlur_116_33"/>
</filter>
<clipPath id="clip0_116_33">
<rect width="64" height="64" fill="white"/>
</clipPath>
</defs>
</svg>
