<svg width="64" height="64" viewBox="0 0 64 64" fill="none" xmlns="http://www.w3.org/2000/svg">
<g clip-path="url(#clip0_196_73)">
<g opacity="0.16" filter="url(#filter0_f_196_73)">
<rect x="4" y="5" width="56" height="56" rx="16" fill="#666569"/>
</g>
<rect x="4" y="4" width="56" height="56" rx="16" fill="#B48BDD"/>
<path d="M23.539 13C23.0046 12.9994 22.4794 13.1385 22.0153 13.4035C21.5513 13.6684 21.1645 14.05 20.8933 14.5105L10.8952 31.4305C10.6146 31.9057 10.4665 32.4476 10.4665 32.9995C10.4665 33.5514 10.6146 34.0933 10.8952 34.5686L20.8933 51.4885C21.1659 51.9477 21.553 52.3283 22.0168 52.593C22.4805 52.8578 23.005 52.9977 23.539 52.999H40.459C40.9934 52.9996 41.5186 52.8605 41.9827 52.5955C42.4468 52.3306 42.8335 51.949 43.1047 51.4885L53.1028 34.5686C53.3835 34.0933 53.5315 33.5514 53.5315 32.9995C53.5315 32.4476 53.3835 31.9057 53.1028 31.4305L43.1047 14.5105C42.8321 14.0513 42.445 13.6707 41.9813 13.406C41.5175 13.1412 40.993 13.0013 40.459 13H23.539Z" fill="#C9A4EF"/>
<path d="M24.3086 19.1524V46.84H38.9209C39.4762 46.84 39.9876 46.54 40.2609 46.0552L47.1828 33.7504C47.3118 33.5201 47.3795 33.2606 47.3795 32.9966C47.3795 32.7327 47.3118 32.4731 47.1828 32.2428L40.2609 19.9371L24.3086 19.1524Z" fill="#B48BDD"/>
<path d="M24.3085 17.6143C23.7485 17.6143 23.2323 17.9172 22.9618 18.4076L15.2714 32.2514C15.1441 32.4797 15.0773 32.7367 15.0773 32.9981C15.0773 33.2595 15.1441 33.5165 15.2714 33.7448L22.9618 47.5886C23.7333 48.979 25.8542 48.4305 25.8542 46.8409V39.1505C25.8542 38.7425 26.0163 38.3513 26.3047 38.0629C26.5932 37.7744 26.9844 37.6124 27.3923 37.6124H45.8504C46.4333 37.6124 46.9656 37.2829 47.2275 36.7619L48.7656 33.6857C49.2761 32.6619 48.5333 31.4552 47.3885 31.4552H27.3923C27.1903 31.4552 26.9902 31.4154 26.8035 31.3381C26.6168 31.2607 26.4472 31.1473 26.3044 31.0044C26.1616 30.8615 26.0483 30.6918 25.971 30.5051C25.8938 30.3184 25.8541 30.1183 25.8542 29.9162V25.3019C25.8542 24.894 26.0163 24.5028 26.3047 24.2143C26.5932 23.9259 26.9844 23.7638 27.3923 23.7638H41.2361C42.4437 23.7629 43.1742 22.4352 42.5409 21.4105L40.6171 18.3343C40.4785 18.1132 40.2862 17.9308 40.058 17.8042C39.8298 17.6776 39.5733 17.611 39.3123 17.6105L24.3085 17.6143Z" fill="#FFFAFA"/>
</g>
<defs>
<filter id="filter0_f_196_73" x="0" y="1" width="64" height="64" filterUnits="userSpaceOnUse" color-interpolation-filters="sRGB">
<feFlood flood-opacity="0" result="BackgroundImageFix"/>
<feBlend mode="normal" in="SourceGraphic" in2="BackgroundImageFix" result="shape"/>
<feGaussianBlur stdDeviation="2" result="effect1_foregroundBlur_196_73"/>
</filter>
<clipPath id="clip0_196_73">
<rect width="64" height="64" fill="white"/>
</clipPath>
</defs>
</svg>
