<svg width="64" height="64" viewBox="0 0 64 64" fill="none" xmlns="http://www.w3.org/2000/svg">
<g clip-path="url(#clip0_68_212)">
<g opacity="0.16" filter="url(#filter0_f_68_212)">
<rect x="4" y="5" width="56" height="56" rx="16" fill="#666569"/>
</g>
<rect x="4" y="4" width="56" height="56" rx="16" fill="#FFFAFA"/>
<path fill-rule="evenodd" clip-rule="evenodd" d="M47.8117 18.4831C47.5059 18.4352 47.2296 18.6047 47.0638 18.7926C46.89 19.0068 46.761 19.2536 46.6843 19.5185C46.5111 20.0343 45.8737 21.9429 43.5819 23.8294C41.2901 25.7159 37.3403 28.0445 30.4871 28.214C25.2845 28.2766 22.0974 24.9274 20.771 20.4028V23.0777L20.7489 30.5942L20.7931 30.6937C20.7931 30.6937 21.1652 31.4932 20.771 32.5728C20.3767 33.6523 18.8218 35.0561 15.3473 36.062L14.9236 36.1836L15.0047 36.6184C15.1963 37.6648 15.9627 38.737 17.0975 39.835C18.2323 40.933 19.7504 42.0457 21.5189 43.0479C25.0561 45.056 29.588 46.6477 33.9874 46.7177C38.3867 46.7914 42.6939 45.3065 45.5421 41.1909C48.3939 37.0716 49.7793 29.931 48.6444 19.699V19.6916C48.6186 19.4358 48.5448 19.1871 48.4271 18.9584C48.3689 18.8365 48.2829 18.73 48.176 18.6475C48.0691 18.5649 47.9444 18.5086 47.8117 18.4831Z" fill="#666569"/>
<path d="M26.622 39.9012C33.0183 41.2645 36.2755 40.0007 38.1841 38.4274C37.6793 37.7347 37.344 36.9757 37.344 36.9757C37.344 36.9757 39.0536 37.6389 39.8421 38.7185C40.6269 39.8017 40.1332 40.465 39.9268 41.8503C39.47 40.6344 38.6151 40.1813 38.5009 39.6986C36.7839 42.2262 32.5136 42.1193 26.622 39.9012Z" fill="#434345"/>
<path fill-rule="evenodd" clip-rule="evenodd" d="M24.1828 27.2265C23.0996 27.2265 22.009 27.5839 21.18 28.3245C20.3473 29.0614 19.7983 30.1889 19.7983 31.6111C19.7983 33.0333 20.3509 34.1608 21.18 34.9014C22.0127 35.6383 23.0996 35.9994 24.1828 35.9994C25.2661 35.9994 26.3567 35.642 27.1894 34.9014C28.0221 34.1645 28.5711 33.0333 28.5711 31.6111C28.5711 30.1889 28.0184 29.0614 27.1894 28.3245C26.3548 27.6038 25.2855 27.2133 24.1828 27.2265Z" fill="#FFFAFA"/>
<path fill-rule="evenodd" clip-rule="evenodd" d="M15.9958 30.1484C15.7614 30.1461 15.5273 30.1634 15.2958 30.2C14.7031 30.292 14.1403 30.5216 13.6525 30.8706C11.7218 32.2596 11.2133 35.4099 13.5972 38.7076C15.9811 42.0015 19.1387 42.5137 21.0694 41.1246C23.0001 39.7355 23.5086 36.589 21.1247 33.2913C19.5588 31.1285 17.6612 30.1631 15.9958 30.1484Z" fill="#434345"/>
<path fill-rule="evenodd" clip-rule="evenodd" d="M32.4699 27.2255C31.264 27.2255 30.0523 27.6242 29.1291 28.444C28.2069 29.2639 27.5966 30.5146 27.5966 32.0997C27.5966 33.6848 28.2069 34.9356 29.1291 35.7554C30.0523 36.5753 31.264 36.974 32.4699 36.974C33.6758 36.974 34.8875 36.5753 35.8107 35.7554C36.7329 34.9346 37.3452 33.6868 37.3452 32.0997C37.3452 30.5127 36.7329 29.2649 35.8107 28.444C34.8875 27.6242 33.6758 27.2255 32.4699 27.2255Z" fill="#FFFAFA"/>
<path fill-rule="evenodd" clip-rule="evenodd" d="M33.9332 30.1501C33.3356 30.1501 32.7321 30.3479 32.2671 30.7613C31.8021 31.1746 31.496 31.8112 31.496 32.5872C31.496 33.3632 31.8021 34.0007 32.2671 34.4131C32.7321 34.8254 33.3356 35.0243 33.9332 35.0243C34.5307 35.0243 35.1342 34.8274 35.5992 34.4131C36.0642 33.9997 36.3703 33.3632 36.3703 32.5872C36.3703 31.8112 36.0642 31.1736 35.5992 30.7613C35.1372 30.3608 34.5445 30.1433 33.9332 30.1501ZM25.6469 30.1501C25.1692 30.1501 24.6857 30.308 24.3143 30.6385C23.9429 30.9689 23.6972 31.4788 23.6972 32.0998C23.6972 32.7207 23.9419 33.2306 24.3143 33.5611C24.6867 33.8915 25.1692 34.0495 25.6469 34.0495C26.1246 34.0495 26.6081 33.8915 26.9795 33.5611C27.351 33.2306 27.5966 32.7207 27.5966 32.0998C27.5966 31.4788 27.3519 30.9689 26.9795 30.6385C26.6071 30.308 26.1246 30.1501 25.6469 30.1501Z" fill="#434345"/>
<path fill-rule="evenodd" clip-rule="evenodd" d="M26.6218 30.15C26.3829 30.15 26.1412 30.229 25.9559 30.3937C25.7707 30.5585 25.6469 30.8139 25.6469 31.1249C25.6469 31.4359 25.7697 31.6903 25.9559 31.856C26.1421 32.0217 26.3829 32.0997 26.6218 32.0997C26.8606 32.0997 27.1024 32.0208 27.2876 31.856C27.4728 31.6913 27.5966 31.4359 27.5966 31.1249C27.5966 30.8139 27.4738 30.5595 27.2876 30.3937C27.1014 30.228 26.8606 30.15 26.6218 30.15ZM35.1517 30.15C34.8534 30.15 34.5512 30.2495 34.3182 30.4561C34.0852 30.6628 33.9332 30.9806 33.9332 31.3686C33.9332 31.7566 34.0862 32.0754 34.3192 32.2811C34.5522 32.4867 34.8534 32.5872 35.1517 32.5872C35.45 32.5872 35.7522 32.4887 35.9852 32.2811C36.2172 32.0744 36.3703 31.7566 36.3703 31.3686C36.3703 30.9806 36.2172 30.6618 35.9843 30.4561C35.7535 30.2558 35.4573 30.1469 35.1517 30.15Z" fill="#FFFAFA"/>
</g>
<defs>
<filter id="filter0_f_68_212" x="0" y="1" width="64" height="64" filterUnits="userSpaceOnUse" color-interpolation-filters="sRGB">
<feFlood flood-opacity="0" result="BackgroundImageFix"/>
<feBlend mode="normal" in="SourceGraphic" in2="BackgroundImageFix" result="shape"/>
<feGaussianBlur stdDeviation="2" result="effect1_foregroundBlur_68_212"/>
</filter>
<clipPath id="clip0_68_212">
<rect width="64" height="64" fill="white"/>
</clipPath>
</defs>
</svg>
