<svg width="64" height="64" viewBox="0 0 64 64" fill="none" xmlns="http://www.w3.org/2000/svg">
<g clip-path="url(#clip0_23_536)">
<g opacity="0.16" filter="url(#filter0_f_23_536)">
<rect x="4" y="5" width="56" height="56" rx="16" fill="#666569"/>
</g>
<rect x="4" y="4" width="56" height="56" rx="16" fill="#434345"/>
<path d="M31.9948 14.26C21.9096 14.26 13.7336 22.436 13.7336 32.5212C13.7376 36.3029 14.9157 39.99 17.1051 43.0735C19.2945 46.1569 22.3872 48.4846 25.9562 49.735C26.6095 49.709 27.128 49.1853 27.128 48.5279V45.9166H25.9126C24.1102 45.9166 21.9625 45.4375 21.2978 43.4816C20.4091 40.8724 17.8756 40.2347 18.6077 39.8292C18.7612 39.7441 18.9188 39.6913 19.0816 39.6674C19.2227 39.6456 19.3668 39.6467 19.512 39.6643C20.5252 39.7919 21.5902 40.8092 22.2602 41.6554C23.459 43.1674 24.1237 43.4806 25.419 43.4806C26.6489 43.4806 27.1301 43.1767 27.1301 43.1767C27.1301 42.0153 27.661 41.1224 28.4834 40.5479C23.8168 39.8167 20.435 37.443 20.435 32.5243C20.435 30.1671 21.0883 28.2693 22.199 26.7895C21.7002 25.0732 21.7551 23.331 22.2612 21.568C23.9692 21.568 25.8856 22.4972 27.1042 23.4938C28.5933 23.023 30.2485 22.7855 31.999 22.7855C33.7453 22.7855 35.4036 23.0219 36.9042 23.4896C38.1227 22.4941 40.036 21.568 41.7419 21.568C42.2397 23.2999 42.2947 25.0141 41.8218 26.7013C42.9936 28.1936 43.6885 30.1194 43.6885 32.5253C43.6885 37.444 40.2237 39.8209 35.5208 40.5499C36.3411 41.1244 36.871 42.0163 36.871 43.1778V48.5289C36.871 49.1864 37.3905 49.7101 38.0428 49.736C41.6118 48.4853 44.7045 46.1574 46.8938 43.0738C49.0832 39.9902 50.2612 36.303 50.2653 32.5212C50.2705 22.437 42.0893 14.261 32.0042 14.261L31.9948 14.26Z" fill="#FFFAFA"/>
</g>
<defs>
<filter id="filter0_f_23_536" x="0" y="1" width="64" height="64" filterUnits="userSpaceOnUse" color-interpolation-filters="sRGB">
<feFlood flood-opacity="0" result="BackgroundImageFix"/>
<feBlend mode="normal" in="SourceGraphic" in2="BackgroundImageFix" result="shape"/>
<feGaussianBlur stdDeviation="2" result="effect1_foregroundBlur_23_536"/>
</filter>
<clipPath id="clip0_23_536">
<rect width="64" height="64" fill="white"/>
</clipPath>
</defs>
</svg>
