<svg width="64" height="64" viewBox="0 0 64 64" fill="none" xmlns="http://www.w3.org/2000/svg">
<g clip-path="url(#clip0_102_230)">
<g opacity="0.16" filter="url(#filter0_f_102_230)">
<rect x="4" y="5" width="56" height="56" rx="16" fill="#666569"/>
</g>
<rect x="4" y="4" width="56" height="56" rx="16" fill="#86B6EB"/>
<path d="M36.0625 39.5L34.5 46.375" stroke="#434345"/>
<path d="M32 13.25C28.1391 13.2781 24.2253 14.5231 21.32 17.0672C19.8663 18.3378 18.6797 19.9212 17.9144 21.6937C17.15 23.4672 16.8132 25.4303 17 27.3515C17.2172 29.589 18.1232 31.7081 19.2522 33.6515C20.4911 35.7871 22.0037 37.7516 23.7516 39.4953L25.8735 43.25H37.736L40.4375 39.1875C41.979 37.4854 43.3526 35.6385 44.5391 33.6725C45.716 31.7215 46.7194 29.6122 47 27.3515C47.2394 25.424 46.9353 23.439 46.1835 21.6472C45.4325 19.8553 44.24 18.2572 42.775 16.9815C39.8453 14.429 35.8857 13.2222 32 13.25Z" fill="#C05460"/>
<path d="M32.3943 13.255C27.0134 14.0666 21.9156 15.8488 19.6293 22.0769C17.5656 29.7969 20.7731 33.5197 24.8406 39.5L26.669 43.2525H29.1446C27.6056 38.7175 23.8053 30.8563 23.8053 26.9072C23.8053 15.3266 32.3309 13.2953 32.3943 13.255ZM32.3956 13.255C32.4174 13.3134 35.0553 18.6419 35.054 26.9072C35.054 31.2688 34.4449 38.7969 33.8518 43.2525H36.9999C44.5793 29.655 47.2918 17.3188 32.3956 13.255Z" fill="#FFFAFA"/>
<path d="M28.25 38.875L29.8125 46.0625" stroke="#434345"/>
<path d="M37 46.375V49.9113C37.0004 50.1033 36.9629 50.2935 36.8896 50.4709C36.8163 50.6484 36.7087 50.8097 36.5729 50.9454C36.4372 51.0812 36.2759 51.1888 36.0984 51.2621C35.921 51.3354 35.7308 51.3729 35.5388 51.3725H28.4613C28.2692 51.3729 28.079 51.3354 27.9016 51.2621C27.7241 51.1888 27.5628 51.0812 27.4271 50.9454C27.2913 50.8097 27.1837 50.6484 27.1104 50.4709C27.0371 50.2935 26.9996 50.1033 27 49.9113V46.375H37Z" fill="#434345"/>
<path d="M23.7053 38.9984L27.4881 46.0625" stroke="#434345"/>
<path d="M23.25 38.25V38.875C23.25 38.875 23.25 39.5 23.8347 39.5H40.1656C40.75 39.5 40.75 38.875 40.75 38.875V38.25H23.25Z" fill="#434345"/>
<path d="M40.2932 39.1941L36.4996 46.0559" stroke="#434345"/>
<path d="M37 45.75V49.2863C37.0004 49.4783 36.9629 49.6685 36.8896 49.8459C36.8163 50.0234 36.7087 50.1847 36.5729 50.3204C36.4372 50.4562 36.2759 50.5638 36.0984 50.6371C35.921 50.7104 35.7308 50.7479 35.5388 50.7475H28.4613C28.2692 50.7479 28.079 50.7104 27.9016 50.6371C27.7241 50.5638 27.5628 50.4562 27.4271 50.3204C27.2913 50.1847 27.1837 50.0234 27.1104 49.8459C27.0371 49.6685 26.9996 49.4783 27 49.2863V45.75H37Z" fill="#666569"/>
</g>
<defs>
<filter id="filter0_f_102_230" x="0" y="1" width="64" height="64" filterUnits="userSpaceOnUse" color-interpolation-filters="sRGB">
<feFlood flood-opacity="0" result="BackgroundImageFix"/>
<feBlend mode="normal" in="SourceGraphic" in2="BackgroundImageFix" result="shape"/>
<feGaussianBlur stdDeviation="2" result="effect1_foregroundBlur_102_230"/>
</filter>
<clipPath id="clip0_102_230">
<rect width="64" height="64" fill="white"/>
</clipPath>
</defs>
</svg>
