<svg width="64" height="64" viewBox="0 0 64 64" fill="none" xmlns="http://www.w3.org/2000/svg">
<g clip-path="url(#clip0_100_172)">
<g opacity="0.16" filter="url(#filter0_f_100_172)">
<rect x="4" y="5" width="56" height="56" rx="16" fill="#666569"/>
</g>
<rect x="4" y="4" width="56" height="56" rx="16" fill="#666569"/>
<path d="M4 29.6C4 20.6392 4 16.1587 5.7439 12.7362C7.27787 9.72556 9.72556 7.27787 12.7362 5.7439C16.1587 4 20.6392 4 29.6 4H34.4C43.3608 4 47.8413 4 51.2638 5.7439C54.2744 7.27787 56.7221 9.72556 58.2561 12.7362C60 16.1587 60 20.6392 60 29.6V32H4V29.6Z" fill="#434345"/>
<path d="M46.9978 18.997H17.0015C16.4484 18.997 16 19.4446 16 19.9966C16 20.5487 16.4484 20.9963 17.0015 20.9963H46.9978C47.5509 20.9963 47.9993 20.5487 47.9993 19.9966C47.9993 19.4446 47.5509 18.997 46.9978 18.997Z" fill="#FFFAFA"/>
<path d="M37.9992 23.997C40.2075 23.997 41.9977 22.2068 41.9977 19.9985C41.9977 17.7902 40.2075 16 37.9992 16C35.7909 16 34.0007 17.7902 34.0007 19.9985C34.0007 22.2068 35.7909 23.997 37.9992 23.997Z" fill="#FFFAFA"/>
<path opacity="0.75" d="M46.9978 42.9928H17.0015C16.4484 42.9928 16 43.4403 16 43.9924C16 44.5445 16.4484 44.992 17.0015 44.992H46.9978C47.5509 44.992 47.9993 44.5445 47.9993 43.9924C47.9993 43.4403 47.5509 42.9928 46.9978 42.9928Z" fill="#FFFAFA"/>
<path d="M25 50C28.3137 50 31 47.3137 31 44C31 40.6863 28.3137 38 25 38C21.6863 38 19 40.6863 19 44C19 47.3137 21.6863 50 25 50Z" fill="#434345"/>
<path d="M25.0025 47.9933C27.2108 47.9933 29.001 46.2031 29.001 43.9948C29.001 41.7865 27.2108 39.9963 25.0025 39.9963C22.7942 39.9963 21.004 41.7865 21.004 43.9948C21.004 46.2031 22.7942 47.9933 25.0025 47.9933Z" fill="#FFFAFA"/>
</g>
<defs>
<filter id="filter0_f_100_172" x="0" y="1" width="64" height="64" filterUnits="userSpaceOnUse" color-interpolation-filters="sRGB">
<feFlood flood-opacity="0" result="BackgroundImageFix"/>
<feBlend mode="normal" in="SourceGraphic" in2="BackgroundImageFix" result="shape"/>
<feGaussianBlur stdDeviation="2" result="effect1_foregroundBlur_100_172"/>
</filter>
<clipPath id="clip0_100_172">
<rect width="64" height="64" fill="white"/>
</clipPath>
</defs>
</svg>
