<svg width="64" height="64" viewBox="0 0 64 64" fill="none" xmlns="http://www.w3.org/2000/svg">
<g clip-path="url(#clip0_68_144)">
<g opacity="0.16" filter="url(#filter0_f_68_144)">
<rect x="4" y="5" width="56" height="56" rx="16" fill="#666569"/>
</g>
<rect x="4" y="4" width="56" height="56" rx="16" fill="#434345"/>
<path d="M18.096 18.0891V45.9149H45.908V18.0891H18.096ZM22.2762 21.1822H41.7278L37.0897 25.8138H26.9142L22.2722 21.1862L22.2762 21.1822ZM21.184 22.2788L25.818 26.9104V37.0895L21.184 41.7332V22.2788ZM42.82 22.2788V41.7332L38.182 37.0936V26.9145L42.816 22.2788H42.82ZM27.364 27.3644H36.64V36.6396H27.364V27.3644ZM26.9142 38.1862H37.0897L41.7237 42.8178H22.2803L26.9142 38.1862Z" fill="#FFFAFA"/>
<path d="M19.638 15C18.4097 15 17.2316 15.4879 16.3627 16.3563C15.4938 17.2248 15.0051 18.4029 15.004 19.6316C15.0035 20.2407 15.123 20.8439 15.3556 21.4068C15.5882 21.9697 15.9295 22.4812 16.3599 22.9121C16.7902 23.343 17.3012 23.6848 17.8637 23.918C18.4262 24.1512 19.0291 24.2713 19.638 24.2713C20.2476 24.2723 20.8513 24.1531 21.4148 23.9203C21.9782 23.6876 22.4901 23.3459 22.9213 22.915C23.3526 22.484 23.6945 21.9721 23.9277 21.4087C24.1608 20.8453 24.2806 20.2414 24.28 19.6316C24.2795 19.0225 24.159 18.4195 23.9254 17.857C23.6918 17.2945 23.3496 16.7836 22.9185 16.3535C22.4874 15.9234 21.9758 15.5824 21.4129 15.3502C20.85 15.1179 20.2469 14.999 19.638 15ZM44.362 15C43.1337 15 41.9556 15.4879 41.0867 16.3563C40.2178 17.2248 39.7291 18.4029 39.728 19.6316C39.7275 20.2404 39.8468 20.8433 40.0792 21.4059C40.3116 21.9685 40.6525 22.4799 41.0824 22.9107C41.5124 23.3415 42.0229 23.6834 42.5849 23.9169C43.147 24.1503 43.7494 24.2707 44.358 24.2713C44.9669 24.2723 45.57 24.1533 46.1329 23.9211C46.6958 23.6889 47.2074 23.3479 47.6385 22.9178C48.0696 22.4876 48.4117 21.9767 48.6453 21.4143C48.879 20.8518 48.9995 20.2488 49 19.6397C49 19.0306 48.88 18.4274 48.6469 17.8647C48.4137 17.3021 48.072 16.7909 47.6413 16.3603C47.2106 15.9298 46.6993 15.5885 46.1366 15.3557C45.5739 15.123 44.9709 14.9995 44.362 15ZM26.593 24.2713C25.9788 24.2723 25.3901 24.5169 24.9558 24.9513C24.5215 25.3858 24.2771 25.9747 24.276 26.5891C24.276 27.2042 24.52 27.7941 24.9544 28.2295C25.3888 28.6648 25.9781 28.9099 26.593 28.9109C27.2079 28.9099 27.7972 28.6648 28.2316 28.2295C28.666 27.7941 28.91 27.2042 28.91 26.5891C28.9089 25.9747 28.6645 25.3858 28.2302 24.9513C27.7959 24.5169 27.2072 24.2723 26.593 24.2713ZM37.411 24.2713C36.7961 24.2713 36.2064 24.5153 35.7712 24.9499C35.3361 25.3845 35.0911 25.974 35.09 26.5891C35.09 27.2042 35.334 27.7941 35.7684 28.2295C36.2028 28.6648 36.7921 28.9099 37.407 28.9109C37.7118 28.9109 38.0136 28.8509 38.2952 28.7342C38.5768 28.6175 38.8327 28.4465 39.0482 28.2309C39.2637 28.0153 39.4347 27.7593 39.5513 27.4776C39.668 27.1959 39.728 26.894 39.728 26.5891C39.7269 25.974 39.4819 25.3845 39.0468 24.9499C38.6116 24.5153 38.0219 24.2713 37.407 24.2713H37.411ZM26.593 35.0931C25.9788 35.0942 25.3901 35.3387 24.9558 35.7731C24.5215 36.2076 24.2771 36.7965 24.276 37.4109C24.2771 38.0253 24.5215 38.6142 24.9558 39.0487C25.3901 39.4831 25.9788 39.7277 26.593 39.7287C27.2072 39.7277 27.7959 39.4831 28.2302 39.0487C28.6645 38.6142 28.9089 38.0253 28.91 37.4109C28.9089 36.7965 28.6645 36.2076 28.2302 35.7731C27.7959 35.3387 27.2072 35.0942 26.593 35.0931ZM37.411 35.0931C36.7961 35.0931 36.2064 35.3372 35.7712 35.7717C35.3361 36.2063 35.0911 36.7958 35.09 37.4109C35.0911 38.0253 35.3355 38.6142 35.7698 39.0487C36.2041 39.4831 36.7928 39.7277 37.407 39.7287C38.0219 39.7287 38.6116 39.4847 39.0468 39.0501C39.4819 38.6155 39.7269 38.026 39.728 37.4109C39.7269 36.7958 39.4819 36.2063 39.0468 35.7717C38.6116 35.3372 38.0219 35.0931 37.407 35.0931H37.411ZM19.638 39.7247C19.0288 39.7242 18.4254 39.8438 17.8625 40.0768C17.2995 40.3098 16.788 40.6515 16.3573 41.0825C15.9265 41.5134 15.5849 42.0251 15.352 42.5882C15.1191 43.1514 14.9995 43.7549 15 44.3644C15 45.5938 15.4882 46.7729 16.3573 47.6423C17.2263 48.5116 18.405 49 19.634 49C20.2429 49.0005 20.8459 48.881 21.4086 48.6483C21.9713 48.4156 22.4826 48.0742 22.9133 47.6437C23.344 47.2132 23.6857 46.702 23.9189 46.1393C24.152 45.5766 24.272 44.9735 24.272 44.3644C24.272 43.1349 23.7838 41.9558 22.9147 41.0865C22.0457 40.2171 20.867 39.7247 19.638 39.7247ZM44.358 39.7247C43.7491 39.7247 43.1462 39.8448 42.5837 40.078C42.0212 40.3112 41.5102 40.653 41.0798 41.0839C40.6495 41.5148 40.3082 42.0263 40.0756 42.5892C39.8429 43.152 39.7235 43.7553 39.724 44.3644C39.724 45.5938 40.2122 46.7729 41.0813 47.6423C41.9503 48.5116 43.129 49 44.358 49C44.9669 49.0005 45.5699 48.881 46.1326 48.6483C46.6952 48.4156 47.2066 48.0742 47.6373 47.6437C48.068 47.2132 48.4097 46.702 48.6429 46.1393C48.876 45.5766 48.996 44.9735 48.996 44.3644C48.996 43.7553 48.876 43.1521 48.6429 42.5895C48.4097 42.0268 48.068 41.5156 47.6373 41.0851C47.2066 40.6545 46.6952 40.3132 46.1326 40.0804C45.5699 39.8477 44.9669 39.7242 44.358 39.7247Z" fill="#FFFAFA"/>
</g>
<defs>
<filter id="filter0_f_68_144" x="0" y="1" width="64" height="64" filterUnits="userSpaceOnUse" color-interpolation-filters="sRGB">
<feFlood flood-opacity="0" result="BackgroundImageFix"/>
<feBlend mode="normal" in="SourceGraphic" in2="BackgroundImageFix" result="shape"/>
<feGaussianBlur stdDeviation="2" result="effect1_foregroundBlur_68_144"/>
</filter>
<clipPath id="clip0_68_144">
<rect width="64" height="64" fill="white"/>
</clipPath>
</defs>
</svg>
