<svg width="64" height="64" viewBox="0 0 64 64" fill="none" xmlns="http://www.w3.org/2000/svg">
<g clip-path="url(#clip0_112_34)">
<g opacity="0.12" filter="url(#filter0_f_112_34)">
<rect x="4" y="5" width="56" height="56" rx="16" fill="#666569"/>
</g>
<rect x="4" y="5" width="56" height="56" rx="16" fill="#434345"/>
<path d="M32.1154 13.594C29.5557 13.5509 27.0131 14.0209 24.6358 14.9768C22.2585 15.9326 20.0941 17.355 18.2688 19.1612C16.4435 20.9673 14.9937 23.1211 14.0042 25.4968C13.0146 27.8725 12.5049 30.4226 12.5049 32.9986C12.5049 35.5745 13.0146 38.1246 14.0042 40.5004C14.9937 42.8761 16.4435 45.0298 18.2688 46.8359C20.0941 48.6421 22.2585 50.0645 24.6358 51.0204C27.0131 51.9762 29.5557 52.4463 32.1154 52.4032C37.4399 52.4032 36.4402 47.9479 37.7822 46.2555C38.7955 44.9733 40.1891 43.6557 41.8028 43.4846C43.6881 43.2781 44.6552 44.1311 46.1412 44.0958C48.4285 44.0388 50.0585 42.2377 50.9387 39.8362C51.4956 38.3204 51.4005 34.3406 51.4005 33.0013C51.4005 22.2816 42.7672 13.594 32.1154 13.594ZM44.7095 34.5171C45.1065 34.5051 45.5017 34.5733 45.872 34.7179C46.2422 34.8624 46.5798 35.0803 46.8648 35.3586C47.1498 35.6369 47.3764 35.97 47.5311 36.338C47.6858 36.7061 47.7655 37.1017 47.7655 37.5013C47.7655 37.901 47.6858 38.2965 47.5311 38.6646C47.3764 39.0326 47.1498 39.3657 46.8648 39.644C46.5798 39.9223 46.2422 40.1402 45.872 40.2847C45.5017 40.4293 45.1065 40.4975 44.7095 40.4855C43.9386 40.4621 43.2071 40.1374 42.67 39.5803C42.1329 39.0232 41.8325 38.2775 41.8325 37.5013C41.8325 36.7251 42.1329 35.9794 42.67 35.4223C43.2071 34.8652 43.9386 34.5405 44.7095 34.5171Z" fill="#FFFAFA"/>
<circle cx="21.8928" cy="25.0302" r="3.59375" transform="rotate(-30 21.8928 25.0302)" fill="#FFDB6A"/>
<circle cx="19.262" cy="34.8485" r="3.59375" transform="rotate(-30 19.262 34.8485)" fill="#F86974"/>
<circle cx="3.59375" cy="3.59375" r="3.59375" transform="matrix(-0.866025 0.5 0.5 0.866025 31.9225 15.0898)" fill="#B3EFCA"/>
<circle cx="3.59375" cy="3.59375" r="3.59375" transform="matrix(-0.866025 0.5 0.5 0.866025 41.7408 17.7206)" fill="#86B6EB"/>
</g>
<defs>
<filter id="filter0_f_112_34" x="0" y="1" width="64" height="64" filterUnits="userSpaceOnUse" color-interpolation-filters="sRGB">
<feFlood flood-opacity="0" result="BackgroundImageFix"/>
<feBlend mode="normal" in="SourceGraphic" in2="BackgroundImageFix" result="shape"/>
<feGaussianBlur stdDeviation="2" result="effect1_foregroundBlur_112_34"/>
</filter>
<clipPath id="clip0_112_34">
<rect width="64" height="64" fill="white"/>
</clipPath>
</defs>
</svg>
