<svg width="64" height="64" viewBox="0 0 64 64" fill="none" xmlns="http://www.w3.org/2000/svg">
<g clip-path="url(#clip0_143_73)">
<g opacity="0.16" filter="url(#filter0_f_143_73)">
<rect x="4" y="5" width="56" height="56" rx="16" fill="#666569"/>
</g>
<rect x="4" y="4" width="56" height="56" rx="16" fill="#FFFAFA"/>
<path fill-rule="evenodd" clip-rule="evenodd" d="M23.2889 19.7777C23.2889 18.035 24.7017 16.6222 26.4444 16.6222H37.5555C39.2983 16.6222 40.7111 18.035 40.7111 19.7777V48.6666C40.7111 50.4094 39.2983 51.8222 37.5555 51.8222H26.4444C24.7017 51.8222 23.2889 50.4094 23.2889 48.6666L23.2889 19.7777ZM26.4444 18.4889C25.7326 18.4889 25.1555 19.0659 25.1555 19.7777V48.6666C25.1555 49.3785 25.7326 49.9555 26.4444 49.9555H37.5555C38.2674 49.9555 38.8444 49.3785 38.8444 48.6666V19.7777C38.8444 19.0659 38.2674 18.4889 37.5555 18.4889H26.4444Z" fill="#94E0B1"/>
<path d="M27.5555 26.4445C27.5555 25.8308 28.053 25.3334 28.6667 25.3334H35.3333C35.947 25.3334 36.4444 25.8308 36.4444 26.4445V46.4445C36.4444 47.0582 35.947 47.5556 35.3333 47.5556H28.6667C28.053 47.5556 27.5555 47.0582 27.5555 46.4445V26.4445Z" fill="#94E0B1"/>
<path fill-rule="evenodd" clip-rule="evenodd" d="M28.6667 24.6466H35.3333C36.3262 24.6466 37.1311 25.4515 37.1311 26.4444V46.4444C37.1311 47.4373 36.3262 48.2422 35.3333 48.2422H28.6667C27.6738 48.2422 26.8689 47.4373 26.8689 46.4444V26.4444C26.8689 25.4515 27.6738 24.6466 28.6667 24.6466ZM28.6667 25.3333C28.053 25.3333 27.5556 25.8307 27.5556 26.4444V46.4444C27.5556 47.0581 28.053 47.5555 28.6667 47.5555H35.3333C35.947 47.5555 36.4445 47.0581 36.4445 46.4444V26.4444C36.4445 25.8307 35.947 25.3333 35.3333 25.3333H28.6667Z" fill="#94E0B1"/>
<path fill-rule="evenodd" clip-rule="evenodd" d="M27.8799 14.7778H36.1201C36.1154 14.7664 36.1109 14.755 36.1061 14.7436C35.8828 14.2044 35.5554 13.7145 35.1427 13.3017C34.73 12.889 34.24 12.5617 33.7008 12.3383C33.1615 12.115 32.5836 12 32 12C31.4163 12 30.8384 12.115 30.2992 12.3383C29.7599 12.5617 29.27 12.889 28.8573 13.3017C28.4446 13.7145 28.1172 14.2044 27.8939 14.7436C27.8891 14.755 27.8845 14.7664 27.8799 14.7778Z" fill="#94E0B1"/>
</g>
<defs>
<filter id="filter0_f_143_73" x="0" y="1" width="64" height="64" filterUnits="userSpaceOnUse" color-interpolation-filters="sRGB">
<feFlood flood-opacity="0" result="BackgroundImageFix"/>
<feBlend mode="normal" in="SourceGraphic" in2="BackgroundImageFix" result="shape"/>
<feGaussianBlur stdDeviation="2" result="effect1_foregroundBlur_143_73"/>
</filter>
<clipPath id="clip0_143_73">
<rect width="64" height="64" fill="white"/>
</clipPath>
</defs>
</svg>
