<svg width="64" height="64" viewBox="0 0 64 64" fill="none" xmlns="http://www.w3.org/2000/svg">
<g clip-path="url(#clip0_23_540)">
<g opacity="0.16" filter="url(#filter0_f_23_540)">
<rect x="4" y="5" width="56" height="56" rx="16" fill="#666569"/>
</g>
<rect x="4" y="4" width="56" height="56" rx="16" fill="#FFFAFA"/>
<path d="M28.1354 13.943C26.3996 14.3286 24.6832 14.8656 23.0728 15.6763C23.1099 17.0972 23.2008 18.4601 23.3868 19.8431C22.7622 20.2447 22.1048 20.5864 21.5214 21.0553C20.928 21.5124 20.3219 21.9485 19.7848 22.483C18.6969 21.7631 17.5682 21.1071 16.4042 20.5183C15.1432 21.8752 13.963 23.3399 13 24.9797C13.7044 26.1266 14.4721 27.2333 15.2998 28.2947H15.3225V38.36L15.3772 38.3616L21.5475 38.9568C21.7036 38.9723 21.8492 39.0424 21.9586 39.1549C22.0679 39.2673 22.134 39.4148 22.1452 39.5713L22.3363 42.2962L27.7178 42.6792L28.0891 40.1656C28.1124 40.0081 28.1916 39.8642 28.3121 39.7601C28.4326 39.6559 28.5864 39.5985 28.7456 39.5982H35.256C35.5852 39.5982 35.8638 39.839 35.9126 40.1656L36.283 42.6792L41.6646 42.2962L41.8557 39.5713C41.8668 39.4148 41.9329 39.2673 42.0423 39.1549C42.1516 39.0424 42.2972 38.9723 42.4533 38.9568L48.6211 38.3616C48.6402 38.36 48.6587 38.3594 48.6767 38.36V37.556H48.6783V28.2947H48.7019C49.529 27.2333 50.2962 26.1266 51 24.9797C50.037 23.3399 48.8568 21.8761 47.595 20.5183C46.4249 21.1075 45.2902 21.7725 44.2169 22.483C43.6798 21.9485 43.0746 21.5124 42.4803 21.0553C41.8969 20.5864 41.2386 20.2447 40.614 19.8431C40.8001 18.4601 40.8918 17.0972 40.928 15.6763C39.3185 14.8656 37.6013 14.3294 35.8646 13.943C35.1692 15.1265 34.5416 16.3485 33.9849 17.6031C33.3332 17.499 32.6743 17.4461 32.0143 17.4449H31.9874C31.3274 17.4533 30.6717 17.4937 30.0167 17.6031C29.4595 16.3484 28.8314 15.1264 28.1354 13.943ZM15.3115 39.69C15.3141 40.286 15.3233 40.9392 15.3233 41.0697C15.3233 46.9285 22.7546 49.746 31.9899 49.7788H32.0126C41.247 49.746 48.6775 46.9285 48.6775 41.0697C48.6775 40.9367 48.6842 40.2868 48.6876 39.69L43.1419 40.2262L42.9508 42.9637C42.9395 43.1231 42.8712 43.2731 42.7584 43.3863C42.6455 43.4994 42.4957 43.5681 42.3363 43.5799L35.7645 44.0488C35.5972 44.0608 35.4316 44.0091 35.3008 43.9043C35.17 43.7994 35.0837 43.6489 35.0591 43.4831L34.6828 40.9266H29.3197L28.9435 43.4831C28.9194 43.6489 28.8335 43.7994 28.7029 43.9044C28.5723 44.0093 28.4068 44.0609 28.2397 44.0488L21.6662 43.5799C21.5068 43.5681 21.357 43.4994 21.2442 43.3863C21.1313 43.2731 21.063 43.1231 21.0517 42.9637L20.8606 40.2262L15.3115 39.69Z" fill="#86B6EB"/>
<path d="M26.9727 32.3799C26.9729 32.8681 26.8768 33.3516 26.6901 33.8027C26.5033 34.2538 26.2296 34.6637 25.8844 35.009C25.5393 35.3543 25.1295 35.6282 24.6785 35.8152C24.2275 36.0021 23.7441 36.0984 23.2558 36.0985C22.7676 36.0986 22.2841 36.0025 21.833 35.8158C21.3819 35.6291 20.972 35.3553 20.6267 35.0102C20.2814 34.665 20.0075 34.2553 19.8206 33.8042C19.6336 33.3532 19.5373 32.8698 19.5372 32.3816C19.537 31.3956 19.9285 30.4499 20.6255 29.7525C21.3226 29.0551 22.2681 28.6632 23.2541 28.663C24.2402 28.6628 25.1859 29.0542 25.8832 29.7513C26.5806 30.4483 26.9725 31.3939 26.9727 32.3799ZM32.0007 36.4373C31.3399 36.4373 30.8037 35.9499 30.8037 35.3497V31.9262C30.8037 31.326 31.3399 30.8386 32.0007 30.8386C32.6616 30.8386 33.1986 31.326 33.1986 31.9262V35.3489C33.1986 35.9491 32.6616 36.4373 32.0007 36.4373ZM37.0287 32.3799C37.0212 32.8728 37.1118 33.3623 37.2952 33.8199C37.4786 34.2775 37.7512 34.6941 38.097 35.0454C38.4429 35.3967 38.8552 35.6756 39.3099 35.8661C39.7646 36.0566 40.2527 36.1547 40.7457 36.1549C41.2386 36.155 41.7267 36.057 42.1815 35.8668C42.6363 35.6765 43.0487 35.3977 43.3948 35.0466C43.7408 34.6954 44.0136 34.279 44.1972 33.8215C44.3808 33.364 44.4716 32.8745 44.4643 32.3816C44.4498 31.4052 44.0519 30.4738 43.3564 29.7884C42.6609 29.103 41.7238 28.7187 40.7473 28.7185C39.7709 28.7183 38.8336 29.1022 38.1378 29.7872C37.442 30.4723 37.0437 31.4036 37.0287 32.3799Z" fill="#FFFAFA"/>
<path d="M23.6108 30.1323C23.2866 30.1322 22.9655 30.196 22.6659 30.3199C22.3663 30.4439 22.0941 30.6257 21.8647 30.8549C21.6354 31.0841 21.4534 31.3562 21.3293 31.6557C21.2051 31.9552 21.1411 32.2762 21.141 32.6004C21.141 33.2553 21.4011 33.8832 21.8641 34.3463C22.3272 34.8093 22.9551 35.0694 23.61 35.0694C24.2648 35.0694 24.8928 34.8093 25.3558 34.3463C25.8188 33.8832 26.0789 33.2553 26.0789 32.6004C26.0791 32.2763 26.0155 31.9552 25.8915 31.6557C25.7675 31.3561 25.5857 31.084 25.3565 30.8547C25.1273 30.6255 24.8551 30.4437 24.5556 30.3197C24.256 30.1958 23.935 30.1321 23.6108 30.1323ZM40.391 30.1323C40.0669 30.1324 39.746 30.1963 39.4465 30.3204C39.1471 30.4444 38.875 30.6263 38.6459 30.8555C38.4168 31.0847 38.235 31.3569 38.111 31.6563C37.987 31.9558 37.9232 32.2767 37.9233 32.6009C37.9234 32.925 37.9873 33.2459 38.1113 33.5453C38.2354 33.8448 38.4173 34.1168 38.6465 34.346C38.8757 34.5751 39.1478 34.7569 39.4473 34.8809C39.7468 35.0048 40.0677 35.0686 40.3918 35.0686C41.0464 35.0685 41.6742 34.8083 42.1369 34.3454C42.5997 33.8824 42.8597 33.2546 42.8595 32.6C42.8594 31.9454 42.5993 31.3177 42.1364 30.8549C41.6734 30.3921 41.0456 30.1322 40.391 30.1323Z" fill="#666569"/>
</g>
<defs>
<filter id="filter0_f_23_540" x="0" y="1" width="64" height="64" filterUnits="userSpaceOnUse" color-interpolation-filters="sRGB">
<feFlood flood-opacity="0" result="BackgroundImageFix"/>
<feBlend mode="normal" in="SourceGraphic" in2="BackgroundImageFix" result="shape"/>
<feGaussianBlur stdDeviation="2" result="effect1_foregroundBlur_23_540"/>
</filter>
<clipPath id="clip0_23_540">
<rect width="64" height="64" fill="white"/>
</clipPath>
</defs>
</svg>
