<svg width="64" height="64" viewBox="0 0 64 64" fill="none" xmlns="http://www.w3.org/2000/svg">
<g clip-path="url(#clip0_14_24)">
<g opacity="0.16" filter="url(#filter0_f_14_24)">
<rect x="4" y="5" width="56" height="56" rx="16" fill="#666569"/>
</g>
<rect x="4" y="4" width="56" height="56" rx="16" fill="#FFFAFA"/>
<path fill-rule="evenodd" clip-rule="evenodd" d="M31.9958 12.0028C28.8899 11.9979 25.8259 12.7191 23.0482 14.1089C20.2706 15.4987 17.8564 17.5185 15.9981 20.0073L25.9932 35.0026L38.9979 37.6036L32.9953 23.003H49.8553C48.1946 19.6907 45.644 16.9067 42.4894 14.9632C39.3348 13.0197 35.701 11.9964 31.9958 12.0028Z" fill="#F86974"/>
<path fill-rule="evenodd" clip-rule="evenodd" d="M16.0037 20.0017C13.3999 23.4845 11.9951 27.7173 12.0001 32.0657C11.9964 34.6902 12.5117 37.2895 13.5164 39.7141C14.5211 42.1387 15.9953 44.3406 17.8542 46.1933C19.7131 48.046 21.92 49.5128 24.348 50.5093C26.7759 51.5058 29.3769 52.0123 32.0014 51.9998L39.0007 37.6652L26.0016 35.0026L16.0037 20.0017Z" fill="#94E0B1"/>
<path fill-rule="evenodd" clip-rule="evenodd" d="M32.9981 22.9974L38.9979 37.6008L31.9986 51.9998C34.627 52.0053 37.2306 51.4917 39.6599 50.4885C42.0893 49.4853 44.2965 48.0121 46.155 46.1537C48.0134 44.2953 49.4864 42.0881 50.4894 39.659C51.4925 37.2298 52.0058 34.6265 51.9999 31.9985C51.9999 28.7508 51.2159 25.7047 49.8581 22.9974H32.9981Z" fill="#FFDB6A"/>
<path d="M32.007 22.3674C33.2726 22.3645 34.5263 22.6116 35.6961 23.0945C36.866 23.5775 37.9289 24.2868 38.8238 25.1817C39.7187 26.0766 40.428 27.1395 40.911 28.3094C41.3939 29.4792 41.641 30.7329 41.6381 31.9985C41.641 33.2641 41.3939 34.5178 40.911 35.6876C40.428 36.8575 39.7187 37.9204 38.8238 38.8153C37.9289 39.7102 36.866 40.4195 35.6961 40.9025C34.5263 41.3854 33.2726 41.6325 32.007 41.6296C30.7414 41.6325 29.4877 41.3854 28.3179 40.9025C27.148 40.4195 26.0851 39.7102 25.1902 38.8153C24.2953 37.9204 23.586 36.8575 23.103 35.6876C22.6201 34.5178 22.373 33.2641 22.3759 31.9985C22.373 30.7329 22.6201 29.4792 23.103 28.3094C23.586 27.1395 24.2953 26.0766 25.1902 25.1817C26.0851 24.2868 27.148 23.5775 28.3179 23.0945C29.4877 22.6116 30.7414 22.3645 32.007 22.3674Z" fill="#FFFAFA"/>
<path d="M32 24.7273C32.9557 24.7251 33.9024 24.9118 34.7857 25.2766C35.6691 25.6414 36.4717 26.1771 37.1474 26.853C37.8232 27.5289 38.3588 28.3316 38.7235 29.2151C39.0883 30.0986 39.2749 31.0455 39.2727 32.0014C39.2745 32.957 39.0876 33.9036 38.7227 34.7868C38.3579 35.67 37.8222 36.4724 37.1465 37.148C36.4707 37.8236 35.6682 38.3591 34.7851 38.7237C33.9019 39.0883 32.9554 39.2749 32 39.2727C31.0446 39.2749 30.0981 39.0883 29.2149 38.7237C28.3318 38.3591 27.5293 37.8236 26.8535 37.148C26.1778 36.4724 25.6421 35.67 25.2773 34.7868C24.9124 33.9036 24.7255 32.957 24.7273 32.0014C24.7251 31.0455 24.9117 30.0986 25.2765 29.2151C25.6412 28.3316 26.1768 27.5289 26.8526 26.853C27.5283 26.1771 28.3309 25.6414 29.2143 25.2766C30.0976 24.9118 31.0443 24.7251 32 24.7273Z" fill="#86B6EB"/>
</g>
<defs>
<filter id="filter0_f_14_24" x="0" y="1" width="64" height="64" filterUnits="userSpaceOnUse" color-interpolation-filters="sRGB">
<feFlood flood-opacity="0" result="BackgroundImageFix"/>
<feBlend mode="normal" in="SourceGraphic" in2="BackgroundImageFix" result="shape"/>
<feGaussianBlur stdDeviation="2" result="effect1_foregroundBlur_14_24"/>
</filter>
<clipPath id="clip0_14_24">
<rect width="64" height="64" fill="white"/>
</clipPath>
</defs>
</svg>
