<svg width="64" height="64" viewBox="0 0 64 64" fill="none" xmlns="http://www.w3.org/2000/svg">
<g clip-path="url(#clip0_68_272)">
<g opacity="0.16" filter="url(#filter0_f_68_272)">
<rect x="4" y="5" width="56" height="56" rx="16" fill="#666569"/>
</g>
<rect x="4" y="4" width="56" height="56" rx="16" fill="#FFFAFA"/>
<path fill-rule="evenodd" clip-rule="evenodd" d="M31.9965 15.5034C31.5005 15.5016 31.0093 15.6007 30.5529 15.7949C30.0965 15.9891 29.6845 16.2742 29.3419 16.6329L16.1261 30.2545C15.4191 30.9876 15.0166 31.9617 15 32.9801V33.0478C15 35.9662 22.7949 33.1323 23.4949 36.7C23.877 38.6344 19.2474 37.7484 19.2474 39.6895C19.2474 41.9721 25.8046 40.4064 27.6814 42.2832C28.4525 44.1635 25.1722 43.8591 25.7539 45.6075C26.8563 46.7403 29.3317 46.1012 29.8085 47.9341C30.3496 50.0274 33.9072 49.6655 35.9836 48.1302C37.0826 46.9974 34.2826 46.4766 35.385 45.3403C36.4841 44.2074 41.9219 44.434 41.9591 41.9518C41.4417 40.3895 39.3991 40.1392 39.3687 38.2996C39.2605 36.7338 41.0392 37.1904 46.6732 35.6382C48.9288 34.5831 49.0066 34.0217 48.9964 33.0478V32.9801C48.9545 31.955 48.5283 30.9832 47.8027 30.2579L34.6545 16.6329C34.3126 16.2732 33.9007 15.9871 33.4442 15.7923C32.9877 15.5975 32.4962 15.498 31.9999 15.5L31.9965 15.5034ZM47.4036 38.8271C47.1582 38.8154 46.9123 38.8381 46.6732 38.8948C46.3113 38.9962 44.6069 39.0571 44.7456 40.3557C46.2944 41.005 48.6515 41.5224 48.9322 40.2204C49.1418 39.2498 48.2085 38.8576 47.4036 38.8271ZM21.0397 43.1456C20.891 43.1625 20.7895 43.2267 20.6407 43.2808C19.4706 43.7272 18.6827 44.664 19.7784 45.0732C20.874 45.4857 21.6045 45.0495 22.5683 44.5422C23.5287 44.035 23.5016 43.9437 23.4306 43.7441C23.2954 43.7712 22.4263 43.2267 21.503 43.1456C21.349 43.1308 21.1938 43.1308 21.0397 43.1456Z" fill="#434345"/>
<path fill-rule="evenodd" clip-rule="evenodd" d="M32.2603 19.1354C33.2545 19.1422 35.9802 22.5137 38.4083 25.0365C39.0914 25.9529 38.0498 27.0047 38.0498 27.0047L33.2072 23.9713L30.7859 27.0013L28.9733 24.58L27.7626 28.8139L24.1306 26.6902L30.5424 19.8591C30.9617 19.433 31.2864 19.1219 32.2603 19.132V19.1354Z" fill="#FFFAFA"/>
</g>
<defs>
<filter id="filter0_f_68_272" x="0" y="1" width="64" height="64" filterUnits="userSpaceOnUse" color-interpolation-filters="sRGB">
<feFlood flood-opacity="0" result="BackgroundImageFix"/>
<feBlend mode="normal" in="SourceGraphic" in2="BackgroundImageFix" result="shape"/>
<feGaussianBlur stdDeviation="2" result="effect1_foregroundBlur_68_272"/>
</filter>
<clipPath id="clip0_68_272">
<rect width="64" height="64" fill="white"/>
</clipPath>
</defs>
</svg>
