<svg width="64" height="64" viewBox="0 0 64 64" fill="none" xmlns="http://www.w3.org/2000/svg">
<g clip-path="url(#clip0_65_116)">
<g opacity="0.16" filter="url(#filter0_f_65_116)">
<rect x="4" y="5" width="56" height="56" rx="16" fill="#666569"/>
</g>
<rect x="4" y="4" width="56" height="56" rx="16" fill="#FFFAFA"/>
<path d="M19.911 44.0379C19.8668 43.9206 19.8511 43.2258 19.8762 42.4938L19.9217 41.1628H24.8968H29.872V42.6651V44.1675L24.9317 44.2092C20.9034 44.2433 19.9765 44.2116 19.911 44.0379ZM15.2466 38.5023C15.2025 38.3855 15.1869 37.6909 15.212 36.9589L15.2576 35.6279H22.5648H29.872V37.1302V38.6326L22.5993 38.6737C16.6268 38.7074 15.3124 38.6769 15.2466 38.5023ZM18.3562 32.9678C18.312 32.8508 18.2964 32.156 18.3214 31.424L18.367 30.093H24.1195H29.872V31.5954V33.0977L24.1542 33.1392C19.4778 33.1731 18.4218 33.1419 18.3562 32.9678ZM22.2433 27.4338C22.199 27.3163 22.1832 26.6212 22.2082 25.8891L22.2538 24.5582H26.0629H29.872V26.0605V27.5628L26.0979 27.6052C23.0422 27.6395 22.3086 27.6069 22.2433 27.4338Z" fill="#B1CFEF"/>
<path d="M32.2818 34.2966V20.3931L30.0274 17.4338C28.7875 15.8061 27.7731 14.4127 27.7731 14.3372C27.7731 14.2618 30.1518 14.2 33.0591 14.2C35.9665 14.2 38.3452 14.2618 38.3452 14.3372C38.3452 14.4127 37.3307 15.8061 36.0908 17.4338L33.8365 20.3931V34.2966V48.2H33.0591H32.2818V34.2966Z" fill="#F86974"/>
<path d="M36.3954 43.8909C36.3545 43.7821 36.3393 39.4244 36.3614 34.207C36.3971 25.8161 36.4294 24.7153 36.641 24.6739C36.9828 24.6069 49.1386 33.9094 49.1992 34.2844C49.2371 34.5183 47.8531 35.6493 43.0162 39.3372C39.5887 41.9504 36.7136 44.0885 36.6271 44.0885C36.5405 44.0885 36.4363 43.9996 36.3954 43.8909Z" fill="#86B6EB"/>
</g>
<defs>
<filter id="filter0_f_65_116" x="0" y="1" width="64" height="64" filterUnits="userSpaceOnUse" color-interpolation-filters="sRGB">
<feFlood flood-opacity="0" result="BackgroundImageFix"/>
<feBlend mode="normal" in="SourceGraphic" in2="BackgroundImageFix" result="shape"/>
<feGaussianBlur stdDeviation="2" result="effect1_foregroundBlur_65_116"/>
</filter>
<clipPath id="clip0_65_116">
<rect width="64" height="64" fill="white"/>
</clipPath>
</defs>
</svg>
