<svg width="64" height="64" viewBox="0 0 64 64" fill="none" xmlns="http://www.w3.org/2000/svg">
<g clip-path="url(#clip0_94_275)">
<g opacity="0.16" filter="url(#filter0_f_94_275)">
<rect x="4" y="5" width="56" height="56" rx="16" fill="#666569"/>
</g>
<rect x="6" y="6" width="52" height="52" rx="14" fill="#FFFAFA" stroke="#FC9F7E" stroke-width="4"/>
<path d="M25.0767 31C24.2789 30.9994 23.4888 31.156 22.7516 31.4609C22.0143 31.7658 21.3444 32.2129 20.7801 32.7769C20.2158 33.3408 19.7681 34.0103 19.4626 34.7473C19.1572 35.4843 19 36.2743 19 37.0721C19.0012 38.6817 19.6415 40.225 20.7801 41.3627C21.9187 42.5005 23.4625 43.1396 25.0721 43.1396C26.6817 43.1396 28.2255 42.5005 29.3641 41.3627C30.5027 40.225 31.1429 38.6817 31.1442 37.0721H25.0767V31Z" fill="#FAC19F"/>
<path d="M45.7162 31H33.5721V33.4279H45.7162V31Z" fill="#FAC19F"/>
<path d="M45.7162 38.2838H33.5721V40.7117H45.7162V38.2838Z" fill="#FAC19F"/>
<path d="M40.8558 45.5721H19V48H40.8558V45.5721Z" fill="#FAC19F"/>
<line x1="36.4142" y1="6.58579" x2="57.4142" y2="27.5858" stroke="#FC9F7E" stroke-width="4"/>
</g>
<defs>
<filter id="filter0_f_94_275" x="0" y="1" width="64" height="64" filterUnits="userSpaceOnUse" color-interpolation-filters="sRGB">
<feFlood flood-opacity="0" result="BackgroundImageFix"/>
<feBlend mode="normal" in="SourceGraphic" in2="BackgroundImageFix" result="shape"/>
<feGaussianBlur stdDeviation="2" result="effect1_foregroundBlur_94_275"/>
</filter>
<clipPath id="clip0_94_275">
<rect width="64" height="64" fill="white"/>
</clipPath>
</defs>
</svg>
