<svg width="64" height="64" viewBox="0 0 64 64" fill="none" xmlns="http://www.w3.org/2000/svg">
<g clip-path="url(#clip0_196_8)">
<g opacity="0.16" filter="url(#filter0_f_196_8)">
<rect x="4" y="5" width="56" height="56" rx="16" fill="#666569"/>
</g>
<rect x="4" y="4" width="56" height="56" rx="16" fill="#86B6EB"/>
<path d="M32.0635 12C28.7879 12 26.2088 12.5652 23.3905 13.9008C17.3323 16.773 13.1123 22.5251 12.1453 29.2311C11.9523 30.5728 11.9514 33.2711 12.1436 34.7389C12.5932 38.1667 13.9549 41.411 16.1444 44.2692C16.9271 45.2901 18.7184 47.0935 19.674 47.8214C22.6018 50.0535 25.9566 51.4517 29.4644 51.9022C30.5931 52.0474 33.4992 52.0274 34.7287 51.8657C38.2879 51.3996 41.8766 49.8379 44.6905 47.5301C45.7165 46.6892 47.2618 45.0623 48.0539 43.991C50.7174 40.3893 52 36.5154 52 32.0737C52 28.6998 51.4217 26.1425 49.9957 23.2034C48.9417 21.0295 47.7113 19.3495 45.8748 17.5773C42.0644 13.9 37.3618 12.0017 32.0627 12.0017L32.0635 12ZM31.9974 15.0295C34.9061 15.0321 37.1209 15.5556 39.7044 16.8521C41.4079 17.706 42.7305 18.6904 44.1852 20.1825C46.5174 22.5781 47.9974 25.3764 48.6844 28.6903C48.9444 29.9407 49.0426 32.8224 48.8731 34.1841C48.52 37.0119 47.3209 39.9406 45.5591 42.2797C44.9096 43.1405 43.3592 44.7057 42.4635 45.4049C40.7774 46.7205 39.0313 47.6283 36.8887 48.304C36.1531 48.5361 36.0296 48.5387 36.0957 48.3205C36.2453 47.8248 36.3514 47.157 36.3879 46.4709C36.4453 45.384 37.134 43.6605 37.8226 42.8753C38.4287 42.1858 38.5444 41.6353 38.5557 39.3927C38.5661 37.5371 38.5861 37.3206 38.8253 36.4884C39.2305 35.0711 39.6513 34.0711 40.1426 33.3546C40.4566 32.8846 40.7519 32.4025 41.0279 31.9093C41.2697 31.4717 41.5255 31.0419 41.7948 30.6207C42.2757 29.8946 43.3035 28.8903 43.8105 28.652C44.3774 28.3859 45.0018 27.6677 45.2087 27.0451C45.4218 26.4051 45.3565 25.3955 45.0792 25.0242C44.9157 24.8068 44.8113 24.7677 44.3922 24.7677C44.0078 24.7677 43.8444 24.7155 43.6531 24.5373C43.3905 24.2903 43.1974 24.3242 43.1974 24.6155C43.1974 24.8442 42.847 25.2807 42.7452 25.1799C42.7026 25.1372 42.7479 24.8955 42.8452 24.6407C43.2018 23.712 43.3174 23.1181 43.2609 22.5173C43.167 21.526 42.5496 20.0112 42.2139 19.9469C42.1331 19.9312 41.6939 20.2321 41.2383 20.6164C38.8618 22.6164 37.0557 23.9877 35.7992 24.7477C35.1992 25.1103 35.1966 25.1112 34.1853 25.0894C32.987 25.0633 32.8174 25.1259 30.8201 26.3372C30.127 26.7572 29.347 27.1816 29.0862 27.2807C28.8235 27.3807 27.9905 27.525 27.2235 27.6042C25.6479 27.7659 25.2262 27.8642 24.6375 28.2042C24.0549 28.5416 23.9079 28.792 24.0323 29.2416C24.154 29.6807 24.7983 30.5459 25.5749 31.3094L26.1592 31.8833L25.707 32.5815C25.3947 33.0865 25.1176 33.6124 24.8775 34.1554C24.4636 35.1154 24.3496 35.2954 23.5253 36.3119C22.8105 37.191 22.0192 38.458 21.2792 39.9075C20.647 41.1475 20.3444 41.4692 19.1827 42.1336C18.5331 42.5058 18.5566 42.5179 17.821 41.4075C16.4731 39.3754 15.5427 36.9528 15.1705 34.5015C14.9845 33.2763 14.9879 30.7363 15.1775 29.4572C15.4679 27.5059 16.2097 25.3703 17.2244 23.5712C18.601 21.1277 21.1157 18.6104 23.5479 17.2391C26.2201 15.7321 28.9183 15.0269 31.9974 15.0295ZM35.1618 26.1198L34.2574 27.2764L32.8053 27.4807L33.7079 26.3242L35.1618 26.1198Z" fill="#FFFAFA"/>
</g>
<defs>
<filter id="filter0_f_196_8" x="0" y="1" width="64" height="64" filterUnits="userSpaceOnUse" color-interpolation-filters="sRGB">
<feFlood flood-opacity="0" result="BackgroundImageFix"/>
<feBlend mode="normal" in="SourceGraphic" in2="BackgroundImageFix" result="shape"/>
<feGaussianBlur stdDeviation="2" result="effect1_foregroundBlur_196_8"/>
</filter>
<clipPath id="clip0_196_8">
<rect width="64" height="64" fill="white"/>
</clipPath>
</defs>
</svg>
