<svg width="64" height="64" viewBox="0 0 64 64" fill="none" xmlns="http://www.w3.org/2000/svg">
<g clip-path="url(#clip0_94_305)">
<g opacity="0.16" filter="url(#filter0_f_94_305)">
<rect x="4" y="5" width="56" height="56" rx="16" fill="#666569"/>
</g>
<rect x="6" y="6" width="52" height="52" rx="14" fill="#FFFAFA" stroke="#FFDB6A" stroke-width="4"/>
<line x1="36.4142" y1="6.58579" x2="57.4142" y2="27.5858" stroke="#FFDB6A" stroke-width="4"/>
<path fill-rule="evenodd" clip-rule="evenodd" d="M40.5195 29.1565C40.0054 28.9826 39.378 28.8919 38.7922 29.2208C37.8095 29.7688 37.458 30.8536 37.458 31.8438C37.458 32.8303 37.7074 33.8621 37.9342 34.8486C38.161 35.8388 38.3575 36.7875 38.35 37.4565C38.3462 38.1331 38.2517 38.3901 37.8435 38.5942C37.5185 38.7605 37.3144 38.7718 37.1103 38.7302C36.8352 38.6565 36.5831 38.5148 36.377 38.3183C35.8101 37.8307 35.16 36.9085 34.423 35.9144C33.6859 34.9204 32.8469 33.8508 31.7168 33.0911C31.0964 32.6705 30.395 32.3843 29.6576 32.2509C28.9201 32.1174 28.1628 32.1397 27.4345 32.3163H27.4005C26.3044 32.6111 25.4842 33.4426 24.9135 34.4669C24.3465 35.4873 23.9913 36.7271 23.8174 38.0461C23.7947 38.254 23.8439 38.4732 23.8287 38.6887C23.447 38.6622 23.122 38.5299 22.7327 38.5224L20.8504 38.477L20.0378 38.4581L20 40.0833L20.8126 40.1022L22.7024 40.1438C23.1182 40.1627 23.4357 40.2837 23.8439 40.3177C23.893 42.2717 24.1954 44.222 25.1289 45.7225L25.144 45.749L25.1629 45.7716C26.6067 47.7522 29.071 48.3267 30.9042 47.6161C31.3782 47.4443 31.803 47.1593 32.1416 46.7858C32.4802 46.4123 32.7223 45.9616 32.8469 45.4731C33.0888 44.4374 32.7977 43.228 31.9511 41.9202C31.146 40.673 29.7589 39.8717 28.145 39.3425C27.3362 39.078 26.3535 39.0666 25.4426 38.9306C25.4577 38.7038 25.4048 38.4732 25.4313 38.2502C25.5825 37.0937 25.9 36.0316 26.3346 35.2568C26.7617 34.4857 27.272 34.0435 27.8124 33.8924C28.3209 33.7554 28.8534 33.7329 29.3717 33.8263C29.8899 33.9198 30.381 34.1269 30.8097 34.4328C31.6525 34.9998 32.4084 35.9144 33.119 36.8745C33.8296 37.8307 34.4797 38.8247 35.3187 39.5429C35.7345 39.9019 36.2183 40.2005 36.789 40.3139C37.3982 40.4234 38.0265 40.3249 38.573 40.0342C39.5783 39.5315 39.9639 38.4468 39.9752 37.4679C39.9865 36.4889 39.7409 35.4684 39.5141 34.482C39.2873 33.4879 39.0794 32.5317 39.0794 31.8362C39.0794 31.1446 39.189 30.8498 39.5821 30.6268C39.5897 30.6268 39.7182 30.589 40.0054 30.6835C40.2889 30.7817 40.6631 30.9858 41.0108 31.224C41.7063 31.6964 42.2921 32.2596 42.2921 32.2596L42.8704 32.8265L44.0043 31.6662L43.4222 31.0992C43.4222 31.0992 42.7645 30.4567 41.9217 29.8822C41.4911 29.5743 41.0206 29.3264 40.5232 29.1452L40.5195 29.1565ZM25.4653 40.5709C26.191 40.6843 27.0225 40.6919 27.6386 40.8922C29.0446 41.3533 30.0802 42.0261 30.5867 42.8122C31.2783 43.8781 31.3766 44.6378 31.267 45.1178C31.1536 45.594 30.8437 45.9077 30.3145 46.1118C29.2676 46.5162 27.495 46.1874 26.4971 44.8343C25.8357 43.7609 25.556 42.1886 25.4653 40.5671V40.5709Z" fill="#FFDB6A"/>
</g>
<defs>
<filter id="filter0_f_94_305" x="0" y="1" width="64" height="64" filterUnits="userSpaceOnUse" color-interpolation-filters="sRGB">
<feFlood flood-opacity="0" result="BackgroundImageFix"/>
<feBlend mode="normal" in="SourceGraphic" in2="BackgroundImageFix" result="shape"/>
<feGaussianBlur stdDeviation="2" result="effect1_foregroundBlur_94_305"/>
</filter>
<clipPath id="clip0_94_305">
<rect width="64" height="64" fill="white"/>
</clipPath>
</defs>
</svg>
