<svg width="64" height="64" viewBox="0 0 64 64" fill="none" xmlns="http://www.w3.org/2000/svg">
<g clip-path="url(#clip0_310_16)">
<g opacity="0.16" filter="url(#filter0_f_310_16)">
<rect x="4" y="5" width="56" height="56" rx="16" fill="#666569"/>
</g>
<rect x="4" y="4" width="56" height="56" rx="16" fill="#FFFAFA"/>
<path d="M32.0012 42.5146C37.8253 42.5146 42.5466 37.7932 42.5466 31.9692C42.5466 26.1451 37.8253 21.4237 32.0012 21.4237C26.1771 21.4237 21.4557 26.1451 21.4557 31.9692C21.4557 37.7932 26.1771 42.5146 32.0012 42.5146Z" fill="#94E0B1" stroke="#94E0B1" stroke-width="0.908999" stroke-linecap="round" stroke-linejoin="round"/>
<path d="M13.183 26.6055C12.7285 28.3327 12.4557 30.1509 12.4557 31.9691C12.4557 33.7873 12.7285 35.6055 13.183 37.2418C13.4557 37.2418 15.183 36.6964 15.2739 34.8782C15.3648 34.3327 15.2739 32.6964 15.2739 31.9691C15.183 31.1509 15.3648 29.6964 15.2739 29.1509C15.0921 27.2418 13.4557 26.6055 13.183 26.6055Z" fill="#94E0B1" stroke="#94E0B1" stroke-width="0.908999" stroke-linecap="round" stroke-linejoin="round"/>
<path d="M50.8193 26.6964C51.2739 28.4237 51.5466 30.151 51.5466 32.06C51.5466 33.8782 51.2739 35.6964 50.8193 37.3328C50.5466 37.3328 48.8193 36.7873 48.7284 34.9691C48.6375 34.4237 48.7284 32.7873 48.7284 32.06C48.8193 31.2419 48.6375 29.7873 48.7284 29.2419C48.9102 27.2419 50.5466 26.6964 50.8193 26.6964Z" fill="#94E0B1" stroke="#94E0B1" stroke-width="0.908999" stroke-linecap="round" stroke-linejoin="round"/>
<path d="M37.2739 13.151C35.6375 12.6964 33.8194 12.4237 32.0012 12.4237C30.183 12.4237 28.3648 12.6964 26.7285 13.151C26.7285 13.4237 27.2739 15.151 29.0921 15.2419C29.6375 15.3328 31.2739 15.2419 32.0012 15.2419C32.8194 15.151 34.2739 15.3328 34.8194 15.2419C36.7284 15.0601 37.2739 13.4237 37.2739 13.151Z" fill="#94E0B1" stroke="#94E0B1" stroke-width="0.908999" stroke-linecap="round" stroke-linejoin="round"/>
<path d="M37.2739 50.7873C35.5466 51.2419 33.8194 51.5146 31.9103 51.5146C30.0921 51.5146 28.2739 51.2419 26.6375 50.7873C26.6375 50.5146 27.183 48.7873 29.0012 48.6964C29.5466 48.6055 31.183 48.6964 31.9103 48.6964C32.7284 48.7873 34.183 48.6055 34.7284 48.6964C36.7284 48.8782 37.2739 50.5146 37.2739 50.7873Z" fill="#94E0B1" stroke="#94E0B1" stroke-width="0.908999" stroke-linecap="round" stroke-linejoin="round"/>
<path d="M22.4557 14.8783C20.9103 15.6965 19.4557 16.7874 18.183 18.151C16.9103 19.4237 15.8194 20.8783 15.0012 22.4237C15.183 22.6056 16.8194 23.4237 18.183 22.2419C18.6376 21.8783 19.7285 20.7874 20.2739 20.151C20.8194 19.6056 21.9103 18.6056 22.2739 18.151C23.4557 16.6965 22.6375 15.151 22.4557 14.8783Z" fill="#94E0B1" stroke="#94E0B1" stroke-width="0.908999" stroke-linecap="round" stroke-linejoin="round"/>
<path d="M49.0012 41.5146C48.183 43.0601 47.0921 44.5146 45.7284 45.7874C44.4557 47.0601 43.0012 48.151 41.4557 48.9692C41.2739 48.7874 40.4557 47.151 41.6375 45.7874C42.0012 45.3328 43.0921 44.2419 43.7284 43.6965C44.2739 43.151 45.2739 42.0601 45.7284 41.6965C47.2739 40.6056 48.8193 41.3328 49.0012 41.5146Z" fill="#94E0B1" stroke="#94E0B1" stroke-width="0.908999" stroke-linecap="round" stroke-linejoin="round"/>
<path d="M41.5466 14.8783C43.0921 15.6965 44.5466 16.7874 45.8193 18.151C47.0921 19.4237 48.183 20.8783 49.0012 22.4237C48.8193 22.6056 47.183 23.4237 45.8193 22.2419C45.3648 21.8783 44.2739 20.7874 43.7284 20.151C43.183 19.6056 42.0921 18.6056 41.7284 18.151C40.5466 16.6965 41.3648 15.151 41.5466 14.8783Z" fill="#94E0B1" stroke="#94E0B1" stroke-width="0.908999" stroke-linecap="round" stroke-linejoin="round"/>
<path d="M15.0012 41.5146C15.8194 43.06 16.9103 44.5146 18.2739 45.7873C19.5466 47.06 21.0012 48.1509 22.5466 48.9691C22.7285 48.7873 23.5466 47.1509 22.3648 45.7873C22.0012 45.3327 20.9103 44.2418 20.2739 43.6964C19.7285 43.1509 18.7285 42.06 18.2739 41.6964C16.7285 40.5146 15.183 41.3327 15.0012 41.5146Z" fill="#94E0B1" stroke="#94E0B1" stroke-width="0.908999" stroke-linecap="round" stroke-linejoin="round"/>
</g>
<defs>
<filter id="filter0_f_310_16" x="0" y="1" width="64" height="64" filterUnits="userSpaceOnUse" color-interpolation-filters="sRGB">
<feFlood flood-opacity="0" result="BackgroundImageFix"/>
<feBlend mode="normal" in="SourceGraphic" in2="BackgroundImageFix" result="shape"/>
<feGaussianBlur stdDeviation="2" result="effect1_foregroundBlur_310_16"/>
</filter>
<clipPath id="clip0_310_16">
<rect width="64" height="64" fill="white"/>
</clipPath>
</defs>
</svg>
