<svg width="64" height="64" viewBox="0 0 64 64" fill="none" xmlns="http://www.w3.org/2000/svg">
<g clip-path="url(#clip0_20_64)">
<g opacity="0.16" filter="url(#filter0_f_20_64)">
<rect x="4" y="5" width="56" height="56" rx="16" fill="#666569"/>
</g>
<rect x="4" y="4" width="56" height="56" rx="16" fill="#FFDB6A"/>
<path d="M42.481 19.6385L42.4386 21.1677L31.1731 22.063L22.6835 27.6314L20.6719 36.9398C20.6719 36.9398 22.0395 42.9562 23.2064 44.1757C24.3733 45.3952 26.7864 48.8929 29.764 49.5027C32.7416 50.1124 35.2767 50.8015 37.6909 50.1918C40.1052 49.582 41.7167 48.8512 41.7167 48.8512L42.7225 48.3633C42.7225 48.3633 42.4749 48.5824 42.0777 48.8638C46.8821 45.7521 50.0643 40.3088 50.0643 34.1153C50.0643 28.097 47.0593 22.789 42.481 19.6385Z" fill="#FBF29C"/>
<path d="M39.0035 17.9472C35.2004 17.9668 32.9856 18.4121 29.0393 20.1142C24.0328 22.467 19.0062 26.8725 18.9779 34.073C18.9449 42.4644 25.7131 49.266 34.0196 49.266C38.3119 49.266 42.934 47.682 45.674 44.7688C42.7252 47.2632 37.8654 48.0534 35.5709 48.0539C28.4028 48.0539 22.5432 42.6667 22.5432 35.4252C22.5432 30.8498 24.7632 27.479 28.3802 25.2947C29.6408 24.5335 32.3176 23.6677 36.0312 24.2332C37.9144 24.52 39.457 24.9304 41.8357 25.6966C44.5963 26.5859 46.1341 27.8281 48.2581 28.075C50.6772 28.3562 53.2327 26.0534 51.3455 22.4715C51.3455 22.4715 51.0035 22.8163 50.7175 22.9896C50.4316 23.1629 50.0324 22.934 48.8886 22.5296C47.7449 22.1252 47.5726 21.6609 45.9714 20.5632C44.3701 19.4655 44.3708 18.2537 39.6815 17.9649C39.4617 17.9513 39.2343 17.9448 39.0035 17.9472Z" fill="#FFFAFA"/>
<path d="M31.6382 12.0051C20.7927 12.0051 12 20.8873 12 31.8438C12 42.8003 20.833 51.9835 31.6382 51.9847C38.6875 52.1964 45.2266 48.8817 47.3821 43.4793C46.8049 43.7484 46.2116 44.2751 45.6633 44.7768C42.9222 47.684 38.3069 49.2656 34.0193 49.2656C25.7129 49.2656 18.9456 42.4651 18.9786 34.0737C18.9861 32.1754 19.3483 30.4765 19.9586 28.9531C20.3632 28.3546 21.4018 28.4395 22.124 28.5523C23.8558 28.823 25.6315 29.2895 26.7418 31.0914C26.8354 31.2277 26.9025 31.3837 27.0068 31.5126C27.5202 32.1473 28.0748 32.3103 28.6338 32.3363C29.8284 32.3714 30.3928 31.4706 30.446 30.2592C30.4475 30.1642 30.4458 30.2099 30.4392 30.1267C30.3997 29.2832 29.1175 26.0664 27.0034 25.9674C26.9798 25.9666 26.9571 25.9655 26.9338 25.964C25.761 25.8916 24.8497 24.8825 24.8838 23.678C24.999 22.9145 25.3509 22.3098 26.0285 21.8149C27.0056 21.1609 28.0222 20.5931 29.0397 20.1148C32.986 18.4127 35.201 17.9673 39.0041 17.9477C39.2349 17.9454 39.4619 17.9512 39.6817 17.9647C40.0586 17.9879 40.3591 18.0269 40.6786 18.0615C44.3352 18.4574 44.4982 19.5538 45.9708 20.5632C47.3826 21.695 48.9603 22.9859 50.4177 22.9859C51.1179 22.9859 51.3205 22.4961 51.3359 22.4807C51.2756 22.2169 51.1372 21.6024 51.0795 21.1933C50.9151 20.0286 51.307 18.6785 50.7975 17.6777C50.288 16.6768 49.92 16.2474 47.3159 14.8176C44.7117 13.3878 42.3906 14.1875 42.3906 14.1875C42.3906 14.1875 41.8811 13.7585 41.6263 13.4725C41.3716 13.1866 41.1446 12.9293 40.7483 12.9579C40.4057 12.9826 40.0915 13.6856 39.9993 13.9005C37.4615 12.6905 34.631 12.0051 31.6382 12.0051Z" fill="#C05460"/>
</g>
<defs>
<filter id="filter0_f_20_64" x="0" y="1" width="64" height="64" filterUnits="userSpaceOnUse" color-interpolation-filters="sRGB">
<feFlood flood-opacity="0" result="BackgroundImageFix"/>
<feBlend mode="normal" in="SourceGraphic" in2="BackgroundImageFix" result="shape"/>
<feGaussianBlur stdDeviation="2" result="effect1_foregroundBlur_20_64"/>
</filter>
<clipPath id="clip0_20_64">
<rect width="64" height="64" fill="white"/>
</clipPath>
</defs>
</svg>
