<svg width="64" height="64" viewBox="0 0 64 64" fill="none" xmlns="http://www.w3.org/2000/svg">
<g clip-path="url(#clip0_24_734)">
<g opacity="0.16" filter="url(#filter0_f_24_734)">
<rect x="4" y="5" width="56" height="56" rx="16" fill="#666569"/>
</g>
<rect x="4" y="4" width="56" height="56" rx="16" fill="#94E0B1"/>
<rect x="9" y="32" width="32.5269" height="32.5269" rx="5" transform="rotate(-45 9 32)" fill="#FBF29C"/>
<rect x="11.5556" y="32" width="28.9128" height="28.9128" rx="3" transform="rotate(-45 11.5556 32)" fill="#C05460"/>
<path d="M32.2265 46.7925L26.0655 40.6315C25.6252 40.1912 26.1761 37.8599 26.5996 37.4364L38.2545 25.7816C38.7761 25.26 40.8012 25.26 40.9867 25.4455L47.1627 31.6215C47.8892 32.348 47.3745 34.2507 47.0515 34.5736L35.3579 46.2672C34.6215 47.0037 32.6513 47.2173 32.2265 46.7925ZM22.9073 37.4733L16.7463 31.3123C16.3059 30.8719 16.8568 28.5407 17.2803 28.1171L28.9352 16.4623C29.4568 15.9407 31.4819 15.9407 31.6668 16.1256L37.8435 22.3022C38.5699 23.0287 38.0552 24.9314 37.7323 25.2543L26.0387 36.9479C25.3022 37.6844 23.332 37.898 22.9073 37.4733Z" fill="#F86974"/>
<path d="M24.7637 33.0256L21.1826 29.4444C20.9265 29.1883 21.2463 27.8341 21.493 27.5873L28.2675 20.8129C28.5704 20.51 29.7473 20.51 29.8547 20.6174L33.4452 24.2079C33.8675 24.6302 33.5683 25.7365 33.3809 25.9239L26.5834 32.7214C26.1549 33.1499 25.0099 33.2742 24.7625 33.0269L24.7637 33.0256Z" fill="#434345"/>
<path d="M31.109 39.6421L29.8285 40.9226C29.5245 41.2266 29.5245 41.7194 29.8285 42.0233L31.159 43.3538C31.4629 43.6577 31.9557 43.6577 32.2596 43.3538L33.5402 42.0733C33.8441 41.7693 33.8441 41.2765 33.5402 40.9726L32.2096 39.6421C31.9057 39.3382 31.4129 39.3382 31.109 39.6421Z" fill="#434345"/>
<path d="M41.3834 29.3677L40.1028 30.6482C39.7989 30.9522 39.7989 31.4449 40.1028 31.7489L41.4334 33.0794C41.7373 33.3833 42.2301 33.3833 42.534 33.0794L43.8146 31.7988C44.1185 31.4949 44.1185 31.0021 43.8146 30.6982L42.484 29.3677C42.1801 29.0637 41.6873 29.0637 41.3834 29.3677Z" fill="#434345"/>
</g>
<defs>
<filter id="filter0_f_24_734" x="0" y="1" width="64" height="64" filterUnits="userSpaceOnUse" color-interpolation-filters="sRGB">
<feFlood flood-opacity="0" result="BackgroundImageFix"/>
<feBlend mode="normal" in="SourceGraphic" in2="BackgroundImageFix" result="shape"/>
<feGaussianBlur stdDeviation="2" result="effect1_foregroundBlur_24_734"/>
</filter>
<clipPath id="clip0_24_734">
<rect width="64" height="64" fill="white"/>
</clipPath>
</defs>
</svg>
