<svg width="64" height="64" viewBox="0 0 64 64" fill="none" xmlns="http://www.w3.org/2000/svg">
<g clip-path="url(#clip0_18_141)">
<g opacity="0.16" filter="url(#filter0_f_18_141)">
<rect x="4" y="5" width="56" height="56" rx="16" fill="#666569"/>
</g>
<rect x="4" y="4" width="56" height="56" rx="16" fill="#FFFAFA"/>
<path d="M35.7995 34.3699C35.6728 34.5337 35.2842 34.7604 35.2842 35.2537C35.2842 35.6623 35.5499 36.0537 36.0214 36.3833C38.269 37.9452 42.5043 37.7395 42.5148 37.7395C44.1797 37.7354 45.813 37.2848 47.2444 36.4347C50.1826 34.7204 51.9921 32.4613 51.9988 29.0593C52.0397 25.5583 50.7492 23.2307 50.2273 22.1992C46.9158 15.7239 39.77 12 31.9984 12C21.063 12 12.1543 20.7811 12 31.7146C12.0743 26.0069 17.7496 20.7097 24.5002 20.7097C25.0469 20.7097 28.165 20.763 31.0622 22.283C33.6147 23.624 34.9528 25.9279 35.8823 27.5326C37.2338 30.0822 37.2919 32.4232 35.8014 34.369L35.7995 34.3699Z" fill="#B3EFCA"/>
<path d="M48.1016 41.7662C46.1844 43.652 43.2119 44.0996 40.8452 44.111C33.4518 44.111 27.0107 38.4262 27.0107 31.9013C27.0202 31.0259 27.2632 30.169 27.7146 29.4189C28.166 28.6689 28.8094 28.0529 29.5784 27.6346C22.8906 27.9155 21.1725 34.8823 21.1725 38.9662C21.1725 50.5073 31.8108 51.6778 34.1023 51.6778C35.3385 51.6778 37.2023 51.3178 38.3214 50.9654L38.5261 50.8959C42.8307 49.4085 46.5004 46.4996 48.9311 42.6481C49.2778 42.1005 48.6663 41.4519 48.0996 41.7662H48.1016Z" fill="#B1CFEF"/>
<path d="M27.9184 49.714C26.5251 48.8492 25.3175 47.7161 24.3659 46.3806C19.7468 40.0548 22.5526 31.0946 29.5793 27.6346C30.067 27.4041 30.8994 26.9888 32.008 27.0088C32.7883 27.0147 33.5568 27.2011 34.2531 27.5536C34.9493 27.906 35.5546 28.4149 36.0214 29.0403C36.6521 29.8824 36.9998 30.9026 37.0147 31.9546C37.0147 31.9222 39.9195 18.4382 24.5145 19.5201C17.6725 20.0001 12.0143 26.0279 12.0143 31.7384C11.9876 34.7585 12.6333 37.7481 13.9067 40.4862C18.2115 49.6711 28.7146 54.1788 38.3395 50.9702C35.0442 52.0083 30.8594 51.5521 27.9307 49.7206L27.9184 49.714Z" fill="#86B6EB"/>
</g>
<defs>
<filter id="filter0_f_18_141" x="0" y="1" width="64" height="64" filterUnits="userSpaceOnUse" color-interpolation-filters="sRGB">
<feFlood flood-opacity="0" result="BackgroundImageFix"/>
<feBlend mode="normal" in="SourceGraphic" in2="BackgroundImageFix" result="shape"/>
<feGaussianBlur stdDeviation="2" result="effect1_foregroundBlur_18_141"/>
</filter>
<clipPath id="clip0_18_141">
<rect width="64" height="64" fill="white"/>
</clipPath>
</defs>
</svg>
