<svg width="64" height="64" viewBox="0 0 64 64" fill="none" xmlns="http://www.w3.org/2000/svg">
<g clip-path="url(#clip0_94_64)">
<g opacity="0.16" filter="url(#filter0_f_94_64)">
<rect x="4" y="5" width="56" height="56" rx="16" fill="#666569"/>
</g>
<rect x="4" y="4" width="56" height="56" rx="16" fill="#FFFAFA"/>
<path d="M47.6787 16.9617H33.2934C32.5714 16.9617 31.9861 17.547 31.9861 18.269V45.7325C31.9861 46.4545 32.5714 47.0398 33.2934 47.0398H47.6787C48.4008 47.0398 48.9861 46.4545 48.9861 45.7325V18.269C48.9861 17.547 48.4008 16.9617 47.6787 16.9617Z" fill="#94E0B1"/>
<path d="M47.6788 18.269H33.2934V45.73H47.6788V18.269Z" fill="#FFFAFA"/>
<path d="M45.7165 38.5385H41.1397V42.4605H45.7165V38.5385Z" fill="#94E0B1"/>
<path d="M45.7165 32.8719H41.1397V36.7938H45.7165V32.8719Z" fill="#94E0B1"/>
<path d="M45.7165 27.2052H41.1397V31.1272H45.7165V27.2052Z" fill="#94E0B1"/>
<path d="M45.7165 21.5385H41.1397V25.4605H45.7165V21.5385Z" fill="#94E0B1"/>
<path d="M39.8324 38.5385H35.2556V42.4605H39.8324V38.5385Z" fill="#94E0B1"/>
<path d="M39.8324 32.8719H35.2556V36.7938H39.8324V32.8719Z" fill="#94E0B1"/>
<path d="M39.8324 27.2052H35.2556V31.1272H39.8324V27.2052Z" fill="#94E0B1"/>
<path d="M39.8324 21.5385H35.2556V25.4605H39.8324V21.5385Z" fill="#94E0B1"/>
<path d="M35.6317 15H16.6C16.0399 15 15.7599 15 15.546 15.109C15.3578 15.2049 15.2049 15.3578 15.109 15.546C15 15.7599 15 16.0399 15 16.6L15 47.4C15 47.9601 15 48.2401 15.109 48.454C15.2049 48.6422 15.3578 48.7951 15.546 48.891C15.7599 49 16.0399 49 16.6 49H35.6317C36.1918 49 36.4718 49 36.6857 48.891C36.8739 48.7951 37.0269 48.6422 37.1227 48.454C37.2317 48.2401 37.2317 47.9601 37.2317 47.4V16.6C37.2317 16.0399 37.2317 15.7599 37.1227 15.546C37.0269 15.3578 36.8739 15.2049 36.6857 15.109C36.4718 15 36.1918 15 35.6317 15Z" fill="#94E0B1"/>
<path d="M20.2177 26.1299L23.487 26.1214L32.0128 37.8731L28.7439 37.8791L20.2177 26.1299Z" fill="#FFFAFA"/>
<path d="M31.9873 26.1015L28.718 26.11L20.2436 37.899L23.5129 37.8906L31.9873 26.1015Z" fill="#FFFAFA"/>
</g>
<defs>
<filter id="filter0_f_94_64" x="0" y="1" width="64" height="64" filterUnits="userSpaceOnUse" color-interpolation-filters="sRGB">
<feFlood flood-opacity="0" result="BackgroundImageFix"/>
<feBlend mode="normal" in="SourceGraphic" in2="BackgroundImageFix" result="shape"/>
<feGaussianBlur stdDeviation="2" result="effect1_foregroundBlur_94_64"/>
</filter>
<clipPath id="clip0_94_64">
<rect width="64" height="64" fill="white"/>
</clipPath>
</defs>
</svg>
