<svg width="64" height="64" viewBox="0 0 64 64" fill="none" xmlns="http://www.w3.org/2000/svg">
<g clip-path="url(#clip0_94_181)">
<g opacity="0.16" filter="url(#filter0_f_94_181)">
<rect x="4" y="5" width="56" height="56" rx="16" fill="#666569"/>
</g>
<rect x="4" y="4" width="56" height="56" rx="16" fill="#FFFAFA"/>
<path d="M48.5873 19.5779H41.4774C41.2741 19.5779 41.1092 19.7306 41.1092 19.9189V36.2368C41.1092 36.4252 41.2741 36.5779 41.4774 36.5779H48.5873C48.7907 36.5779 48.9555 36.4252 48.9555 36.2368V19.9189C48.9555 19.7306 48.7907 19.5779 48.5873 19.5779Z" fill="#C9A4EF"/>
<path d="M45.0311 16.9633H30.6458C29.9237 16.9633 29.3384 17.5485 29.3384 18.2705V45.734C29.3384 46.456 29.9237 47.0413 30.6458 47.0413H45.0311C45.7531 47.0413 46.3384 46.456 46.3384 45.734V18.2705C46.3384 17.5485 45.7531 16.9633 45.0311 16.9633Z" fill="#C9A4EF"/>
<path d="M45.0311 18.2706H30.6458V45.7315H45.0311V18.2706Z" fill="#FFFAFA"/>
<path d="M43.0689 21.54H32.6079V22.8473H43.0689V21.54Z" fill="#C9A4EF"/>
<path d="M43.0689 41.1547H32.6079V42.462H43.0689V41.1547Z" fill="#C9A4EF"/>
<path d="M43.0689 37.2327H32.6079V38.54H43.0689V37.2327Z" fill="#C9A4EF"/>
<path d="M43.0689 33.3083H32.6079V34.6156H43.0689V33.3083Z" fill="#C9A4EF"/>
<path d="M43.0689 29.3864H32.6079V30.6938H43.0689V29.3864Z" fill="#C9A4EF"/>
<path d="M43.0689 25.462H32.6079V26.7693H43.0689V25.462Z" fill="#C9A4EF"/>
<path d="M47.6457 20.8851H43.7238V24.807H47.6457V20.8851Z" fill="#FFFAFA"/>
<path d="M47.6458 26.1168H46.3384V30.0413H47.6458V26.1168Z" fill="#FFFAFA"/>
<path d="M47.6458 31.3486H46.3384V35.273H47.6458V31.3486Z" fill="#FFFAFA"/>
<path d="M35.6317 15H16.6C16.0399 15 15.7599 15 15.546 15.109C15.3578 15.2049 15.2049 15.3578 15.109 15.546C15 15.7599 15 16.0399 15 16.6L15 47.4C15 47.9601 15 48.2401 15.109 48.454C15.2049 48.6422 15.3578 48.7951 15.546 48.891C15.7599 49 16.0399 49 16.6 49H35.6317C36.1918 49 36.4718 49 36.6857 48.891C36.8739 48.7951 37.0269 48.6422 37.1227 48.454C37.2317 48.2401 37.2317 47.9601 37.2317 47.4V16.6C37.2317 16.0399 37.2317 15.7599 37.1227 15.546C37.0269 15.3578 36.8739 15.2049 36.6857 15.109C36.4718 15 36.1918 15 35.6317 15Z" fill="#C9A4EF"/>
<path d="M23.6603 26.1213H21.2091L21.209 37.8896H23.6602L23.6603 26.1213Z" fill="#FFFAFA"/>
<path d="M31.0162 26.1213H28.565L28.5649 37.8896H31.0161L31.0162 26.1213Z" fill="#FFFAFA"/>
<path d="M21.2091 26.1238H23.6626L31.0184 37.8921H28.5626L21.2091 26.1238Z" fill="#FFFAFA"/>
</g>
<defs>
<filter id="filter0_f_94_181" x="0" y="1" width="64" height="64" filterUnits="userSpaceOnUse" color-interpolation-filters="sRGB">
<feFlood flood-opacity="0" result="BackgroundImageFix"/>
<feBlend mode="normal" in="SourceGraphic" in2="BackgroundImageFix" result="shape"/>
<feGaussianBlur stdDeviation="2" result="effect1_foregroundBlur_94_181"/>
</filter>
<clipPath id="clip0_94_181">
<rect width="64" height="64" fill="white"/>
</clipPath>
</defs>
</svg>
