<svg width="64" height="64" viewBox="0 0 64 64" fill="none" xmlns="http://www.w3.org/2000/svg">
<g clip-path="url(#clip0_94_193)">
<g opacity="0.16" filter="url(#filter0_f_94_193)">
<rect x="4" y="5" width="56" height="56" rx="16" fill="#666569"/>
</g>
<rect x="4" y="4" width="56" height="56" rx="16" fill="#FC9F7E"/>
<path d="M27.3785 44.9747C24.5213 43.9781 21.6689 42.9677 18.8215 41.9435C18.8026 41.9246 18.7988 41.8981 18.8102 41.8868C18.8253 41.8754 22.6842 42.3176 27.3899 42.8695C33.8794 43.6329 35.1721 43.8635 35.1985 43.8144C35.2514 43.7388 35.2514 21.3749 35.1985 21.2955C35.1418 21.2086 24.1621 23.7749 24.0638 23.8959C24.0147 23.9639 23.9995 25.5778 23.9995 31.5722C23.9995 37.5894 23.9844 39.1768 23.9353 39.2146C23.837 39.2902 18.5305 41.7583 18.4549 41.7583C18.402 41.7583 18.3944 39.8004 18.402 32.0447L18.4171 22.3311L25.1145 19.9122L33.9172 16.7335L36.0187 15.9738L40.7432 17.4516C43.3436 18.268 45.4979 18.9484 45.5357 18.971C45.5886 19.0013 45.6 21.681 45.6 32.0787C45.6 44.4682 45.5962 45.1448 45.5093 45.1901C45.3505 45.2733 36.1245 47.9757 36.0111 47.9757C35.9507 47.9757 32.0652 46.6226 27.3785 44.9747Z" fill="#FFFAFA"/>
</g>
<defs>
<filter id="filter0_f_94_193" x="0" y="1" width="64" height="64" filterUnits="userSpaceOnUse" color-interpolation-filters="sRGB">
<feFlood flood-opacity="0" result="BackgroundImageFix"/>
<feBlend mode="normal" in="SourceGraphic" in2="BackgroundImageFix" result="shape"/>
<feGaussianBlur stdDeviation="2" result="effect1_foregroundBlur_94_193"/>
</filter>
<clipPath id="clip0_94_193">
<rect width="64" height="64" fill="white"/>
</clipPath>
</defs>
</svg>
