<svg width="64" height="64" viewBox="0 0 64 64" fill="none" xmlns="http://www.w3.org/2000/svg">
<g clip-path="url(#clip0_94_145)">
<g opacity="0.16" filter="url(#filter0_f_94_145)">
<rect x="4" y="5" width="56" height="56" rx="16" fill="#666569"/>
</g>
<rect x="4" y="4" width="56" height="56" rx="16" fill="#FFFAFA"/>
<path d="M47.5935 16.9617H33.2081C32.4861 16.9617 31.9008 17.547 31.9008 18.269V45.7325C31.9008 46.4545 32.4861 47.0398 33.2081 47.0398H47.5935C48.3155 47.0398 48.9008 46.4545 48.9008 45.7325V18.269C48.9008 17.547 48.3155 16.9617 47.5935 16.9617Z" fill="#86B6EB"/>
<path d="M47.5935 18.269H33.2081V45.73H47.5935V18.269Z" fill="#FFFAFA"/>
<path d="M45.6313 18.269L41.0544 31.9995L45.6313 45.73H46.9411L42.3642 31.9995L46.9411 18.269H45.6313Z" fill="#86B6EB"/>
<path d="M35.6317 15H16.6C16.0399 15 15.7599 15 15.546 15.109C15.3578 15.2049 15.2049 15.3578 15.109 15.546C15 15.7599 15 16.0399 15 16.6L15 47.4C15 47.9601 15 48.2401 15.109 48.454C15.2049 48.6422 15.3578 48.7951 15.546 48.891C15.7599 49 16.0399 49 16.6 49H35.6317C36.1918 49 36.4718 49 36.6857 48.891C36.8739 48.7951 37.0269 48.6422 37.1227 48.454C37.2317 48.2401 37.2317 47.9601 37.2317 47.4V16.6C37.2317 16.0399 37.2317 15.7599 37.1227 15.546C37.0269 15.3578 36.8739 15.2049 36.6857 15.109C36.4718 15 36.1918 15 35.6317 15Z" fill="#86B6EB"/>
<path d="M26.0519 28.027C25.1753 28.0415 24.3599 28.3999 23.8904 29.1046C23.4183 29.8089 22.9918 30.7949 23.0119 32.0546C23.0322 33.3118 23.4051 34.2817 23.8975 34.9696C24.3902 35.655 25.305 35.9885 26.1792 35.9736C27.0582 35.9594 27.9942 35.5964 28.4634 34.8942C28.9354 34.1899 29.2885 33.2105 29.2681 31.9532C29.27 30.9093 28.9505 29.89 28.3532 29.0338C27.8608 28.346 26.931 28.0128 26.0519 28.027ZM26.0148 25.7903C27.803 25.7615 29.2133 26.291 30.2416 27.3734C31.272 28.4586 31.804 29.9719 31.8351 31.9128C31.8673 33.8464 31.3853 35.3737 30.3894 36.4923C29.3939 37.6085 28.0041 38.1838 26.2159 38.2127C24.433 38.2398 23.0247 37.713 21.987 36.6268C20.9563 35.544 20.424 34.0332 20.3946 32.0975C20.3634 30.1566 20.8458 28.6268 21.8413 27.5106C22.8396 26.3924 24.2319 25.8174 26.0148 25.7903Z" fill="#FFFAFA"/>
</g>
<defs>
<filter id="filter0_f_94_145" x="0" y="1" width="64" height="64" filterUnits="userSpaceOnUse" color-interpolation-filters="sRGB">
<feFlood flood-opacity="0" result="BackgroundImageFix"/>
<feBlend mode="normal" in="SourceGraphic" in2="BackgroundImageFix" result="shape"/>
<feGaussianBlur stdDeviation="2" result="effect1_foregroundBlur_94_145"/>
</filter>
<clipPath id="clip0_94_145">
<rect width="64" height="64" fill="white"/>
</clipPath>
</defs>
</svg>
