<svg width="64" height="64" viewBox="0 0 64 64" fill="none" xmlns="http://www.w3.org/2000/svg">
<g clip-path="url(#clip0_94_117)">
<g opacity="0.16" filter="url(#filter0_f_94_117)">
<rect x="4" y="5" width="56" height="56" rx="16" fill="#666569"/>
</g>
<rect x="4" y="4" width="56" height="56" rx="16" fill="#FFFAFA"/>
<path d="M47.641 16.9617H33.2556C32.5336 16.9617 31.9483 17.547 31.9483 18.269V45.7325C31.9483 46.4545 32.5336 47.0398 33.2556 47.0398H47.641C48.363 47.0398 48.9483 46.4545 48.9483 45.7325V18.269C48.9483 17.547 48.363 16.9617 47.641 16.9617Z" fill="#FC9F7E"/>
<path d="M47.641 18.269H33.2556V45.73H47.641V18.269Z" fill="#FFFAFA"/>
<path d="M45.6788 40.5008H35.2178V42.463H45.6788V40.5008Z" fill="#FC9F7E"/>
<path d="M41.102 21.5385V26.7702H46.3337C46.3337 26.0832 46.1983 25.4029 45.9354 24.7681C45.6725 24.1334 45.2871 23.5567 44.8013 23.0709C44.3155 22.585 43.7388 22.1997 43.104 21.9368C42.4693 21.6739 41.789 21.5385 41.102 21.5385Z" fill="#FC9F7E"/>
<path d="M40.4471 22.1935C39.0604 22.1941 37.7307 22.7453 36.7502 23.7258C35.7696 24.7064 35.2185 26.036 35.2178 27.4227C35.2178 28.8098 35.7687 30.1401 36.7493 31.1212C37.7299 32.1023 39.06 32.6538 40.4471 32.6545C41.1341 32.6545 41.8144 32.5191 42.4492 32.2562C43.0839 31.9933 43.6606 31.6079 44.1465 31.1221C44.6323 30.6363 45.0176 30.0596 45.2806 29.4248C45.5435 28.7901 45.6788 28.1098 45.6788 27.4227H40.4446L40.4471 22.1935Z" fill="#FC9F7E"/>
<path d="M45.6788 35.924H35.2178V37.8862H45.6788V35.924Z" fill="#FC9F7E"/>
<path d="M35.6317 15H16.6C16.0399 15 15.7599 15 15.546 15.109C15.3578 15.2049 15.2049 15.3578 15.109 15.546C15 15.7599 15 16.0399 15 16.6L15 47.4C15 47.9601 15 48.2401 15.109 48.454C15.2049 48.6422 15.3578 48.7951 15.546 48.891C15.7599 49 16.0399 49 16.6 49H35.6317C36.1918 49 36.4718 49 36.6857 48.891C36.8739 48.7951 37.0269 48.6422 37.1227 48.454C37.2317 48.2401 37.2317 47.9601 37.2317 47.4V16.6C37.2317 16.0399 37.2317 15.7599 37.1227 15.546C37.0269 15.3578 36.8739 15.2049 36.6857 15.109C36.4718 15 36.1918 15 35.6317 15Z" fill="#FC9F7E"/>
<path d="M22.025 25.9387L26.8832 25.9143C28.326 25.9065 29.4442 26.1827 30.2173 26.8474C30.9964 27.5054 31.3807 28.4995 31.3876 29.7298C31.3938 30.965 31.0092 31.8372 30.2375 32.5069C29.471 33.175 28.3666 33.4279 26.921 33.4378L24.7058 33.4481L24.7285 37.6964L22.0908 37.7088L22.025 25.9387ZM24.6736 27.9367L24.6913 31.4122L26.5993 31.4012C27.1665 31.4006 27.983 31.2697 28.3178 30.9672C28.6808 30.6264 28.8841 30.3344 28.8746 29.7433C28.8679 29.2176 28.7956 28.7796 28.4174 28.4161C27.9965 28.0212 27.2816 27.9223 26.5812 27.9281L24.6736 27.9367Z" fill="#FFFAFA"/>
</g>
<defs>
<filter id="filter0_f_94_117" x="0" y="1" width="64" height="64" filterUnits="userSpaceOnUse" color-interpolation-filters="sRGB">
<feFlood flood-opacity="0" result="BackgroundImageFix"/>
<feBlend mode="normal" in="SourceGraphic" in2="BackgroundImageFix" result="shape"/>
<feGaussianBlur stdDeviation="2" result="effect1_foregroundBlur_94_117"/>
</filter>
<clipPath id="clip0_94_117">
<rect width="64" height="64" fill="white"/>
</clipPath>
</defs>
</svg>
