<svg width="64" height="64" viewBox="0 0 64 64" fill="none" xmlns="http://www.w3.org/2000/svg">
<g clip-path="url(#clip0_94_14)">
<g opacity="0.16" filter="url(#filter0_f_94_14)">
<rect x="4" y="5" width="56" height="56" rx="16" fill="#666569"/>
</g>
<rect x="4" y="4" width="56" height="56" rx="16" fill="#FFFAFA"/>
<path d="M47.7089 16.9619H33.1999C32.512 16.9619 31.9544 17.5981 31.9544 18.3829V45.619C31.9544 46.4037 32.512 47.0399 33.1999 47.0399H47.7089C48.3967 47.0399 48.9544 46.4037 48.9544 45.619V18.3829C48.9544 17.5981 48.3967 16.9619 47.7089 16.9619Z" fill="#86B6EB"/>
<path d="M47.6471 18.2691H33.2617V45.7326H47.6471V18.2691Z" fill="#FFFAFA"/>
<path d="M45.6849 21.5386H33.9166V22.846H45.6849V21.5386Z" fill="#86B6EB"/>
<path d="M45.6849 25.4606H33.9166V26.7679H45.6849V25.4606Z" fill="#86B6EB"/>
<path d="M45.6849 29.385H33.9166V30.6923H45.6849V29.385Z" fill="#86B6EB"/>
<path d="M45.6849 33.3069H33.9166V34.6142H45.6849V33.3069Z" fill="#86B6EB"/>
<path d="M45.6849 37.2313H33.9166V38.5386H45.6849V37.2313Z" fill="#86B6EB"/>
<path d="M45.6849 41.1533H33.9166V42.4606H45.6849V41.1533Z" fill="#86B6EB"/>
<path d="M35.6317 15H16.6C16.0399 15 15.7599 15 15.546 15.109C15.3578 15.2049 15.2049 15.3578 15.109 15.546C15 15.7599 15 16.0399 15 16.6L15 47.4C15 47.9601 15 48.2401 15.109 48.454C15.2049 48.6422 15.3578 48.7951 15.546 48.891C15.7599 49 16.0399 49 16.6 49H35.6317C36.1918 49 36.4718 49 36.6857 48.891C36.8739 48.7951 37.0269 48.6422 37.1227 48.454C37.2317 48.2401 37.2317 47.9601 37.2317 47.4V16.6C37.2317 16.0399 37.2317 15.7599 37.1227 15.546C37.0269 15.3578 36.8739 15.2049 36.6857 15.109C36.4718 15 36.1918 15 35.6317 15Z" fill="#86B6EB"/>
<path d="M18.2251 26.2397L20.8411 26.2391L24.1125 38.0087L21.4965 38.0094L18.2251 26.2397Z" fill="#FFFAFA"/>
<path d="M27.3796 26.2396L24.766 26.2406L21.4965 38.0094L24.1125 38.0087L27.3796 26.2396Z" fill="#FFFAFA"/>
<path d="M24.766 26.2407L27.3795 26.2396L30.6509 38.0093L28.0349 38.01L24.766 26.2407Z" fill="#FFFAFA"/>
<path d="M33.9183 26.2379L31.3044 26.2414L28.0349 38.0101L30.6509 38.0094L33.9183 26.2379Z" fill="#FFFAFA"/>
</g>
<defs>
<filter id="filter0_f_94_14" x="0" y="1" width="64" height="64" filterUnits="userSpaceOnUse" color-interpolation-filters="sRGB">
<feFlood flood-opacity="0" result="BackgroundImageFix"/>
<feBlend mode="normal" in="SourceGraphic" in2="BackgroundImageFix" result="shape"/>
<feGaussianBlur stdDeviation="2" result="effect1_foregroundBlur_94_14"/>
</filter>
<clipPath id="clip0_94_14">
<rect width="64" height="64" fill="white"/>
</clipPath>
</defs>
</svg>
