<svg width="64" height="64" viewBox="0 0 64 64" fill="none" xmlns="http://www.w3.org/2000/svg">
<g clip-path="url(#clip0_172_156)">
<g opacity="0.16" filter="url(#filter0_f_172_156)">
<rect x="4" y="5" width="56" height="56" rx="16" fill="#666569"/>
</g>
<rect x="4" y="4" width="56" height="56" rx="16" fill="#FFFAFA"/>
<path d="M32.0024 12C29.3758 11.9994 26.7749 12.5162 24.3481 13.5209C21.9214 14.5256 19.7163 15.9985 17.8588 17.8555C16.0014 19.7126 14.528 21.9173 13.5227 24.3438C12.5174 26.7704 12 29.3711 12 31.9976C11.9994 34.6246 12.5163 37.2259 13.5213 39.653C14.5263 42.0801 15.9997 44.2854 17.8572 46.1429C19.7147 48.0004 21.92 49.4738 24.3471 50.4787C26.7741 51.4837 29.3754 52.0007 32.0024 52C34.6289 52 37.2297 51.4826 39.6562 50.4773C42.0828 49.472 44.2875 47.9986 46.1445 46.1412C48.0015 44.2837 49.4744 42.0786 50.4791 39.6519C51.4838 37.2251 52.0006 34.6242 52 31.9976C52 29.3715 51.4827 26.7711 50.4778 24.3449C49.4728 21.9186 47.9998 19.7142 46.1428 17.8573C44.2859 16.0003 42.0814 14.5273 39.6551 13.5223C37.2289 12.5173 34.6285 12 32.0024 12ZM33.7834 14.1355C35.7298 14.315 37.61 14.7542 39.3249 15.5054C39.1779 15.6767 39.0671 15.8759 38.9989 16.0912C38.4746 17.6691 37.6903 16.9133 38.6116 18.8927C39.5328 20.8674 40.3028 21.3776 40.5674 20.4564C40.8319 19.5352 39.906 18.236 40.9595 18.7651C42.013 19.2895 42.7925 18.6187 41.9988 19.8045C41.2099 20.9902 41.2288 21.6375 40.3076 21.3729C39.3816 21.1083 39.4005 22.932 38.4793 23.1965C37.5581 23.4611 37.2368 22.7997 37.2368 23.4563C37.2368 24.1177 37.7659 23.5035 37.6336 24.5665C37.5911 24.8877 37.6006 24.9445 37.5628 25.0862C36.6982 24.8405 36.3156 24.7082 35.6731 24.9538C35.0164 25.2184 34.2369 26.9097 34.2369 26.9097C35.0637 27.7364 35.4463 28.327 35.7392 28.6105C35.555 28.6955 35.3329 28.738 35.1534 28.8655C33.8354 29.7915 32.8102 29.9616 32.4134 31.2749C32.0213 32.5977 32.1535 31.3882 32.1535 32.9756C32.1535 34.5535 31.752 33.4858 32.5456 34.9314C33.3346 36.3817 35.2715 37.0762 36.1975 37.8699C37.1187 38.6589 38.0683 36.1503 39.9154 38.5219C41.7579 40.8934 41.876 39.9391 41.2193 41.2618C40.5579 42.5752 39.9154 43.0099 39.6556 43.539C39.391 44.0681 40.1658 45.8822 41.087 46.279H41.1532C41.1059 46.3924 41.0729 46.4916 41.0209 46.605C39.8257 47.1436 38.3659 47.8947 38.0919 47.9751C37.4352 48.164 35.1345 48.5514 33.4621 49.0144C33.2496 49.0758 33.0842 49.0757 32.9992 49.0852C33.207 48.8584 34.8605 47.9986 35.6778 47.5215C36.7927 46.8648 35.6069 46.931 35.6069 46.931C35.6069 46.931 33.8306 46.7373 30.1977 46.7373C28.3789 46.7373 27.5947 46.8176 27.1978 46.931C27.0539 46.967 26.9199 47.0347 26.8057 47.1293C26.7112 47.2144 26.6404 47.2994 26.475 47.3891C25.8278 47.7671 26.8624 48.1545 26.0215 48.4332C25.3932 48.6411 25.3223 48.4332 24.7838 48.0411C25.1664 47.6632 25.6955 47.2003 26.3475 46.4114C27.5332 44.9752 27.9065 45.2349 28.3033 43.931C28.7001 42.6272 24.9822 43.0194 24.9822 42.2351C24.9822 41.4509 24.3397 40.9312 23.1539 40.4115C21.9681 39.8918 22.776 39.6273 21.4579 39.2352C20.1398 38.8478 18.6564 41.1957 18.2596 40.4115C17.8675 39.6273 19.5021 39.6273 19.5021 38.7155C19.5021 37.8273 17.6218 39.3864 17.2817 38.2573C17.2722 38.2148 17.225 38.2147 17.2203 38.1911C17.1872 38.0258 17.2061 37.9313 17.2203 37.799C17.3006 36.8636 18.3872 36.4951 18.8501 35.5786C19.3745 34.5393 19.1052 36.3676 19.7619 37.2794C20.4233 38.1959 20.1587 36.1078 19.7619 34.9362C19.3698 33.7551 20.0123 33.7552 20.9335 32.1962C21.8547 30.6277 21.85 29.7159 21.85 28.5395C21.85 27.3679 22.4878 27.2357 23.8058 26.0641C24.4105 25.5255 24.883 25.0578 25.242 24.6279C25.327 24.5854 25.4121 24.5855 25.5018 24.5618C26.8955 23.9997 27.486 23.1635 28.6954 20.6502C29.9048 18.1322 28.223 20.4801 27.8498 20.3856C27.4766 20.2911 26.938 19.6297 25.6294 18.888C25.4094 18.7587 25.1676 18.6707 24.916 18.6282L27.3254 14.6503C28.1002 14.4424 28.9316 14.3008 29.7347 14.1921C30.0371 15.8787 29.8717 17.4519 29.8717 17.4519C29.8717 17.4519 29.4135 17.9951 29.4135 18.3684C29.4135 18.7416 31.9079 15.2976 32.2811 15.1086C32.659 14.9197 33.5991 16.0912 33.7834 14.3243C33.7928 14.2204 33.7739 14.2205 33.7834 14.1355ZM37.0904 21.1698C37.01 21.1934 36.9297 21.2122 36.8494 21.2453C36.8494 21.7036 36.6699 22.039 36.5849 22.2232C36.5376 22.1382 36.3959 22.0248 36.3959 22.0248C36.1928 22.3886 35.7676 22.7098 36.1975 22.6106C36.6227 22.5161 36.9533 22.776 36.6557 22.417C36.599 22.3461 36.6227 22.3697 36.5849 22.3461C36.6416 22.3933 36.7502 22.417 36.9817 22.417H37.5628C37.2463 22.6532 36.9014 22.7523 37.3738 22.8752C37.9974 23.0358 38.2856 23.0736 38.2856 22.9413C38.24 22.7382 38.1735 22.5403 38.0872 22.3508C38.21 22.3036 38.3234 22.2422 38.2147 22.0296C38.021 21.6328 37.7092 21.2407 37.3077 21.1793C37.2362 21.1642 37.1628 21.1609 37.0904 21.1698ZM47.2805 22.28C47.6112 22.7902 47.923 23.3099 48.197 23.8485C48.0128 24.902 47.5545 25.6105 48.3246 25.6105C48.5419 25.6105 48.7356 25.5633 48.9104 25.5444C48.9387 25.6105 48.9576 25.6767 48.9765 25.7334C47.6584 25.7334 47.0254 26.1302 46.3687 25.9979C45.7073 25.8609 43.8791 25.7476 45.0648 24.5618C45.7593 23.8721 46.6191 22.7666 47.2805 22.28ZM39.0651 24.6893V24.6988C39.1879 24.7413 39.2918 24.8642 39.3958 25.0862C39.7879 26.0074 40.4398 26.7774 39.9154 26.9097C39.3863 27.042 39.1312 27.1742 39.1312 27.1742C39.1312 27.1742 40.9548 28.3601 41.087 27.042C41.2193 25.724 40.5674 24.9538 40.5674 24.9538C40.5674 24.9538 41.4744 25.8657 41.739 26.3901C42.0035 26.9192 41.9941 26.3901 42.6508 27.042C43.3122 27.7034 43.1657 24.4248 44.0869 25.3507C45.0081 26.272 45.5892 26.2483 45.3247 26.9097C45.0601 27.5711 47.0207 26.116 47.0207 27.434C47.0207 28.7048 47.8332 29.2198 46.2412 29.8434C45.6365 29.8056 45.1546 29.7017 45.0601 29.5222C44.8003 28.9931 43.3027 29.3946 43.3027 29.3946C39.3627 28.4073 37.6525 28.0955 36.5234 28.2845C36.5423 28.242 36.5612 28.2419 36.5849 28.2183C37.1612 27.179 38.2478 25.7381 37.8887 25.2184C38.3942 24.9302 38.7864 24.609 39.0698 24.6988L39.0651 24.6893ZM50.1528 31.2843C50.1623 31.5488 50.1528 31.804 50.1528 32.0686C50.1528 32.8103 50.1056 33.5614 50.0253 34.2795C48.8395 33.226 47.1529 33.2401 47.1529 33.2401C47.1529 33.2401 48.1781 32.0733 49.6284 31.5442C49.812 31.48 49.9866 31.3925 50.1481 31.2843H50.1528Z" fill="#86B6EB"/>
</g>
<defs>
<filter id="filter0_f_172_156" x="0" y="1" width="64" height="64" filterUnits="userSpaceOnUse" color-interpolation-filters="sRGB">
<feFlood flood-opacity="0" result="BackgroundImageFix"/>
<feBlend mode="normal" in="SourceGraphic" in2="BackgroundImageFix" result="shape"/>
<feGaussianBlur stdDeviation="2" result="effect1_foregroundBlur_172_156"/>
</filter>
<clipPath id="clip0_172_156">
<rect width="64" height="64" fill="white"/>
</clipPath>
</defs>
</svg>
