<svg width="64" height="64" viewBox="0 0 64 64" fill="none" xmlns="http://www.w3.org/2000/svg">
<g clip-path="url(#clip0_90_2)">
<g opacity="0.16" filter="url(#filter0_f_90_2)">
<rect x="4" y="5" width="56" height="56" rx="16" fill="#666569"/>
</g>
<rect x="4" y="4" width="56" height="56" rx="16" fill="#434345"/>
<path d="M25.0532 49.0948C28.2673 42.5817 28.1823 37.9077 26.8073 34.5891C25.5564 31.5178 23.2133 29.5836 21.3743 28.3794C21.337 28.5596 21.28 28.7295 21.2044 28.891L16.8804 38.5144C16.6615 38.9999 16.5943 39.5401 16.6874 40.0644C16.7805 40.5887 17.0296 41.0727 17.4022 41.4531L24.3139 48.5645C24.5314 48.7821 24.7881 48.9622 25.0532 49.0948Z" fill="#C9A4EF"/>
<path d="M33.7955 35.8782C34.6635 35.9636 35.5172 36.1581 36.3365 36.457C38.9718 37.4428 41.3709 39.6608 43.3518 43.9372C43.4946 43.6907 43.6365 43.4536 43.7887 43.2258C44.9995 41.4291 46.1597 39.5987 47.2678 37.7368C47.4031 37.5078 47.4665 37.2434 47.4497 36.9779C47.4329 36.7124 47.3367 36.4581 47.1736 36.2479C45.8392 34.5332 44.7036 32.6726 43.7887 30.7019C42.8785 28.5213 42.746 25.1177 42.7357 23.4673C42.7396 22.8396 42.5325 22.2287 42.1476 21.7328L35.2742 13.0102L35.1612 12.8683C35.6635 14.5271 35.6345 15.8546 35.3218 17.0588C35.038 18.1771 34.5068 19.1918 33.9477 20.2635C33.7572 20.6238 33.5677 20.9935 33.3876 21.3725C32.4963 23.0753 31.9854 24.9513 31.8902 26.8708C31.795 29.1654 32.2599 32.0387 33.7852 35.8782H33.7955Z" fill="#C9A4EF"/>
<path d="M33.7852 35.8782C32.259 32.0387 31.7941 29.1663 31.8893 26.8718C31.9836 24.5959 32.6473 22.8894 33.3876 21.3725L33.9561 20.2635C34.5059 19.1918 35.0277 18.1771 35.3209 17.0588C35.6703 15.6751 35.6145 14.2202 35.1603 12.8673C34.6885 12.3493 34.031 12.0387 33.3312 12.0034C32.6314 11.9681 31.946 12.2108 31.4244 12.6788L23.2516 20.0254C22.7933 20.4357 22.4918 20.9923 22.3984 21.6003L21.4032 28.1983C21.4032 28.2655 21.3846 28.3215 21.3752 28.3887C23.2142 29.5836 25.5461 31.5169 26.8073 34.5797C27.0537 35.1865 27.2619 35.8213 27.4141 36.513C29.4859 35.9386 31.6404 35.7208 33.7852 35.8689V35.8782Z" fill="#D9C7F3"/>
<path d="M38.0709 51.6357C39.8353 52.1193 41.6071 50.7069 41.8535 48.8866C42.0554 47.1597 42.566 45.4833 43.3611 43.9371C41.37 39.6617 38.9718 37.4428 36.3458 36.457C33.5491 35.4142 30.5049 35.7643 27.4141 36.513C28.1067 39.6514 27.6988 43.757 25.0635 49.0947C25.3566 49.246 25.689 49.3319 26.0203 49.3599L30.1828 49.6726C32.4391 49.8341 35.8053 51 38.0709 51.6357Z" fill="#B48BDD"/>
</g>
<defs>
<filter id="filter0_f_90_2" x="0" y="1" width="64" height="64" filterUnits="userSpaceOnUse" color-interpolation-filters="sRGB">
<feFlood flood-opacity="0" result="BackgroundImageFix"/>
<feBlend mode="normal" in="SourceGraphic" in2="BackgroundImageFix" result="shape"/>
<feGaussianBlur stdDeviation="2" result="effect1_foregroundBlur_90_2"/>
</filter>
<clipPath id="clip0_90_2">
<rect width="64" height="64" fill="white"/>
</clipPath>
</defs>
</svg>
