<svg width="64" height="64" viewBox="0 0 64 64" fill="none" xmlns="http://www.w3.org/2000/svg">
<g clip-path="url(#clip0_98_2)">
<g opacity="0.16" filter="url(#filter0_f_98_2)">
<rect x="4" y="5" width="56" height="56" rx="16" fill="#666569"/>
</g>
<rect x="4" y="4" width="56" height="56" rx="16" fill="#FFFAFA"/>
<path d="M4 29.6C4 20.6392 4 16.1587 5.7439 12.7362C7.27787 9.72556 9.72556 7.27787 12.7362 5.7439C16.1587 4 20.6392 4 29.6 4H34.4C43.3608 4 47.8413 4 51.2638 5.7439C54.2744 7.27787 56.7221 9.72556 58.2561 12.7362C60 16.1587 60 20.6392 60 29.6V32H4V29.6Z" fill="#D7E9F6"/>
<path d="M20.1623 35.77C20.3023 33.93 21.0123 32.49 22.2923 31.45C23.5723 30.41 25.2323 29.89 27.2723 29.89C28.6323 29.89 29.8023 30.14 30.7823 30.64C31.7823 31.12 32.5323 31.78 33.0323 32.62C33.5523 33.46 33.8123 34.41 33.8123 35.47C33.8123 36.71 33.4523 37.78 32.7323 38.68C32.0323 39.58 31.1123 40.16 29.9723 40.42V40.57C31.2723 40.89 32.3023 41.52 33.0623 42.46C33.8223 43.4 34.2023 44.63 34.2023 46.15C34.2023 47.29 33.9423 48.32 33.4223 49.24C32.9023 50.14 32.1223 50.85 31.0823 51.37C30.0423 51.89 28.7923 52.15 27.3323 52.15C25.2123 52.15 23.4723 51.6 22.1123 50.5C20.7523 49.38 19.9923 47.8 19.8323 45.76H22.4723C22.6123 46.96 23.1023 47.94 23.9423 48.7C24.7823 49.46 25.9023 49.84 27.3023 49.84C28.7023 49.84 29.7623 49.48 30.4823 48.76C31.2223 48.02 31.5923 47.07 31.5923 45.91C31.5923 44.41 31.0923 43.33 30.0923 42.67C29.0923 42.01 27.5823 41.68 25.5623 41.68H24.8723V39.4H25.5923C27.4323 39.38 28.8223 39.08 29.7623 38.5C30.7023 37.9 31.1723 36.98 31.1723 35.74C31.1723 34.68 30.8223 33.83 30.1223 33.19C29.4423 32.55 28.4623 32.23 27.1823 32.23C25.9423 32.23 24.9423 32.55 24.1823 33.19C23.4223 33.83 22.9723 34.69 22.8323 35.77H20.1623ZM37.1683 32.8V30.31H42.8083V52H40.0483V32.8H37.1683Z" fill="#666569"/>
<path d="M19.0368 14.66V15.776H15.4968V18.236H18.2568V19.352H15.4968V23H14.1288V14.66H19.0368ZM24.6365 23L22.7165 19.664H21.6725V23H20.3045V14.66H23.1845C23.8245 14.66 24.3645 14.772 24.8045 14.996C25.2525 15.22 25.5845 15.52 25.8005 15.896C26.0245 16.272 26.1365 16.692 26.1365 17.156C26.1365 17.7 25.9765 18.196 25.6565 18.644C25.3445 19.084 24.8605 19.384 24.2045 19.544L26.2685 23H24.6365ZM21.6725 18.572H23.1845C23.6965 18.572 24.0805 18.444 24.3365 18.188C24.6005 17.932 24.7325 17.588 24.7325 17.156C24.7325 16.724 24.6045 16.388 24.3485 16.148C24.0925 15.9 23.7045 15.776 23.1845 15.776H21.6725V18.572ZM29.2546 14.66V23H27.8866V14.66H29.2546ZM33.7746 14.66C34.6626 14.66 35.4386 14.832 36.1026 15.176C36.7746 15.512 37.2906 16 37.6506 16.64C38.0186 17.272 38.2026 18.012 38.2026 18.86C38.2026 19.708 38.0186 20.444 37.6506 21.068C37.2906 21.692 36.7746 22.172 36.1026 22.508C35.4386 22.836 34.6626 23 33.7746 23H31.0506V14.66H33.7746ZM33.7746 21.884C34.7506 21.884 35.4986 21.62 36.0186 21.092C36.5386 20.564 36.7986 19.82 36.7986 18.86C36.7986 17.892 36.5386 17.136 36.0186 16.592C35.4986 16.048 34.7506 15.776 33.7746 15.776H32.4186V21.884H33.7746ZM43.7464 21.296H40.2544L39.6544 23H38.2264L41.2144 14.648H42.7984L45.7864 23H44.3464L43.7464 21.296ZM43.3624 20.18L42.0064 16.304L40.6384 20.18H43.3624ZM51.5856 14.66L48.8256 19.976V23H47.4576V19.976L44.6856 14.66H46.2096L48.1416 18.752L50.0736 14.66H51.5856Z" fill="#86B6EB"/>
</g>
<defs>
<filter id="filter0_f_98_2" x="0" y="1" width="64" height="64" filterUnits="userSpaceOnUse" color-interpolation-filters="sRGB">
<feFlood flood-opacity="0" result="BackgroundImageFix"/>
<feBlend mode="normal" in="SourceGraphic" in2="BackgroundImageFix" result="shape"/>
<feGaussianBlur stdDeviation="2" result="effect1_foregroundBlur_98_2"/>
</filter>
<clipPath id="clip0_98_2">
<rect width="64" height="64" fill="white"/>
</clipPath>
</defs>
</svg>
