<svg width="64" height="64" viewBox="0 0 64 64" fill="none" xmlns="http://www.w3.org/2000/svg">
<g clip-path="url(#clip0_318_62)">
<g opacity="0.16" filter="url(#filter0_f_318_62)">
<rect x="4" y="5" width="56" height="56" rx="16" fill="#666569"/>
</g>
<rect x="4" y="4" width="56" height="56" rx="16" fill="#FFFAFA"/>
<path d="M17.287 59.709C17.097 58.999 17.057 58.601 17.06 57.386C17.063 55.892 17.167 55.164 17.532 54.053C17.662 53.661 17.871 53.169 17.997 52.96C18.226 52.583 18.227 52.579 18.112 52.381C17.442 51.231 17.129 50.446 16.875 49.279C16.75 48.702 16.728 48.396 16.726 47.179C16.723 45.239 16.918 44.245 17.623 42.594L17.954 41.82L17.622 41.24C17.2186 40.5475 16.9096 39.8042 16.703 39.03C16.545 38.444 16.531 38.29 16.528 36.971C16.523 35.411 16.578 35.04 16.969 33.922C17.443 32.572 17.952 31.796 19.194 30.532C20 29.71 20.137 29.542 20.083 29.438C19.853 29.004 19.752 25.742 19.927 24.444C20.249 22.075 21.117 20.168 22.219 19.41C23.434 18.574 24.888 18.906 25.927 20.257C26.687 21.247 27.353 23.157 27.529 24.858C27.554 25.104 27.582 25.306 27.589 25.306C27.598 25.306 27.87 25.174 28.195 25.013C29.546 24.343 30.61 24.083 32 24.083C33.414 24.083 34.455 24.343 35.853 25.045L36.491 25.365L36.537 24.888C36.605 24.187 36.883 22.928 37.115 22.269C37.68 20.667 38.441 19.649 39.424 19.181C39.801 19.001 39.925 18.976 40.418 18.976C40.914 18.976 41.035 19.001 41.428 19.187C42.484 19.687 43.236 20.793 43.764 22.621C43.991 23.406 44.109 24.109 44.203 25.221C44.316 26.561 44.201 28.878 43.995 29.415C43.935 29.569 44.005 29.655 44.942 30.609C46.158 31.846 46.532 32.424 46.962 33.723C47.412 35.091 47.477 35.5 47.475 36.971C47.474 38.101 47.454 38.343 47.318 38.893C47.081 39.85 46.668 40.837 46.242 41.456L46.053 41.733L46.314 42.301C47.059 43.92 47.375 45.365 47.375 47.145C47.375 49.165 46.954 50.735 45.979 52.349L45.839 52.58L46.069 52.96C46.36 53.439 46.737 54.577 46.877 55.397C47.11 56.765 47.077 58.602 46.803 59.59L46.697 59.97H45.544C44.536 59.97 44.385 59.957 44.349 59.862C44.326 59.802 44.39 59.422 44.492 59.018C44.645 58.406 44.676 58.145 44.674 57.453C44.671 55.895 44.42 54.868 43.741 53.641C43.332 52.901 43.301 52.817 43.301 52.436C43.301 52.043 43.317 52.004 43.706 51.442C44.183 50.753 44.423 50.296 44.636 49.672C45.388 47.459 45.066 44.757 43.796 42.638C43.622 42.347 43.459 42.001 43.434 41.87C43.364 41.497 43.504 41.122 43.864 40.711C44.208 40.317 44.704 39.415 44.882 38.861C45.393 37.261 45.238 35.491 44.446 33.889C44.1218 33.2138 43.6741 32.6053 43.126 32.095C42.546 31.537 42.173 31.275 41.528 30.971C40.687 30.575 40.383 30.518 39.078 30.513C38.127 30.51 37.886 30.49 37.806 30.409C37.752 30.355 37.572 30.042 37.406 29.714C36.683 28.286 35.529 27.33 33.83 26.754C32.315 26.238 31.017 26.309 29.528 26.988C28.096 27.641 27.173 28.516 26.499 29.863C26.352 30.156 26.181 30.42 26.117 30.45C26.054 30.48 25.48 30.506 24.842 30.509C23.526 30.514 23.208 30.585 22.226 31.094C19.778 32.361 18.376 35.382 18.943 38.166C19.166 39.261 19.603 40.156 20.208 40.761C20.777 41.331 20.79 41.787 20.26 42.652C19.734 43.51 19.393 44.437 19.167 45.621C19.027 46.356 19.01 47.813 19.134 48.504C19.32 49.542 19.74 50.6 20.216 51.226C20.682 51.841 20.765 52.026 20.766 52.448C20.766 52.815 20.731 52.908 20.319 53.652C19.639 54.881 19.392 55.895 19.391 57.453C19.391 58.142 19.422 58.408 19.575 59.018C19.677 59.422 19.741 59.802 19.718 59.862C19.681 59.957 19.531 59.971 18.517 59.971H17.357L17.287 59.709ZM22.523 28.42C22.807 28.337 24.527 28.09 24.818 28.09C25 28.09 25.053 28.048 25.196 27.792L25.362 27.494L25.302 26.431C25.236 25.277 25.169 24.764 24.977 23.947C24.689 22.726 24.125 21.555 23.74 21.38C23.579 21.306 23.55 21.318 23.371 21.53C22.961 22.015 22.574 23.028 22.361 24.162C22.212 24.964 22.107 26.449 22.154 27.095C22.202 27.765 22.269 28.487 22.282 28.487C22.287 28.487 22.395 28.457 22.522 28.42M41.852 27.974C41.995 26.624 41.857 24.63 41.536 23.405C41.249 22.306 40.694 21.299 40.399 21.342C40.202 21.37 39.794 21.929 39.559 22.492C39.095 23.602 38.859 24.766 38.764 26.401C38.706 27.407 38.709 27.476 38.842 27.775C38.972 28.066 39 28.09 39.221 28.09C39.558 28.09 41.296 28.34 41.485 28.416C41.775 28.532 41.795 28.506 41.852 27.974ZM30.175 45.956C28.3 45.664 26.817 44.649 26.103 43.168C25.759 42.455 25.681 42.053 25.719 41.176C25.755 40.331 25.907 39.792 26.281 39.174C26.923 38.117 27.676 37.439 28.842 36.872C30.014 36.302 30.456 36.209 32 36.209C33.048 36.209 33.387 36.233 33.79 36.334C36.054 36.905 37.777 38.444 38.259 40.328C38.389 40.836 38.394 41.92 38.269 42.391C37.773 44.251 36.085 45.615 33.856 45.955C33.082 46.073 30.932 46.075 30.175 45.956ZM33.842 44.355C35.204 44.073 36.249 43.299 36.652 42.273C36.852 41.763 36.849 40.988 36.647 40.468C36.171 39.248 34.985 38.28 33.491 37.893C31.139 37.283 28.501 38.269 27.598 40.094C27.255 40.788 27.171 41.326 27.315 41.91C27.62 43.145 28.651 44.023 30.181 44.35C30.847 44.493 33.159 44.496 33.842 44.355ZM31.527 42.736C31.3103 42.6093 31.247 42.3106 31.337 41.84C31.382 41.6 31.407 41.396 31.394 41.386C31.381 41.376 31.224 41.268 31.048 41.149C30.51 40.785 30.418 40.322 30.818 39.986C31.065 39.778 31.294 39.776 31.694 39.979L32.009 40.139L32.286 39.98C32.669 39.761 32.955 39.772 33.197 40.014C33.34 40.157 33.391 40.271 33.391 40.447C33.391 40.758 33.249 40.966 32.883 41.194C32.558 41.395 32.565 41.358 32.701 42.144C32.734 42.338 32.71 42.417 32.563 42.591C32.401 42.784 32.351 42.803 32.01 42.801C31.803 42.8 31.586 42.771 31.527 42.736ZM23.647 39.626C22.722 39.344 22.311 38.519 22.65 37.626C22.85 37.097 23.094 36.795 23.47 36.608C24.501 36.094 25.636 36.765 25.636 37.89C25.636 38.401 25.461 38.806 25.073 39.194C24.621 39.646 24.166 39.784 23.647 39.626ZM39.5 39.58C39.162 39.432 38.66 38.88 38.537 38.52C38.161 37.415 38.803 36.44 39.907 36.44C40.371 36.44 40.872 36.686 41.111 37.03C41.358 37.387 41.546 37.915 41.544 38.247C41.539 39.217 40.388 39.967 39.5 39.58Z" fill="#666569"/>
</g>
<defs>
<filter id="filter0_f_318_62" x="0" y="1" width="64" height="64" filterUnits="userSpaceOnUse" color-interpolation-filters="sRGB">
<feFlood flood-opacity="0" result="BackgroundImageFix"/>
<feBlend mode="normal" in="SourceGraphic" in2="BackgroundImageFix" result="shape"/>
<feGaussianBlur stdDeviation="2" result="effect1_foregroundBlur_318_62"/>
</filter>
<clipPath id="clip0_318_62">
<rect width="64" height="64" fill="white"/>
</clipPath>
</defs>
</svg>
