<svg width="64" height="64" viewBox="0 0 64 64" fill="none" xmlns="http://www.w3.org/2000/svg">
<g clip-path="url(#clip0_305_1150)">
<g opacity="0.16" filter="url(#filter0_f_305_1150)">
<rect x="4" y="5" width="56" height="56" rx="16" fill="#434345"/>
</g>
<path d="M44 4H20C11.1634 4 4 11.1634 4 20V44C4 52.8364 11.1634 60 20 60H44C52.8364 60 60 52.8364 60 44V20C60 11.1634 52.8364 4 44 4Z" fill="#FFFAFA"/>
<mask id="mask0_305_1150" style="mask-type:alpha" maskUnits="userSpaceOnUse" x="20" y="16" width="28" height="32">
<path fill-rule="evenodd" clip-rule="evenodd" d="M24.7774 16.0013C22.1582 15.9387 20.0013 18.0922 20.0007 20.7718V33.2692L20.0048 33.2781C19.999 36.4564 20.0039 39.6353 20.0007 42.8137C19.957 45.2156 21.9266 47.4153 24.2736 47.5656C25.2076 47.6721 26.1117 47.4052 26.9357 46.9772C26.9576 46.9664 26.9789 46.9587 27.0007 46.947L27.0783 46.9014C27.2504 46.8072 27.4202 46.7084 27.5841 46.6028L27.5847 46.6022L45.6675 35.9094C47.7231 34.7471 48.6008 31.9034 47.5548 29.7496C47.0765 28.6323 46.1149 27.8538 45.0841 27.2994C45.0602 27.2895 45.036 27.2815 45.0118 27.2725L27.0007 16.6393C26.3236 16.2395 25.5591 16.0203 24.7774 16.0013Z" fill="#F6F5F4"/>
</mask>
<g mask="url(#mask0_305_1150)">
<path d="M17.6674 15.9995H49.7508V49.4053H17.6674V15.9995Z" fill="#B48BDD"/>
<path d="M45.6674 57.7568C57.1044 57.7568 66.3758 48.2755 66.3758 36.5799C66.3758 24.8842 57.1044 15.403 45.6674 15.403C34.2305 15.403 24.959 24.8842 24.959 36.5799C24.959 48.2755 34.2305 57.7568 45.6674 57.7568Z" fill="#C9A4EF"/>
<path d="M46.1049 50.0018C53.4342 50.0018 59.3758 43.9926 59.3758 36.5798C59.3758 29.1671 53.4342 23.1578 46.1049 23.1578C38.7756 23.1578 32.834 29.1671 32.834 36.5798C32.834 43.9926 38.7756 50.0018 46.1049 50.0018Z" fill="#FBB1C7"/>
<path d="M47.7091 44.3347C51.8973 44.3347 55.2924 40.8627 55.2924 36.5797C55.2924 32.2968 51.8973 28.8248 47.7091 28.8248C43.5209 28.8248 40.1257 32.2968 40.1257 36.5797C40.1257 40.8627 43.5209 44.3347 47.7091 44.3347Z" fill="#FAC19F"/>
<path d="M50.0424 36.8782H17.3757V51.4932H50.0424V36.8782Z" fill="#94E0B1"/>
<path fill-rule="evenodd" clip-rule="evenodd" d="M28.1674 29.7196H31.0841C31.3161 29.7196 31.5387 29.8139 31.7028 29.9817C31.8669 30.1495 31.9591 30.3771 31.9591 30.6144V48.8086H28.1674V44.6329C28.1674 44.4747 28.1059 44.323 27.9965 44.2111C27.8871 44.0992 27.7388 44.0364 27.584 44.0364H13.8757V42.8433H27.584C27.7388 42.8433 27.8871 42.7805 27.9965 42.6686C28.1059 42.5567 28.1674 42.405 28.1674 42.2468V37.4745C28.1674 37.3163 28.1059 37.1646 27.9965 37.0527C27.8871 36.9408 27.7388 36.878 27.584 36.878H13.8757V35.6849H27.584C27.7388 35.6849 27.8871 35.6221 27.9965 35.5102C28.1059 35.3983 28.1674 35.2466 28.1674 35.0884V29.7196ZM29.0424 30.9127C29.0424 30.8336 29.0731 30.7577 29.1278 30.7018C29.1825 30.6458 29.2567 30.6144 29.3341 30.6144H30.7924C30.8697 30.6144 30.9439 30.6458 30.9986 30.7018C31.0533 30.7577 31.0841 30.8336 31.0841 30.9127V32.1057C31.0841 32.1848 31.0533 32.2607 30.9986 32.3166C30.9439 32.3726 30.8697 32.404 30.7924 32.404H29.3341C29.2567 32.404 29.1825 32.3726 29.1278 32.3166C29.0731 32.2607 29.0424 32.1848 29.0424 32.1057V30.9127ZM29.3341 33.8953C29.2567 33.8953 29.1825 33.9268 29.1278 33.9827C29.0731 34.0386 29.0424 34.1145 29.0424 34.1936V35.3867C29.0424 35.4658 29.0731 35.5416 29.1278 35.5976C29.1825 35.6535 29.2567 35.6849 29.3341 35.6849H30.7924C30.8697 35.6849 30.9439 35.6535 30.9986 35.5976C31.0533 35.5416 31.0841 35.4658 31.0841 35.3867V34.1936C31.0841 34.1145 31.0533 34.0386 30.9986 33.9827C30.9439 33.9268 30.8697 33.8953 30.7924 33.8953H29.3341ZM29.0424 37.4745C29.0424 37.3954 29.0731 37.3196 29.1278 37.2636C29.1825 37.2077 29.2567 37.1763 29.3341 37.1763H30.7924C30.8697 37.1763 30.9439 37.2077 30.9986 37.2636C31.0533 37.3196 31.0841 37.3954 31.0841 37.4745V38.6676C31.0841 38.7467 31.0533 38.8226 30.9986 38.8785C30.9439 38.9344 30.8697 38.9659 30.7924 38.9659H29.3341C29.2567 38.9659 29.1825 38.9344 29.1278 38.8785C29.0731 38.8226 29.0424 38.7467 29.0424 38.6676V37.4745ZM29.3341 40.4572C29.2567 40.4572 29.1825 40.4886 29.1278 40.5445C29.0731 40.6005 29.0424 40.6763 29.0424 40.7555V41.9485C29.0424 42.0276 29.0731 42.1035 29.1278 42.1594C29.1825 42.2154 29.2567 42.2468 29.3341 42.2468H30.7924C30.8697 42.2468 30.9439 42.2154 30.9986 42.1594C31.0533 42.1035 31.0841 42.0276 31.0841 41.9485V40.7555C31.0841 40.6763 31.0533 40.6005 30.9986 40.5445C30.9439 40.4886 30.8697 40.4572 30.7924 40.4572H29.3341ZM29.0424 44.0364C29.0424 43.9573 29.0731 43.8814 29.1278 43.8255C29.1825 43.7695 29.2567 43.7381 29.3341 43.7381H30.7924C30.8697 43.7381 30.9439 43.7695 30.9986 43.8255C31.0533 43.8814 31.0841 43.9573 31.0841 44.0364V45.2294C31.0841 45.3086 31.0533 45.3844 30.9986 45.4404C30.9439 45.4963 30.8697 45.5277 30.7924 45.5277H29.3341C29.2567 45.5277 29.1825 45.4963 29.1278 45.4404C29.0731 45.3844 29.0424 45.3086 29.0424 45.2294V44.0364Z" fill="#434345"/>
<rect x="19.4822" y="29.7223" width="9.33336" height="1.0605" fill="#434345"/>
</g>
</g>
<defs>
<filter id="filter0_f_305_1150" x="0" y="1" width="64" height="64" filterUnits="userSpaceOnUse" color-interpolation-filters="sRGB">
<feFlood flood-opacity="0" result="BackgroundImageFix"/>
<feBlend mode="normal" in="SourceGraphic" in2="BackgroundImageFix" result="shape"/>
<feGaussianBlur stdDeviation="2" result="effect1_foregroundBlur_305_1150"/>
</filter>
<clipPath id="clip0_305_1150">
<rect width="64" height="64" fill="white"/>
</clipPath>
</defs>
</svg>
