<svg width="64" height="64" viewBox="0 0 64 64" fill="none" xmlns="http://www.w3.org/2000/svg">
<g clip-path="url(#clip0_305_1076)">
<g opacity="0.16" filter="url(#filter0_f_305_1076)">
<rect x="4" y="5" width="56" height="56" rx="16" fill="#434345"/>
</g>
<path d="M44 4H20C11.1634 4 4 11.1634 4 20V44C4 52.8364 11.1634 60 20 60H44C52.8364 60 60 52.8364 60 44V20C60 11.1634 52.8364 4 44 4Z" fill="#434345"/>
<path fill-rule="evenodd" clip-rule="evenodd" d="M24.7768 17.4335C23.5212 17.4039 22.3056 17.8824 21.4067 18.7597C20.5077 19.6381 20.0007 20.8413 20.0007 22.0979V27.0494C20.0007 28.9908 20.003 30.9334 20.0007 32.8748V32.8964V37.6839C20.0019 39.6731 20.003 41.6624 20.0007 43.6517C19.9916 44.1245 20.068 44.5882 20.2081 45.0291C20.2104 45.0337 20.2115 45.0371 20.2126 45.0416C20.2525 45.1647 20.2958 45.2866 20.3471 45.4073C20.3904 45.511 20.4371 45.6136 20.4872 45.715C20.4929 45.7264 20.4986 45.7366 20.5043 45.748C20.526 45.7959 20.5487 45.8426 20.5727 45.8904C20.7219 46.1627 20.8974 46.4202 21.099 46.6595C21.4226 47.0411 21.8054 47.3681 22.2338 47.629C22.3466 47.6985 22.4628 47.7646 22.5813 47.825C23.0872 48.0848 23.642 48.2488 24.2208 48.2933C24.2379 48.2944 24.2561 48.2978 24.2743 48.299C24.3461 48.3046 24.4179 48.3081 24.4897 48.3103C24.5933 48.316 24.697 48.3195 24.8007 48.3172C24.8087 48.316 24.8155 48.316 24.8235 48.3149C24.9545 48.3103 25.0855 48.3012 25.2154 48.2841C25.8443 48.2101 26.4516 48.0096 27.0007 47.694L27.0782 47.6495C27.2502 47.5573 27.42 47.4604 27.5841 47.3567H27.5852L36.3341 42.305L45.6674 36.916C47.1964 36.033 48.0953 34.3628 47.9916 32.5991C47.9643 32.0066 47.8241 31.4199 47.5553 30.8764C47.3582 30.4275 47.0779 30.0379 46.7463 29.6927C46.7315 29.6779 46.7167 29.663 46.703 29.6482C46.6267 29.5719 46.5504 29.4967 46.4706 29.4249C46.4045 29.3657 46.3373 29.3087 46.269 29.254C46.2188 29.213 46.1676 29.1731 46.1163 29.1333C46.0719 29.1002 46.0274 29.0672 45.9819 29.0353C45.6959 28.8291 45.394 28.6445 45.0841 28.4804C45.0601 28.4713 45.0362 28.4633 45.0123 28.4542L27.0007 18.0568C26.324 17.666 25.5595 17.4518 24.7768 17.4335Z" fill="#C05460"/>
<path fill-rule="evenodd" clip-rule="evenodd" d="M24.7779 15.6834C22.1575 15.6219 20.0008 17.7274 20.0008 20.3478V32.5682C20.0019 32.5716 20.003 32.5739 20.0053 32.5773C19.9985 35.6854 20.0042 38.7935 20.0008 41.9015C19.9575 44.2508 21.9262 46.4019 24.2732 46.5488C25.2075 46.6525 26.1121 46.3916 26.9358 45.9735C26.9575 45.9632 26.9791 45.9553 27.0008 45.9439L27.0782 45.8994C27.2503 45.8071 27.42 45.7103 27.5841 45.6078C27.5841 45.6066 27.5841 45.6066 27.5852 45.6066L45.6674 35.1499C47.7228 34.014 48.6012 31.2329 47.5553 29.1263C47.0768 28.0348 46.1152 27.2738 45.0841 26.7303C45.0602 26.7212 45.0362 26.7132 45.0123 26.7053L27.0008 16.3067C26.324 15.9159 25.5595 15.7017 24.7779 15.6834Z" fill="#FFFAFA"/>
<path d="M41.5185 30.2332C42.1645 30.2332 42.6852 30.7538 42.6852 31.3998C42.6852 32.0458 42.1645 32.5665 41.5185 32.5665C40.8725 32.5665 40.3519 32.0458 40.3519 31.3998C40.3519 30.7538 40.8725 30.2332 41.5185 30.2332ZM24.0185 30.2332C24.6645 30.2332 25.1852 30.7538 25.1852 31.3998C25.1852 32.0458 24.6645 32.5665 24.0185 32.5665C23.3725 32.5665 22.8519 32.0458 22.8519 31.3998C22.8519 30.7538 23.3725 30.2332 24.0185 30.2332ZM38.0185 30.2332C38.6645 30.2332 39.1852 30.7538 39.1852 31.3998C39.1852 32.0458 38.6645 32.5665 38.0185 32.5665C37.3725 32.5665 36.8519 32.0458 36.8519 31.3998C36.8519 30.7538 37.3725 30.2332 38.0185 30.2332ZM34.5185 27.6082C35.1645 27.6082 35.6852 28.1288 35.6852 28.7748V34.0248C35.6852 34.6708 35.1645 35.1915 34.5185 35.1915C33.8725 35.1915 33.3519 34.6708 33.3519 34.0248V28.7748C33.3519 28.1288 33.8725 27.6082 34.5185 27.6082ZM31.0185 24.1082C31.6645 24.1082 32.1852 24.6288 32.1852 25.2748V37.5248C32.1852 38.1708 31.6645 38.6915 31.0185 38.6915C30.3725 38.6915 29.8519 38.1708 29.8519 37.5248V25.2748C29.8519 24.6288 30.3725 24.1082 31.0185 24.1082ZM27.5185 29.3582C28.1645 29.3582 28.6852 29.8788 28.6852 30.5248V32.2748C28.6852 32.9208 28.1645 33.4415 27.5185 33.4415C26.8725 33.4415 26.3519 32.9208 26.3519 32.2748V30.5248C26.3519 29.8788 26.8725 29.3582 27.5185 29.3582Z" fill="#B48BDD"/>
</g>
<defs>
<filter id="filter0_f_305_1076" x="0" y="1" width="64" height="64" filterUnits="userSpaceOnUse" color-interpolation-filters="sRGB">
<feFlood flood-opacity="0" result="BackgroundImageFix"/>
<feBlend mode="normal" in="SourceGraphic" in2="BackgroundImageFix" result="shape"/>
<feGaussianBlur stdDeviation="2" result="effect1_foregroundBlur_305_1076"/>
</filter>
<clipPath id="clip0_305_1076">
<rect width="64" height="64" fill="white"/>
</clipPath>
</defs>
</svg>
