<svg width="64" height="64" viewBox="0 0 64 64" fill="none" xmlns="http://www.w3.org/2000/svg">
<g clip-path="url(#clip0_117_74)">
<g opacity="0.16" filter="url(#filter0_f_117_74)">
<rect x="4" y="5" width="56" height="56" rx="16" fill="#666569"/>
</g>
<rect x="4" y="4" width="56" height="56" rx="16" fill="#86B6EB"/>
<rect x="12.5" y="16.5" width="39" height="31" rx="3.5" fill="#FFFAFA" stroke="#434345"/>
<path d="M12 20C12 17.7909 13.7909 16 16 16H19V48H16C13.7909 48 12 46.2091 12 44V20Z" fill="#434345"/>
<mask id="mask0_117_74" style="mask-type:alpha" maskUnits="userSpaceOnUse" x="12" y="16" width="7" height="32">
<path d="M12 20C12 17.7909 13.7909 16 16 16H19V48H16C13.7909 48 12 46.2091 12 44V20Z" fill="#434345"/>
</mask>
<g mask="url(#mask0_117_74)">
<path d="M15 42H16V48H15V42Z" fill="#86B6EB"/>
</g>
<path d="M27.75 39.5752C29.4167 40.2418 33.55 40.9752 36.75 38.5752C39.95 36.1752 43.75 37.5752 45.25 38.5752" stroke="#86B6EB" stroke-width="0.5" stroke-linecap="round" stroke-linejoin="round"/>
<path d="M28.1981 37.8564L27.8307 39.3943L29.2815 38.7655L28.1981 37.8564Z" fill="#434345" stroke="#434345" stroke-width="0.35" stroke-linecap="round" stroke-linejoin="round"/>
<path d="M39 25L29 38" stroke="#434345" stroke-width="2" stroke-linecap="round" stroke-linejoin="round"/>
</g>
<defs>
<filter id="filter0_f_117_74" x="0" y="1" width="64" height="64" filterUnits="userSpaceOnUse" color-interpolation-filters="sRGB">
<feFlood flood-opacity="0" result="BackgroundImageFix"/>
<feBlend mode="normal" in="SourceGraphic" in2="BackgroundImageFix" result="shape"/>
<feGaussianBlur stdDeviation="2" result="effect1_foregroundBlur_117_74"/>
</filter>
<clipPath id="clip0_117_74">
<rect width="64" height="64" fill="white"/>
</clipPath>
</defs>
</svg>
