<svg width="64" height="64" viewBox="0 0 64 64" fill="none" xmlns="http://www.w3.org/2000/svg">
<g clip-path="url(#clip0_117_61)">
<g opacity="0.16" filter="url(#filter0_f_117_61)">
<rect x="4" y="5" width="56" height="56" rx="16" fill="#666569"/>
</g>
<rect x="4" y="4" width="56" height="56" rx="16" fill="#434345"/>
<path fill-rule="evenodd" clip-rule="evenodd" d="M24.0411 19.0003L23.7875 19.0016C22.8176 19.0041 21.8482 19.0138 20.8787 19.037C20.5534 19.0454 20.2282 19.0526 19.9025 19.0581C19.627 19.0632 19.3515 19.0682 19.076 19.0741C18.9048 19.0779 18.7331 19.0817 18.5618 19.0847C18.3981 19.0872 18.2348 19.0897 18.0711 19.094C18.0408 19.0946 18.0104 19.0953 17.98 19.0961C17.9496 19.0968 17.9193 19.0975 17.8889 19.0982C17.8598 19.0984 17.8308 19.0987 17.8018 19.099C17.7728 19.0993 17.7438 19.0997 17.7146 19.0999C17.6602 19.1016 17.6071 19.1032 17.5543 19.1049C17.3868 19.1079 17.3139 19.118 17.1784 19.2188C17.0624 19.3686 17.054 19.4412 17.051 19.6251C17.0519 19.663 17.0523 19.6997 17.0527 19.7364V19.7365C17.0519 19.8634 17.051 19.9905 17.0519 20.1174C17.0523 20.2115 17.0523 20.3052 17.0519 20.3988C17.051 20.6574 17.0506 20.916 17.051 21.1747C17.0519 21.4573 17.0519 21.7404 17.051 22.023C17.0502 22.577 17.0498 23.1305 17.0506 23.6844V23.6857C17.051 24.1725 17.0515 24.6589 17.051 25.1458V25.2436C17.051 25.3744 17.051 25.5052 17.0506 25.636C17.0502 26.8645 17.0506 28.0926 17.0519 29.3211C17.0527 30.4146 17.0527 31.5085 17.0519 32.6024C17.0506 33.833 17.0502 35.0636 17.0506 36.2942C17.0506 36.3596 17.0507 36.425 17.0508 36.4905C17.0509 36.5561 17.051 36.6218 17.051 36.6874V36.7853C17.051 37.2726 17.051 37.7602 17.0506 38.2475C17.0498 38.8044 17.0498 39.3613 17.051 39.9186C17.0515 40.1746 17.0519 40.4311 17.0515 40.6876C17.051 40.9526 17.0506 41.2179 17.0515 41.4833V41.4834C17.0519 41.5796 17.0523 41.6757 17.0523 41.7719C17.0522 41.7985 17.0521 41.8252 17.052 41.8518C17.0516 41.9585 17.0512 42.0652 17.0519 42.1722C17.0519 42.2127 17.0523 42.2523 17.0527 42.292C17.0526 42.2995 17.0525 42.307 17.0524 42.3144C17.0507 42.4372 17.0491 42.5558 17.0793 42.6764C17.1806 42.7835 17.2426 42.8346 17.386 42.8662C17.4202 42.8666 17.4531 42.8666 17.4856 42.8666C17.5198 42.867 17.5531 42.8674 17.5865 42.8677L17.6012 42.8679C17.6221 42.8677 17.6428 42.8676 17.6634 42.8675C17.6843 42.8674 17.705 42.8673 17.7256 42.867C17.8648 42.8679 18.0041 42.8687 18.1433 42.8683C18.2428 42.8679 18.3424 42.8675 18.442 42.8679C18.6495 42.8683 18.8571 42.8683 19.0642 42.8679C19.3346 42.8666 19.6046 42.8662 19.8746 42.867C20.0852 42.8679 20.2957 42.8683 20.5062 42.8679C20.5564 42.8679 20.6067 42.8678 20.657 42.8677C20.7073 42.8676 20.7576 42.8675 20.8078 42.8675C20.9525 42.8683 21.0968 42.8687 21.2415 42.8679C21.2639 42.8677 21.2859 42.8676 21.3078 42.8675C21.3299 42.8674 21.3519 42.8673 21.374 42.867L21.4109 42.8673C21.441 42.8675 21.4524 42.8676 21.4993 42.8679C21.5381 42.8675 21.5761 42.867 21.614 42.8666C21.7431 42.8662 21.7925 42.8535 21.8992 42.778C21.9731 42.6764 21.9731 42.6764 21.9941 42.5418C21.9946 42.4865 21.9946 42.4329 21.9946 42.3794C21.9954 42.2836 21.9963 42.1878 21.9958 42.0921C21.9954 42.022 21.9954 41.9516 21.9958 41.8815C21.9971 41.6904 21.9975 41.4993 21.9975 41.3082C21.9971 41.1049 21.9975 40.9019 21.9984 40.6986C22.0001 40.3151 22.0009 39.9312 22.0013 39.5477C22.0017 38.9786 22.0034 38.4091 22.0051 37.84C22.0051 37.818 22.0052 37.7965 22.0053 37.7752C22.0054 37.7543 22.0055 37.7337 22.0055 37.713C22.0057 37.6712 22.0059 37.6293 22.006 37.5874C22.0061 37.5457 22.0062 37.5039 22.0064 37.462C22.0072 37.2177 22.0076 36.9734 22.0081 36.7288C22.0081 36.5744 22.0085 36.4195 22.0089 36.2651V36.2649C22.0089 36.1933 22.0089 36.1216 22.0093 36.05C22.0093 36.0165 22.0093 35.983 22.0092 35.9496C22.0091 35.8828 22.0091 35.8161 22.0093 35.7492C22.0093 35.7184 22.0093 35.6888 22.0098 35.6589C22.0098 35.5652 22.011 35.4716 22.0152 35.3779C22.034 35.3552 22.045 35.3418 22.0592 35.3345C22.0795 35.3241 22.1061 35.3261 22.1709 35.3311C22.2478 35.3315 22.2481 35.3315 22.3236 35.3315H22.3245C22.3823 35.3319 22.4405 35.3319 22.4983 35.3319C22.5941 35.3328 22.6898 35.3332 22.7856 35.3332L23.5074 35.3357C23.5998 35.3361 23.6921 35.3366 23.7844 35.3371C24.6283 35.3418 25.4707 35.3465 26.3099 35.2446C26.3535 35.2387 26.3971 35.2328 26.4406 35.2269C26.4842 35.221 26.5278 35.2151 26.5715 35.2092C26.9993 35.1547 27.4211 35.0851 27.8426 34.9915C27.892 34.9805 27.9396 34.9695 27.9873 34.9586C28.2484 34.8999 28.5033 34.8362 28.7551 34.7443L28.7756 34.7365C28.8733 34.6994 28.9704 34.6626 29.0694 34.6291C30.119 34.2865 31.1543 33.6672 31.9196 32.8648C31.926 32.8578 31.9324 32.8508 31.9388 32.8438C31.9641 32.8162 31.9887 32.7893 32.0137 32.7623C32.2352 32.5248 32.4482 32.2814 32.6482 32.0253C32.6609 32.0089 32.6734 31.9927 32.6858 31.9766C32.7009 31.9571 32.7158 31.9377 32.7309 31.9185C33.7919 30.612 34.0842 28.8591 34.0885 27.2235C34.0885 27.191 34.0885 27.1594 34.0889 27.1277C34.0893 26.7261 34.0834 26.3274 34.0387 25.9279C33.7953 24.008 32.8541 22.1964 31.3248 20.9949C31.2864 20.965 31.2492 20.9363 31.2121 20.9076C30.9527 20.6958 30.6898 20.5132 30.3983 20.3486C30.3703 20.333 30.3565 20.3253 30.3427 20.3177C30.3292 20.3102 30.3157 20.3027 30.2891 20.2879C29.8174 20.0255 29.323 19.8213 28.8125 19.647C28.7723 19.6336 28.7523 19.627 28.7324 19.6204C28.7128 19.6139 28.6932 19.6075 28.6543 19.5947C28.1957 19.442 27.7401 19.3104 27.2613 19.2357C27.2275 19.2302 27.195 19.2252 27.1621 19.2201C26.1264 19.0471 25.0899 18.9952 24.0411 19.0003ZM22.7555 23.4308C22.6985 23.4312 22.6428 23.4317 22.5876 23.4321C22.568 23.4322 22.5485 23.4322 22.529 23.4322C22.3828 23.432 22.2387 23.4319 22.0995 23.481C22.0079 23.6004 21.9742 23.6806 21.9573 23.8312V23.9923C21.9564 24.0873 21.9564 24.1826 21.9569 24.2775C21.9573 24.3471 21.9573 24.4167 21.9573 24.4864C21.9564 24.6762 21.9564 24.866 21.9569 25.0555C21.9577 25.2571 21.9577 25.4588 21.9577 25.6604C21.9573 25.9979 21.9577 26.3354 21.9586 26.6729C21.9594 27.0665 21.9598 27.4597 21.9598 27.8533C21.9594 28.2343 21.9594 28.6157 21.9598 28.9966C21.9602 29.1582 21.9602 29.3198 21.9602 29.4814C21.9602 29.675 21.9602 29.8686 21.9607 30.0623C21.9609 30.0979 21.961 30.1335 21.9611 30.169C21.9612 30.2047 21.9613 30.2403 21.9615 30.2757C21.9611 30.3753 21.9611 30.4749 21.9615 30.5744C21.9615 30.5897 21.9616 30.6048 21.9617 30.6198C21.9618 30.6345 21.9619 30.6492 21.9619 30.6639C21.9622 30.755 21.9623 30.7946 21.9642 30.8341C21.9657 30.8645 21.9683 30.8947 21.9729 30.9482C22.0059 30.9812 22.0305 31.0058 22.0592 31.0243C22.1442 31.0791 22.2643 31.0794 22.7407 31.0807C22.7918 31.0807 22.8415 31.0807 22.8913 31.0803C22.9976 31.0807 23.1044 31.0807 23.2107 31.0807C23.3777 31.0803 23.5444 31.0803 23.711 31.0803C23.8203 31.0807 23.9296 31.0807 24.0388 31.0807C24.0658 31.0807 24.0924 31.0806 24.1188 31.0805C24.1447 31.0804 24.1704 31.0803 24.1962 31.0803C25.0479 31.0819 25.8504 30.9651 26.665 30.7174C27.5113 30.4508 28.3774 29.9239 28.8018 29.1097C28.8182 29.0751 28.8339 29.0413 28.8495 29.0076C29.1292 28.4659 29.1912 27.8905 29.1996 27.288C29.1998 27.2524 29.1999 27.2348 29.2 27.2172C29.2 27.2 29.2 27.1828 29.2 27.1488C29.2017 26.8619 29.187 26.5928 29.1245 26.3127C29.1136 26.2675 29.1136 26.2675 29.1026 26.2232C28.9465 25.5811 28.6377 25.0057 28.1567 24.5501C28.12 24.5167 28.0838 24.4838 28.0479 24.4513C27.6429 24.0721 27.1662 23.8831 26.646 23.7143C26.6263 23.7079 26.6068 23.7018 26.5874 23.6957C26.5722 23.6909 26.5572 23.6862 26.5422 23.6814C26.2757 23.5942 26.0961 23.5355 25.9124 23.4964C25.5336 23.4157 25.137 23.4185 23.9224 23.427H23.9222C23.7885 23.4279 23.6549 23.4287 23.5216 23.4287C23.467 23.4289 23.4124 23.4289 23.3578 23.429C23.2485 23.4292 23.1393 23.4294 23.0301 23.43C23.0142 23.43 22.9985 23.4301 22.9829 23.4302C22.9675 23.4303 22.9522 23.4304 22.9369 23.4304C22.9065 23.4304 22.8761 23.4305 22.8459 23.4306C22.8157 23.4307 22.7856 23.4308 22.7555 23.4308Z" fill="#86B6EB"/>
<path d="M43.3347 24.5752C44.7222 24.5419 46.2005 24.6128 47.5386 25C47.5758 25.0106 47.6129 25.0211 47.6509 25.0321C47.7719 25.0675 47.8926 25.1047 48.0133 25.1422C48.0698 25.1591 48.0698 25.1591 48.1276 25.1764C48.163 25.1882 48.1989 25.2 48.2352 25.2118C48.2668 25.2219 48.2984 25.2316 48.3305 25.2422C48.4663 25.319 48.5587 25.4143 48.6355 25.5485C48.6646 25.6835 48.6625 25.8143 48.66 25.9522C48.66 25.9919 48.6604 26.0319 48.6604 26.0729C48.6604 26.2041 48.6591 26.3353 48.6575 26.4669C48.6575 26.558 48.657 26.6491 48.657 26.7407C48.6566 26.9314 48.6553 27.1225 48.6537 27.3136C48.6516 27.5587 48.6507 27.8042 48.6499 28.0493C48.6494 28.2831 48.6482 28.5168 48.6469 28.7501C48.6469 28.7948 48.6465 28.8399 48.6465 28.8859C48.6456 29.0121 48.6448 29.1382 48.6435 29.2639C48.6435 29.3019 48.6431 29.3394 48.6431 29.3783C48.6402 29.6356 48.6402 29.6356 48.5933 29.6828C48.2706 29.7567 48.0141 29.6445 47.7285 29.5086C46.119 28.7438 43.7679 28.3088 42.0344 28.8416C41.6902 28.9682 41.5248 29.1272 41.3421 29.4373C41.2683 29.6883 41.2396 29.9491 41.3291 30.2005C41.8459 31.1071 43.3098 31.5593 44.2337 31.8833C45.5984 32.3727 47.0995 33.0266 48.1293 34.0703C48.1774 34.1172 48.1774 34.1172 48.2267 34.1653C48.2643 34.2032 48.3018 34.2416 48.3402 34.2813C48.3643 34.3058 48.3887 34.3298 48.4136 34.3551C49.0123 34.9888 49.3746 35.7912 49.5215 36.6438C49.5286 36.6742 49.5358 36.7045 49.5434 36.7362C49.5691 36.8859 49.5712 37.0336 49.5721 37.1851C49.5725 37.2171 49.5725 37.2492 49.5729 37.2817C49.5733 37.3496 49.5738 37.4171 49.5738 37.4846C49.5742 37.5858 49.5755 37.6871 49.5767 37.7883C49.5864 39.2248 48.9844 40.4369 48.0078 41.4608C46.4418 42.9791 44.1058 43.3339 42.0121 43.3242C41.0578 43.3086 40.0812 43.2373 39.1433 43.0563C39.1075 43.0491 39.072 43.0424 39.0353 43.0356C37.0281 42.6395 37.0281 42.6395 36.5277 42.086C36.4568 41.9442 36.4788 41.7839 36.4788 41.6278C36.4783 41.5894 36.4783 41.5506 36.4779 41.5105C36.4775 41.3823 36.4771 41.254 36.4771 41.1254C36.4767 41.0363 36.4762 40.9473 36.4762 40.8579C36.4758 40.671 36.4754 40.4837 36.4754 40.2968C36.475 40.0572 36.4741 39.8176 36.4729 39.5775C36.472 39.3936 36.472 39.2092 36.472 39.0253C36.4716 38.9367 36.4712 38.8485 36.4708 38.7599C36.4699 38.6363 36.4703 38.5127 36.4703 38.3891C36.4699 38.3524 36.4695 38.3161 36.4691 38.2786C36.4708 38.0668 36.4986 37.9259 36.6121 37.7407C36.8184 37.7626 36.9703 37.8309 37.1474 37.933C39.0054 38.9595 41.664 39.5741 43.7591 39.0261C44.0759 38.935 44.34 38.811 44.5433 38.5422C44.6973 38.2562 44.7058 37.9735 44.6302 37.6613C44.3957 37.1015 43.8156 36.8146 43.2988 36.57C43.2532 36.548 43.2077 36.5265 43.1604 36.5041C42.5854 36.2337 41.9948 36.0004 41.3978 35.7823C40.2246 35.3528 39.0501 34.7099 38.1308 33.8594C38.0937 33.8252 38.0566 33.7911 38.0186 33.7561C37.1175 32.8912 36.5644 31.7235 36.5193 30.4688C36.4952 29.1023 36.9268 27.7477 37.8743 26.7403C37.9642 26.6458 37.9642 26.6458 38.0443 26.539C38.2017 26.3483 38.4013 26.2066 38.5949 26.0547C38.6278 26.0277 38.6603 26.0007 38.694 25.9729C40.0061 24.9456 41.71 24.6212 43.3347 24.5752Z" fill="#86B6EB"/>
</g>
<defs>
<filter id="filter0_f_117_61" x="0" y="1" width="64" height="64" filterUnits="userSpaceOnUse" color-interpolation-filters="sRGB">
<feFlood flood-opacity="0" result="BackgroundImageFix"/>
<feBlend mode="normal" in="SourceGraphic" in2="BackgroundImageFix" result="shape"/>
<feGaussianBlur stdDeviation="2" result="effect1_foregroundBlur_117_61"/>
</filter>
<clipPath id="clip0_117_61">
<rect width="64" height="64" fill="white"/>
</clipPath>
</defs>
</svg>
