<svg width="64" height="64" viewBox="0 0 64 64" fill="none" xmlns="http://www.w3.org/2000/svg">
<g clip-path="url(#clip0_23_626)">
<g opacity="0.16" filter="url(#filter0_f_23_626)">
<rect x="4" y="5" width="56" height="56" rx="16" fill="#666569"/>
</g>
<rect x="4" y="4" width="56" height="56" rx="16" fill="#C9A4EF"/>
<rect x="14" y="14" width="36" height="36" rx="6" fill="#434345"/>
<path d="M18.6085 41.7384H30.7829V44.1725H18.6085V41.7384ZM21.0426 19.8236V33.2131H23.4767V28.3449H25.9147C28.8427 28.3449 30.7829 27.1494 30.7829 24.147V24.0843C30.7829 21.3719 29.462 19.8236 26.3106 19.8236H21.0426ZM38.1166 19.8236C35.4787 19.8236 33.1896 21.1485 33.1896 23.5669V23.6414C33.1896 25.3386 34.8947 26.8476 37.5326 27.5061C39.7276 28.0941 40.5507 28.6232 40.5507 29.3562V29.4307C40.5507 30.2342 39.2886 30.783 38.1205 30.783C36.6507 30.783 35.6394 30.2342 34.4674 29.2817L32.876 31.0064C34.4125 32.3979 36.1411 33.1426 38.1166 33.2171C40.8996 33.2171 42.9378 31.4767 42.9378 29.2112V29.1328C42.9378 27.1298 41.3621 26.291 38.7281 25.562C36.5291 24.974 35.6825 24.5625 35.6825 23.6806V23.4571C35.6825 22.7947 37.0152 22.2616 38.1166 22.2616C39.2141 22.2616 40.0412 22.34 41.2131 23.1436L42.5693 21.2974C41.1857 20.4586 40.0216 19.8236 38.1166 19.8236ZM23.4767 22.2577H25.9108C27.3768 22.2577 28.3488 22.7673 28.3488 24.0843V24.147C28.3488 25.2445 27.3768 25.9108 25.9108 25.9108H23.4806L23.4767 22.2577Z" fill="#FFFAFA"/>
</g>
<defs>
<filter id="filter0_f_23_626" x="0" y="1" width="64" height="64" filterUnits="userSpaceOnUse" color-interpolation-filters="sRGB">
<feFlood flood-opacity="0" result="BackgroundImageFix"/>
<feBlend mode="normal" in="SourceGraphic" in2="BackgroundImageFix" result="shape"/>
<feGaussianBlur stdDeviation="2" result="effect1_foregroundBlur_23_626"/>
</filter>
<clipPath id="clip0_23_626">
<rect width="64" height="64" fill="white"/>
</clipPath>
</defs>
</svg>
