<svg width="64" height="64" viewBox="0 0 64 64" fill="none" xmlns="http://www.w3.org/2000/svg">
<g clip-path="url(#clip0_21_233)">
<g opacity="0.16" filter="url(#filter0_f_21_233)">
<rect x="4" y="5" width="56" height="56" rx="16" fill="#666569"/>
</g>
<rect x="4" y="4" width="56" height="56" rx="16" fill="#FFDB6A"/>
<path d="M4 29.6C4 20.6392 4 16.1587 5.7439 12.7362C7.27787 9.72556 9.72556 7.27787 12.7362 5.7439C16.1587 4 20.6392 4 29.6 4H32V32H4V29.6Z" fill="#94E0B1"/>
<path d="M32 4H34.4C43.3608 4 47.8413 4 51.2638 5.7439C54.2744 7.27787 56.7221 9.72556 58.2561 12.7362C60 16.1587 60 20.6392 60 29.6V32H32V4Z" fill="#F86974"/>
<path d="M32 32H60V34.4C60 43.3608 60 47.8413 58.2561 51.2638C56.7221 54.2744 54.2744 56.7221 51.2638 58.2561C47.8413 60 43.3608 60 34.4 60H32V32Z" fill="#FFDB6A"/>
<path d="M4 32H32V60H29.6C20.6392 60 16.1587 60 12.7362 58.2561C9.72556 56.7221 7.27787 54.2744 5.7439 51.2638C4 47.8413 4 43.3608 4 34.4V32Z" fill="#86B6EB"/>
<path d="M38.4037 14.1257C34.6919 13.127 32.1518 18.2359 31.5617 23.9234C30.0521 17.2116 25.8528 11.6569 21.4141 16.6458C19.7634 18.5017 19.3829 20.0018 19.6352 21.2061C18.4121 21.099 16.9625 21.6519 15.3118 23.5034C11.3948 27.9009 16.8855 31.5782 23.4025 32.5597C16.9582 34.167 11.8694 38.2601 16.7145 42.5718C18.5746 44.2262 20.0756 44.6077 21.2815 44.3591C21.1703 45.5849 21.7262 47.0335 23.5779 48.6879C27.8798 52.5196 31.489 47.3507 32.558 41.0246C34.3541 47.1835 38.5405 51.9067 42.3635 47.6036C44.0142 45.752 44.399 44.2476 44.1467 43.0433C45.374 43.1547 46.8194 42.6018 48.4743 40.746C52.7934 35.8985 47.2342 32.4183 40.6359 31.5654C47.0076 29.8467 52.0536 25.565 47.649 21.6433C45.7974 19.9932 44.2921 19.6075 43.0905 19.856C43.1974 18.6302 42.6458 17.1859 40.7899 15.5272C40.1108 14.8803 39.291 14.4005 38.3952 14.1257H38.4037ZM31.9166 31.9468C31.9209 31.9897 31.9252 32.0326 31.938 32.0754H31.8952C31.9081 32.0326 31.9081 31.9897 31.9166 31.9468Z" fill="#FFFAFA"/>
</g>
<defs>
<filter id="filter0_f_21_233" x="0" y="1" width="64" height="64" filterUnits="userSpaceOnUse" color-interpolation-filters="sRGB">
<feFlood flood-opacity="0" result="BackgroundImageFix"/>
<feBlend mode="normal" in="SourceGraphic" in2="BackgroundImageFix" result="shape"/>
<feGaussianBlur stdDeviation="2" result="effect1_foregroundBlur_21_233"/>
</filter>
<clipPath id="clip0_21_233">
<rect width="64" height="64" fill="white"/>
</clipPath>
</defs>
</svg>
