<svg width="64" height="64" viewBox="0 0 64 64" fill="none" xmlns="http://www.w3.org/2000/svg">
<g clip-path="url(#clip0_192_1513)">
<g opacity="0.16" filter="url(#filter0_f_192_1513)">
<rect x="4" y="5" width="56" height="56" rx="16" fill="#434345"/>
</g>
<path d="M44 4H20C11.1634 4 4 11.1634 4 20V44C4 52.8364 11.1634 60 20 60H44C52.8364 60 60 52.8364 60 44V20C60 11.1634 52.8364 4 44 4Z" fill="#434345"/>
<path d="M42.9412 17.1024C43.432 17.0888 43.8784 17.3 44.2388 17.6538L44.3376 17.6407L47.0104 20.3158C47.368 20.6719 47.5504 21.1274 47.5612 21.6165C47.5748 22.1061 47.3716 22.5245 47.018 22.886L44.8424 25.1066C45.4724 26.2524 45.9104 27.4227 46.2228 28.6955L49.0116 28.6946C49.5296 28.6858 49.952 28.89 50.3116 29.2492C50.6636 29.6349 50.8172 30.0494 50.8276 30.5412L50.8364 34.3795C50.8424 34.8981 50.6708 35.3248 50.318 35.6837C49.9628 36.009 49.5432 36.1956 49.0228 36.204L45.9764 36.193C45.6028 37.3316 45.0296 38.6789 44.3636 39.6749L46.386 41.6516C46.7372 42.0428 46.8848 42.492 46.8928 42.9808C46.91 43.4656 46.7276 43.9236 46.3748 44.2824L43.66 46.9924C43.3088 47.3572 42.8868 47.5436 42.368 47.5436C41.8472 47.552 41.4328 47.3492 41.0724 46.9956L38.8883 44.824C37.7213 45.4168 36.5628 45.914 35.2769 46.2088L35.27 49.0036C35.2756 49.522 35.0752 49.9408 34.7218 50.3024C34.3342 50.6552 33.9205 50.81 33.4299 50.8208L29.6063 50.834C29.0862 50.8396 28.6634 50.6684 28.3003 50.314C27.9725 49.9632 27.7867 49.5432 27.7846 49.0196L27.8006 45.9688C26.6379 45.5768 25.3393 45.0308 24.3214 44.3484L22.3181 46.372C21.9305 46.7248 21.482 46.8732 20.9914 46.884C20.5088 46.8964 20.0512 46.7192 19.6913 46.3628L16.9954 43.6448C16.6373 43.294 16.4549 42.8384 16.444 42.3496C16.43 41.8624 16.6336 41.4416 16.9869 41.08L19.1562 38.897C18.5647 37.7358 18.0717 36.5476 17.7817 35.2731L14.9955 35.2745C14.4754 35.2801 14.0556 35.0764 13.6957 34.7198C13.3441 34.3315 13.1877 33.9166 13.1773 33.4248L13.168 29.5891C13.1655 29.0683 13.3334 28.6465 13.6894 28.2854C14.0424 27.957 14.4612 27.773 14.9844 27.7651L18.028 27.7757C18.4017 26.637 18.9753 25.2871 19.6415 24.2911L17.6628 22.2859C17.297 21.9311 17.1143 21.5087 17.1118 20.9878C17.0983 20.4982 17.3044 20.0472 17.6626 19.6892L20.3393 17.0057C20.6895 16.6463 21.141 16.4653 21.632 16.4517C22.1226 16.4409 22.5371 16.6437 22.8948 16.9971L25.1107 19.1768C26.2094 18.5639 27.464 18.0697 28.6922 17.7896L28.6938 14.994C28.6881 14.4753 28.8948 14.0521 29.245 13.6927C29.63 13.3395 30.0495 13.1833 30.5374 13.1719L34.3659 13.1624C34.8838 13.1536 35.3061 13.3273 35.667 13.6785C35.9911 14.0343 36.177 14.4544 36.1854 14.9736L36.1716 18.0273C37.3148 18.4049 38.6436 18.9674 39.6432 19.6438L41.6492 17.6509C42.002 17.292 42.4532 17.1137 42.9412 17.1024Z" fill="#FFFAFA"/>
<path d="M30.3973 40.3984C35.0356 41.2836 39.5133 38.2411 40.3984 33.6028C41.2836 28.9644 38.2409 24.4868 33.6026 23.6017C28.9642 22.7166 24.4866 25.7592 23.6015 30.3975C22.7164 35.0358 25.759 39.5135 30.3973 40.3984Z" fill="#434345"/>
</g>
<defs>
<filter id="filter0_f_192_1513" x="0" y="1" width="64" height="64" filterUnits="userSpaceOnUse" color-interpolation-filters="sRGB">
<feFlood flood-opacity="0" result="BackgroundImageFix"/>
<feBlend mode="normal" in="SourceGraphic" in2="BackgroundImageFix" result="shape"/>
<feGaussianBlur stdDeviation="2" result="effect1_foregroundBlur_192_1513"/>
</filter>
<clipPath id="clip0_192_1513">
<rect width="64" height="64" fill="white"/>
</clipPath>
</defs>
</svg>
