<svg width="64" height="64" viewBox="0 0 64 64" fill="none" xmlns="http://www.w3.org/2000/svg">
<g clip-path="url(#clip0_306_1270)">
<g opacity="0.16" filter="url(#filter0_f_306_1270)">
<rect x="4" y="5" width="56" height="56" rx="16" fill="#434345"/>
</g>
<path d="M44 4H20C11.1634 4 4 11.1634 4 20V44C4 52.8364 11.1634 60 20 60H44C52.8364 60 60 52.8364 60 44V20C60 11.1634 52.8364 4 44 4Z" fill="#FFDB6A"/>
<path d="M27.785 16C26.8217 16 25.8979 16.3951 25.2168 17.0983C24.5357 17.8015 24.153 18.7553 24.153 19.7498C24.153 20.7443 24.5357 21.698 25.2168 22.4013C25.8979 23.1045 26.8217 23.4995 27.785 23.4995C28.7482 23.4995 29.672 23.1045 30.3531 22.4013C31.0343 21.698 31.4169 20.7443 31.4169 19.7498C31.4169 18.7553 31.0343 17.8015 30.3531 17.0983C29.672 16.3951 28.7482 16 27.785 16ZM24.9121 24.571C24.3282 24.571 24.005 24.9357 23.7789 25.4916L20.1451 33.2086C19.3416 35.076 22.1037 36.2675 22.8282 34.3645C23.2468 33.2302 23.6872 32.0996 24.1811 30.9972V44.4963C24.1811 45.3288 24.8285 46 25.6321 46H25.6394C26.4457 46 27.3146 45.325 27.301 44.4963L27.2937 37.428H28.2989L28.3061 44.4963C28.3061 45.3288 29.196 46 29.9986 46C30.1897 46.0003 30.3788 45.9615 30.5553 45.8859C30.7318 45.8104 30.892 45.6995 31.0268 45.5597C31.1616 45.42 31.2682 45.2541 31.3406 45.0716C31.413 44.8891 31.4498 44.6936 31.4487 44.4963L31.4451 31.1106L33.015 34.3635C33.0914 34.564 33.2087 34.7451 33.3589 34.8945C33.5092 35.044 33.6889 35.1582 33.8857 35.2296C34.0826 35.3009 34.292 35.3276 34.4998 35.3079C34.7075 35.2882 34.9088 35.2225 35.0897 35.1154L37.7265 36.7062C37.7093 36.8056 37.672 36.8928 37.672 36.9987V45.2482C37.672 45.6616 38.2795 46 38.6808 46C39.0821 46 39.7813 45.6588 39.7159 45.2472V41.7121H40.7556V45.2472C40.7556 45.6616 41.3912 46 41.7934 46C42.1947 46 42.8676 45.6625 42.8676 45.2472V37.7477L44.7335 39.3479C45.4199 40.0847 46.4741 38.9945 45.764 38.2895L42.6551 35.5053C42.5874 35.4353 42.507 35.3798 42.4185 35.342C42.33 35.3042 42.2351 35.2848 42.1393 35.285H38.5982L35.8188 33.8151C35.8191 33.6053 35.7767 33.3977 35.6944 33.2058L32.0607 25.4953C31.9502 25.2226 31.7642 24.9896 31.5259 24.8256C31.2876 24.6617 31.0077 24.5741 30.7214 24.5738L24.9121 24.571ZM40.2344 28.857C39.5468 28.8587 38.8879 29.1414 38.4016 29.6433C37.9153 30.1452 37.6413 30.8254 37.6394 31.5353C37.6408 32.245 37.9148 32.9253 38.4012 33.4268C38.8877 33.9283 39.5469 34.2102 40.2344 34.2107C40.9214 34.209 41.5798 33.9267 42.0659 33.4254C42.5519 32.9241 42.8261 32.2446 42.8285 31.5353C42.8266 30.8256 42.5527 30.1455 42.0666 29.6436C41.5805 29.1418 40.9218 28.859 40.2344 28.857Z" fill="#434345"/>
</g>
<defs>
<filter id="filter0_f_306_1270" x="0" y="1" width="64" height="64" filterUnits="userSpaceOnUse" color-interpolation-filters="sRGB">
<feFlood flood-opacity="0" result="BackgroundImageFix"/>
<feBlend mode="normal" in="SourceGraphic" in2="BackgroundImageFix" result="shape"/>
<feGaussianBlur stdDeviation="2" result="effect1_foregroundBlur_306_1270"/>
</filter>
<clipPath id="clip0_306_1270">
<rect width="64" height="64" fill="white"/>
</clipPath>
</defs>
</svg>
