<svg width="64" height="64" viewBox="0 0 64 64" fill="none" xmlns="http://www.w3.org/2000/svg">
<g clip-path="url(#clip0_161_2)">
<g opacity="0.16" filter="url(#filter0_f_161_2)">
<rect x="4" y="5" width="56" height="56" rx="16" fill="#666569"/>
</g>
<rect x="4" y="4" width="56" height="56" rx="16" fill="#FFFAFA"/>
<path d="M22.2058 16.005L24.9584 16.8308L23.9975 19.173H32.4054V21.7954H27.5859C28.3199 22.8064 29.0539 23.9091 29.7879 25.1035L26.8902 26.7601C26.1562 25.0118 25.282 23.3569 24.2678 21.7954H22.6162L21.0948 24.4129C20.5443 25.1469 19.8102 26.0211 18.8927 27.0353L16.4054 25.1035C19.0745 22.4377 21.0064 19.4032 22.2008 16L22.2058 16.005ZM36.5493 16.005L39.1717 16.8308C38.8915 17.6582 38.5678 18.439 38.2008 19.173H48V21.7954H42.2046C42.8485 22.713 43.4457 23.6322 43.9962 24.553L41.5139 26.0694C40.7799 24.6014 39.9525 23.1767 39.0316 21.7954H36.9647C35.6768 24.0008 34.4807 25.6557 33.3763 26.7601L30.889 24.9684C33.468 22.3927 35.3531 19.4032 36.5443 16L36.5493 16.005ZM24.1376 26.0694L26.62 27.3106C25.7925 28.9655 24.8717 30.6204 23.8574 32.2753V48H21.1048V36.0038C20.0004 37.3817 18.8493 38.6229 17.6515 39.7272L16 37.2449C19.0328 34.5757 21.7454 30.8506 24.1376 26.0694ZM27.3106 30.3485H40.2728V26.8952H43.0253V30.3485H47.8599V32.9659H43.0353V44.2765C43.0353 45.6578 42.7584 46.577 42.2046 47.0341C41.7475 47.5879 40.8299 47.8649 39.452 47.8649C37.7971 47.8649 36.234 47.7264 34.7626 47.4495L34.2121 44.6919C35.7735 45.0589 37.3817 45.2424 39.0366 45.2424C39.864 45.2424 40.2778 44.6919 40.2778 43.5909V32.9659H27.3106V30.3485ZM32.2753 34.2071C33.9268 36.1389 35.3048 38.2542 36.4091 40.553L33.6465 42.2046C32.7324 40.0025 31.4011 37.8889 29.6528 35.8636L32.2753 34.2071Z" fill="#B1CFEF"/>
<path d="M48.001 60.002C54.6289 60.002 60.0019 54.6289 60.0019 48.0009C60.0019 41.373 54.6289 36 48.001 36C41.373 36 36 41.373 36 48.0009C36 54.6289 41.373 60.002 48.001 60.002Z" fill="#86B6EB"/>
<path d="M48.1 42.6002L46.0963 48.5724H50.1082L48.1 42.6002ZM47.2655 41H48.939L53.1 53H51.5686L50.5713 49.9257H45.6516L44.6543 53H43.1L47.2655 41Z" fill="#FFFAFA"/>
</g>
<defs>
<filter id="filter0_f_161_2" x="0" y="1" width="64" height="64" filterUnits="userSpaceOnUse" color-interpolation-filters="sRGB">
<feFlood flood-opacity="0" result="BackgroundImageFix"/>
<feBlend mode="normal" in="SourceGraphic" in2="BackgroundImageFix" result="shape"/>
<feGaussianBlur stdDeviation="2" result="effect1_foregroundBlur_161_2"/>
</filter>
<clipPath id="clip0_161_2">
<rect width="64" height="64" fill="white"/>
</clipPath>
</defs>
</svg>
