<svg width="64" height="64" viewBox="0 0 64 64" fill="none" xmlns="http://www.w3.org/2000/svg">
<g clip-path="url(#clip0_329_219)">
<g opacity="0.16" filter="url(#filter0_f_329_219)">
<rect x="4" y="5" width="56" height="56" rx="16" fill="#666569"/>
</g>
<rect x="4" y="4" width="56" height="56" rx="16" fill="#FFFAFA"/>
<path d="M24.826 18.548C27.3373 16.0367 28.593 14.781 30.0409 14.3106C31.3145 13.8968 32.6865 13.8968 33.9601 14.3106C35.4081 14.7811 36.6637 16.0367 39.175 18.548L45.4527 24.8257C47.964 27.337 49.2197 28.5927 49.6901 30.0406C50.104 31.3142 50.104 32.6862 49.6901 33.9598C49.2197 35.4077 47.964 36.6634 45.4527 39.1747L39.175 45.4524C36.6637 47.9637 35.4081 49.2194 33.9601 49.6898C32.6865 50.1037 31.3145 50.1037 30.0409 49.6898C28.593 49.2194 27.3373 47.9637 24.826 45.4524L23.6457 44.1292C22.9315 43.3285 22.5744 42.9281 22.3197 42.4727C22.0939 42.0689 21.9282 41.6342 21.8279 41.1825C21.7148 40.6732 21.7148 40.1368 21.7148 39.0638L21.7148 24.9368C21.7148 23.8639 21.7148 23.3274 21.8279 22.8181C21.9282 22.3664 22.0939 21.9318 22.3197 21.5279C22.5743 21.0726 22.9314 20.6722 23.6457 19.8715L24.826 18.548Z" fill="#D9C7F3"/>
<path d="M24.377 18.9961C25.6326 17.7404 26.2605 17.1126 26.9844 16.8774C27.6213 16.6704 28.3072 16.6704 28.944 16.8774C29.668 17.1126 30.2958 17.7404 31.5515 18.9961L40.968 28.4127C42.2237 29.6683 42.8515 30.2962 43.0868 31.0201C43.2937 31.6569 43.2937 32.3428 43.0868 32.9796C42.8515 33.7036 42.2237 34.3315 40.968 35.5872L31.5515 45.0037C30.2958 46.2594 29.668 46.8871 28.944 47.1223C28.3072 47.3292 27.6213 47.3292 26.9844 47.1223C26.2605 46.8871 25.6326 46.2594 24.377 45.0037L18.5477 39.1744C16.0364 36.6631 14.7807 35.4074 14.3103 33.9594C13.8965 32.6858 13.8965 31.3139 14.3103 30.0402C14.7808 28.5923 16.0364 27.3367 18.5477 24.8254L24.377 18.9961Z" fill="#C9A4EF"/>
<path d="M32 14C31.3386 14 30.6778 14.1036 30.041 14.3105C28.5931 14.781 27.3375 16.0356 24.8262 18.5469L23.6446 19.871C22.9304 20.6718 22.573 21.072 22.3184 21.5273C22.0926 21.9311 21.9285 22.3666 21.8282 22.8183C21.7151 23.3276 21.7149 23.8624 21.7149 24.9354V32H49.9999C49.9999 31.3386 49.8963 30.6778 49.6893 30.041C49.2189 28.5931 47.9643 27.3375 45.453 24.8262L39.1737 18.5469C36.6624 16.0356 35.4069 14.7809 33.9589 14.3105C33.3221 14.1036 32.6614 14 32 14Z" fill="#C9A4EF"/>
<path d="M27.965 16.723C27.6343 16.723 27.303 16.7738 26.9845 16.8773C26.2606 17.1125 25.6327 17.7408 24.3771 18.9964L18.547 24.8245C16.0357 27.3358 14.7811 28.5914 14.3107 30.0393C14.1038 30.6762 14.0002 31.3387 14.0002 32.0002H43.2422C43.2422 31.6693 43.1894 31.3382 43.0859 31.0197C42.8506 30.2958 42.2244 29.6679 40.9687 28.4123L31.5507 18.9963C30.295 17.7406 29.6673 17.1124 28.9433 16.8772C28.6249 16.7737 28.2957 16.723 27.965 16.723Z" fill="#B48BDD"/>
</g>
<defs>
<filter id="filter0_f_329_219" x="0" y="1" width="64" height="64" filterUnits="userSpaceOnUse" color-interpolation-filters="sRGB">
<feFlood flood-opacity="0" result="BackgroundImageFix"/>
<feBlend mode="normal" in="SourceGraphic" in2="BackgroundImageFix" result="shape"/>
<feGaussianBlur stdDeviation="2" result="effect1_foregroundBlur_329_219"/>
</filter>
<clipPath id="clip0_329_219">
<rect width="64" height="64" fill="white"/>
</clipPath>
</defs>
</svg>
