<svg width="64" height="64" viewBox="0 0 64 64" fill="none" xmlns="http://www.w3.org/2000/svg">
<g clip-path="url(#clip0_326_137)">
<g opacity="0.16" filter="url(#filter0_f_326_137)">
<rect x="4" y="5" width="56" height="56" rx="16" fill="#666569"/>
</g>
<rect x="4" y="4" width="56" height="56" rx="16" fill="#FFFAFA"/>
<path d="M14.5413 22.7141L27.2172 45.292L27.4882 45.6331C28.0235 46.1219 28.9159 46.0338 29.4047 45.4341L30.715 43.5772L40.3327 28.7148C40.8045 28.0213 40.8064 27.2047 40.4587 26.5747L40.454 26.568C40.1565 26.0347 39.6108 25.6358 38.8766 25.5705L14.6863 22.8572L14.5413 22.7141Z" fill="#B48BDD"/>
<path d="M49.4654 22.2651C49.4945 22.3125 49.5226 22.3598 49.5497 22.4072C49.5346 22.3797 49.5242 22.3504 49.508 22.3238C49.4948 22.303 49.4806 22.2841 49.4654 22.2651ZM49.5848 22.4802L40.4587 26.5757C40.8054 27.2047 40.8045 28.0214 40.3327 28.7148L30.7149 43.5782L29.4038 45.4351C28.8211 46.1494 27.6549 46.1494 27.2182 45.292L28.5293 47.579C28.8202 48.0072 29.1129 48.2933 29.4038 48.5794C31.0067 49.866 33.6291 49.722 34.9402 47.7221L49.3669 26.1437C50.1816 24.9803 50.1608 23.5981 49.5848 22.4802Z" fill="#B1CFEF"/>
<path d="M17.6203 17.2697C14.8634 17.389 13.0378 20.3013 14.5404 22.7123L14.6853 22.8573L38.8756 25.5706C39.6146 25.6369 40.1622 26.0386 40.4578 26.5748L49.5905 22.4774C49.3022 21.9129 48.8772 21.4295 48.3543 21.0713C47.8315 20.713 47.2272 20.4913 46.5968 20.4263L18.184 17.282C17.9967 17.2636 17.8083 17.2591 17.6203 17.2687V17.2697Z" fill="#D9C7F3"/>
</g>
<defs>
<filter id="filter0_f_326_137" x="0" y="1" width="64" height="64" filterUnits="userSpaceOnUse" color-interpolation-filters="sRGB">
<feFlood flood-opacity="0" result="BackgroundImageFix"/>
<feBlend mode="normal" in="SourceGraphic" in2="BackgroundImageFix" result="shape"/>
<feGaussianBlur stdDeviation="2" result="effect1_foregroundBlur_326_137"/>
</filter>
<clipPath id="clip0_326_137">
<rect width="64" height="64" fill="white"/>
</clipPath>
</defs>
</svg>
