<svg width="64" height="64" viewBox="0 0 64 64" fill="none" xmlns="http://www.w3.org/2000/svg">
<g clip-path="url(#clip0_64_89)">
<g opacity="0.16" filter="url(#filter0_f_64_89)">
<rect x="4" y="5" width="56" height="56" rx="16" fill="#666569"/>
</g>
<rect x="5.5" y="5.5" width="53" height="53" rx="14.5" fill="#434345" stroke="#666569" stroke-width="3"/>
<path d="M21.5085 46.9252C22.0143 46.9326 22.5193 46.8841 23.0143 46.7806C24.5563 46.4634 25.8653 45.8038 26.8712 44.6343C27.4835 43.9216 27.9975 43.1486 28.4412 42.3355C28.9632 41.3768 29.3979 40.38 29.7784 39.3691C30.2441 38.1511 30.632 36.9048 30.9399 35.6377C31.1085 34.93 30.9188 34.4872 30.0876 34.2443C29.0316 33.9299 27.9633 33.6586 26.8852 33.4312C25.0913 33.0608 23.2834 32.8238 21.4383 32.8821C20.9173 32.9021 20.3972 32.9543 19.8823 33.0407C18.3905 33.2846 17.1246 33.9321 16.0897 34.9561C14.3228 36.6998 13.6201 38.7808 14.0558 41.1519C14.6822 44.541 17.8775 46.9523 21.5085 46.9252Z" fill="#FFDB6A"/>
<path d="M24.976 21.2101C24.979 21.7662 25.0542 22.3196 25.1998 22.8564C25.4909 23.9306 25.9708 24.9143 26.537 25.8449C27.8279 27.9601 29.4542 29.77 31.22 31.4515C31.3646 31.5901 31.5362 31.7065 31.7209 31.7959C31.8066 31.8417 31.9018 31.8668 31.999 31.8691C32.0961 31.8714 32.1924 31.8507 32.2801 31.8089C32.4657 31.7275 32.632 31.6078 32.768 31.4576C33.3809 30.8303 33.98 30.1897 34.5649 29.5361C35.3884 28.6116 36.156 27.6388 36.8638 26.6229C37.5032 25.6933 38.0764 24.7156 38.497 23.6545C38.9187 22.6004 39.1225 21.5122 38.9849 20.3688C38.754 18.4826 37.9841 16.8844 36.6068 15.6306C34.9795 14.1509 33.0832 13.5586 30.949 13.8889C27.4786 14.4259 24.976 17.6223 24.976 21.2101Z" fill="#86B6EB"/>
<path d="M42.4914 46.9252C41.9857 46.9326 41.4807 46.8841 40.9856 46.7806C39.4436 46.4634 38.1346 45.8038 37.1277 44.6343C36.5256 43.9252 35.9997 43.1546 35.5587 42.3355C35.0449 41.3788 34.5981 40.3876 34.2215 39.3691C33.7558 38.1511 33.3679 36.9048 33.0601 35.6377C32.8914 34.93 33.0811 34.4872 33.9123 34.2443C34.9681 33.9292 36.0365 33.658 37.1147 33.4312C38.9086 33.0608 40.7166 32.8238 42.5617 32.8821C43.0827 32.9021 43.6027 32.9543 44.1177 33.0407C45.6094 33.2846 46.8753 33.9321 47.9103 34.9561C49.6771 36.6998 50.3798 38.7808 49.9441 41.1519C49.3177 44.541 46.1224 46.9523 42.4914 46.9252Z" fill="#F86974"/>
</g>
<defs>
<filter id="filter0_f_64_89" x="0" y="1" width="64" height="64" filterUnits="userSpaceOnUse" color-interpolation-filters="sRGB">
<feFlood flood-opacity="0" result="BackgroundImageFix"/>
<feBlend mode="normal" in="SourceGraphic" in2="BackgroundImageFix" result="shape"/>
<feGaussianBlur stdDeviation="2" result="effect1_foregroundBlur_64_89"/>
</filter>
<clipPath id="clip0_64_89">
<rect width="64" height="64" fill="white"/>
</clipPath>
</defs>
</svg>
