<svg width="64" height="64" viewBox="0 0 64 64" fill="none" xmlns="http://www.w3.org/2000/svg">
<g clip-path="url(#clip0_24_741)">
<g opacity="0.16" filter="url(#filter0_f_24_741)">
<rect x="4" y="5" width="56" height="56" rx="16" fill="#666569"/>
</g>
<rect x="4" y="4" width="56" height="56" rx="16" fill="#FFFAFA"/>
<path d="M23.764 21.4114L27.2939 26.1175H20.2351L19.5016 29.6465H15.5299L16.7062 24.9412H14.3536L12 34.3526H18.616L17.8825 37.8825H22.5896L19.0578 42.5887H23.763L27.2929 37.8825H36.7052L40.2361 42.5887H44.9413L41.4124 37.8825H46.1185L45.385 34.3526H52.001L49.6475 24.9412H47.2958L48.4721 29.6465H44.4995L43.7659 26.1175H36.7072L40.2361 21.4114H37.8815L34.3526 26.1175H29.6455L26.1185 21.4114H23.764Z" fill="#666569"/>
<path d="M22.5877 28.4702V33.1773H27.2948V28.4702H22.5877ZM36.7062 28.4702V33.1773H41.4124V28.4702H36.7062Z" fill="#FFFAFA"/>
</g>
<defs>
<filter id="filter0_f_24_741" x="0" y="1" width="64" height="64" filterUnits="userSpaceOnUse" color-interpolation-filters="sRGB">
<feFlood flood-opacity="0" result="BackgroundImageFix"/>
<feBlend mode="normal" in="SourceGraphic" in2="BackgroundImageFix" result="shape"/>
<feGaussianBlur stdDeviation="2" result="effect1_foregroundBlur_24_741"/>
</filter>
<clipPath id="clip0_24_741">
<rect width="64" height="64" fill="white"/>
</clipPath>
</defs>
</svg>
