<svg width="64" height="64" viewBox="0 0 64 64" fill="none" xmlns="http://www.w3.org/2000/svg">
<g clip-path="url(#clip0_116_11)">
<g opacity="0.16" filter="url(#filter0_f_116_11)">
<rect x="4" y="5" width="56" height="56" rx="16" fill="#666569"/>
</g>
<rect x="4" y="4" width="56" height="56" rx="16" fill="#666569"/>
<path d="M17.5989 17.5989C12.8004 28.3993 12.8004 35.6007 17.5989 46.4011C27.2032 51.1996 36.8039 51.1996 46.4011 46.4011C51.1996 35.6007 51.1996 28.3993 46.4011 17.5989C36.8004 12.8004 27.1961 12.8004 17.5989 17.5989Z" fill="#FFFAFA"/>
<path d="M47.6007 31.9946C47.632 34.0632 47.2517 36.1173 46.4817 38.0375C45.7118 39.9578 44.5676 41.7058 43.1159 43.1797C41.6641 44.6536 39.9337 45.8241 38.0253 46.623C36.117 47.422 34.0688 47.8334 32 47.8334C29.9311 47.8334 27.8829 47.422 25.9746 46.623C24.0662 45.8241 22.3358 44.6536 20.8841 43.1797C19.4323 41.7058 18.2882 39.9578 17.5182 38.0375C16.7483 36.1173 16.3679 34.0632 16.3993 31.9946C16.3679 29.926 16.7483 27.8718 17.5182 25.9516C18.2882 24.0314 19.4323 22.2834 20.8841 20.8095C22.3358 19.3355 24.0662 18.1651 25.9746 17.3661C27.8829 16.5672 29.9311 16.1557 32 16.1557C34.0688 16.1557 36.117 16.5672 38.0253 17.3661C39.9337 18.1651 41.6641 19.3355 43.1159 20.8095C44.5676 22.2834 45.7118 24.0314 46.4817 25.9516C47.2517 27.8718 47.632 29.926 47.6007 31.9946Z" fill="#434345"/>
<path d="M44.0019 31.9947C44.0019 35.1778 42.7374 38.2305 40.4866 40.4813C38.2359 42.7321 35.1832 43.9965 32.0001 43.9965C28.817 43.9965 25.7643 42.7321 23.5135 40.4813C21.2628 38.2305 19.9983 35.1778 19.9983 31.9947C19.9983 28.8116 21.2628 25.7589 23.5135 23.5082C25.7643 21.2574 28.817 19.9929 32.0001 19.9929C35.1832 19.9929 38.2359 21.2574 40.4866 23.5082C42.7374 25.7589 44.0019 28.8116 44.0019 31.9947Z" fill="#FFDB6A"/>
<path d="M21.1979 18.8058C21.1979 19.1209 21.1358 19.4329 21.0152 19.724C20.8946 20.0151 20.7179 20.2796 20.4951 20.5024C20.2723 20.7252 20.0078 20.9019 19.7167 21.0225C19.4256 21.1431 19.1137 21.2051 18.7986 21.2051C18.4835 21.2051 18.1715 21.1431 17.8804 21.0225C17.5893 20.9019 17.3248 20.7252 17.102 20.5024C16.8792 20.2796 16.7025 20.0151 16.5819 19.724C16.4614 19.4329 16.3993 19.1209 16.3993 18.8058C16.3993 18.4907 16.4614 18.1788 16.5819 17.8877C16.7025 17.5966 16.8792 17.332 17.102 17.1093C17.3248 16.8865 17.5893 16.7097 17.8804 16.5892C18.1715 16.4686 18.4835 16.4066 18.7986 16.4066C19.1137 16.4066 19.4256 16.4686 19.7167 16.5892C20.0078 16.7097 20.2723 16.8865 20.4951 17.1093C20.7179 17.332 20.8946 17.5966 21.0152 17.8877C21.1358 18.1788 21.1979 18.4907 21.1979 18.8058ZM21.1979 45.2087C21.1979 45.5238 21.1358 45.8358 21.0152 46.1269C20.8946 46.418 20.7179 46.6824 20.4951 46.9052C20.2723 47.128 20.0078 47.3047 19.7167 47.4253C19.4256 47.5459 19.1137 47.608 18.7986 47.608C18.4835 47.608 18.1715 47.5459 17.8804 47.4253C17.5893 47.3047 17.3248 47.128 17.102 46.9052C16.8792 46.6824 16.7025 46.418 16.5819 46.1269C16.4614 45.8358 16.3993 45.5238 16.3993 45.2087C16.3993 44.8936 16.4614 44.5816 16.5819 44.2905C16.7025 43.9994 16.8792 43.735 17.102 43.5122C17.3248 43.2894 17.5893 43.1127 17.8804 42.9921C18.1715 42.8715 18.4835 42.8094 18.7986 42.8094C19.1137 42.8094 19.4256 42.8715 19.7167 42.9921C20.0078 43.1127 20.2723 43.2894 20.4951 43.5122C20.7179 43.735 20.8946 43.9994 21.0152 44.2905C21.1358 44.5816 21.1979 44.8936 21.1979 45.2087ZM47.6007 45.2087C47.6007 45.845 47.3479 46.4553 46.898 46.9052C46.448 47.3552 45.8378 47.608 45.2014 47.608C44.5651 47.608 43.9548 47.3552 43.5049 46.9052C43.0549 46.4553 42.8022 45.845 42.8022 45.2087C42.8022 44.5724 43.0549 43.9621 43.5049 43.5122C43.9548 43.0622 44.5651 42.8094 45.2014 42.8094C45.8378 42.8094 46.448 43.0622 46.898 43.5122C47.3479 43.9621 47.6007 44.5724 47.6007 45.2087ZM47.6007 18.8058C47.6007 19.4421 47.3479 20.0525 46.898 20.5024C46.448 20.9524 45.8378 21.2051 45.2014 21.2051C44.5651 21.2051 43.9548 20.9524 43.5049 20.5024C43.0549 20.0525 42.8022 19.4421 42.8022 18.8058C42.8022 18.1694 43.0549 17.5592 43.5049 17.1093C43.9548 16.6593 44.5651 16.4066 45.2014 16.4066C45.8378 16.4066 46.448 16.6593 46.898 17.1093C47.3479 17.5592 47.6007 18.1694 47.6007 18.8058Z" fill="#FFFAFA"/>
<path d="M40.3991 31.9947C40.4222 33.1123 40.222 34.2233 39.8103 35.2625C39.3985 36.3018 38.7835 37.2484 38.0013 38.047C37.2191 38.8455 36.2853 39.4799 35.2548 39.913C34.2243 40.3461 33.1177 40.5692 31.9998 40.5692C30.882 40.5692 29.7754 40.3461 28.7449 39.913C27.7143 39.4799 26.7806 38.8455 25.9984 38.047C25.2161 37.2484 24.6011 36.3018 24.1894 35.2625C23.7777 34.2233 23.5775 33.1123 23.6005 31.9947C23.5775 30.8771 23.7777 29.7661 24.1894 28.7269C24.6011 27.6876 25.2161 26.741 25.9984 25.9424C26.7806 25.1439 27.7143 24.5095 28.7449 24.0764C29.7754 23.6433 30.882 23.4202 31.9998 23.4202C33.1177 23.4202 34.2243 23.6433 35.2548 24.0764C36.2853 24.5095 37.2191 25.1439 38.0013 25.9424C38.7835 26.741 39.3985 27.6876 39.8103 28.7269C40.222 29.7661 40.4222 30.8771 40.3991 31.9947Z" fill="#434345"/>
<path d="M19.9982 18.8058C19.9982 19.1239 19.8718 19.4291 19.6468 19.6541C19.4218 19.8791 19.1167 20.0055 18.7985 20.0055C18.4804 20.0055 18.1752 19.8791 17.9502 19.6541C17.7253 19.4291 17.5989 19.1239 17.5989 18.8058C17.5989 18.4876 17.7253 18.1825 17.9502 17.9575C18.1752 17.7325 18.4804 17.6061 18.7985 17.6061C19.1167 17.6061 19.4218 17.7325 19.6468 17.9575C19.8718 18.1825 19.9982 18.4876 19.9982 18.8058ZM46.401 18.8058C46.401 19.1239 46.2746 19.4291 46.0497 19.6541C45.8247 19.8791 45.5195 20.0055 45.2014 20.0055C44.8832 20.0055 44.5781 19.8791 44.3531 19.6541C44.1281 19.4291 44.0017 19.1239 44.0017 18.8058C44.0017 18.4876 44.1281 18.1825 44.3531 17.9575C44.5781 17.7325 44.8832 17.6061 45.2014 17.6061C45.5195 17.6061 45.8247 17.7325 46.0497 17.9575C46.2746 18.1825 46.401 18.4876 46.401 18.8058ZM46.401 45.2087C46.401 45.5268 46.2746 45.832 46.0497 46.0569C45.8247 46.2819 45.5195 46.4083 45.2014 46.4083C44.8832 46.4083 44.5781 46.2819 44.3531 46.0569C44.1281 45.832 44.0017 45.5268 44.0017 45.2087C44.0017 44.8905 44.1281 44.5854 44.3531 44.3604C44.5781 44.1354 44.8832 44.0091 45.2014 44.0091C45.5195 44.0091 45.8247 44.1354 46.0497 44.3604C46.2746 44.5854 46.401 44.8905 46.401 45.2087ZM19.9982 45.2087C19.9982 45.3662 19.9671 45.5222 19.9068 45.6678C19.8466 45.8133 19.7582 45.9455 19.6468 46.0569C19.5354 46.1683 19.4031 46.2567 19.2576 46.317C19.1121 46.3773 18.9561 46.4083 18.7985 46.4083C18.641 46.4083 18.485 46.3773 18.3394 46.317C18.1939 46.2567 18.0616 46.1683 17.9502 46.0569C17.8388 45.9455 17.7505 45.8133 17.6902 45.6678C17.6299 45.5222 17.5989 45.3662 17.5989 45.2087C17.5989 45.0511 17.6299 44.8951 17.6902 44.7496C17.7505 44.604 17.8388 44.4718 17.9502 44.3604C18.0616 44.249 18.1939 44.1606 18.3394 44.1003C18.485 44.04 18.641 44.0091 18.7985 44.0091C18.9561 44.0091 19.1121 44.04 19.2576 44.1003C19.4031 44.1606 19.5354 44.249 19.6468 44.3604C19.7582 44.4718 19.8466 44.604 19.9068 44.7496C19.9671 44.8951 19.9982 45.0511 19.9982 45.2087Z" fill="#434345"/>
</g>
<defs>
<filter id="filter0_f_116_11" x="0" y="1" width="64" height="64" filterUnits="userSpaceOnUse" color-interpolation-filters="sRGB">
<feFlood flood-opacity="0" result="BackgroundImageFix"/>
<feBlend mode="normal" in="SourceGraphic" in2="BackgroundImageFix" result="shape"/>
<feGaussianBlur stdDeviation="2" result="effect1_foregroundBlur_116_11"/>
</filter>
<clipPath id="clip0_116_11">
<rect width="64" height="64" fill="white"/>
</clipPath>
</defs>
</svg>
