<svg width="64" height="64" viewBox="0 0 64 64" fill="none" xmlns="http://www.w3.org/2000/svg">
<g clip-path="url(#clip0_63_63)">
<g opacity="0.16" filter="url(#filter0_f_63_63)">
<rect x="4" y="5" width="56" height="56" rx="16" fill="#666569"/>
</g>
<rect x="4" y="4" width="56" height="56" rx="16" fill="#86B6EB"/>
<path d="M24.2243 15C23.013 14.9989 21.8134 15.2367 20.694 15.6996C19.5746 16.1626 18.5575 16.8416 17.7008 17.698C16.8441 18.5543 16.1646 19.5711 15.7012 20.6903C15.2377 21.8095 14.9995 23.009 15 24.2203C15 25.7945 15.4016 27.3165 16.0963 28.6136C15.5331 31.2651 15.6414 34.0153 16.4116 36.6142C17.1817 39.2131 18.5892 41.5783 20.5061 43.4948C22.423 45.4114 24.7886 46.8184 27.3876 47.588C29.9867 48.3576 32.7369 48.4654 35.3883 47.9016C36.6934 48.6083 38.1953 49.0019 39.7776 49.0019C40.9892 49.0029 42.1892 48.7651 43.3088 48.3019C44.4284 47.8387 45.4457 47.1593 46.3025 46.3025C47.1593 45.4457 47.8387 44.4284 48.3019 43.3088C48.7651 42.1892 49.0029 40.9892 49.0019 39.7776C49.0019 38.1953 48.6003 36.6854 47.9016 35.3803C48.464 32.7291 48.3551 29.9794 47.5846 27.381C46.8141 24.7826 45.4065 22.418 43.4897 20.502C41.5729 18.586 39.2077 17.1794 36.609 16.41C34.0103 15.6406 31.2605 15.5327 28.6096 16.0963C27.2568 15.3772 25.7483 15.0007 24.2163 15" fill="#FFFAFA"/>
<path d="M32.3081 22.2887C37.103 22.2887 39.5768 24.8187 39.5768 26.3045C39.5768 27.7944 38.8619 28.0193 37.6893 28.0193C35.4003 28.0193 36.336 25.2644 32.0551 25.2644C30.6376 25.2644 28.8666 25.911 28.8666 27.5695C28.8666 28.8987 30.4328 29.3887 33.2037 30.0713C37.3721 31.1877 40.5004 32.3041 40.5004 36.1352C40.5004 39.8498 37.4725 41.7172 32.6816 41.7172C27.8867 41.7172 24.8267 38.8499 24.8267 37.3641C24.8267 35.8782 25.3889 35.5047 26.5655 35.5047C28.8545 35.5047 28.5493 38.629 32.8302 38.629C34.2518 38.629 36.3521 37.9825 36.3521 36.3199C36.3521 34.9947 36.2396 34.5369 33.1996 33.7177C29.9549 33.276 24.7142 32.2198 24.7142 28.1719C24.7142 24.4532 27.5253 22.2887 32.3162 22.2887" fill="#86B6EB"/>
</g>
<defs>
<filter id="filter0_f_63_63" x="0" y="1" width="64" height="64" filterUnits="userSpaceOnUse" color-interpolation-filters="sRGB">
<feFlood flood-opacity="0" result="BackgroundImageFix"/>
<feBlend mode="normal" in="SourceGraphic" in2="BackgroundImageFix" result="shape"/>
<feGaussianBlur stdDeviation="2" result="effect1_foregroundBlur_63_63"/>
</filter>
<clipPath id="clip0_63_63">
<rect width="64" height="64" fill="white"/>
</clipPath>
</defs>
</svg>
