<svg width="64" height="64" viewBox="0 0 64 64" fill="none" xmlns="http://www.w3.org/2000/svg">
<g clip-path="url(#clip0_63_49)">
<g opacity="0.16" filter="url(#filter0_f_63_49)">
<rect x="4" y="5" width="56" height="56" rx="16" fill="#666569"/>
</g>
<rect x="4" y="4" width="56" height="56" rx="16" fill="#FFFAFA"/>
<path d="M36.5765 15C35.7097 15 34.8784 15.3443 34.2655 15.9572C33.6526 16.5701 33.3082 17.4014 33.3082 18.2682V27.4224C33.3081 27.8517 33.3925 28.2768 33.5567 28.6734C33.7209 29.0701 33.9616 29.4305 34.2651 29.7341C34.5686 30.0377 34.929 30.2785 35.3256 30.4428C35.7221 30.6071 36.1472 30.6917 36.5765 30.6917C37.4433 30.6917 38.2746 30.3474 38.8875 29.7344C39.5004 29.1215 39.8448 28.2902 39.8448 27.4234V18.2692C39.8449 17.84 39.7605 17.4149 39.5963 17.0182C39.4321 16.6216 39.1914 16.2612 38.8879 15.9576C38.5844 15.654 38.224 15.4132 37.8274 15.2488C37.4309 15.0845 37.0058 15 36.5765 15ZM45.7297 24.1531C45.3004 24.1531 44.8753 24.2377 44.4787 24.402C44.0821 24.5663 43.7218 24.8072 43.4183 25.1107C43.1148 25.4143 42.8741 25.7748 42.7099 26.1714C42.5457 26.568 42.4613 26.9931 42.4614 27.4224V30.6917H45.7297C46.1589 30.6918 46.5841 30.6074 46.9807 30.4432C47.3773 30.279 47.7377 30.0383 48.0413 29.7348C48.3449 29.4313 48.5858 29.071 48.7501 28.6744C48.9144 28.2778 48.9989 27.8527 48.9989 27.4234C48.9992 26.9941 48.9149 26.5688 48.7507 26.1721C48.5866 25.7753 48.3459 25.4148 48.0424 25.1111C47.7389 24.8074 47.3785 24.5665 46.9818 24.4021C46.5852 24.2377 46.159 24.1531 45.7297 24.1531Z" fill="#94E0B1"/>
<path d="M48.9999 36.5766C48.9999 35.7098 48.6556 34.8785 48.0427 34.2656C47.4298 33.6527 46.5985 33.3083 45.7317 33.3083H36.5775C36.1482 33.3082 35.7231 33.3926 35.3265 33.5568C34.9298 33.721 34.5694 33.9617 34.2658 34.2652C33.9622 34.5687 33.7214 34.9291 33.5571 35.3256C33.3928 35.7222 33.3082 36.1473 33.3082 36.5766C33.3082 37.4434 33.6526 38.2747 34.2655 38.8876C34.8784 39.5005 35.7097 39.8449 36.5765 39.8449H45.7307C46.16 39.845 46.5851 39.7606 46.9817 39.5964C47.3783 39.4322 47.7387 39.1915 48.0423 38.888C48.3459 38.5845 48.5868 38.2241 48.7511 37.8275C48.9154 37.4309 48.9999 37.0059 48.9999 36.5766ZM39.8468 45.7298C39.8468 45.3005 39.7622 44.8754 39.5979 44.4788C39.4336 44.0822 39.1928 43.7219 38.8892 43.4184C38.5856 43.1149 38.2252 42.8742 37.8285 42.71C37.4319 42.5458 37.0068 42.4614 36.5775 42.4615H33.3082V45.7298C33.3081 46.159 33.3925 46.5841 33.5567 46.9808C33.7209 47.3774 33.9616 47.7378 34.2651 48.0414C34.5686 48.345 34.929 48.5858 35.3256 48.7502C35.7221 48.9145 36.1472 48.999 36.5765 48.999C37.0059 48.9993 37.4311 48.915 37.8278 48.7508C38.2246 48.5867 38.5851 48.346 38.8888 48.0425C39.1925 47.739 39.4334 47.3786 39.5978 46.9819C39.7622 46.5853 39.8468 46.1591 39.8468 45.7298Z" fill="#FFDB6A"/>
<path d="M27.4233 49C28.2901 49 29.1214 48.6557 29.7343 48.0428C30.3472 47.4299 30.6916 46.5986 30.6916 45.7318V36.5776C30.6917 36.1483 30.6073 35.7232 30.4431 35.3266C30.2789 34.9299 30.0382 34.5695 29.7347 34.2659C29.4312 33.9623 29.0708 33.7215 28.6742 33.5572C28.2777 33.3929 27.8526 33.3083 27.4233 33.3083C26.5565 33.3083 25.7252 33.6527 25.1123 34.2656C24.4994 34.8785 24.155 35.7098 24.155 36.5766V45.7308C24.1549 46.16 24.2393 46.5851 24.4035 46.9818C24.5677 47.3784 24.8084 47.7388 25.1119 48.0424C25.4154 48.346 25.7758 48.5869 26.1724 48.7512C26.5689 48.9155 26.994 49 27.4233 49ZM18.2701 39.8469C18.6994 39.8469 19.1245 39.7623 19.5211 39.598C19.9177 39.4337 20.278 39.1929 20.5815 38.8893C20.885 38.5857 21.1257 38.2253 21.2899 37.8286C21.4541 37.432 21.5385 37.0069 21.5384 36.5776V33.3083H18.2701C17.8409 33.3082 17.4157 33.3926 17.0191 33.5568C16.6225 33.721 16.2621 33.9617 15.9585 34.2652C15.6549 34.5687 15.414 34.9291 15.2497 35.3256C15.0854 35.7222 15.0009 36.1473 15.0009 36.5766C15.0006 37.006 15.0849 37.4312 15.2491 37.8279C15.4132 38.2247 15.6539 38.5852 15.9574 38.8889C16.2609 39.1926 16.6213 39.4335 17.018 39.5979C17.4146 39.7623 17.8408 39.8469 18.2701 39.8469Z" fill="#F86974"/>
<path d="M15 27.4237C15 28.2905 15.3443 29.1218 15.9573 29.7347C16.5702 30.3476 17.4015 30.692 18.2683 30.692H27.4224C27.8517 30.6921 28.2768 30.6077 28.6735 30.4435C29.0701 30.2793 29.4305 30.0386 29.7341 29.7351C30.0377 29.4316 30.2785 29.0712 30.4428 28.6746C30.6072 28.2781 30.6917 27.853 30.6917 27.4237C30.6917 26.5569 30.3474 25.7256 29.7345 25.1127C29.1215 24.4998 28.2902 24.1554 27.4234 24.1554H18.2693C17.84 24.1553 17.4149 24.2397 17.0183 24.4039C16.6216 24.5681 16.2612 24.8088 15.9576 25.1123C15.654 25.4158 15.4132 25.7762 15.2489 26.1728C15.0846 26.5693 15 26.9944 15 27.4237ZM24.1532 18.2705C24.1532 18.6998 24.2377 19.1249 24.402 19.5215C24.5664 19.9181 24.8072 20.2784 25.1108 20.5819C25.4144 20.8854 25.7748 21.1261 26.1714 21.2903C26.5681 21.4545 26.9932 21.5389 27.4224 21.5388H30.6917V18.2705C30.6919 17.8412 30.6074 17.4161 30.4432 17.0195C30.279 16.6229 30.0383 16.2625 29.7348 15.9589C29.4313 15.6553 29.071 15.4144 28.6744 15.2501C28.2778 15.0858 27.8527 15.0013 27.4234 15.0013C26.9941 15.001 26.5689 15.0853 26.1721 15.2495C25.7754 15.4136 25.4148 15.6543 25.1111 15.9578C24.8074 16.2613 24.5665 16.6217 24.4021 17.0183C24.2378 17.415 24.1532 17.8412 24.1532 18.2705Z" fill="#86B6EB"/>
</g>
<defs>
<filter id="filter0_f_63_49" x="0" y="1" width="64" height="64" filterUnits="userSpaceOnUse" color-interpolation-filters="sRGB">
<feFlood flood-opacity="0" result="BackgroundImageFix"/>
<feBlend mode="normal" in="SourceGraphic" in2="BackgroundImageFix" result="shape"/>
<feGaussianBlur stdDeviation="2" result="effect1_foregroundBlur_63_49"/>
</filter>
<clipPath id="clip0_63_49">
<rect width="64" height="64" fill="white"/>
</clipPath>
</defs>
</svg>
