<svg width="64" height="64" viewBox="0 0 64 64" fill="none" xmlns="http://www.w3.org/2000/svg">
<g clip-path="url(#clip0_34_8)">
<g opacity="0.16" filter="url(#filter0_f_34_8)">
<rect x="4" y="5" width="56" height="56" rx="16" fill="#666569"/>
</g>
<rect x="4" y="4" width="56" height="56" rx="16" fill="#434345"/>
<path d="M32 52C43.0457 52 52 43.0457 52 32C52 20.9543 43.0457 12 32 12C20.9543 12 12 20.9543 12 32C12 43.0457 20.9543 52 32 52Z" fill="#94E0B1"/>
<path d="M29.3603 23C26.0191 22.9987 22.6919 23.4311 19.4621 24.2864C19.2146 24.3458 18.9815 24.4541 18.7766 24.605C18.5717 24.7558 18.399 24.9462 18.2687 25.1648C18.1385 25.3834 18.0533 25.6259 18.0182 25.878C17.9831 26.13 17.9988 26.3866 18.0644 26.6325C18.13 26.8784 18.2441 27.1086 18.4001 27.3097C18.556 27.5108 18.7507 27.6787 18.9725 27.8034C19.1943 27.9282 19.4389 28.0072 19.6917 28.036C19.9446 28.0648 20.2006 28.0426 20.4448 27.9709C27.9493 25.97 36.9321 26.4891 44.2721 30.3573C44.4943 30.4842 44.7398 30.5651 44.9939 30.5952C45.2481 30.6252 45.5057 30.6038 45.7514 30.5323C45.9971 30.4607 46.2259 30.3404 46.4241 30.1786C46.6224 30.0167 46.786 29.8166 46.9053 29.5902C47.0246 29.3638 47.0972 29.1157 47.1186 28.8607C47.14 28.6057 47.1099 28.349 47.03 28.1058C46.9501 27.8627 46.8221 27.6381 46.6537 27.4455C46.4852 27.2529 46.2797 27.0961 46.0493 26.9845C40.8403 24.2391 35.0312 22.9982 29.3603 23ZM29.1357 30.0118C26.163 29.9991 23.263 30.3936 20.6784 31.1145C20.4648 31.1668 20.2638 31.2615 20.0874 31.3929C19.911 31.5244 19.7628 31.6899 19.6517 31.8797C19.5405 32.0695 19.4686 32.2798 19.4403 32.4979C19.412 32.7161 19.4278 32.9377 19.4867 33.1496C19.5457 33.3615 19.6467 33.5594 19.7836 33.7316C19.9206 33.9037 20.0907 34.0466 20.284 34.1517C20.4772 34.2568 20.6896 34.322 20.9085 34.3434C21.1275 34.3648 21.3485 34.342 21.5584 34.2764C27.5848 32.5982 36.0403 33.0491 41.7466 36.6291C41.9293 36.7437 42.1327 36.8212 42.3453 36.8572C42.5579 36.8932 42.7756 36.8869 42.9858 36.8388C43.196 36.7907 43.3946 36.7016 43.5704 36.5768C43.7462 36.4519 43.8956 36.2936 44.0103 36.1109C44.1249 35.9283 44.2024 35.7248 44.2384 35.5122C44.2743 35.2996 44.2681 35.082 44.22 34.8718C44.1719 34.6616 44.0828 34.4629 43.9579 34.2871C43.833 34.1113 43.6747 33.9619 43.4921 33.8473C39.2466 31.1855 34.0903 30.0336 29.1357 30.0118ZM29.5021 36.6445C26.6039 36.6009 23.8239 37.0291 21.2657 37.5991C21.1007 37.6332 20.9442 37.6998 20.8051 37.795C20.6661 37.8902 20.5474 38.0121 20.4559 38.1536C20.3644 38.2951 20.302 38.4533 20.2723 38.6192C20.2425 38.785 20.246 38.9551 20.2826 39.1196C20.3192 39.2841 20.3881 39.4396 20.4853 39.5772C20.5826 39.7148 20.7062 39.8317 20.8491 39.921C20.9919 40.0104 21.1511 40.0705 21.3173 40.0978C21.4836 40.1251 21.6536 40.119 21.8175 40.08C27.4084 38.8364 33.5403 38.3464 39.743 42.0482C39.8864 42.1383 40.0463 42.1989 40.2134 42.2263C40.3805 42.2538 40.5514 42.2476 40.7161 42.208C40.8808 42.1685 41.0359 42.0964 41.1723 41.9961C41.3088 41.8958 41.4238 41.7692 41.5106 41.6238C41.5974 41.4784 41.6543 41.3171 41.6779 41.1494C41.7015 40.9817 41.6914 40.8109 41.6481 40.6472C41.6047 40.4835 41.5292 40.3301 41.4257 40.196C41.3223 40.0619 41.1931 39.9498 41.0457 39.8664C37.1475 37.5391 33.2275 36.7018 29.5021 36.6445Z" fill="#434345"/>
</g>
<defs>
<filter id="filter0_f_34_8" x="0" y="1" width="64" height="64" filterUnits="userSpaceOnUse" color-interpolation-filters="sRGB">
<feFlood flood-opacity="0" result="BackgroundImageFix"/>
<feBlend mode="normal" in="SourceGraphic" in2="BackgroundImageFix" result="shape"/>
<feGaussianBlur stdDeviation="2" result="effect1_foregroundBlur_34_8"/>
</filter>
<clipPath id="clip0_34_8">
<rect width="64" height="64" fill="white"/>
</clipPath>
</defs>
</svg>
