<svg width="64" height="64" viewBox="0 0 64 64" fill="none" xmlns="http://www.w3.org/2000/svg">
<g clip-path="url(#clip0_21_259)">
<g opacity="0.16" filter="url(#filter0_f_21_259)">
<rect x="4" y="5" width="56" height="56" rx="16" fill="#666569"/>
</g>
<rect x="4" y="4" width="56" height="56" rx="16" fill="#434345"/>
<path d="M4 39.2745L15.8716 43.4476C16.5769 46.7308 19.4662 49.2 22.9141 49.2C26.6489 49.2 29.7323 46.2999 30.0892 42.6097L39.3377 35.7562C44.6707 35.7562 49 31.386 49 25.9862C49 20.5834 44.6712 16.2 39.3377 16.2C34.0336 16.2 29.729 20.5339 29.6809 25.8948L23.6619 34.6283C23.4168 34.6035 23.1659 34.5903 22.9142 34.5903C21.5693 34.5903 20.3134 34.9628 19.2338 35.6163L4.00134 30.1636M39.3371 19.423C42.9103 19.423 45.8175 22.3674 45.8175 25.9865C45.8174 29.6057 42.9103 32.5338 39.3371 32.5338C35.7639 32.5338 32.862 29.6057 32.862 25.9865C32.862 22.3674 35.7639 19.423 39.3371 19.423ZM39.3638 20.712C36.5082 20.712 34.1933 23.0618 34.1933 25.9542C34.1933 28.8464 36.5082 31.1962 39.3638 31.1962C42.2195 31.1962 44.5396 28.8464 44.5396 25.9542C44.5396 23.0618 42.2195 20.712 39.3638 20.712ZM22.9134 36.5246C25.853 36.5246 28.2165 38.9185 28.2165 41.8959C28.2165 44.873 25.853 47.2669 22.9134 47.2669C20.8687 47.2669 19.1057 46.1111 18.2202 44.4041C19.0922 44.7606 19.9636 45.114 20.8346 45.4729C22.9959 46.3526 25.4598 45.2938 26.3286 43.1043C27.1973 40.9153 26.141 38.4302 23.9793 37.5507L21.7678 36.6537C22.1358 36.5731 22.5205 36.5246 22.9134 36.5246Z" fill="#FFFAFA"/>
</g>
<defs>
<filter id="filter0_f_21_259" x="0" y="1" width="64" height="64" filterUnits="userSpaceOnUse" color-interpolation-filters="sRGB">
<feFlood flood-opacity="0" result="BackgroundImageFix"/>
<feBlend mode="normal" in="SourceGraphic" in2="BackgroundImageFix" result="shape"/>
<feGaussianBlur stdDeviation="2" result="effect1_foregroundBlur_21_259"/>
</filter>
<clipPath id="clip0_21_259">
<rect width="64" height="64" fill="white"/>
</clipPath>
</defs>
</svg>
