<svg width="64" height="64" viewBox="0 0 64 64" fill="none" xmlns="http://www.w3.org/2000/svg">
<g clip-path="url(#clip0_63_32)">
<g opacity="0.16" filter="url(#filter0_f_63_32)">
<rect x="4" y="5" width="56" height="56" rx="16" fill="#666569"/>
</g>
<rect x="4" y="4" width="56" height="56" rx="16" fill="#FFFAFA"/>
<path d="M43.1036 18.2238C42.0335 18.2238 41.0073 18.6489 40.2506 19.4056C39.4939 20.1623 39.0688 21.1886 39.0688 22.2586C39.0691 23.3286 39.4943 24.3546 40.2509 25.1111C41.0076 25.8675 42.0337 26.2925 43.1036 26.2925C44.1736 26.2925 45.1997 25.8675 45.9563 25.1111C46.713 24.3546 47.1382 23.3286 47.1384 22.2586C47.1384 21.1886 46.7133 20.1623 45.9567 19.4056C45.2 18.6489 44.1737 18.2238 43.1036 18.2238ZM38.4706 28.1544C37.7712 28.1544 37.2069 28.7177 37.2069 29.4171V38.0775H37.2145C37.2918 39.5872 37.946 41.0096 39.0419 42.0509C40.1379 43.0922 41.5919 43.6727 43.1036 43.6727C44.6154 43.6727 46.0694 43.0922 47.1654 42.0509C48.2613 41.0096 48.9155 39.5872 48.9928 38.0775H49.0004V29.4171C49.0004 28.7177 48.4371 28.1544 47.7367 28.1544H38.4706Z" fill="#86B6EB"/>
<path d="M31.9312 14.5C30.3672 14.5 28.8674 15.1213 27.7615 16.2271C26.6557 17.333 26.0344 18.8328 26.0344 20.3967C26.0344 21.1711 26.1869 21.9379 26.4833 22.6533C26.7796 23.3687 27.214 24.0188 27.7615 24.5663C28.8674 25.6722 30.3672 26.2935 31.9312 26.2935C32.7056 26.2935 33.4725 26.1409 34.188 25.8445C34.9034 25.5481 35.5535 25.1137 36.1011 24.566C36.6487 24.0183 37.083 23.3682 37.3793 22.6527C37.6756 21.9371 37.828 21.1702 37.8279 20.3958C37.8276 18.832 37.2063 17.3324 36.1004 16.2268C34.9946 15.1211 33.4949 14.5 31.9312 14.5ZM24.9759 28.1554C24.7072 28.1549 24.441 28.2075 24.1927 28.3101C23.9444 28.4127 23.7188 28.5633 23.5289 28.7534C23.3389 28.9434 23.1884 29.1691 23.0859 29.4175C22.9834 29.6658 22.9309 29.932 22.9315 30.2007V40.2588C22.9315 40.2677 22.9315 40.2765 22.9315 40.2853V40.428H22.9325C22.9768 42.7853 23.9444 45.031 25.6271 46.6823C27.3099 48.3336 29.5735 49.2586 31.9312 49.2585C34.2886 49.2584 36.552 48.3333 38.2346 46.682C39.9171 45.0307 40.8846 42.7851 40.9289 40.428H40.9308V40.2579C40.9308 40.2494 40.9308 40.2409 40.9308 40.2324V30.2007C40.9314 29.932 40.879 29.6658 40.7764 29.4175C40.6739 29.1691 40.5234 28.9434 40.3335 28.7534C40.1435 28.5633 39.9179 28.4127 39.6696 28.3101C39.4213 28.2075 39.1551 28.1549 38.8864 28.1554H24.9759Z" fill="#B1CFEF"/>
<path d="M29.7734 23.1896H14.2268C13.5493 23.1896 13 23.7389 13 24.4164V39.963C13 40.6405 13.5493 41.1898 14.2268 41.1898H29.7734C30.4509 41.1898 31.0002 40.6405 31.0002 39.963V24.4164C31.0002 23.7389 30.4509 23.1896 29.7734 23.1896Z" fill="#86B6EB"/>
<path d="M17.3448 26.9135V30.0173H20.4486V38.086H23.5515V30.0173H26.6554V26.9135H17.3448Z" fill="#FFFAFA"/>
</g>
<defs>
<filter id="filter0_f_63_32" x="0" y="1" width="64" height="64" filterUnits="userSpaceOnUse" color-interpolation-filters="sRGB">
<feFlood flood-opacity="0" result="BackgroundImageFix"/>
<feBlend mode="normal" in="SourceGraphic" in2="BackgroundImageFix" result="shape"/>
<feGaussianBlur stdDeviation="2" result="effect1_foregroundBlur_63_32"/>
</filter>
<clipPath id="clip0_63_32">
<rect width="64" height="64" fill="white"/>
</clipPath>
</defs>
</svg>
