<svg width="64" height="64" viewBox="0 0 64 64" fill="none" xmlns="http://www.w3.org/2000/svg">
<g clip-path="url(#clip0_63_26)">
<g opacity="0.16" filter="url(#filter0_f_63_26)">
<rect x="4" y="5" width="56" height="56" rx="16" fill="#666569"/>
</g>
<rect x="4" y="4" width="56" height="56" rx="16" fill="#FFFAFA"/>
<path d="M28.6071 19.3571C29.6521 15.4825 35.0603 13.25 40.1428 13.25C43.8139 13.25 47.3832 14.7157 49.6428 16.6429C48.2924 16.7107 46.6707 17.3214 45.5714 18C47.6071 18.2307 49.161 18.6853 50.3214 20.0357C49.446 19.8796 48.5096 19.8796 47.6071 20.0357C49.7921 23.3471 51.0067 28.2328 50.9999 32.25C50.9999 43.2089 42.8571 51.2499 32 51.2499C21.1428 51.2499 13 43.1071 13 32.25C13 30.54 13.2782 27.9682 13.7804 26.2786C13.8889 25.9325 14.045 25.6203 14.2486 25.4982C14.2825 25.4711 14.3232 25.4643 14.3571 25.4643C14.5675 25.4643 14.7304 25.8171 14.7643 25.9461C15.0425 27.0318 15.2461 28.5178 15.7143 29.5357C15.7143 27.2828 16.6371 24.7586 17.9128 22.9739C18.7611 21.7864 20.3625 20.8025 20.7289 17.62C20.7289 17.62 20.7628 17.3214 21.1428 17.3214C23.9114 18.2646 23.8571 24.1071 23.8571 28.1785C25.3839 28.4093 25.4586 25.6611 25.4586 25.6611C25.2482 25.1046 25.2143 24.7857 25.2143 24.1071C25.2143 22.75 26.2593 20.3818 28.6071 19.3571Z" fill="#B1CFEF"/>
<path d="M50.0024 25.4643C50.0771 25.6882 50.3214 26.7196 50.3214 27.5C50.3214 37.95 42.1039 47.1785 32 47.1785C28.0507 47.1785 24.9836 46.2421 21.8214 43.7857C16.9493 39.9925 13.6786 35.5071 13.6786 29.5357C13.6786 28.1786 13.9839 26.3736 14.1604 25.6882C14.2079 25.505 14.2689 25.4643 14.3571 25.4643C14.3232 25.4643 14.2757 25.4779 14.2486 25.4982C14.0382 25.6339 13.9093 25.9122 13.7804 26.2786C13.5632 26.8282 13.2646 28.6468 13.2375 28.8571C13.1425 29.5493 13 31.1032 13 32.25C13 43.1071 21.1428 51.25 32 51.25C42.8571 51.25 50.9999 43.2089 50.9999 32.25C50.9999 29.5357 50.5453 27.1743 50.0024 25.4643Z" fill="#86B6EB"/>
<path d="M14.1604 25.6882C13.8754 26.8893 13.6786 28.1854 13.6786 29.5357C13.6786 33.7768 15.3139 37.9025 19.4464 41.7568C18.3472 40.3928 17.0714 37.8957 17.0714 34.9643C17.0714 32.7589 17.5804 30.3636 19.4057 28.3211C19.5075 28.2125 19.6093 28.1786 19.7857 28.1786C19.9961 28.1786 20.2268 28.3957 20.2336 28.6807C20.5864 38.5539 27.9286 43.7857 37.4286 43.7857C34.3886 43.7857 25.6418 39.911 32.3461 38.6014C35.8475 37.9228 41.5 36.3214 41.5 32.25C41.5 23.9036 36.75 21.3929 32 21.3929C29.0889 21.3929 26.0286 23.5507 25.4586 25.6611C25.7232 26.5704 24.5764 28.2871 23.8571 28.1786C23.8571 24.1071 23.9114 18.2647 21.1429 17.3214C20.7764 17.3214 20.7289 17.62 20.7289 17.62C20.3625 20.8025 18.7611 21.7796 17.9129 22.9739C16.6372 24.7586 15.7143 27.0454 15.7143 29.5357C15.2461 28.5179 15.0425 27.0318 14.7643 25.9461C14.7304 25.8239 14.5607 25.4643 14.3572 25.4643C14.2418 25.4643 14.1875 25.5661 14.1604 25.6882Z" fill="#86B6EB"/>
<path d="M32 39.7143C36.75 39.7143 41.5 36.3214 41.5 32.25C41.5 30.5468 41.0657 28.8707 40.1428 27.5C38.4939 25.0504 35.4811 23.4286 32 23.4286C28.4578 23.4286 25.4857 24.9757 23.8571 27.5C22.9886 28.8436 22.5 30.6011 22.5 32.25C22.5 40.1146 29.2857 43.7857 37.4285 43.7857C36.9196 43.7246 33.8118 43.6093 31.6675 41.0714C31.4707 40.8407 31.3214 40.6439 31.3214 40.3928C31.3214 39.9925 31.6946 39.7143 32 39.7143Z" fill="#D7E9F6"/>
<path d="M33.3572 34.2857C32.9229 34.72 32.5157 34.9711 32 34.9643C31.4979 34.9575 31.0568 34.6996 30.6429 34.2857L23.8572 27.5C25.8929 24.3447 29.2857 23.4286 32 23.4286C34.7143 23.4286 38.1072 24.5007 40.1429 27.5L33.3572 34.2857Z" fill="#FFFAFA"/>
<path d="M33.7439 19.9407C34.8025 19.5743 34.7075 18.4207 34.7075 18.4207C34.7075 18.4207 34.1782 17.7354 33.1264 18.1154C32.1425 18.475 31.9932 19.2418 31.9932 19.2418C31.9932 19.2418 32.5293 20.3614 33.7372 19.9407H33.7439Z" fill="#FFFAFA"/>
</g>
<defs>
<filter id="filter0_f_63_26" x="0" y="1" width="64" height="64" filterUnits="userSpaceOnUse" color-interpolation-filters="sRGB">
<feFlood flood-opacity="0" result="BackgroundImageFix"/>
<feBlend mode="normal" in="SourceGraphic" in2="BackgroundImageFix" result="shape"/>
<feGaussianBlur stdDeviation="2" result="effect1_foregroundBlur_63_26"/>
</filter>
<clipPath id="clip0_63_26">
<rect width="64" height="64" fill="white"/>
</clipPath>
</defs>
</svg>
