<svg width="64" height="64" viewBox="0 0 64 64" fill="none" xmlns="http://www.w3.org/2000/svg">
<g clip-path="url(#clip0_131_26)">
<g opacity="0.16" filter="url(#filter0_f_131_26)">
<rect x="4" y="5" width="56" height="56" rx="16" fill="#666569"/>
</g>
<rect x="4" y="4" width="56" height="56" rx="16" fill="#FFFAFA"/>
<path fill-rule="evenodd" clip-rule="evenodd" d="M24.7988 26.9392C23.5209 26.9102 22.2835 27.3973 21.3685 28.2902C20.4536 29.1843 19.9375 30.4089 19.9375 31.6881V42.6574C19.9375 44.3551 20.8432 45.923 22.3125 46.7719C23.7818 47.6196 25.5932 47.6196 27.0625 46.7719L36.5625 41.2866C38.0318 40.4377 38.9375 38.8699 38.9375 37.1733C38.9375 35.4755 38.0318 33.9077 36.5625 33.0588L27.0625 27.5747C26.3737 27.1769 25.5955 26.9589 24.7988 26.9392Z" fill="#86B6EB"/>
<path fill-rule="evenodd" clip-rule="evenodd" d="M24.7988 15.9699C23.5209 15.9409 22.2835 16.4268 21.3685 17.3209C20.4536 18.215 19.9375 19.4396 19.9375 20.7188V42.6574H29.4375V28.9454L41.3125 35.8014L46.0625 27.5747L27.0625 16.6054C26.3737 16.2076 25.5955 15.9896 24.7988 15.9699Z" fill="#B48BDD"/>
<path fill-rule="evenodd" clip-rule="evenodd" d="M34.2988 21.4551C33.0209 21.425 31.7835 21.912 30.8685 22.8061C29.9536 23.6991 29.4375 24.9248 29.4375 26.2028V37.1733C29.4375 38.8699 30.3432 40.4377 31.8125 41.2866C33.283 42.1343 35.0932 42.1343 36.5625 41.2866L46.0625 35.8014C47.5318 34.9537 48.4375 33.3858 48.4375 31.688C48.4375 29.9914 47.5318 28.4236 46.0625 27.5747L36.5625 22.0895C35.8737 21.6917 35.0955 21.4737 34.2988 21.4551Z" fill="#86B6EB"/>
<path fill-rule="evenodd" clip-rule="evenodd" d="M36.4478 41.3307C39.6577 39.4926 42.8572 37.6325 46.0626 35.7863C48.1546 34.629 49.0487 31.7982 47.9841 29.654C47.4971 28.543 46.5183 27.7684 45.4688 27.2152C42.9338 26.2202 39.6751 27.7533 39.0848 30.5133C38.9132 30.8844 38.9341 31.2729 38.9376 31.6881C38.9236 33.6688 38.9666 35.6518 38.9132 37.6314C38.7682 39.1737 37.815 40.6024 36.4478 41.3307Z" fill="#94E0B1"/>
<path fill-rule="evenodd" clip-rule="evenodd" d="M19.9433 31.5593C19.9294 35.2587 19.941 38.958 19.9375 42.6573C19.8935 45.0486 21.8974 47.238 24.2874 47.3876C25.4935 47.5222 26.6532 47.0618 27.6563 46.4286C29.7866 44.7308 30.0881 41.1428 27.9926 39.2526C27.7572 38.9163 27.4093 38.7411 27.0486 38.5359C25.3404 37.5339 23.6021 36.5795 21.9136 35.5439C20.6519 34.6464 19.89 33.1075 19.9433 31.5593Z" fill="#FFDB6A"/>
</g>
<defs>
<filter id="filter0_f_131_26" x="0" y="1" width="64" height="64" filterUnits="userSpaceOnUse" color-interpolation-filters="sRGB">
<feFlood flood-opacity="0" result="BackgroundImageFix"/>
<feBlend mode="normal" in="SourceGraphic" in2="BackgroundImageFix" result="shape"/>
<feGaussianBlur stdDeviation="2" result="effect1_foregroundBlur_131_26"/>
</filter>
<clipPath id="clip0_131_26">
<rect width="64" height="64" fill="white"/>
</clipPath>
</defs>
</svg>
