<svg width="64" height="64" viewBox="0 0 64 64" fill="none" xmlns="http://www.w3.org/2000/svg">
<g clip-path="url(#clip0_68_30)">
<g opacity="0.16" filter="url(#filter0_f_68_30)">
<rect x="4" y="5" width="56" height="56" rx="16" fill="#666569"/>
</g>
<rect x="4" y="4" width="56" height="56" rx="16" fill="#86B6EB"/>
<path fill-rule="evenodd" clip-rule="evenodd" d="M32 51.2049L49.6293 41.238L49.5118 22.4955L32 32.0902V51.2049Z" fill="#D7E9F6"/>
<path fill-rule="evenodd" clip-rule="evenodd" d="M32.004 51.2441L14.3746 41.2811L14.4922 22.5347L32.004 32.1293V51.2441Z" fill="#FFFAFA"/>
<path fill-rule="evenodd" clip-rule="evenodd" d="M14.4412 22.5857L32.0862 12.7598L49.5745 22.5896L31.9922 32.2234L14.4412 22.5857Z" fill="#FFFAFA"/>
<path fill-rule="evenodd" clip-rule="evenodd" d="M18.0123 22.5665L32.0703 14.7381L46.0034 22.5696L31.9954 30.245L18.0123 22.5665Z" fill="#86B6EB"/>
<path d="M34.1625 23.3222C34.0532 23.4159 33.8534 23.4284 33.7191 23.3472L32.2233 22.4416C32.1016 22.3698 32.0735 22.2449 32.1547 22.1512L33.4349 20.6524L28.929 23.775C28.8697 23.8113 28.8022 23.8318 28.7327 23.8346C28.6633 23.8373 28.5943 23.8222 28.5324 23.7906L28.5106 23.7781C28.4013 23.7125 28.3638 23.6032 28.4231 23.5096L29.9282 21.0364L27.9329 21.611C27.8741 21.6289 27.8121 21.6331 27.7515 21.6234C27.6909 21.6137 27.6333 21.5902 27.5831 21.5548C27.4926 21.4861 27.4707 21.3831 27.5238 21.2987L28.3825 19.9935L26.5433 18.8818C26.409 18.8006 26.3872 18.657 26.4996 18.5633C26.6089 18.4696 26.8087 18.4572 26.943 18.5383L28.9727 19.7655C29.082 19.8311 29.1195 19.9466 29.057 20.0372L28.445 20.9709L30.406 20.4057C30.4635 20.3881 30.5243 20.3837 30.5838 20.3929C30.6433 20.4021 30.6999 20.4246 30.7495 20.4588C30.8431 20.5275 30.8681 20.6243 30.8182 20.7086L29.6441 22.6415L34.7964 19.0723C34.8584 19.0335 34.9296 19.0121 35.0028 19.0105C35.0759 19.0088 35.148 19.027 35.2117 19.0629C35.3366 19.1566 35.3678 19.2659 35.2835 19.3596L32.8354 22.2293L34.1157 23.0037C34.2499 23.0849 34.2718 23.2285 34.1625 23.3222ZM35.652 23.9311L34.8807 23.4627C34.7464 23.3847 34.5466 23.394 34.4373 23.4908C34.328 23.5845 34.3467 23.7281 34.481 23.8093L35.2554 24.2777C35.3897 24.3558 35.5864 24.3464 35.6957 24.2527C35.805 24.1591 35.7863 24.0123 35.652 23.9311ZM37.3132 24.9366L36.492 24.4401C36.3577 24.3589 36.1578 24.3714 36.0486 24.4651C35.9393 24.5588 35.9611 24.7024 36.0954 24.7836L36.9166 25.2832C37.0509 25.3613 37.2508 25.3519 37.3601 25.2582C37.4693 25.1645 37.4475 25.0178 37.3132 24.9366Z" fill="#FFFAFA"/>
</g>
<defs>
<filter id="filter0_f_68_30" x="0" y="1" width="64" height="64" filterUnits="userSpaceOnUse" color-interpolation-filters="sRGB">
<feFlood flood-opacity="0" result="BackgroundImageFix"/>
<feBlend mode="normal" in="SourceGraphic" in2="BackgroundImageFix" result="shape"/>
<feGaussianBlur stdDeviation="2" result="effect1_foregroundBlur_68_30"/>
</filter>
<clipPath id="clip0_68_30">
<rect width="64" height="64" fill="white"/>
</clipPath>
</defs>
</svg>
