<svg width="64" height="64" viewBox="0 0 64 64" fill="none" xmlns="http://www.w3.org/2000/svg">
<g clip-path="url(#clip0_18_92)">
<g opacity="0.16" filter="url(#filter0_f_18_92)">
<rect x="4" y="5" width="56" height="56" rx="16" fill="#666569"/>
</g>
<rect x="4" y="4" width="56" height="56" rx="16" fill="#F86974"/>
<circle cx="32" cy="32" r="20" fill="#FFFAFA"/>
<path fill-rule="evenodd" clip-rule="evenodd" d="M19.2834 26.5379L29.7416 45.0104C29.7416 45.0104 30.3101 46 31.735 46C33.1563 46 33.7213 45.0104 33.7213 45.0104C33.7213 45.0104 40.9859 33.8792 43.9549 27.9451C44.2532 27.3485 44.5761 26.7414 44.7129 26.0922C44.82 25.6456 44.8284 25.1809 44.7375 24.7307C44.6245 24.1761 44.3526 23.6665 43.9549 23.2638C43.4645 22.8319 42.8506 22.5655 42.2002 22.5023C41.5012 22.4403 40.7992 22.5816 40.1787 22.9094C39.7421 23.1429 39.3797 23.4943 39.1329 23.9235C38.9179 24.3604 38.8051 24.8404 38.803 25.3272C38.798 25.7752 38.8717 26.2206 39.0206 26.6432C39.1189 26.9134 39.2452 27.1696 39.3505 27.4363C39.4277 27.6644 39.547 27.8784 39.5681 28.117C39.6241 28.499 39.588 28.8888 39.4628 29.254C38.7819 30.9841 37.6063 32.6439 36.0516 33.6616C35.4094 34.0827 34.5881 34.188 33.8231 34.2231C32.9457 34.2582 31.935 34.188 31.2261 33.802C30.5172 33.416 30.1838 32.7422 29.7381 32.1526C27.6991 29.4435 24.3616 23.5094 24.3616 23.5094C24.3616 23.5094 22.9087 20.9477 20.2976 22.4988C17.6901 24.0534 19.2799 26.5414 19.2799 26.5414L19.2834 26.5379Z" fill="#F86974"/>
</g>
<defs>
<filter id="filter0_f_18_92" x="0" y="1" width="64" height="64" filterUnits="userSpaceOnUse" color-interpolation-filters="sRGB">
<feFlood flood-opacity="0" result="BackgroundImageFix"/>
<feBlend mode="normal" in="SourceGraphic" in2="BackgroundImageFix" result="shape"/>
<feGaussianBlur stdDeviation="2" result="effect1_foregroundBlur_18_92"/>
</filter>
<clipPath id="clip0_18_92">
<rect width="64" height="64" fill="white"/>
</clipPath>
</defs>
</svg>
