<svg width="64" height="64" viewBox="0 0 64 64" fill="none" xmlns="http://www.w3.org/2000/svg">
<g clip-path="url(#clip0_59_13)">
<g opacity="0.16" filter="url(#filter0_f_59_13)">
<rect x="4" y="5" width="56" height="56" rx="16" fill="#666569"/>
</g>
<rect x="4" y="4" width="56" height="56" rx="16" fill="#FC9F7E"/>
<path fill-rule="evenodd" clip-rule="evenodd" d="M30.6012 11.0062C31.5606 10.9897 32.5196 11.0062 33.478 11.0558C33.722 11.2004 33.937 11.3823 34.1228 11.6014C34.734 13.1126 35.1805 14.6502 35.462 16.2142C33.3119 16.9794 31.1295 17.0455 28.9148 16.4126C28.5572 16.2803 28.4415 16.0323 28.5675 15.6686C28.9507 14.2547 29.4136 12.8659 29.9564 11.5022C30.1354 11.2715 30.3504 11.1062 30.6012 11.0062Z" fill="#FFFAFA"/>
<path fill-rule="evenodd" clip-rule="evenodd" d="M26.3356 22.9103C26.6662 23.1705 27.03 23.3854 27.4268 23.5551C30.4696 24.4148 33.5117 24.4148 36.5532 23.5551C36.9346 23.4142 37.2653 23.1992 37.5452 22.9103C38.2666 25.1113 38.9444 27.3269 39.5788 29.5567C39.6525 29.8824 39.5864 30.18 39.3804 30.4495C38.5594 31.1495 37.6169 31.6289 36.5532 31.8879C33.4036 32.5084 30.2623 32.4753 27.1292 31.7887C26.1433 31.5523 25.3001 31.0728 24.5996 30.3503C24.5033 30.1743 24.4206 29.9925 24.3516 29.8047C25.0571 27.5161 25.7183 25.2179 26.3356 22.9103Z" fill="#FFFAFA"/>
<path fill-rule="evenodd" clip-rule="evenodd" d="M20.1851 34.8143C21.063 34.782 21.9227 34.815 22.7644 34.9135C22.4892 35.5194 22.5056 36.1146 22.814 36.6991C23.2756 37.3924 23.8874 37.905 24.6492 38.2367C26.9705 39.2073 29.4009 39.6868 31.9404 39.6751C34.5116 39.6979 36.975 39.2184 39.3308 38.2367C40.1261 37.8716 40.7709 37.326 41.2653 36.5999C41.4815 35.9685 41.4319 35.3567 41.1164 34.7647C41.9431 34.6985 42.7698 34.6985 43.5965 34.7647C44.3383 34.6476 44.8508 34.9286 45.1341 35.6079C46.2764 39.3508 47.4337 43.0872 48.6061 46.8176C48.7852 47.449 48.7852 48.0773 48.6061 48.7024C48.4653 48.7976 48.3165 48.8802 48.1597 48.9504C37.3799 49.0165 26.6001 49.0165 15.8203 48.9504C15.6432 48.8725 15.4944 48.7568 15.3739 48.6032C15.2642 48.2439 15.2312 47.8801 15.2747 47.512C16.4612 43.4624 17.6847 39.4283 18.9451 35.4095C19.2059 34.9072 19.6193 34.7088 20.1851 34.8143Z" fill="#FFFAFA"/>
</g>
<defs>
<filter id="filter0_f_59_13" x="0" y="1" width="64" height="64" filterUnits="userSpaceOnUse" color-interpolation-filters="sRGB">
<feFlood flood-opacity="0" result="BackgroundImageFix"/>
<feBlend mode="normal" in="SourceGraphic" in2="BackgroundImageFix" result="shape"/>
<feGaussianBlur stdDeviation="2" result="effect1_foregroundBlur_59_13"/>
</filter>
<clipPath id="clip0_59_13">
<rect width="64" height="64" fill="white"/>
</clipPath>
</defs>
</svg>
