<svg width="64" height="64" viewBox="0 0 64 64" fill="none" xmlns="http://www.w3.org/2000/svg">
<g clip-path="url(#clip0_32_15)">
<g opacity="0.16" filter="url(#filter0_f_32_15)">
<rect x="4" y="5" width="56" height="56" rx="16" fill="#666569"/>
</g>
<rect x="4" y="4" width="56" height="56" rx="16" fill="#FFFAFA"/>
<path d="M31.99 52.0113C31.5677 51.8955 31.2002 51.6245 30.943 51.2393C30.5635 50.671 30.4371 50.2589 29.9743 48.0816C29.7814 47.1736 29.497 46.5694 29.0176 46.0487C28.1811 45.14 27.2151 44.8174 24.9271 44.6825C22.3675 44.5316 21.4591 44.3053 20.604 43.6057C19.6318 42.8103 19.2261 41.9115 18.6456 39.2659C18.2867 37.6306 18.0817 36.9708 17.6587 36.0906C16.8826 34.475 15.8158 33.2194 14.271 32.1028C13.2753 31.3832 12.9786 30.9455 13.1425 30.4389C13.2756 30.0287 13.6998 29.7646 14.2263 29.7646C14.6501 29.7646 14.9081 29.8698 15.2446 30.1798C15.5673 30.4769 15.758 30.7579 16.2036 31.5931C16.6109 32.356 17.0019 32.9119 17.1317 32.9119C17.2102 32.9119 17.2228 32.5901 17.2228 30.5987C17.2228 29.2151 17.248 28.1923 17.2859 28.0535C17.3616 27.7747 17.6628 27.4986 17.8906 27.4989C18.2688 27.4995 18.5928 27.8637 18.7583 28.4743C18.7961 28.6127 18.9545 30.0007 19.1108 31.5586C19.2672 33.1165 19.4183 34.4162 19.4466 34.4467C19.5335 34.5407 19.9306 34.0406 20.1895 33.51C20.4436 32.9892 20.6152 32.3247 20.6171 31.855C20.6178 31.7065 20.547 31.2337 20.4604 30.8045C20.3314 30.1669 20.3145 29.9792 20.3679 29.7785C20.5362 29.1411 21.2314 29.0362 21.6876 29.5794C22.0177 29.9726 22.1317 30.4179 22.1292 31.3069C22.1292 32.2701 22.0465 32.6285 21.3487 34.7945C20.746 36.666 20.5561 37.4955 20.5577 38.2487C20.5577 40.95 22.7818 42.7091 26.4999 42.9612C26.8311 42.9836 27.102 42.9812 27.102 42.9555C27.102 42.93 26.8947 42.5221 26.6413 42.049C25.7685 40.4193 25.4144 39.2809 25.4144 38.1046C25.4144 37.2193 25.542 36.6787 26.1031 35.2036C26.8697 33.1856 26.9448 32.8578 26.9455 31.5269C26.946 30.8338 26.9147 30.4025 26.8376 30.0377C26.4201 28.0515 25.3924 26.3461 23.9421 25.232C23.3672 24.7904 23.1954 24.6953 21.7253 24.0034C20.3111 23.3379 19.943 23.1064 19.3773 22.5267C18.7698 21.9042 18.5121 21.3952 18.4706 20.7363C18.4454 20.3292 18.4552 20.265 18.5575 20.2104C18.7914 20.0848 19.2878 20.062 19.7312 20.1563C20.5541 20.3312 21.2914 20.8071 22.4707 21.9245C23.7272 23.115 24.4349 23.5546 25.2996 23.6816C25.7205 23.7434 25.7633 23.7393 25.8426 23.6287C25.9715 23.4493 25.9519 22.7814 25.8062 22.3864C25.5377 21.6586 24.962 21.118 23.675 20.3856C22.848 19.9149 22.2904 19.5122 22.0412 19.2056C21.4322 18.4561 21.3084 17.3573 21.7702 16.7979C22.2076 16.2681 22.9487 16.2082 23.8031 16.6337C24.2186 16.8406 24.4046 16.9925 25.0351 17.6402C26.8748 19.5296 27.9824 22.0084 28.4699 25.3268C28.6003 26.2127 28.5835 29.5502 28.4419 30.7086C28.3074 31.8132 28.0947 33.1241 27.844 34.3849C27.6269 35.4768 27.6099 35.9776 27.7767 36.3537C27.9 36.6296 28.1548 36.8142 28.4133 36.8142C28.7054 36.8142 29.2229 36.4743 29.8192 35.8909C30.7931 34.9381 31.3388 34.015 31.6509 32.7932C31.7868 32.2606 31.811 31.9978 31.8508 30.6092C31.8928 29.1415 31.9055 29.0096 32.0384 28.7309C32.2314 28.3244 32.5876 28.0649 32.9527 28.0649C33.1894 28.0649 33.2616 28.0986 33.4615 28.3023C33.9827 28.8336 33.9648 29.531 33.3662 32.0117C32.9394 33.7798 32.3694 35.1422 31.6466 36.1218C31.4293 36.4161 30.7913 37.1044 30.2286 37.6514C29.5529 38.3082 29.102 38.8036 28.9009 39.1101C27.724 40.9038 28.3514 42.6613 30.2847 42.9868C31.0934 43.123 31.9895 42.8587 32.6018 42.3032C33.4547 41.5297 34.2515 39.8058 34.8098 37.5258C35.6395 34.1382 35.9057 30.4532 35.4731 28.3437C35.0819 26.436 34.2962 24.8366 33.1927 23.7014C32.8915 23.3917 32.2391 22.8537 31.5771 22.3691C29.7318 21.0185 28.9898 20.1461 28.733 19.0252C28.6054 18.4689 28.6377 17.9028 28.8031 17.776C29.0166 17.6126 29.5542 17.5323 29.9255 17.6083C30.8449 17.7966 31.6519 18.5282 32.5026 19.9451C33.1712 21.0586 33.4771 21.4739 33.9359 21.8908C34.2762 22.1999 34.4491 22.285 34.4491 22.1433C34.4491 22.106 34.2857 21.7591 34.0862 21.3723C32.6349 18.5597 31.5928 16.4389 31.4526 16.0126C31.1364 15.0509 31.3167 14.3692 31.9665 14.0765C32.7038 13.7441 33.5239 14.2828 33.9177 15.3581C34.0018 15.5875 34.5457 17.457 35.1266 19.5124C36.3807 23.9502 36.2957 23.6712 36.3847 23.6417C36.494 23.6054 36.9019 22.5897 37.1081 21.8414C37.3784 20.8597 37.4956 19.8361 37.4544 18.8121C37.4138 17.8087 37.3095 17.1599 36.9431 15.6461C36.7461 14.8315 36.6721 14.3984 36.6721 14.059C36.6721 13.2581 36.9848 12.6058 37.523 12.2832C38.1199 11.9256 39.0207 12.1053 39.6243 12.7023C40.2171 13.2889 40.4093 13.9245 40.3577 15.1299C40.303 16.419 40.0945 17.2013 38.9259 20.5118C37.8841 23.4632 37.5713 24.5634 37.3833 25.9367C37.26 26.8367 37.2628 28.2575 37.3833 29.0139C37.4926 29.6747 37.7135 30.4069 37.8117 30.4382C37.8467 30.4497 38.1496 29.6723 38.484 28.7111C39.3028 26.3581 39.4133 26.093 39.6689 25.8642C40.1757 25.4106 40.9277 25.7988 40.9277 26.5141C40.9277 27.1117 39.6635 30.889 36.4419 39.9172C35.5426 42.4374 34.8154 44.5434 34.8262 44.5971C34.8402 44.6606 36.1264 43.5062 38.4887 41.3142C43.5371 36.6296 43.613 36.55 43.9396 35.5932C44.0699 35.2093 44.0877 35.0706 44.0601 34.6111C44.0167 33.8765 43.7767 33.242 43.0483 31.9323C42.1863 30.3827 41.9117 29.7242 41.8219 28.9915C41.6393 27.5015 42.9471 26.5323 43.8702 27.4734C44.3827 27.9958 45.0927 29.7944 45.4028 31.3562C45.4883 31.7876 45.5586 32.1991 45.5586 32.2706C45.5586 32.6324 45.7498 32.3321 46.521 30.7585C47.6367 28.4821 47.843 28.1703 48.4424 27.8543C48.9683 27.5771 49.6112 27.8657 49.9617 28.537C50.1511 28.8998 50.1454 29.5836 49.9478 30.1951C49.4259 31.8106 47.3686 35.2515 45.153 38.2147C45.0297 38.3792 44.9621 38.5137 45.0021 38.5137C45.0427 38.5137 45.2323 38.4204 45.4249 38.3064C46.6174 37.5999 47.4613 37.554 48.2931 38.1502C48.5474 38.3325 48.8304 38.873 48.8295 39.1746C48.8285 39.5155 48.6417 39.9108 48.3905 40.1042C47.9308 40.4579 47.449 40.5723 46.0843 40.6519C43.838 40.7829 42.1321 41.3989 40.4954 42.67C39.2054 43.6718 38.4511 44.6823 37.1608 47.1372C36.1104 49.1357 35.618 49.86 34.636 50.8513C33.9248 51.5693 33.3939 51.9109 32.7892 52.04C32.3944 52.1243 32.3968 52.1243 31.984 52.0111L31.99 52.0113Z" fill="#86B6EB"/>
</g>
<defs>
<filter id="filter0_f_32_15" x="0" y="1" width="64" height="64" filterUnits="userSpaceOnUse" color-interpolation-filters="sRGB">
<feFlood flood-opacity="0" result="BackgroundImageFix"/>
<feBlend mode="normal" in="SourceGraphic" in2="BackgroundImageFix" result="shape"/>
<feGaussianBlur stdDeviation="2" result="effect1_foregroundBlur_32_15"/>
</filter>
<clipPath id="clip0_32_15">
<rect width="64" height="64" fill="white"/>
</clipPath>
</defs>
</svg>
