<svg width="64" height="64" viewBox="0 0 64 64" fill="none" xmlns="http://www.w3.org/2000/svg">
<g clip-path="url(#clip0_196_29)">
<g opacity="0.16" filter="url(#filter0_f_196_29)">
<rect x="4" y="5" width="56" height="56" rx="16" fill="#666569"/>
</g>
<rect x="4" y="4" width="56" height="56" rx="16" fill="#FFFAFA"/>
<path d="M14.6772 24.8628C16.5898 24.0582 19.3335 24.9381 20.159 26.8418L27.5538 43.9251C28.3781 45.8262 27.015 47.7342 25.1024 48.5387C23.1897 49.3433 20.6213 48.5271 19.7881 46.6267L12.5927 30.2109C11.7595 28.3105 12.7646 25.6673 14.6772 24.8628Z" fill="#86B6EB"/>
<path d="M49.3201 24.8621C47.4085 24.0569 44.6634 24.9382 43.8385 26.8414L36.4423 43.9227C35.6174 45.8259 36.9491 48.0023 38.8636 48.8047C40.7724 49.6099 43.3767 48.5259 44.2101 46.6255L51.4064 30.2115C52.2369 28.311 51.2318 25.6674 49.3201 24.8621Z" fill="#B1CFEF"/>
<path d="M34.8262 27.5086C36.9322 30.2481 38.5145 33.4435 39.6857 35.4594C40.8598 37.4724 41.0597 37.8976 41.9522 39.5447C42.8446 41.1945 44.8521 42.5431 46.9017 40.485C46.7187 40.9552 45.1026 44.9334 44.289 46.5776C43.7484 47.6756 43.3937 48.0529 42.4364 48.5963C40.6317 49.6155 37.881 48.9849 36.828 47.1999L27.7341 31.7881C30.9803 29.8314 31.4618 29.4316 34.8262 27.5086Z" fill="#86B6EB"/>
<path d="M35.4795 23.1446C33.2215 23.5951 30.4426 25.763 29.1785 27.4072C27.0697 30.1438 25.4902 33.3422 24.319 35.3552C23.145 37.3711 22.9451 37.7934 22.0526 39.4433C21.1573 41.0903 19.102 42.4502 17.0523 40.3921C17.2353 40.8594 18.8993 44.8293 19.7129 46.4763C20.2563 47.5743 20.6111 47.9515 21.5683 48.4921C23.373 49.5113 26.1237 48.8835 27.1767 47.0957L36.2706 31.6867C37.1013 30.3092 38.0938 29.0361 39.2268 27.8943C40.7584 26.3514 42.6025 25.4956 41.9775 24.4989C40.6345 22.3592 37.8247 22.6631 35.5667 23.1164L35.4795 23.1446Z" fill="#B1CFEF"/>
<path d="M24.471 28.9727C23.1872 28.5082 22.137 27.5818 21.9934 25.8363C21.8498 24.0935 22.8859 22.8435 24.0853 22.9026C25.2847 22.9617 25.6901 23.9668 25.4142 24.9015C25.1326 25.8335 24.8511 26.1882 24.6765 26.8329C24.502 27.4777 24.4964 28.1562 24.471 28.9727Z" fill="#B1CFEF"/>
<path d="M27.8468 25.4533C26.76 23.6007 27.05 21.5004 27.6778 19.9519C28.3113 18.4034 29.8288 16.6859 31.5125 16.2354C33.1961 15.785 34.7277 16.0271 35.4175 17.7417C36.1045 19.4535 34.6123 21.5708 32.8273 22.0663C31.0423 22.5618 29.4009 23.5191 27.8468 25.4533Z" fill="#B1CFEF"/>
<path d="M40.0714 18.7723C41.1241 18.7723 41.9775 17.919 41.9775 16.8663C41.9775 15.8136 41.1241 14.9602 40.0714 14.9602C39.0187 14.9602 38.1653 15.8136 38.1653 16.8663C38.1653 17.919 39.0187 18.7723 40.0714 18.7723Z" fill="#B1CFEF"/>
<path d="M38.2174 22.7239C37.2915 22.7232 36.3417 22.8655 35.4955 23.0353C34.4325 23.2484 33.2541 23.8726 32.1695 24.6384C31.4216 25.5695 30.8696 26.6809 30.7869 27.9607C30.5664 30.5343 32.3542 31.099 33.9066 29.776C34.1442 29.5734 34.2776 29.4028 34.4184 29.2449C35.0873 28.6244 39.1202 27.0653 41.6947 25.7438C42.1304 25.2984 42.345 24.8902 42.079 24.4656C41.2403 23.1269 39.7609 22.7254 38.2174 22.7239Z" fill="#D7E9F6"/>
<path d="M41.3937 24.5601C41.2523 24.5502 41.1104 24.5507 40.9691 24.5616C38.943 24.7136 36.3581 26.8165 35.357 27.9957C35.0306 28.3921 34.7204 28.8017 34.4273 29.2233C35.1454 30.3071 36.4237 30.4725 37.7012 29.6419C38.1769 29.033 38.6868 28.4516 39.2283 27.9003C40.6153 26.5029 42.3375 25.6343 42.1841 24.7419C41.9316 24.6416 41.6646 24.5803 41.3937 24.5601Z" fill="#D7E9F6"/>
</g>
<defs>
<filter id="filter0_f_196_29" x="0" y="1" width="64" height="64" filterUnits="userSpaceOnUse" color-interpolation-filters="sRGB">
<feFlood flood-opacity="0" result="BackgroundImageFix"/>
<feBlend mode="normal" in="SourceGraphic" in2="BackgroundImageFix" result="shape"/>
<feGaussianBlur stdDeviation="2" result="effect1_foregroundBlur_196_29"/>
</filter>
<clipPath id="clip0_196_29">
<rect width="64" height="64" fill="white"/>
</clipPath>
</defs>
</svg>
