<svg width="64" height="64" viewBox="0 0 64 64" fill="none" xmlns="http://www.w3.org/2000/svg">
<g clip-path="url(#clip0_21_381)">
<g opacity="0.16" filter="url(#filter0_f_21_381)">
<rect x="4" y="5" width="56" height="56" rx="16" fill="#666569"/>
</g>
<rect x="4" y="4" width="56" height="56" rx="16" fill="#86B6EB"/>
<rect x="14" y="14" width="36" height="36" rx="6" fill="#434345"/>
<path d="M36.8702 29.2817C38.0421 30.2342 39.0573 30.783 40.5233 30.783C41.6952 30.783 42.9534 30.2342 42.9534 29.4307V29.3523C42.9534 28.6232 42.1303 28.0902 39.9353 27.5061C37.2974 26.8437 35.5963 25.3386 35.5963 23.6414V23.5669C35.5963 21.1485 37.8853 19.8236 40.5233 19.8236C42.4282 19.8236 43.5884 20.4586 44.976 21.2974L43.6198 23.1436C42.4439 22.34 41.6208 22.2616 40.5233 22.2616C39.4258 22.2616 38.0852 22.7986 38.0852 23.4571V23.6845C38.0852 24.5625 38.9319 24.974 41.1308 25.5581C43.7687 26.291 45.3405 27.1298 45.3405 29.1367V29.2112C45.3405 31.4767 43.3023 33.2171 40.5193 33.2171C38.5438 33.1426 36.8192 32.3939 35.2788 31.0064M33.217 19.8236L30.7829 28.3489L28.3488 19.8236H25.9147L23.4767 28.3489L21.0465 19.8236H18.6085L22.2616 33.2171H24.6918L27.1298 24.6957L29.5639 33.2171H31.998L35.6511 19.8236M18.6085 41.7384H30.7829V44.1725H18.6085V41.7384Z" fill="#FFFAFA"/>
</g>
<defs>
<filter id="filter0_f_21_381" x="0" y="1" width="64" height="64" filterUnits="userSpaceOnUse" color-interpolation-filters="sRGB">
<feFlood flood-opacity="0" result="BackgroundImageFix"/>
<feBlend mode="normal" in="SourceGraphic" in2="BackgroundImageFix" result="shape"/>
<feGaussianBlur stdDeviation="2" result="effect1_foregroundBlur_21_381"/>
</filter>
<clipPath id="clip0_21_381">
<rect width="64" height="64" fill="white"/>
</clipPath>
</defs>
</svg>
