<svg width="64" height="64" viewBox="0 0 64 64" fill="none" xmlns="http://www.w3.org/2000/svg">
<g clip-path="url(#clip0_62_2)">
<g opacity="0.16" filter="url(#filter0_f_62_2)">
<rect x="4" y="5" width="56" height="56" rx="16" fill="#666569"/>
</g>
<rect x="4" y="4" width="56" height="56" rx="16" fill="#94E0B1"/>
<path d="M32.7779 48.0874C42.1909 48.0874 49.8216 40.4566 49.8216 31.0437C49.8216 21.6307 42.1909 14 32.7779 14C23.365 14 15.7343 21.6307 15.7343 31.0437C15.7343 40.4566 23.365 48.0874 32.7779 48.0874Z" stroke="#FFFAFA" stroke-width="2.91667"/>
<path d="M17.2035 40.741L14.5 50.3207L24.4324 47.5585L24.9612 44.5024L18.4964 46.5594L20.2008 40.3884L17.2035 40.741Z" fill="#FFFAFA"/>
<path d="M18.379 46.6181C18.379 46.5593 20.436 39.7418 20.436 39.7418L25.3728 44.3848L18.379 46.6181Z" fill="#94E0B1"/>
<path d="M25.4128 22.6C24.8127 23.0164 24.3011 23.5476 23.9077 24.163C23.5142 24.7783 23.2468 25.4656 23.1207 26.185C22.8268 28.4771 24.2373 30.828 24.2373 30.828C25.6681 32.9567 27.3668 34.8924 29.2916 36.5876C30.9754 37.9199 32.8871 38.9355 34.9337 39.5849C36.1275 40.0615 37.4334 40.184 38.6951 39.9375C39.8133 39.6306 40.8026 38.971 41.516 38.0568C41.6832 37.641 41.8016 37.2071 41.8687 36.7639C41.936 36.375 41.936 35.9774 41.8687 35.5885C41.8099 35.1771 37.5784 33.2376 37.167 33.3551C36.7556 33.4727 36.4029 34.2367 35.9328 34.8832C35.4626 35.5297 35.2863 35.8235 34.8162 35.8235C34.346 35.8235 32.2889 35.0007 30.3495 33.2376C29.2417 32.2771 28.376 31.069 27.8224 29.7113C27.8224 29.7113 28.175 29.2999 28.6452 28.6534C29.011 28.2526 29.2733 27.7683 29.4092 27.2429C29.4092 26.9491 27.7636 22.7763 27.3522 22.6C26.7088 22.5096 26.0561 22.5096 25.4128 22.6Z" fill="#FFFAFA"/>
</g>
<defs>
<filter id="filter0_f_62_2" x="0" y="1" width="64" height="64" filterUnits="userSpaceOnUse" color-interpolation-filters="sRGB">
<feFlood flood-opacity="0" result="BackgroundImageFix"/>
<feBlend mode="normal" in="SourceGraphic" in2="BackgroundImageFix" result="shape"/>
<feGaussianBlur stdDeviation="2" result="effect1_foregroundBlur_62_2"/>
</filter>
<clipPath id="clip0_62_2">
<rect width="64" height="64" fill="white"/>
</clipPath>
</defs>
</svg>
