<svg width="64" height="64" viewBox="0 0 64 64" fill="none" xmlns="http://www.w3.org/2000/svg">
<g clip-path="url(#clip0_20_73)">
<g opacity="0.16" filter="url(#filter0_f_20_73)">
<rect x="4" y="5" width="56" height="56" rx="16" fill="#666569"/>
</g>
<rect x="4" y="4" width="56" height="56" rx="16" fill="#F86974"/>
<path fill-rule="evenodd" clip-rule="evenodd" d="M17.8746 12.0111C27.2943 11.9815 36.7139 12.0111 46.1334 12.1C48.1309 17.8999 47.6717 23.4983 44.756 28.8953C42.9217 31.9441 40.3891 34.2102 37.1581 35.6934C36.0236 36.443 35.0313 37.3464 34.1811 38.4038C33.8741 38.8992 33.6668 39.4324 33.5591 40.0033C33.4998 42.0472 33.4998 44.0911 33.5591 46.1349C33.7072 46.6234 33.959 47.053 34.3144 47.4235C34.7429 47.771 35.1873 48.0969 35.6474 48.401C37.2497 49.2022 38.8493 50.002 40.4461 50.8003C40.6931 50.9613 40.9153 51.1539 41.1125 51.3779C41.1943 51.6275 41.1203 51.82 40.8904 51.9555C34.9661 52.0148 29.0419 52.0148 23.1175 51.9555C22.8877 51.82 22.8136 51.6275 22.8954 51.3779C23.2115 51.0647 23.5521 50.7833 23.9173 50.5337C25.5227 49.8347 27.0926 49.0646 28.6271 48.2233C29.2628 47.7949 29.8107 47.2766 30.2711 46.6681C30.3576 46.5 30.4168 46.3223 30.4488 46.1349C30.5081 44.1207 30.5081 42.1065 30.4488 40.0922C30.2129 38.8492 29.6057 37.8273 28.6271 37.0264C27.2687 35.9649 25.8173 35.0466 24.2728 34.2716C19.8728 31.0183 17.3697 26.6491 16.7638 21.1641C16.4391 18.0244 16.8094 14.9734 17.8746 12.0111Z" fill="#FFFAFA"/>
<path fill-rule="evenodd" clip-rule="evenodd" d="M20.185 15.0325C28.0643 15.0176 35.9436 15.0325 43.8229 15.0769C44.317 17.1124 44.4355 19.1711 44.1783 21.253C33 28.75 31 13.53 19.8351 21.253C19.8351 21.253 19.7978 21.0628 19.7851 20.8087C19.7258 19.6238 19.7258 18.4389 19.7851 17.2541C19.8615 16.4995 19.9947 15.759 20.185 15.0325Z" fill="#F86974"/>
<path d="M48.001 60.002C54.6289 60.002 60.0019 54.6289 60.0019 48.0009C60.0019 41.373 54.6289 36 48.001 36C41.373 36 36 41.373 36 48.0009C36 54.6289 41.373 60.002 48.001 60.002Z" fill="#434345"/>
<path d="M48.001 42.9057C47.334 42.9057 46.6736 43.0371 46.0575 43.2925C45.4414 43.5478 44.8816 43.9221 44.4102 44.3938C43.9387 44.8656 43.5649 45.4257 43.31 46.042C43.0551 46.6583 42.9242 47.3188 42.9247 47.9858C42.9247 48.6524 43.056 49.3125 43.3111 49.9284C43.5662 50.5443 43.9401 51.1039 44.4115 51.5753C44.8829 52.0467 45.4425 52.4206 46.0584 52.6757C46.6743 52.9308 47.3344 53.0622 48.001 53.0622C48.6676 53.0622 49.3277 52.9308 49.9436 52.6757C50.5595 52.4206 51.1191 52.0467 51.5905 51.5753C52.0619 51.1039 52.4358 50.5443 52.6909 49.9284C52.946 49.3125 53.0773 48.6524 53.0773 47.9858C53.0778 47.3188 52.9469 46.6583 52.692 46.042C52.4371 45.4257 52.0633 44.8656 51.5918 44.3938C51.1204 43.9221 50.5606 43.5478 49.9445 43.2925C49.3284 43.0371 48.6679 42.9057 48.001 42.9057ZM48.001 45.2113C48.3652 45.2113 48.7257 45.2832 49.0621 45.4227C49.3985 45.5621 49.7041 45.7665 49.9615 46.0242C50.2188 46.2819 50.4228 46.5877 50.5618 46.9243C50.7008 47.2609 50.7721 47.6216 50.7716 47.9858C50.7706 48.7199 50.4783 49.4237 49.9588 49.9425C49.4393 50.4613 48.7352 50.7526 48.001 50.7526C47.2668 50.7526 46.5627 50.4613 46.0432 49.9425C45.5237 49.4237 45.2314 48.7199 45.2304 47.9858C45.2304 47.251 45.5223 46.5462 46.0419 46.0266C46.5615 45.5071 47.2662 45.2151 48.001 45.2151V45.2113Z" fill="#FFFAFA"/>
<path d="M47.0787 40.8305H48.9233V44.0585H47.0787V40.8305ZM47.0787 51.9055H48.9233V55.1372H47.0787V51.9055ZM55.1562 47.0597V48.908H51.9244V47.0597H55.1562ZM44.0775 47.0597V48.908H40.8458V47.0597H44.0775ZM53.7161 52.3893L52.4083 53.6971L50.1252 51.4103L51.4293 50.1063L53.7161 52.3893ZM45.8805 44.5575L44.5765 45.8614L42.2897 43.5785L43.5937 42.2745L45.8805 44.5575ZM43.5937 53.6971L42.2897 52.3893L44.5765 50.1063L45.8805 51.4103L43.5937 53.6971ZM51.4293 45.8614L50.1252 44.5575L52.4083 42.2745L53.7123 43.5785L51.4293 45.8614Z" fill="#FFFAFA"/>
</g>
<defs>
<filter id="filter0_f_20_73" x="0" y="1" width="64" height="64" filterUnits="userSpaceOnUse" color-interpolation-filters="sRGB">
<feFlood flood-opacity="0" result="BackgroundImageFix"/>
<feBlend mode="normal" in="SourceGraphic" in2="BackgroundImageFix" result="shape"/>
<feGaussianBlur stdDeviation="2" result="effect1_foregroundBlur_20_73"/>
</filter>
<clipPath id="clip0_20_73">
<rect width="64" height="64" fill="white"/>
</clipPath>
</defs>
</svg>
