<svg width="64" height="64" viewBox="0 0 64 64" fill="none" xmlns="http://www.w3.org/2000/svg">
<g clip-path="url(#clip0_21_212)">
<g opacity="0.16" filter="url(#filter0_f_21_212)">
<rect x="4" y="5" width="56" height="56" rx="16" fill="#666569"/>
</g>
<rect x="4" y="4" width="56" height="56" rx="16" fill="#F86974"/>
<path fill-rule="evenodd" clip-rule="evenodd" d="M17.8746 12.0111C27.2943 11.9815 36.7139 12.0111 46.1334 12.1C48.1309 17.8999 47.6717 23.4983 44.756 28.8953C42.9217 31.9441 40.3891 34.2102 37.1581 35.6934C36.0236 36.443 35.0313 37.3464 34.1811 38.4038C33.8741 38.8992 33.6668 39.4324 33.5591 40.0033C33.4998 42.0472 33.4998 44.0911 33.5591 46.1349C33.7072 46.6234 33.959 47.053 34.3144 47.4235C34.7429 47.771 35.1873 48.0969 35.6474 48.401C37.2497 49.2022 38.8493 50.002 40.4461 50.8003C40.6931 50.9613 40.9153 51.1539 41.1125 51.3779C41.1943 51.6275 41.1203 51.82 40.8904 51.9555C34.9661 52.0148 29.0419 52.0148 23.1175 51.9555C22.8877 51.82 22.8136 51.6275 22.8954 51.3779C23.2115 51.0647 23.5521 50.7833 23.9173 50.5337C25.5227 49.8347 27.0926 49.0646 28.6271 48.2233C29.2628 47.7949 29.8107 47.2766 30.2711 46.6681C30.3576 46.5 30.4168 46.3223 30.4488 46.1349C30.5081 44.1207 30.5081 42.1065 30.4488 40.0922C30.2129 38.8492 29.6057 37.8273 28.6271 37.0264C27.2687 35.9649 25.8173 35.0466 24.2728 34.2716C19.8728 31.0183 17.3697 26.6491 16.7638 21.1641C16.4391 18.0244 16.8094 14.9734 17.8746 12.0111Z" fill="#FFFAFA"/>
<path fill-rule="evenodd" clip-rule="evenodd" d="M20.185 15.0325C28.0643 15.0176 35.9436 15.0325 43.8229 15.0769C44.317 17.1124 44.4355 19.1711 44.1783 21.253C33 28.75 31 13.53 19.8351 21.253C19.8351 21.253 19.7978 21.0628 19.7851 20.8087C19.7258 19.6238 19.7258 18.4389 19.7851 17.2541C19.8615 16.4995 19.9947 15.759 20.185 15.0325Z" fill="#F86974"/>
<path d="M48.001 60.002C54.6289 60.002 60.0019 54.6289 60.0019 48.0009C60.0019 41.373 54.6289 36 48.001 36C41.373 36 36 41.373 36 48.0009C36 54.6289 41.373 60.002 48.001 60.002Z" fill="#434345"/>
<path d="M42.9371 53.0429L53.0629 42.9171" stroke="#FFFAFA" stroke-width="1.85"/>
<path d="M42.9371 42.9171L53.0629 53.0429" stroke="#FFFAFA" stroke-width="1.85"/>
</g>
<defs>
<filter id="filter0_f_21_212" x="0" y="1" width="64" height="64" filterUnits="userSpaceOnUse" color-interpolation-filters="sRGB">
<feFlood flood-opacity="0" result="BackgroundImageFix"/>
<feBlend mode="normal" in="SourceGraphic" in2="BackgroundImageFix" result="shape"/>
<feGaussianBlur stdDeviation="2" result="effect1_foregroundBlur_21_212"/>
</filter>
<clipPath id="clip0_21_212">
<rect width="64" height="64" fill="white"/>
</clipPath>
</defs>
</svg>
