<svg width="64" height="64" viewBox="0 0 64 64" fill="none" xmlns="http://www.w3.org/2000/svg">
<g clip-path="url(#clip0_62_8)">
<g opacity="0.16" filter="url(#filter0_f_62_8)">
<rect x="4" y="5" width="56" height="56" rx="16" fill="#666569"/>
</g>
<rect x="4" y="4" width="56" height="56" rx="16" fill="#86B6EB"/>
<path d="M16.6661 22.0001C16.383 21.998 16.1022 22.0518 15.84 22.1584C15.5777 22.2651 15.3391 22.4225 15.1379 22.6216C14.9366 22.8207 14.7767 23.0576 14.6672 23.3187C14.5577 23.5798 14.5009 23.8599 14.5 24.143V36.286C14.5 39.45 17.0761 41.9999 20.2772 41.9999H38.3348C38.6178 42.002 38.8984 41.9483 39.1606 41.8417C39.4228 41.7351 39.6614 41.5777 39.8626 41.3787C40.0639 41.1797 40.2238 40.9429 40.3333 40.682C40.4429 40.421 40.4998 40.141 40.5008 39.858V27.715C40.5008 24.549 37.9247 22.0001 34.7236 22.0001H20.2782H16.6661ZM48.2311 22.0041C47.8061 21.9721 47.323 22.1801 46.861 22.6391C45.241 24.253 43.3419 25.615 42.0139 27.545C41.4669 28.339 41.5039 29.391 41.5009 30.381C41.4979 30.924 41.5029 31.464 41.5009 32C41.5029 32.536 41.4979 33.076 41.5009 33.619C41.5049 34.609 41.4669 35.66 42.0139 36.455C43.3419 38.385 45.242 39.747 46.862 41.3609C47.322 41.8209 47.8061 42.0269 48.2311 41.9959C48.9391 41.9429 49.4831 41.2249 49.4831 39.892C49.4831 37.284 49.5211 34.644 49.4831 32C49.5211 29.355 49.4831 26.716 49.4831 24.107C49.4831 22.7751 48.9391 22.0561 48.2311 22.0041Z" fill="#FFFAFA"/>
</g>
<defs>
<filter id="filter0_f_62_8" x="0" y="1" width="64" height="64" filterUnits="userSpaceOnUse" color-interpolation-filters="sRGB">
<feFlood flood-opacity="0" result="BackgroundImageFix"/>
<feBlend mode="normal" in="SourceGraphic" in2="BackgroundImageFix" result="shape"/>
<feGaussianBlur stdDeviation="2" result="effect1_foregroundBlur_62_8"/>
</filter>
<clipPath id="clip0_62_8">
<rect width="64" height="64" fill="white"/>
</clipPath>
</defs>
</svg>
