<svg width="64" height="64" viewBox="0 0 64 64" fill="none" xmlns="http://www.w3.org/2000/svg">
<rect x="8" y="11" width="24" height="16.8" rx="6" fill="#86B6EB"/>
<rect x="8" y="16.6" width="48" height="36.4" rx="6" fill="#B1CFEF"/>
<path d="M30 32C29.4492 32 29 32.4492 29 33C29 33.5508 29.4492 34 30 34C30.5508 34 31 33.5508 31 33C31 32.4492 30.5508 32 30 32ZM33.5 35L31.5 37L30 36L28 38V38.5C28 39 28.5 39 28.5 39H35.5C35.5 39 35.9727 38.9648 36 38.5V37.5L33.5 35Z" fill="#86B6EB"/>
<path d="M28 28C26.3555 28 25 29.3555 25 31V39C25 40.6445 26.3555 42 28 42H36C37.6445 42 39 40.6445 39 39V31C39 29.3555 37.6445 28 36 28H28ZM28 30H36C36.5703 30 37 30.4297 37 31V39C37 39.5703 36.5703 40 36 40H28C27.4297 40 27 39.5703 27 39V31C27 30.4297 27.4297 30 28 30Z" fill="#86B6EB"/>
</svg>
