<svg width="64" height="64" viewBox="0 0 64 64" fill="none" xmlns="http://www.w3.org/2000/svg">
<rect x="4" y="11" width="56" height="42" rx="6" fill="#86B6EB"/>
<path d="M55.3331 13.8661H8.66698C7.63638 13.8661 6.8009 14.7016 6.8009 15.7322C6.8009 16.7628 7.63638 17.5982 8.66698 17.5982H55.3331C56.3637 17.5982 57.1991 16.7628 57.1991 15.7322C57.1991 14.7016 56.3637 13.8661 55.3331 13.8661Z" fill="#B1CFEF"/>
<path d="M10.5295 14.8009H8.66698C8.1507 14.8009 7.73218 15.2186 7.73218 15.7339C7.73218 16.2492 8.1507 16.667 8.66698 16.667H10.5295C11.0458 16.667 11.4643 16.2492 11.4643 15.7339C11.4643 15.2186 11.0458 14.8009 10.5295 14.8009Z" fill="#86B6EB"/>
<path d="M49.7348 15.7339C49.7348 15.2186 49.3171 14.8009 48.8018 14.8009C48.2864 14.8009 47.8687 15.2186 47.8687 15.7339C47.8687 16.2492 48.2864 16.667 48.8018 16.667C49.3171 16.667 49.7348 16.2492 49.7348 15.7339Z" fill="#86B6EB"/>
<path d="M35.7339 14.8009H28.2696C27.7533 14.8009 27.3348 15.2186 27.3348 15.7339C27.3348 16.2492 27.7533 16.667 28.2696 16.667H35.7339C36.2502 16.667 36.6687 16.2492 36.6687 15.7339C36.6687 15.2186 36.2502 14.8009 35.7339 14.8009Z" fill="#86B6EB"/>
<path d="M56.2679 15.7339C56.2679 15.2186 55.8501 14.8009 55.3348 14.8009C54.8195 14.8009 54.4018 15.2186 54.4018 15.7339C54.4018 16.2492 54.8195 16.667 55.3348 16.667C55.8501 16.667 56.2679 16.2492 56.2679 15.7339Z" fill="#86B6EB"/>
<path d="M52.5357 14.8009H51.6044C51.0881 14.8009 50.6696 15.2186 50.6696 15.7339C50.6696 16.2492 51.0881 16.667 51.6044 16.667H52.5357C53.052 16.667 53.4705 16.2492 53.4705 15.7339C53.4705 15.2186 53.052 14.8009 52.5357 14.8009Z" fill="#86B6EB"/>
<path d="M15.2 49.2371C14.9545 49.2366 14.7114 49.2847 14.4845 49.3785C14.2577 49.4723 14.0516 49.6101 13.8782 49.7838C13.7048 49.9576 13.5674 50.1639 13.474 50.3909C13.3806 50.6179 13.333 50.8612 13.3339 51.1067V52.9763H50.6661V51.1067C50.667 50.8612 50.6194 50.6179 50.526 50.3909C50.4326 50.1639 50.2952 49.9576 50.1218 49.7838C49.9484 49.6101 49.7423 49.4723 49.5155 49.3785C49.2887 49.2847 49.0455 49.2366 48.8 49.2371H15.2Z" fill="#B1CFEF"/>
<path d="M21.7365 46.4009H18.9321C18.4178 46.4009 18.0009 46.8179 18.0009 47.3322V50.1366C18.0009 50.651 18.4178 51.0679 18.9321 51.0679H21.7365C22.2509 51.0679 22.6678 50.651 22.6678 50.1366V47.3322C22.6678 46.8179 22.2509 46.4009 21.7365 46.4009Z" fill="#D7E9F6"/>
<path d="M30.1357 46.4009H27.3313C26.817 46.4009 26.4 46.8179 26.4 47.3322V50.1366C26.4 50.651 26.817 51.0679 27.3313 51.0679H30.1357C30.65 51.0679 31.067 50.651 31.067 50.1366V47.3322C31.067 46.8179 30.65 46.4009 30.1357 46.4009Z" fill="#D7E9F6"/>
<path d="M38.5348 46.4009H35.7304C35.2161 46.4009 34.7991 46.8179 34.7991 47.3322V50.1366C34.7991 50.651 35.2161 51.0679 35.7304 51.0679H38.5348C39.0491 51.0679 39.4661 50.651 39.4661 50.1366V47.3322C39.4661 46.8179 39.0491 46.4009 38.5348 46.4009Z" fill="#D7E9F6"/>
<path d="M46.9339 46.4009H44.1295C43.6152 46.4009 43.1982 46.8179 43.1982 47.3322V50.1366C43.1982 50.651 43.6152 51.0679 44.1295 51.0679H46.9339C47.4483 51.0679 47.8652 50.651 47.8652 50.1366V47.3322C47.8652 46.8179 47.4483 46.4009 46.9339 46.4009Z" fill="#D7E9F6"/>
</svg>
