<svg width="64" height="64" viewBox="0 0 64 64" fill="none" xmlns="http://www.w3.org/2000/svg">
<rect x="8" y="11" width="24" height="16.8" rx="6" fill="#86B6EB"/>
<rect x="8" y="16.6" width="48" height="36.4" rx="6" fill="#B1CFEF"/>
<path d="M29.5 28C28.1296 28 27 29.1866 27 30.6263V37.6263H27.8333V36.7543H28.6667V30.6263C28.6667 30.127 29.0247 29.7509 29.5 29.7509H32.8333V31.064C32.8333 31.9394 33.25 32.3771 34.0833 32.3771H35.3333V39.3806H36.1667V40.256H37V31.9394C37 31.7069 36.9121 31.4846 36.7559 31.3205L33.8392 28.2565C33.6829 28.0923 33.4714 28 33.25 28H29.5ZM36.1667 40.256H35.3333V41.1246H34.5V42H35.3333V41.1314H36.1667V40.256ZM34.5 41.1246V40.2491H33.6667V41.1246H34.5ZM33.6667 41.1246H32.8333V42H33.6667V41.1246ZM32.8333 41.1246V40.2491H32V41.1246H32.8333ZM32 41.1246H31.1667V42H32V41.1246ZM31.1667 41.1246V40.2491H30.3333V41.1246H31.1667ZM30.3333 41.1246H29.5V42H30.3333V41.1246ZM29.5 41.1246V40.2491H28.6667V41.1246H29.5ZM28.6667 41.1246H27.8333V42H28.6667V41.1246ZM27.8333 41.1246V40.2491H27V41.1246H27.8333ZM27.8333 40.2491H28.6667V39.3737H27.8333V40.2491ZM27.8333 39.3737V38.4983H27V39.3737H27.8333ZM27.8333 38.4983H28.6667V37.6229H27.8333V38.4983Z" fill="#86B6EB"/>
</svg>
