<svg width="64" height="64" viewBox="0 0 64 64" fill="none" xmlns="http://www.w3.org/2000/svg">
<rect x="8" y="11" width="24" height="16.8" rx="6" fill="#86B6EB"/>
<rect x="8" y="16.6" width="48" height="36.4" rx="6" fill="#B1CFEF"/>
<path d="M36.375 28C34.9258 28 33.75 29.1724 33.75 30.625C33.75 30.731 33.7603 30.8403 33.7739 30.9463L29.4468 33.1099C28.958 32.6382 28.3052 32.375 27.625 32.375C26.1758 32.375 25 33.5474 25 35C25 36.4492 26.1758 37.625 27.625 37.625C28.3018 37.6216 28.9546 37.355 29.4399 36.8867L33.7739 39.0503C33.7603 39.1562 33.75 39.2656 33.75 39.375C33.75 40.8242 34.9258 42 36.375 42C37.8242 42 39 40.8242 39 39.375C39 37.9224 37.8242 36.75 36.375 36.75C35.6982 36.75 35.0454 37.0166 34.5601 37.4883L30.2261 35.3213C30.2397 35.2153 30.25 35.106 30.25 35C30.25 34.8906 30.2432 34.7812 30.2295 34.6753L34.5566 32.5117C35.0454 32.98 35.6982 33.2466 36.375 33.25C37.8242 33.25 39 32.0742 39 30.625C39 29.1724 37.8242 28 36.375 28Z" fill="#86B6EB"/>
</svg>
