<svg width="64" height="64" viewBox="0 0 64 64" fill="none" xmlns="http://www.w3.org/2000/svg">
<rect x="8" y="11" width="24" height="16.8" rx="6" fill="#86B6EB"/>
<rect x="8" y="16.6" width="48" height="36.4" rx="6" fill="#B1CFEF"/>
<path d="M29 27C27.3555 27 26 28.3555 26 30V40C26 41.6445 27.3555 43 29 43H35C36.6445 43 38 41.6445 38 40V31.5C38 31.2344 37.8945 30.9805 37.707 30.793L34.207 27.293C34.0195 27.1055 33.7656 27 33.5 27H29ZM29 29H33V30.5C33 31.5 33.5 32 34.5 32H36V40C36 40.5703 35.5703 41 35 41H29C28.4297 41 28 40.5703 28 40V30C28 29.4297 28.4297 29 29 29Z" fill="#86B6EB"/>
</svg>
