<svg width="64" height="64" viewBox="0 0 64 64" fill="none" xmlns="http://www.w3.org/2000/svg">
<rect x="8" y="11" width="24" height="16.8" rx="6" fill="#86B6EB"/>
<rect x="8" y="16.6" width="48" height="36.4" rx="6" fill="#B1CFEF"/>
<path d="M25.4768 31.4829H25V38.5103H25.4529L29.9167 35L25.4768 31.4829Z" fill="#86B6EB"/>
<path d="M31.125 29.75C29.686 29.75 28.5 30.936 28.5 32.375V37.625C28.5 39.064 29.686 40.25 31.125 40.25H36.375C37.814 40.25 39 39.064 39 37.625V32.375C39 30.936 37.814 29.75 36.375 29.75H31.125ZM31.125 31.5H36.375C36.874 31.5 37.25 31.876 37.25 32.375V37.625C37.25 38.124 36.874 38.5 36.375 38.5H31.125C30.626 38.5 30.25 38.124 30.25 37.625V32.375C30.25 31.876 30.626 31.5 31.125 31.5Z" fill="#86B6EB"/>
</svg>
