<svg width="64" height="64" viewBox="0 0 64 64" fill="none" xmlns="http://www.w3.org/2000/svg">
<rect x="8" y="11" width="24" height="16.8" rx="6" fill="#86B6EB"/>
<rect x="8" y="16.6" width="48" height="36.4" rx="6" fill="#B1CFEF"/>
<path d="M32 28C31.541 28 31.1667 28.3931 31.1667 28.875V36.3877L29.2559 34.3813C29.0996 34.2173 28.888 34.125 28.6667 34.125C28.4453 34.125 28.2337 34.2173 28.0775 34.3813C27.752 34.7231 27.752 35.2769 28.0775 35.6187L31.4108 39.1187C31.7363 39.4604 32.2637 39.4604 32.5892 39.1187L35.9225 35.6187C36.248 35.2769 36.248 34.7231 35.9225 34.3813C35.597 34.0396 35.0697 34.0396 34.7441 34.3813L32.8333 36.3877V28.875C32.8333 28.3931 32.459 28 32 28ZM27 40.25V42H37V40.25H27Z" fill="#86B6EB"/>
</svg>
