<svg width="64" height="64" viewBox="0 0 64 64" fill="none" xmlns="http://www.w3.org/2000/svg">
<rect x="8" y="11" width="24" height="16.8" rx="6" fill="#86B6EB"/>
<rect x="8" y="16.6" width="48" height="36.4" rx="6" fill="#B1CFEF"/>
<path d="M32 28C30.3555 28 29 29.3555 29 31V35.3398C28.543 35.125 28.0352 35 27.5 35C25.5781 35 24 36.5781 24 38.5C24 40.4219 25.5781 42 27.5 42C29.4141 42 30.9922 40.4297 31 38.5156C31 38.5117 31 38.5039 31 38.5V31C31 30.4375 31.4375 30 32 30H36C36.5625 30 37 30.4375 37 31V35.3398C36.543 35.125 36.0352 35 35.5 35C33.5781 35 32 36.5781 32 38.5C32 40.4219 33.5781 42 35.5 42C37.4219 42 39 40.4219 39 38.5V31C39 29.3555 37.6445 28 36 28H32ZM27.5 37C28.3398 37 29 37.6602 29 38.5V38.5156C28.9922 39.3477 28.3359 40 27.5 40C26.6602 40 26 39.3398 26 38.5C26 37.6602 26.6602 37 27.5 37ZM35.5 37C36.3398 37 37 37.6602 37 38.5C37 39.3398 36.3398 40 35.5 40C34.6602 40 34 39.3398 34 38.5C34 37.6602 34.6602 37 35.5 37Z" fill="#86B6EB"/>
</svg>
